<svg xmlns="http://www.w3.org/2000/svg" width="104" height="56" fill="#000">
    <path d="M88.326 15.903l-.019-.023c-.006-.008-.015-.012-.023-.019a51.34 51.34 0 0 0-72.569 0l-.023.019-.019.023C10.896 20.659 7.11 26.314 4.532 32.542S.638 45.447.656 52.188c0 .439.174.861.485 1.171a1.66 1.66 0 0 0 1.171.485h13.25a1.66 1.66 0 0 0 1.171-.485c.311-.31.485-.732.485-1.171 0-19.179 15.602-34.781 34.781-34.781S86.78 33.009 86.78 52.188c0 .439.174.861.485 1.171a1.66 1.66 0 0 0 1.171.485h13.249a1.66 1.66 0 0 0 1.657-1.656c.018-6.74-1.299-13.417-3.877-19.645S93.101 20.66 88.324 15.904zM13.942 50.531H3.996c.368-11.595 4.951-22.657 12.892-31.115l7.045 7.045a37.95 37.95 0 0 0-9.991 24.069zm36.402-36.4a37.96 37.96 0 0 0-24.072 9.987l-7.043-7.043A47.66 47.66 0 0 1 50.344 4.187v9.944zm3.312 0V4.187a47.66 47.66 0 0 1 31.115 12.888l-7.043 7.043a37.96 37.96 0 0 0-24.072-9.987zm36.402 36.4a37.95 37.95 0 0 0-9.991-24.069l7.045-7.045a47.66 47.66 0 0 1 12.892 31.115h-9.946zm-43.361-6.305l-13.039-3.338c-.425-.109-.877-.044-1.255.18s-.651.589-.76 1.014a1.66 1.66 0 0 0 .179 1.255 1.65 1.65 0 0 0 1.014.76l13.039 3.338c.003 1.612.595 3.168 1.663 4.376s2.541 1.984 4.141 2.184a6.63 6.63 0 0 0 4.551-1.098c1.333-.907 2.289-2.27 2.688-3.832s.216-3.216-.516-4.653-1.964-2.556-3.463-3.15a6.62 6.62 0 0 0-4.681-.074c-1.518.546-2.783 1.626-3.561 3.039zm9.013 4.017c-.163.635-.51 1.207-.997 1.644s-1.094.72-1.743.813a3.31 3.31 0 0 1-3.319-1.591 3.32 3.32 0 0 1-.458-1.868c.035-.654.264-1.283.657-1.807a3.31 3.31 0 0 1 1.551-1.138c.618-.218 1.287-.247 1.921-.084.851.219 1.58.766 2.027 1.522a3.32 3.32 0 0 1 .36 2.509z"/>
</svg>