<svg width="24" height="24" fill="none" xmlns="http://www.w3.org/2000/svg"><g clip-path="url(#a)"><path d="M12 24c6.627 0 12-5.373 12-12S18.627 0 12 0 0 5.373 0 12s5.373 12 12 12z" fill="#FCFCFC"/><path d="M4.956 11.13 3.652 8.764l1.304-2.33 1.305 2.33-1.305 2.367zM2.348 11.13 1.043 8.764l1.305-2.33 1.304 2.33-1.304 2.367zM4.956 17.565 3.652 15.2l1.304-2.33 1.305 2.33-1.305 2.366zM2.348 17.565 1.043 15.2l1.305-2.33 1.304 2.33-1.304 2.366zM6.26 2.33l-.369-.66c-.662.392-1.283.847-1.856 1.355l.921 1.67L6.261 2.33zM4.956 19.304l-.93 1.662c.572.51 1.192.964 1.854 1.358l.38-.69-1.304-2.33z" fill="#A2001D"/><path d="M7.304 15.13v7.916A11.96 11.96 0 0 0 12 24c5.16 0 9.558-3.256 11.253-7.826L7.304 15.13z" fill="#6DA544"/><path d="M23.253 16.174c.483-1.3.747-2.706.747-4.174 0-6.627-5.373-12-12-12-1.666 0-3.254.34-4.696.954v15.22h15.95z" fill="#A2001D"/></g><defs><clipPath id="a"><path fill="#fff" d="M0 0h24v24H0z"/></clipPath></defs></svg>