<svg width="24" height="24" fill="none" xmlns="http://www.w3.org/2000/svg"><path d="M0 12C0 5.373 5.373 0 12 0v24c-.414 0-.823-.021-1.227-.062C4.722 23.324 0 18.213 0 12z" fill="#0052B4"/><path d="M12 4.696v2.391l-1.017.74.388-1.196-1.017-.74h1.257L12 4.697zM6.835 6.835l1.12.57.889-.888-.197 1.242 1.12.57-1.241.197-.197 1.242-.57-1.12-1.242.196.889-.889-.571-1.12zM4.696 12l1.195-.388v-1.257l.74 1.017 1.195-.389L7.086 12l.74 1.018-1.196-.389-.739 1.017V12.39L4.696 12zM6.835 17.165l.57-1.12-.888-.889 1.241.197.571-1.12.197 1.241 1.242.197-1.12.57.196 1.242-.889-.889-1.12.571zM12 19.304l-.389-1.195h-1.257l1.017-.74-.388-1.195 1.017.739v2.391z" fill="#FFDA44"/><path d="M24 12c0 6.627-5.373 12-12 12V0c6.627 0 12 5.373 12 12z" fill="#F0F0F0"/><path d="m12 17.217 11.254-1.043c.482-1.3.746-2.706.746-4.174a11.962 11.962 0 0 0-.746-4.174H12v9.391z" fill="#0052B4"/><path d="M12 24c5.16 0 9.558-3.256 11.254-7.826H12V24z" fill="#D80027"/><path d="M13 23.959a12.16 12.16 0 0 1-2 0V.04a12.16 12.16 0 0 1 2 0V23.96z" fill="#fff"/></svg>