<svg width="24" height="24" fill="none" xmlns="http://www.w3.org/2000/svg"><path d="M0 12C0 5.373 5.373 0 12 0v24c-.414 0-.823-.021-1.227-.062C4.722 23.324 0 18.213 0 12z" fill="#0052B4"/><path d="M12 4.696v2.391l-1.017.74.388-1.196-1.017-.74h1.257L12 4.697zM6.835 6.835l1.12.57.889-.888-.197 1.242 1.12.57-1.241.197-.197 1.242-.57-1.12-1.242.196.889-.889-.571-1.12zM4.696 12l1.195-.388v-1.257l.74 1.017 1.195-.389L7.086 12l.74 1.018-1.196-.389-.739 1.017V12.39L4.696 12zM6.835 17.165l.57-1.12-.888-.889 1.241.197.571-1.12.197 1.241 1.242.197-1.12.57.196 1.242-.889-.889-1.12.571zM12 19.304l-.389-1.195h-1.257l1.017-.74-.388-1.195 1.017.739v2.391z" fill="#FFDA44"/><path d="M22.806 17.225A12 12 0 0 1 12 24V0c.414 0 .823.021 1.227.062 4.437.45 8.16 3.319 9.83 7.267C23.664 8.765 24 10.343 24 12a11.91 11.91 0 0 1-1.194 5.225z" fill="#F0F0F0"/><path d="M24 12c0-1.083-.144-2.132-.413-3.13H12V12h12zM12 2.609h7.47a12.064 12.064 0 0 1 2.769 3.13H12V2.61zM13.65 23.887c-.54.075-1.09.113-1.65.113v-2.609h7.47a11.945 11.945 0 0 1-5.82 2.497zM12 15.13h11.587a11.926 11.926 0 0 1-1.348 3.13H12v-3.13z" fill="#D80027"/><path d="M13 23.959a12.16 12.16 0 0 1-2 0V.04a12.16 12.16 0 0 1 2 0V23.96z" fill="#fff"/></svg>