<svg width="24" height="24" fill="none" xmlns="http://www.w3.org/2000/svg"><path d="M12 24c6.627 0 12-5.373 12-12S18.627 0 12 0 0 5.373 0 12s5.373 12 12 12z" fill="#F0F0F0"/><path d="M2.48 4.694A11.956 11.956 0 0 0 .414 8.87h6.243L2.481 4.694zM23.587 8.87a11.96 11.96 0 0 0-2.068-4.176L17.344 8.87h6.242zM.413 15.13a11.957 11.957 0 0 0 2.068 4.176l4.175-4.175H.413zM19.306 2.48A11.957 11.957 0 0 0 15.13.414v6.243l4.176-4.175zM4.694 21.52a11.957 11.957 0 0 0 4.176 2.067v-6.243l-4.176 4.175zM8.87.413a11.957 11.957 0 0 0-4.176 2.068L8.87 6.656V.413zM15.13 23.587a11.957 11.957 0 0 0 4.176-2.068l-4.176-4.175v6.243zM17.344 15.13l4.175 4.176a11.96 11.96 0 0 0 2.068-4.175h-6.243z" fill="#0052B4"/><path d="M23.898 10.435H13.565V.102a12.12 12.12 0 0 0-3.13 0v10.333H.102a12.12 12.12 0 0 0 0 3.13h10.333v10.333a12.12 12.12 0 0 0 3.13 0V13.565h10.333a12.12 12.12 0 0 0 0-3.13z" fill="#D80027"/><path d="m15.13 15.13 5.355 5.355c.247-.246.482-.503.706-.77l-4.585-4.585H15.13zM8.87 15.13l-5.355 5.355c.246.247.503.482.77.706l4.585-4.585v-1.475zM8.87 8.87 3.514 3.515c-.247.246-.482.503-.706.77L7.394 8.87h1.475zM15.13 8.87l5.355-5.355a12.02 12.02 0 0 0-.77-.706L15.13 7.394V8.87z" fill="#D80027"/></svg>