<svg width="24" height="24" fill="none" xmlns="http://www.w3.org/2000/svg"><path d="M12 24c6.627 0 12-5.373 12-12S18.627 0 12 0 0 5.373 0 12s5.373 12 12 12z" fill="#338AF3"/><path d="M18.782 12.13H5.217c0 .937.816 1.696 1.752 1.696h-.056c0 .936.759 1.696 1.695 1.696 0 .936.76 1.695 1.696 1.695h3.391c.937 0 1.696-.759 1.696-1.695.937 0 1.696-.76 1.696-1.696h-.057c.937 0 1.752-.76 1.752-1.696z" fill="#FFDA44"/><path d="M16.695 9.913a4.696 4.696 0 0 1-9.39 0" fill="#338AF3"/><path d="m15.587 9.913-1.466.69.78 1.419-1.59-.305-.203 1.608L12 12.143l-1.108 1.182-.202-1.608-1.591.305.78-1.42-1.466-.689 1.466-.69-.78-1.419 1.59.305.203-1.608L12 7.684 13.11 6.5l.201 1.608 1.592-.305-.78 1.42 1.465.69z" fill="#FFDA44"/></svg>