<svg width="24" height="24" fill="none" xmlns="http://www.w3.org/2000/svg"><path d="M0 12c0 6.627 5.373 12 12 12V0C5.373 0 0 5.373 0 12z" fill="#F0F0F0"/><path d="M12 8.87h-.522V12H12V8.87zM12 2.609h-.522v3.13H12V2.61zM12 21.391H4.53A11.946 11.946 0 0 0 12 24v-2.609zM12 15.13H.413c.301 1.117.758 2.169 1.348 3.13H12v-3.13z" fill="#D80027"/><path fill-rule="evenodd" clip-rule="evenodd" d="M11.922 0C9.582.015 7.4.7 5.56 1.874h1.093l-1.017.739.389 1.196-1.018-.74-1.017.74.336-1.033c-.896.746-1.68 1.62-2.328 2.594h.35l-.647.47c-.1.168-.197.34-.29.513l.31.951-.578-.419C1 7.19.868 7.5.75 7.817l.34 1.048h1.258l-1.017.74.388 1.195-1.017-.739-.61.443C.033 10.994 0 11.494 0 12h12V0h-.078zM5.006 10.061l1.018.739-.389-1.196 1.017-.739H5.395L5.006 7.67l-.388 1.195H3.36l1.017.74-.389 1.195 1.017-.739zm1.018-2.757L5.635 6.11l1.017-.74H5.395l-.389-1.195-.388 1.196H3.36l1.017.739-.389 1.195 1.017-.739 1.018.74zm3.287 2.757 1.017.739-.389-1.196 1.018-.739H9.698L9.311 7.67l-.389 1.195H7.665l1.017.74-.388 1.195 1.017-.739zm1.017-2.757L9.939 6.11l1.018-.74H9.698l-.388-1.195-.389 1.196H7.665l1.017.739-.388 1.195 1.017-.739 1.017.74zm0-3.495-.389-1.196 1.018-.739H9.698L9.311.678l-.389 1.196H7.665l1.017.739-.388 1.196 1.017-.74 1.017.74z" fill="#0052B4"/><path d="M24 12c0 6.627-5.373 12-12 12V0c6.627 0 12 5.373 12 12z" fill="#F0F0F0"/><path d="m12 17.217 11.254-1.043c.482-1.3.746-2.706.746-4.174a11.962 11.962 0 0 0-.746-4.174H12v9.391z" fill="#0052B4"/><path d="M12 24c5.16 0 9.558-3.256 11.254-7.826H12V24z" fill="#D80027"/><path d="M13 23.959a12.16 12.16 0 0 1-2 0V.04a12.16 12.16 0 0 1 2 0V23.96z" fill="#fff"/></svg>