<svg width="32" height="32" fill="none" xmlns="http://www.w3.org/2000/svg"><path fill-rule="evenodd" clip-rule="evenodd" d="M3 3h26v26H3V3z" fill="#04734A"/><path fill-rule="evenodd" clip-rule="evenodd" d="M14.803 27.632c0-5.645-4.619-10.092-10.092-10.092v4.447a5.768 5.768 0 0 1 5.815 5.816h4.277v-.171z" fill="#fff"/><path fill-rule="evenodd" clip-rule="evenodd" d="M20.96 27.631c0-9.065-7.355-16.42-16.42-16.42v4.447c6.67 0 11.973 5.302 11.973 11.973h4.448z" fill="#fff"/><path fill-rule="evenodd" clip-rule="evenodd" d="M27.119 27.632c0-7.527-3.593-14.027-9.237-18.303h9.236V4.882H4.54v4.447c10.092 0 18.131 8.21 18.131 18.132h4.448v.17z" fill="#fff"/></svg>