<svg width="32" height="32" fill="none" xmlns="http://www.w3.org/2000/svg"><path fill-rule="evenodd" clip-rule="evenodd" d="M27.66 13.46c-1.024-1.241-3.384-.67-5.426.296.018.23.028.462.028.697 0 2.765-1.276 5.186-3.163 6.472 1.247-.079 2.75-.448 4.388-1.502 2.997-1.928 5.178-4.37 4.173-5.962zm-23.32 0c1.024-1.242 3.383-.67 5.426.296a8.86 8.86 0 0 0-.028.697c0 2.765 1.276 5.186 3.164 6.472-1.247-.079-2.75-.448-4.39-1.502-2.996-1.928-5.177-4.37-4.173-5.962zm26.617 5.365c-.693-.595-2.049-.889-3.591-.994-.753 1.072-1.814 2.118-3.069 3a9.8 9.8 0 0 1-1.734.966 19.68 19.68 0 0 0 2.635-.187c3.909-.544 6.852-1.584 5.76-2.785zM4.38 17.447c-1.942.247-3.484.716-3.992 1.26-1.44 1.582 1.304 3.242 5.545 3.95 2.437.406 7.778.706 10.069-.647 2.289 1.353 7.631 1.054 10.067.647 4.241-.708 6.986-2.367 5.545-3.95-.508-.544-2.05-1.013-3.992-1.26.988-1.571 1.288-3.163.54-4.351-.723-1.115-3.379-1.26-6.041-.223C21.508 9.523 18.994 7 16 7s-5.508 2.522-6.12 5.873c-2.662-1.036-5.318-.892-6.04.223-.75 1.188-.45 2.78.539 4.351zm-3.336 1.378c.693-.595 2.049-.889 3.591-.994.752 1.072 1.813 2.118 3.069 3a9.82 9.82 0 0 0 1.733.966 19.668 19.668 0 0 1-2.634-.187c-3.909-.544-6.853-1.584-5.76-2.785zM16 7.73c2.4 0 4.393 2.535 4.71 5.807-.309.174-.612.364-.907.572-.22.154-.434.314-.645.478l-.039 1.153c.367-.345.944-.769 1.635-1.188-.039 3.656-2.159 6.622-4.754 6.622-2.595 0-4.715-2.965-4.754-6.622.69.42 1.268.843 1.634 1.188l-.038-1.153c-.211-.164-.426-.324-.645-.478a10.659 10.659 0 0 0-.907-.572c.317-3.272 2.31-5.807 4.71-5.807z" fill="#26528E"/></svg>