<svg width="32" height="32" fill="none" xmlns="http://www.w3.org/2000/svg"><path fill-rule="evenodd" clip-rule="evenodd" d="M21.055 3c.52.225.973.485 1.457.776l-11.62 7.008-5.408-3.255c.278-.395.586-.797.904-1.16l4.52 2.693L21.056 3zm2.841 1.666L10.91 12.463 4.726 8.766c-.245.44-.456.85-.652 1.319l6.835 4.091L24.99 5.71c-.374-.37-.682-.72-1.095-1.043zm2.13 2.158-15.12 9.066-7.338-4.378c-.138.464-.263.951-.352 1.436l7.675 4.621 15.986-9.537c-.267-.418-.54-.824-.85-1.208zm1.523 2.44L10.873 19.267l-7.842-4.74c-.02.314-.031.63-.031.947C3 22.943 8.822 29 16 29s13-6.057 13-13.526a13.9 13.9 0 0 0-1.45-6.21z" fill="#68A548"/></svg>