<svg width="32" height="32" fill="none" xmlns="http://www.w3.org/2000/svg"><path fill-rule="evenodd" clip-rule="evenodd" d="M25.186 6.814A12.928 12.928 0 0 1 29 16H16l9.186-9.186z" fill="#CC2128"/><path fill-rule="evenodd" clip-rule="evenodd" d="M16 3c3.58 0 6.811 1.479 9.186 3.814L16 16V3z" fill="#982531"/><path fill-rule="evenodd" clip-rule="evenodd" d="M3 3h13v13L3 3z" fill="#CC2128"/><path fill-rule="evenodd" clip-rule="evenodd" d="M3 10.434V3l13 13H8.566L3 10.434zM25.186 25.186A12.928 12.928 0 0 0 29 16H16l9.186 9.186z" fill="#982531"/><path fill-rule="evenodd" clip-rule="evenodd" d="M16 29c3.58 0 6.811-1.479 9.186-3.814L16 16v13z" fill="#B31F27"/><path fill-rule="evenodd" clip-rule="evenodd" d="M3 29h13V16L3 29z" fill="#CC2128"/><path fill-rule="evenodd" clip-rule="evenodd" d="M3 21.566V29l13-13H8.566L3 21.566z" fill="#B31F27"/><path fill-rule="evenodd" clip-rule="evenodd" d="m12.264 15.688 1.479-1.479-3.114-3.113H5.686l4.592 4.592h1.986zM15.689 12.264l-1.48 1.479-3.113-3.114V5.686l4.593 4.592v1.986zM15.689 19.737l-1.48-1.48-3.113 3.114v4.944l4.593-4.593v-1.985zM12.264 16.311l1.479 1.48-3.114 3.113H5.686l4.592-4.593h1.986zM19.737 16.311l-1.48 1.48 3.114 3.113h4.943l-4.592-4.593h-1.985zM16.311 19.737l1.48-1.48 3.113 3.114v4.944l-4.593-4.593v-1.985zM16.311 12.264l1.48 1.479 3.113-3.114V5.686l-4.593 4.592v1.986zM19.737 15.688l-1.48-1.479 3.114-3.113h4.943l-4.592 4.592h-1.985z" fill="#fff"/></svg>