<svg width="32" height="32" fill="none" xmlns="http://www.w3.org/2000/svg"><g clip-path="url(#a)" fill="#1E45A1"><path d="M18.8 13.51h8.935c.021-.057.038-.117.05-.178.03-.12.061-.239.08-.358H6.33l-.1.348h12.61l-.04.189zM19 12.617h8.926c.03-.188.04-.367.061-.548H6.57l-.09.36h12.57l-.05.188zM11.35 17.11l14.216.02c-.21-.229-.572-.407-.773-.556H5.345l-.09.327h6.146l-.051.21zM19.21 11.714h8.786a4.708 4.708 0 0 0-.01-.536H6.82l-.1.347h12.53l-.04.19zM18.588 14.407h8.715c.113-.17.21-.35.291-.537H6.078l-.09.357h12.641l-.04.18zM18.378 15.311h8.152c.18-.167.348-.346.502-.537H5.837l-.09.329h12.68l-.05.208zM12.986 10.819h14.97a5.15 5.15 0 0 0-.08-.537H7.061l-.1.347h6.064l-.04.19zM21.69 5.421h1.898l-.512-.537-14.558.02-.09.329H21.74l-.05.188zM13.187 9.914h14.598a.95.95 0 0 0-.04-.15l-.372-.387-20.07.02-.09.328h6.024l-.05.189zM21.932 4.527h.793L22.233 4H8.769l-.09.338h13.303l-.05.189zM21.45 6.316h3.002l-.523-.537-15.652.02-.09.338H21.5l-.05.179zM13.398 9.02h13.634l-.522-.537-18.966.02-.09.328h5.984l-.04.189zM21.219 7.22h4.086l-.512-.536-16.757.02-.09.328h13.323l-.05.188zM20.978 8.115h5.19l-.511-.537-17.872.02-.09.338h13.333l-.05.179zM11.58 16.206h13.816c.22-.15.472-.328.733-.537H5.597l-.09.339h6.133l-.06.198zM4.984 22.497l22.028.01c.06-.18.107-.362.14-.548H4.443l.542.538zM5.888 23.402H26.69c.061-.17.14-.328.18-.537H5.346l.543.537zM6.791 24.296H26.19c.15-.218.22-.328.341-.536H6.26l.531.536zM4 21.523l.08.08h23.143c.045-.17.072-.343.08-.518l-23.172-.02-.131.458zM7.705 25.201h17.841c.14-.169.271-.348.4-.537H7.163l.542.537zM21.747 20.16H4.372l-.09.339h6.164l-.06.198 16.958.03a4.9 4.9 0 0 0 .01-.536c-15.548-.022-8.996-.028-5.607-.03zM11.108 18.005l15.462.03a3.302 3.302 0 0 0-.512-.537c-7.901-.02-4.91-.03-20.954-.03l-.09.338h6.145l-.05.199zM8.608 26.095h15.814c.284-.137.545-.318.773-.536H8.066l.542.536zM10.867 18.91l16.225.019a4.523 4.523 0 0 0-.27-.537h-1.497l-20.461-.02-.09.329 6.144.01-.05.198zM9.512 27h11.185c.793-.01 2.491-.248 3.092-.537H8.971l.541.537zM16.02 19.266c14.384-.003.085-.013 0 0zM10.627 19.804l16.686.03c-.03-.198-.04-.348-.1-.537-8.635-.015-11.227-.025-11.192-.03H4.613l-.09.328h6.164l-.06.209z"/><path d="M19 12.617h8.926c.03-.188.04-.367.061-.548H6.57l-.09.36h12.57l-.05.188zM18.8 13.51h8.935c.021-.057.038-.117.05-.178.03-.12.061-.239.08-.358H6.33l-.1.348h12.61l-.04.189zM19.21 11.714h8.786a4.708 4.708 0 0 0-.01-.536H6.82l-.1.347h12.53l-.04.19zM12.986 10.819h14.97a5.15 5.15 0 0 0-.08-.537H7.061l-.1.347h6.064l-.04.19zM11.58 16.206h13.816c.22-.15.472-.328.733-.537H5.597l-.09.339h6.134l-.06.198zM18.588 14.407h8.715c.113-.17.21-.35.291-.537H6.078l-.09.357h12.641l-.04.18zM18.378 15.311h8.152c.18-.167.348-.346.502-.537H5.837l-.09.329h12.68l-.05.208zM21.219 7.22h4.086l-.512-.536-16.757.02-.09.328h13.323l-.05.188zM13.187 9.914h14.598a.918.918 0 0 0-.04-.15l-.372-.387-20.07.02-.09.328h6.024l-.05.189zM21.45 6.316h3.002l-.523-.537-15.652.02-.09.338H21.5l-.05.179zM21.932 4.527h.793L22.233 4H8.769l-.09.338h13.303l-.05.189zM21.69 5.421h1.898l-.512-.537-14.558.02-.09.329H21.74l-.05.188zM11.35 17.11l14.216.02c-.21-.229-.572-.407-.773-.556H5.345l-.09.327h6.146l-.051.21zM13.398 9.02h13.634l-.522-.537-18.966.02-.09.328h5.984l-.04.189zM20.978 8.115h5.19l-.512-.537-17.871.02-.09.338h13.333l-.05.179zM4.984 22.497l22.028.01c.06-.18.107-.362.14-.548H4.443l.542.538zM5.888 23.402H26.69c.061-.17.14-.328.18-.537H5.346l.543.537zM6.791 24.296H26.19c.15-.218.22-.328.341-.536H6.26l.531.536zM4 21.523l.08.08h23.143c.045-.17.072-.343.08-.518l-23.172-.02-.131.458zM21.763 20.16H4.372l-.09.339h6.164l-.06.198 16.958.03a4.9 4.9 0 0 0 .01-.536c-15.573-.022-8.975-.028-5.591-.03zM7.705 25.201h17.841c.14-.169.271-.348.4-.537H7.163l.542.537zM9.512 27h11.185c.793-.01 2.491-.248 3.092-.537H8.971l.541.537zM10.898 18.91l16.307.019a4.457 4.457 0 0 0-.272-.537h-1.504l-20.565-.02-.092.329 6.175.01-.049.198zM8.608 26.095h15.814c.284-.137.545-.318.773-.536H8.066l.542.536zM11.108 18.005l15.462.03a3.316 3.316 0 0 0-.512-.537c-7.901-.02-4.91-.03-20.954-.03l-.09.337h6.145l-.05.2zM10.627 19.804l16.686.03c-.03-.198-.04-.348-.1-.537-8.632-.015-11.227-.025-11.192-.03H4.613l-.09.328h6.164l-.06.209zM16.02 19.266c14.385-.003.08-.013 0 0z"/></g><defs><clipPath id="a"><path fill="#fff" transform="translate(4 4)" d="M0 0h24v23H0z"/></clipPath></defs></svg>