<svg width="32" height="32" fill="none" xmlns="http://www.w3.org/2000/svg"><path d="M14.735 8.866A5.868 5.868 0 0 1 3 8.866 5.865 5.865 0 0 1 8.867 3a5.867 5.867 0 0 1 5.868 5.866zm14.265 0a5.865 5.865 0 1 0-11.729 0 5.868 5.868 0 0 0 5.863 5.867A5.868 5.868 0 0 0 29 8.866zM14.735 23.134a5.867 5.867 0 0 0-5.868-5.863 5.864 5.864 0 1 0 0 11.729 5.87 5.87 0 0 0 5.868-5.866zm14.265 0a5.864 5.864 0 0 0-5.866-5.863 5.863 5.863 0 0 0-5.863 5.863A5.866 5.866 0 0 0 23.134 29 5.866 5.866 0 0 0 29 23.134z" fill="#009DE0"/></svg>