<svg width="32" height="32" fill="none" xmlns="http://www.w3.org/2000/svg"><path fill-rule="evenodd" clip-rule="evenodd" d="M29.128 19.8S5.373 9.062 5.138 8.944c-.701-.236-1.637.354-1.052 1.18.117.118 1.99 2.832 1.99 2.832s-.586-.944-.469-1.298c0-.236.351-.472.468-.354.234.118 22.585 9.794 22.585 9.794.819.354 1.52.118 1.755-.472.234-.472.351-1.062.468-1.534-.234.118-.702 1.18-1.755.708zm1.755-4.13c0 .236-.234 1.416-1.521.826-.234 0-26.797-12.39-27.149-12.626-.468-.236-1.638.118-1.053 1.298L3.267 8.59s-.351-.826-.468-1.534c0-.236.234-.472.585-.354 0 0 25.86 11.446 26.095 11.564.585.236 1.404.118 1.521-.59v-.708c-.117-.472-.117-.826-.117-1.298zm-2.457 6.608c-.117 0-20.362-8.614-20.596-8.614-.702-.236-1.17.354-.702 1.062 0 .118 1.638 2.124 1.638 2.124s-.35-.59-.35-.826.116-.59.702-.354c.468.236 18.723 7.67 18.723 7.67.585.236 1.053.236 1.287-.118a7.54 7.54 0 0 0 .936-1.652c-.351.236-.82 1.062-1.638.708z" fill="#EF3627"/><path d="M9 17.558c.352 5.664 5.15 10.266 11 10.266a11.02 11.02 0 0 0 8.426-3.894s-.351.236-.82 0c0 0-14.86-5.664-17.903-6.726h-.234c-.351 0-.468.236-.468.354zM13.799 8l15.447 7.198c1.404.708 1.521-.236 1.521-.236-.936-5.074-5.5-8.85-10.766-8.85-2.34 0-4.446.708-6.202 1.888z" fill="#1258A9"/></svg>