<svg width="32" height="32" fill="none" xmlns="http://www.w3.org/2000/svg"><path d="M5.146 9.872a1.753 1.753 0 0 0 .623.746c.808.587 2.08.67 3.26.107.992-.47 1.671-1.272 1.896-2.11.026-.087.051-.18.062-.266v-.005a1.384 1.384 0 0 0-.2-.971c-.23-.338-.603-.537-1.037-.593.266.143.475.347.603.608.123.25.158.537.118.813-.087.618-.517 1.119-.593 1.2-.67.726-1.395.971-1.518 1.017-1.145.48-2.386.22-2.908-.664a1.811 1.811 0 0 1-.21-1.211c.021-.169.077-.342.154-.532.138-.352.44-.725.65-.95.066-.077.341-.327.428-.394.49-.393.925-.582.971-.603.731-.332 1.068-.398 1.344-.465.43-.107 1.15-.158 1.242-.158.42-.01.818.01 1.196.072.204.035.613.127.613.127a7.77 7.77 0 0 0 1.405.22c1.33.077 2.545-.204 3.45-.71-.026.02-.051.046-.077.066-1.267.787-2.652 2.586-3.73 4.932a9.43 9.43 0 0 0-1.758.52c-1.334.527-2.448 1.294-2.693 1.825.378-.46 1.425-1.058 2.734-1.513a10.996 10.996 0 0 1 1.804-.47c.986-.148 2.463-.286 4.19-.393.19-.01.644-.036.67-.036 0 0 1.313-.046 2.14-.245.016-.005.026-.01.041-.01.302-.067.624-.164.956-.307a7.136 7.136 0 0 0 .624-.322c.02-.01.076-.046.081-.046a8.407 8.407 0 0 0 1.452-1.073c.868-.792 1.512-1.671 1.86-2.473a28.3 28.3 0 0 1 .138-.328c.025-.071.046-.138.066-.21.281-.883.256-1.593-.143-1.92-.286-.205-.705-.225-1.2-.072h-.011c-.02.005-.04.015-.066.02-.031.01-.062.02-.087.031-.082.03-.164.061-.246.097l-.025.015a3.74 3.74 0 0 0-.25.123c-.01.005-.021.01-.026.015-.88.465-1.896 1.319-2.821 2.443-.097.118-.27.353-.27.353-.88 1.267-2.101 3.577-2.101 3.577-.245.02-2.642.148-3.082.184.363-.71.608-1.18.608-1.18a41.227 41.227 0 0 1 2.029-3.659c-.67.664-1.395 1.645-2.034 2.81-.153.276-.674 1.324-1.052 2.065l-.343.03.64-1.241a15.81 15.81 0 0 1 1.292-2.188 14.801 14.801 0 0 1 1.671-2.018c-.112.046-.23.107-.353.174l.005-.006c-.863.465-2.1.634-3.413.389-.358-.067-1.206-.337-1.298-.363-1.017-.281-2.305-.26-3.628.148a7.4 7.4 0 0 0-2.116 1.022 3.572 3.572 0 0 0-.332.235c-.986.772-1.554 1.825-1.584 2.77.01.026-.036.475.189.95-.005 0-.005 0 0 0zm15.172-1.263.184-.383c.051-.112.179-.368.184-.378.056-.118.189-.378.194-.388.067-.123.128-.25.194-.379l.031-.056c.066-.128.138-.26.21-.393.137-.256.286-.511.444-.762.44-.725 1.313-1.977 1.319-1.983.005-.005.01-.01.015-.02.005-.005.21-.276.536-.526.062-.036.19-.097.19-.097.209-.087.413-.098.556 0 .164.112.225.342.19.618 0 .04-.006.066-.006.066-.02.128-.05.266-.091.404 0 .005-.006.01-.006.015a4.328 4.328 0 0 1-.133.414c-.265.741-.715 1.559-1.328 2.34-.179.23-.368.45-.562.66-.097.102-.2.204-.302.307l-.046.046c-.097.097-.2.184-.301.27-.01.01-.02.016-.03.026-.098.082-.195.158-.292.235-.01.01-.02.02-.03.026-.098.076-.2.143-.297.21-.02.01-.036.025-.056.035a3.704 3.704 0 0 1-.287.179l-.025.015c-.092.051-.18.092-.266.133-.015.01-.03.015-.051.026-.092.04-.174.076-.26.102-.021.005-.036.01-.052.015a3.071 3.071 0 0 1-.25.067c.04-.062.378-.752.424-.844zm-5.386 17.002c.174-.2.342-.393.495-.593.67-.828 1.503-2.555 1.503-2.555l3.22-6.3c.326-.69.76-1.437 1.287-2.188a15.936 15.936 0 0 1 1.666-2.024c-.45.19-.986.568-1.543 1.084-1.17.925-2.29 2.442-3.49 4.9l-2.31 4.835-.332.628c-.154.358-.476.87-.849 1.436-.322.49-1.114 1.35-1.283 1.498l-.01.01c-.306.27-.649.526-1.022.751a8.99 8.99 0 0 1-.378.21c-.046.02-.352.178-.557.255-.066.026-.46.2-.956.312-.076.015-.495.117-.96.148-.113.005-.225.015-.332.01 0 0-.384-.01-.568-.035-.97-.149-1.758-.65-2.074-1.436-.563-1.39.546-3.148 2.473-3.925a5.167 5.167 0 0 1 1.053-.297c.005 0 .363-.066.49-.081 1.584-.169 2.954.46 3.056 1.41.102.945-1.104 1.855-2.688 2.024-1.334.143-2.514-.281-2.913-.981.01.046.016.086.031.132.353 1.135 1.947 1.646 3.557 1.145 1.61-.5 2.626-1.83 2.274-2.964-.118-.378-.373-.68-.716-.904-1.052-.731-2.718-.859-4.323-.21-2.238.9-3.516 2.954-2.857 4.59.353.873 1.186 1.445 2.223 1.655.302.061 1.079.184 2.213-.01a7.986 7.986 0 0 0 1.35-.358c1.19-.42 2.197-1.058 2.922-1.789.128-.143.348-.383.348-.383zm6.842-11.135c.404-.741.808-1.436 1.201-2.06-.67.665-1.39 1.646-2.028 2.811-.154.276-.292.557-.425.828l-3.618 7.078a10.74 10.74 0 0 1-.996 1.68c-.802 1.13-1.671 1.968-2.218 2.203.583-.086 1.59-.899 2.51-2.074a9.54 9.54 0 0 0 1-1.564c.021-.026 4.278-8.355 4.574-8.902zm2.709 4.124c-1.544-1.104-3.925-.424-5.325 1.518 1.615-1.503 3.592-2.004 4.676-1.089.5.43.73 1.099.715 1.876 0 .04-.005.076-.01.112l-.015.22a4.87 4.87 0 0 1-.138.736 7.964 7.964 0 0 1-.752 1.768 7.815 7.815 0 0 1-1.553 1.885c-.112.103-.409.348-.44.373a8.4 8.4 0 0 1-1.063.715 4.473 4.473 0 0 1-.306.164c-.01.006-.02.016-.036.02-.715.348-1.073.394-1.093.405-.66.153-1.222.107-1.6-.174-.005-.005-.148-.128-.153-.143-.245-.307-.276-.583-.286-.644-.087-.516.056-1.16.409-1.81.342-.643.873-1.323 1.558-1.946.046-.041.092-.087.138-.133.245-.215.49-.409.736-.593 1.078-.73 2.157-.955 2.57-.475.174.204.205.506.118.863.22-.337.291-.69.164-.99-.23-.527-1.007-.716-1.84-.496 0 0-.399.122-.756.316a7.43 7.43 0 0 0-1.426.961c-1.927 1.66-2.668 3.96-1.656 5.13.593.686 1.656.829 2.82.502.916-.225 1.958-.741 2.955-1.518 1.195-.935 2.049-2.04 2.422-3.005.751-1.738.46-3.623-.833-4.548zm4.676-8.514c-.7.245-1.39.363-2.034.383-1.4.052-3.777.01-3.777.01-.541.01-3.28-.122-3.7-.127-.608-.005-1.252-.02-1.92 0-2.025.072-3.829.27-5.06.521-.286.056-.843.205-.884.215-.981.276-1.845.659-2.52 1.088-.383.235-.71.496-.965.782a3.194 3.194 0 0 0-.164.2c-.04.05-.168.25-.168.255-.22.383-.307.777-.22 1.16.174.797 1.047 1.339 2.218 1.508l-.23.444c-.159.358-.476.869-.849 1.436-.327.496-1.114 1.354-1.282 1.503-.005 0-.01.005-.01.01a7.115 7.115 0 0 1-1.4.955 1.7 1.7 0 0 0-.139.067c-.644.312-1.022.403-1.37.495-.07.02-.147.036-.219.052-.046.01-.097.015-.148.025-.383.077-.93.092-.93.092-1.227-.01-2.264-.542-2.642-1.477-.557-1.395.547-3.153 2.473-3.925.072-.04.153-.071.23-.097.49-.194 1.18-.27 1.308-.286 1.584-.168 2.954.46 3.056 1.406.102.945-1.104 1.855-2.688 2.023-1.334.143-2.514-.28-2.913-.98l.031.127c.353 1.134 1.942 1.65 3.552 1.145 1.61-.501 2.626-1.83 2.274-2.964-.118-.379-.373-.68-.716-.905-1.052-.73-2.713-.858-4.323-.215-2.238.9-3.516 2.96-2.857 4.595.281.7.874 1.206 1.63 1.492.63.27 1.539.276 1.539.276.27 0 .547-.02.833-.056a8.332 8.332 0 0 0 1.783-.42c1.19-.419 2.203-1.057 2.923-1.788.133-.138.353-.373.353-.373.174-.2.342-.399.496-.593.434-.531.93-1.436 1.231-2.013.107 0 .225-.01.332-.02-.025.05-.235.464-.322.628-.204.383-.46.787-.756 1.2-.802 1.13-1.671 1.973-2.218 2.203.583-.087 1.59-.9 2.51-2.075.347-.444.633-.884.863-1.298h.005s.113-.214.164-.317c.056-.107.122-.24.204-.393a6.762 6.762 0 0 0 2.325-.787h-.005c.823-.49 1.272-1.247 1.027-1.809-.179-.409-.685-.618-1.303-.598.322.102.562.286.66.542.26.68-.532 1.61-1.769 2.085-.117.04-.235.082-.347.117-.169.051-.389.087-.41.092.543-1.052 1.386-2.703 2.117-4.129.184-.015.367-.03.429-.04.434-.041 1.87-.062 2.197-.052.159.005.312.01.46.02l-3.771 7.431-.511.981c-.02.046-.041.092-.056.133-.098.26-.098.547.04.777a.81.81 0 0 0 .404.347.676.676 0 0 0 .337.072h.02c.348 0 .85-.118 1.376-.348.546-.235.99-.536 1.216-.802.005-.005.27-.327.276-.327l-.368.358c-.102.097-.24.178-.332.214l-.046.016s-.006 0-.01.005a.558.558 0 0 1-.603-.184.223.223 0 0 1-.031-.036c-.005-.005-.005-.01-.01-.01a.436.436 0 0 1-.082-.194.475.475 0 0 1-.016-.123c0-.051.01-.102.02-.148.031-.148.083-.271.093-.297l3.776-7.736.026-.046c.337.01.68.02 1.022.035 2.719.128 5.263.108 6.638-.046.061-.005.123-.015.184-.02.47-.062.843-.138 1.094-.23.178-.051.352-.102.531-.164C30.216 10.5 31.606 9.31 32 8.154c-.598.777-1.6 1.493-2.841 1.932zm-19.046 5.708c-1.13-.107-1.962-.557-2.095-1.231-.19-.93.996-1.973 2.713-2.453.22-.061.455-.123.716-.179.225-.046.408-.077.654-.123l-1.988 3.986zm1.354-.03c-.117.015-.23.025-.342.03.066-.133 2.12-4.16 2.12-4.16.016-.005.338-.035.348-.04-.746 1.466-1.6 3.137-2.126 4.17z" fill="#8F2041"/></svg>