<svg width="32" height="32" fill="none" xmlns="http://www.w3.org/2000/svg"><path fill-rule="evenodd" clip-rule="evenodd" d="M15.537 28.074a12.037 12.037 0 1 1 12.037-12.032 12.01 12.01 0 0 1-12.037 12.032z" fill="#FFEC00"/><path fill-rule="evenodd" clip-rule="evenodd" d="M15.537 28.074a12.037 12.037 0 1 1 12.037-12.032 12.01 12.01 0 0 1-12.037 12.032z" fill="#FFEC00"/><path d="M19.771 4.567A11.387 11.387 0 0 0 16.116 4h-.09A12.54 12.54 0 0 0 7.17 7.662 12.486 12.486 0 0 0 3.5 16.5c0 3.315 1.32 6.495 3.669 8.839A12.54 12.54 0 0 0 16.026 29h.09a11.585 11.585 0 0 0 3.655-.662 12.49 12.49 0 0 0 6.313-4.517 12.447 12.447 0 0 0 0-14.736 12.49 12.49 0 0 0-6.313-4.518zm0 23.308c-1.18.382-2.414.572-3.655.563h-.09a12.02 12.02 0 0 1-8.49-3.51 11.97 11.97 0 0 1-3.518-8.473 11.97 11.97 0 0 1 3.517-8.472 12.02 12.02 0 0 1 8.491-3.51h.09c1.247.019 2.482.242 3.655.661a11.988 11.988 0 0 1 5.979 4.349 11.946 11.946 0 0 1 0 14.044 11.988 11.988 0 0 1-5.979 4.348z" fill="#1A1A18"/><path d="M24.547 10.734c.3.756.463 1.558.482 2.37 0 3.468-3.534 4.875-4.965 4.785h-.193c-.183 0-.285-.09-.285-.185 0-.284.097-.473.285-.473a.31.31 0 0 1 .193-.09c.385 0 .482.09.858.09s.482-.285.67-.664a1.137 1.137 0 0 0 .28-.843c0-.749-.767-2.251-1.143-3.658 0 .374 0 1.213-.376 1.213a.533.533 0 0 1-.482-.28c-.183-.28-.376-.654-.564-.947.046.373.046.75 0 1.123 0 .37-.101.653-.29.653-.188 0-.482-.284-.482-.947 0-.664.092-1.133.092-2.256a3.824 3.824 0 0 0-.662-2.209 3.926 3.926 0 0 0-1.82-1.449 4.548 4.548 0 0 0-1.143-.19c-3.34 0-3.726 3-3.91 3.09-.182.09-.385-.554-1.445-.554-1.239 0-2.58 1.597-3.051 2.54a10.218 10.218 0 0 0-1.244 4.87 10.389 10.389 0 0 0 3.154 7.388 10.754 10.754 0 0 0 7.542 3.037h.092a9.652 9.652 0 0 0 3.721-.753c2-.74 3.72-2.063 4.934-3.791a10.18 10.18 0 0 0 1.853-5.88 10.375 10.375 0 0 0-2.005-6.099l-.096.11zm-8.402 5.445a5.415 5.415 0 0 1-1.24-3.478c0-.65.198-.749.386-.749.386 0 .574.564.854 1.313.069.276.2.534.385.753.29.659.482 1.033.762 1.691-.064.476-.032.96.096 1.422-.432-.296-.849-.614-1.248-.952h.005zm3.72 6.472a2.276 2.276 0 0 1-1.57-.678 2.198 2.198 0 0 1-.622-1.572c.026-.509.193-1 .482-1.422.482.654 1.147 1.128 1.71.654l.097-.095c.482-.474.097-1.123-.096-1.312a2.28 2.28 0 0 1 1.602.613 2.177 2.177 0 0 1 .692 1.548 2.265 2.265 0 0 1-.675 1.595c-.429.425-1.01.667-1.62.674v-.005z" fill="#1A1A18"/></svg>