<svg width="32" height="32" fill="none" xmlns="http://www.w3.org/2000/svg"><path fill-rule="evenodd" clip-rule="evenodd" d="M15.713 4c.398.164.75.69 1.046.98l2.334 2.289c2.972 2.897 5.944 5.793 8.907 8.7-4.074 4.013-8.148 8.018-12.223 12.031l-1.823-1.789c-1.695-1.653-3.39-3.314-5.093-4.967h3.426l3.463 3.396h.046c2.926-2.887 5.852-5.766 8.778-8.654-2.945-2.878-5.88-5.757-8.824-8.626h-.046c-1.149 1.135-2.296 2.27-3.445 3.396H8.86c1.982-1.943 3.963-3.878 5.935-5.82.306-.309.611-.627.917-.936z" fill="#3C2B6F"/><path fill-rule="evenodd" clip-rule="evenodd" d="M4 14.66h14.76v-2.487H4v2.488zm0 5.158h14.76v-2.506H4.017c0 .835-.009 1.67-.018 2.506z" fill="#B92135"/></svg>