<svg width="32" height="32" fill="none" xmlns="http://www.w3.org/2000/svg"><path d="M28.137 9.31c.156-.163.505.083 1.126.739.271.287.465.533.582.738.116.205.155.328.155.37l-.039.081L17.04 24.894c-.155.164-.504-.123-1.125-.78-.272-.287-.466-.533-.582-.738-.117-.205-.155-.328-.155-.369l.038-.082A4178.87 4178.87 0 0 0 28.137 9.311z" fill="#5AA8B4"/><path fill-rule="evenodd" clip-rule="evenodd" d="M9.63 24.894c-.156.163-.506-.123-1.127-.776-.272-.287-.466-.532-.583-.736-.117-.204-.155-.327-.155-.368l.038-.081L24.43 5.445c.156-.163.505.082 1.127.735.272.286.466.532.583.736.116.204.155.327.155.368l-.039.081A2306.626 2306.626 0 0 1 9.63 24.894zM3.75 19.248l-.356-.372-1.346-1.404c-.159-.165.079-.537.712-1.198.277-.289.515-.495.713-.62.198-.123.317-.164.356-.164l.08.041 1.346 1.404.356.372 1.702 1.776.04.082c0 .042-.04.166-.158.372-.12.207-.317.454-.594.743-.634.661-.99.909-1.149.744L3.75 19.248z" fill="#B0CA1F"/><path d="m7.456 15.382-.356-.371-1.347-1.405c-.158-.165.08-.537.713-1.197.277-.29.515-.496.713-.62.198-.124.317-.165.356-.165l.08.041L8.96 13.07l.357.372 1.702 1.776.04.083c0 .04-.04.165-.159.371-.118.207-.316.455-.593.744-.634.66-.99.908-1.149.743l-1.702-1.776z" fill="#5AA8B4"/></svg>