<svg width="175" height="51" fill="none" xmlns="http://www.w3.org/2000/svg"><path d="M168.519 50.414H6.481c-3.63 0-6.481-2.875-6.481-6.25v-37.5c0-3.5 2.981-6.25 6.481-6.25H168.52c3.629 0 6.481 2.875 6.481 6.25v37.5c0 3.5-2.852 6.25-6.481 6.25z" fill="#000"/><path d="M13.518 9.376c-.388.375-.518 1-.518 1.75v27.625c0 .75.26 1.375.648 1.75l.13.125 16.074-15.5v-.25l-16.334-15.5z" fill="url(#paint0_linear)"/><path d="M35.037 30.376l-5.315-5.125v-.375l5.315-5.126.13.125 6.352 3.5c1.814 1 1.814 2.626 0 3.626l-6.482 3.375z" fill="url(#paint1_linear)"/><path d="M35.167 30.25L29.722 25 13.52 40.627c.648.625 1.555.625 2.722.125l18.926-10.5z" fill="url(#paint2_linear)"/><path d="M35.167 19.751L16.24 9.376c-1.167-.625-2.074-.5-2.722.125l16.203 15.5 5.445-5.25z" fill="url(#paint3_linear)"/><path opacity=".2" d="M35.037 30.125L16.241 40.376c-1.037.625-1.945.5-2.593 0l-.13.125.13.125c.648.5 1.556.625 2.593 0l18.796-10.5z" fill="#000"/><path opacity=".12" d="M13.518 40.376c-.388-.375-.518-1-.518-1.75v.125c0 .75.26 1.375.648 1.75v-.125h-.13zM41.518 26.626l-6.481 3.5.13.125 6.351-3.5c.908-.5 1.297-1.125 1.297-1.75 0 .625-.519 1.125-1.297 1.625z" fill="#000"/><path opacity=".25" d="M16.241 9.501L41.52 23.376c.778.5 1.296 1 1.296 1.625 0-.625-.389-1.25-1.296-1.75L16.24 9.376c-1.815-1-3.24-.25-3.24 1.75v.125c0-1.875 1.425-2.75 3.24-1.75z" fill="#fff"/><path d="M88.277 28.334c-3.11 0-5.574 2.25-5.574 5.375 0 3 2.463 5.375 5.574 5.375 3.111 0 5.574-2.25 5.574-5.375 0-3.25-2.463-5.375-5.574-5.375zm0 8.5c-1.685 0-3.11-1.375-3.11-3.25s1.425-3.25 3.11-3.25c1.685 0 3.111 1.25 3.111 3.25 0 1.875-1.426 3.25-3.11 3.25zm-12.055-8.5c-3.111 0-5.574 2.25-5.574 5.375 0 3 2.463 5.375 5.574 5.375 3.11 0 5.574-2.25 5.574-5.375 0-3.25-2.463-5.375-5.574-5.375zm0 8.5c-1.685 0-3.111-1.375-3.111-3.25s1.425-3.25 3.11-3.25c1.686 0 3.112 1.25 3.112 3.25 0 1.875-1.426 3.25-3.111 3.25zm-14.39-6.875v2.25h5.575c-.13 1.25-.648 2.25-1.296 2.875-.778.75-2.075 1.625-4.278 1.625-3.5 0-6.093-2.625-6.093-6s2.722-6 6.093-6c1.815 0 3.24.75 4.278 1.625l1.685-1.625c-1.426-1.25-3.241-2.25-5.834-2.25-4.666 0-8.685 3.75-8.685 8.25s4.019 8.25 8.685 8.25c2.593 0 4.408-.75 5.963-2.375 1.556-1.5 2.074-3.625 2.074-5.25 0-.5 0-1-.13-1.375h-8.036zm58.853 1.75c-.519-1.25-1.815-3.375-4.667-3.375s-5.185 2.125-5.185 5.375c0 3 2.333 5.375 5.444 5.375 2.463 0 4.019-1.5 4.537-2.375l-1.815-1.25c-.648.875-1.425 1.5-2.722 1.5-1.296 0-2.074-.5-2.722-1.625l7.389-3-.259-.625zm-7.519 1.75c0-2 1.685-3.125 2.852-3.125.907 0 1.815.5 2.074 1.125l-4.926 2zm-6.092 5.125h2.462V22.959h-2.462v15.625zm-3.889-9.125c-.649-.625-1.686-1.25-2.982-1.25-2.722 0-5.315 2.375-5.315 5.375s2.463 5.25 5.315 5.25c1.296 0 2.333-.625 2.852-1.25h.13v.75c0 2-1.167 3.125-2.982 3.125-1.426 0-2.463-1-2.722-1.875l-2.074.875c.648 1.375 2.204 3.125 4.926 3.125 2.852 0 5.185-1.625 5.185-5.5v-9.5h-2.333v.875zm-2.852 7.375c-1.685 0-3.111-1.375-3.111-3.25s1.426-3.25 3.111-3.25c1.685 0 2.981 1.375 2.981 3.25s-1.296 3.25-2.981 3.25zm31.629-13.875h-5.833v15.625h2.463v-5.875h3.37c2.723 0 5.315-1.875 5.315-4.875s-2.592-4.875-5.315-4.875zm.13 7.5h-3.5v-5.375h3.5c1.815 0 2.852 1.5 2.852 2.625-.13 1.375-1.167 2.75-2.852 2.75zm14.907-2.25c-1.814 0-3.629.75-4.277 2.375l2.203.875c.519-.875 1.297-1.125 2.204-1.125 1.296 0 2.463.75 2.593 2v.125c-.389-.25-1.426-.625-2.463-.625-2.334 0-4.667 1.25-4.667 3.5 0 2.125 1.944 3.5 4.019 3.5 1.685 0 2.463-.75 3.111-1.5h.129v1.25h2.334v-6c-.26-2.75-2.463-4.375-5.186-4.375zm-.259 8.625c-.778 0-1.944-.375-1.944-1.375 0-1.25 1.426-1.625 2.592-1.625 1.037 0 1.556.25 2.204.5-.259 1.5-1.556 2.5-2.852 2.5zm13.611-8.25l-2.722 6.75h-.13l-2.851-6.75h-2.593l4.278 9.5-2.463 5.25h2.463l6.611-14.75h-2.593zm-21.777 10h2.462V22.959h-2.462v15.625zM59.334 9.106c0-.506-.185-.908-.557-1.205-.367-.302-.884-.452-1.552-.452-.56 0-1.029.155-1.409.465-.375.306-.563.686-.563 1.14h-1.258c0-.507.138-.961.413-1.363.28-.402.668-.714 1.166-.937a3.931 3.931 0 011.65-.34c1.066 0 1.894.24 2.484.72.59.476.884 1.14.884 1.992 0 .441-.135.843-.406 1.205-.27.363-.649.649-1.133.859 1.122.375 1.683 1.12 1.683 2.234 0 .856-.319 1.535-.956 2.037-.638.502-1.49.753-2.555.753-.633 0-1.21-.111-1.73-.334-.515-.227-.917-.548-1.205-.963-.288-.415-.433-.908-.433-1.48h1.258c0 .502.199.921.596 1.257.398.332.902.498 1.514.498.685 0 1.231-.16 1.638-.478.41-.319.615-.74.615-1.264 0-1.118-.692-1.688-2.076-1.71h-1.18v-1.035h1.173c.638-.013 1.12-.158 1.448-.433.327-.275.491-.664.491-1.166zm7.125 6.977c-.07-.14-.127-.388-.17-.746-.564.585-1.236.877-2.018.877-.699 0-1.273-.196-1.723-.59a1.932 1.932 0 01-.668-1.506c0-.738.28-1.31.838-1.716.564-.411 1.354-.616 2.372-.616h1.179v-.557c0-.424-.127-.76-.38-1.01-.253-.252-.627-.38-1.12-.38-.433 0-.795.11-1.088.329-.292.218-.439.482-.439.792h-1.218c0-.354.124-.694.373-1.022a2.589 2.589 0 011.022-.786 3.46 3.46 0 011.422-.288c.817 0 1.456.205 1.92.616.462.406.703.967.72 1.683v3.263c0 .65.083 1.168.249 1.553v.104h-1.271zm-2.011-.923c.38 0 .74-.099 1.08-.295.341-.197.588-.452.741-.767v-1.454h-.95c-1.485 0-2.227.434-2.227 1.304 0 .38.126.677.38.89.253.215.578.322.976.322zm9.378-5.163h-3.269v6.086h-1.219V8.995h4.488v1.002zm6.909 2.62c0 1.08-.247 1.949-.74 2.608-.494.66-1.163.99-2.005.99-.86 0-1.538-.274-2.031-.82v3.414h-1.212V8.995h1.107l.059.786c.493-.611 1.18-.917 2.057-.917.852 0 1.524.32 2.018.963.498.642.747 1.535.747 2.68v.11zm-1.212-.137c0-.8-.17-1.43-.511-1.893-.341-.463-.808-.695-1.402-.695-.734 0-1.284.326-1.651.976v3.387c.362.647.917.97 1.664.97.58 0 1.041-.23 1.382-.688.345-.463.518-1.148.518-2.057zm4.864 1.828l1.651-5.313h1.297l-2.85 8.182c-.44 1.18-1.142 1.77-2.103 1.77l-.229-.02-.452-.086v-.982l.328.026c.41 0 .729-.083.956-.249.232-.166.422-.47.57-.91l.269-.721-2.53-7.01h1.324l1.77 5.313zm7.8-3.374a.934.934 0 00-.38-.786c-.254-.197-.6-.295-1.042-.295-.428 0-.786.111-1.074.334-.284.223-.426.485-.426.786h-1.206c0-.616.258-1.12.773-1.513.516-.393 1.16-.59 1.933-.59.83 0 1.476.18 1.94.538.462.353.694.86.694 1.52 0 .318-.097.61-.289.877-.192.267-.465.479-.819.636.826.28 1.239.83 1.239 1.65 0 .652-.252 1.167-.754 1.547-.502.38-1.172.57-2.011.57-.817 0-1.492-.199-2.024-.596-.529-.402-.793-.944-.793-1.625h1.205c0 .345.153.642.459.89.31.245.694.368 1.153.368.463 0 .836-.107 1.12-.321a.996.996 0 00.426-.832c0-.398-.12-.682-.36-.852-.236-.175-.605-.262-1.107-.262h-1.212v-1.022h1.316c.826-.022 1.239-.362 1.239-1.022zm7.367-1.94h1.212v7.09h-1.212v-5.17l-3.27 5.17h-1.211v-7.09h1.212v5.176l3.269-5.175zm8.291.983h-2.379v6.106h-1.212V9.978h-2.332v-.983h5.923v.982zm2.368 1.461h1.841c.804.01 1.439.219 1.906.63.468.41.701.967.701 1.67 0 .707-.24 1.275-.72 1.703-.481.428-1.127.642-1.939.642h-3.001V8.995h1.212v2.443zm0 .99v2.666h1.802c.454 0 .805-.116 1.054-.347.249-.236.374-.557.374-.963 0-.393-.122-.714-.367-.963-.24-.253-.579-.385-1.015-.393h-1.848zm9.133 3.655V8.995h2.765c.943 0 1.666.166 2.168.498.507.327.76.81.76 1.447 0 .328-.098.625-.295.892-.196.262-.487.462-.871.602.428.1.771.297 1.028.59.262.293.393.642.393 1.048 0 .65-.24 1.149-.72 1.494-.476.345-1.151.517-2.025.517h-3.203zm1.212-3.111v2.135h2.005c.506 0 .884-.094 1.133-.281.253-.188.38-.453.38-.793 0-.708-.52-1.061-1.559-1.061h-1.959zm0-.97h1.566c1.135 0 1.703-.332 1.703-.996 0-.664-.537-1.007-1.612-1.029h-1.657v2.025z" fill="#fff"/><defs><linearGradient id="paint0_linear" x1="28.296" y1="10.888" x2="7.332" y2="32.629" gradientUnits="userSpaceOnUse"><stop stop-color="#00A0FF"/><stop offset=".007" stop-color="#00A1FF"/><stop offset=".26" stop-color="#00BEFF"/><stop offset=".512" stop-color="#00D2FF"/><stop offset=".76" stop-color="#00DFFF"/><stop offset="1" stop-color="#00E3FF"/></linearGradient><linearGradient id="paint1_linear" x1="43.896" y1="25.003" x2="12.53" y2="25.003" gradientUnits="userSpaceOnUse"><stop stop-color="#FFE000"/><stop offset=".409" stop-color="#FFBD00"/><stop offset=".775" stop-color="orange"/><stop offset="1" stop-color="#FF9C00"/></linearGradient><linearGradient id="paint2_linear" x1="32.22" y1="27.871" x2="3.791" y2="57.353" gradientUnits="userSpaceOnUse"><stop stop-color="#FF3A44"/><stop offset="1" stop-color="#C31162"/></linearGradient><linearGradient id="paint3_linear" x1="9.496" y1=".221" x2="22.191" y2="13.386" gradientUnits="userSpaceOnUse"><stop stop-color="#32A071"/><stop offset=".069" stop-color="#2DA771"/><stop offset=".476" stop-color="#15CF74"/><stop offset=".801" stop-color="#06E775"/><stop offset="1" stop-color="#00F076"/></linearGradient></defs></svg>