<svg width="175" height="50" fill="none" xmlns="http://www.w3.org/2000/svg"><path d="M0 5.964A5.963 5.963 0 015.963 0h163.074A5.963 5.963 0 01175 5.964v38.073a5.963 5.963 0 01-5.963 5.964H5.963A5.963 5.963 0 010 44.037V5.964z" fill="#000"/><path d="M69.168 35.81H63.42l-1.202 3.454h-2.68l5.604-14.838h2.314l5.615 14.838h-2.69l-1.213-3.455zm-5.024-2.08h4.3l-2.15-6.155-2.15 6.155zm19.337.133c0 1.705-.387 3.067-1.161 4.086-.775 1.013-1.814 1.519-3.119 1.519-1.21 0-2.177-.398-2.904-1.193v5.228H73.82V28.237h2.283l.102 1.121c.727-.883 1.715-1.325 2.966-1.325 1.345 0 2.398.503 3.159 1.509.767.998 1.151 2.388 1.151 4.168v.153zm-2.466-.214c0-1.1-.22-1.974-.662-2.62-.435-.645-1.06-.968-1.875-.968-1.013 0-1.74.418-2.181 1.254v4.892c.448.856 1.182 1.284 2.2 1.284.789 0 1.404-.316 1.846-.948.448-.639.672-1.603.672-2.894zm14.018.214c0 1.705-.387 3.067-1.162 4.086-.774 1.013-1.814 1.519-3.118 1.519-1.21 0-2.178-.398-2.905-1.193v5.228h-2.476V28.237h2.283l.102 1.121c.727-.883 1.715-1.325 2.965-1.325 1.345 0 2.399.503 3.16 1.509.767.998 1.151 2.388 1.151 4.168v.153zm-2.466-.214c0-1.1-.221-1.974-.663-2.62-.434-.645-1.06-.968-1.875-.968-1.012 0-1.74.418-2.18 1.254v4.892c.448.856 1.181 1.284 2.2 1.284.789 0 1.403-.316 1.845-.948.448-.639.673-1.603.673-2.894zm15.974 3.689c-.536.7-1.28 1.23-2.232 1.59-.951.36-2.031.54-3.24.54-1.244 0-2.344-.282-3.302-.846-.958-.564-1.699-1.37-2.222-2.415-.516-1.053-.785-2.28-.805-3.68v-1.161c0-2.242.537-3.991 1.61-5.248 1.074-1.264 2.572-1.896 4.495-1.896 1.65 0 2.962.408 3.933 1.223.972.815 1.556 1.99 1.753 3.526h-2.527c-.286-1.787-1.322-2.68-3.108-2.68-1.155 0-2.035.418-2.64 1.253-.598.83-.907 2.049-.927 3.659v1.141c0 1.604.336 2.85 1.009 3.74.679.884 1.62 1.325 2.822 1.325 1.318 0 2.256-.299 2.813-.897v-2.904h-3.057V31.65h5.625v5.687zm8.974 1.926c-.109-.21-.204-.554-.286-1.03-.788.823-1.753 1.234-2.894 1.234-1.107 0-2.011-.316-2.711-.948-.7-.632-1.049-1.413-1.049-2.344 0-1.175.434-2.076 1.304-2.7.876-.632 2.127-.948 3.75-.948h1.519v-.724c0-.57-.16-1.026-.479-1.365-.32-.347-.805-.52-1.458-.52-.563 0-1.025.142-1.385.428-.361.278-.541.635-.541 1.07h-2.476c0-.605.2-1.169.601-1.692.401-.53.945-.944 1.631-1.243.693-.3 1.464-.448 2.313-.448 1.291 0 2.32.326 3.088.978.768.645 1.162 1.556 1.182 2.731v4.973c0 .992.139 1.784.418 2.375v.173h-2.527zm-2.721-1.784c.489 0 .947-.118 1.375-.356a2.38 2.38 0 00.979-.958v-2.08h-1.335c-.917 0-1.607.16-2.069.48-.462.32-.693.771-.693 1.355 0 .476.156.856.469 1.142.319.278.744.417 1.274.417zm9.849 1.784h-2.476V23.61h2.476v15.653zm5.132 0h-2.477V23.61h2.477v15.653zm7.353.204c-1.57 0-2.844-.493-3.822-1.478-.971-.992-1.457-2.31-1.457-3.954v-.306c0-1.1.21-2.082.632-2.945.428-.87 1.026-1.546 1.793-2.028a4.73 4.73 0 012.568-.724c1.502 0 2.66.48 3.476 1.437.822.958 1.233 2.314 1.233 4.067v.998h-7.205c.074.91.377 1.63.907 2.16.536.53 1.209.796 2.017.796 1.135 0 2.059-.459 2.772-1.376l1.335 1.274a4.48 4.48 0 01-1.773 1.539c-.734.36-1.559.54-2.476.54zm-.296-9.447c-.679 0-1.229.238-1.651.713-.414.476-.679 1.138-.795 1.987h4.719v-.183c-.055-.829-.275-1.454-.663-1.875-.387-.428-.924-.642-1.61-.642zm12.214.479a6.118 6.118 0 00-1.009-.082c-1.134 0-1.899.435-2.293 1.305v7.54h-2.476V28.238h2.364l.061 1.233c.598-.957 1.427-1.436 2.487-1.436.353 0 .646.047.876.142l-.01 2.324zm5.397 5.218l2.242-7.48h2.639l-4.382 12.697c-.673 1.855-1.814 2.782-3.424 2.782-.36 0-.758-.06-1.193-.183v-1.916l.469.03c.625 0 1.094-.115 1.407-.346.319-.224.57-.605.754-1.141l.356-.948-3.872-10.976h2.67l2.334 7.48zM65.168 9.693c0-.507-.186-.908-.557-1.205-.367-.302-.885-.452-1.553-.452-.559 0-1.028.155-1.408.465-.376.305-.564.685-.564 1.14h-1.258c0-.507.138-.961.413-1.363.28-.402.668-.714 1.166-.937a3.931 3.931 0 011.651-.34c1.066 0 1.893.24 2.483.72.59.476.885 1.14.885 1.992 0 .44-.136.843-.407 1.205-.27.363-.648.649-1.133.858 1.122.376 1.684 1.12 1.684 2.234 0 .857-.32 1.536-.957 2.038-.638.502-1.49.753-2.555.753-.633 0-1.21-.111-1.73-.334-.515-.227-.917-.548-1.205-.963-.288-.415-.432-.908-.432-1.48h1.258c0 .502.198.921.596 1.257.397.332.902.498 1.513.498.686 0 1.232-.16 1.638-.478.41-.319.616-.74.616-1.264 0-1.119-.692-1.688-2.077-1.71h-1.18v-1.035h1.173c.638-.014 1.12-.158 1.448-.433.328-.275.492-.664.492-1.166zm7.124 6.977c-.07-.14-.126-.389-.17-.747-.563.586-1.236.878-2.018.878-.699 0-1.273-.196-1.723-.59a1.932 1.932 0 01-.668-1.506c0-.738.28-1.31.839-1.717.563-.41 1.353-.615 2.371-.615h1.18v-.557c0-.424-.127-.76-.38-1.01-.254-.252-.627-.38-1.12-.38-.433 0-.796.11-1.088.328-.293.219-.44.483-.44.793h-1.218c0-.354.124-.694.374-1.022a2.59 2.59 0 011.022-.786 3.462 3.462 0 011.421-.288c.817 0 1.457.205 1.92.615.463.407.703.968.72 1.684v3.263c0 .65.083 1.168.25 1.552v.105h-1.272zm-2.01-.924c.379 0 .74-.098 1.08-.294.34-.197.588-.452.74-.767v-1.454h-.95c-1.484 0-2.227.434-2.227 1.303 0 .38.127.677.38.891.253.214.579.321.976.321zm9.377-5.162H76.39v6.086h-1.218V9.582h4.487v1.002zm6.909 2.62c0 1.08-.247 1.948-.74 2.608-.494.66-1.162.99-2.005.99-.86 0-1.537-.274-2.031-.82v3.414H80.58V9.582h1.107l.06.786c.493-.612 1.178-.917 2.056-.917.852 0 1.525.32 2.018.963.498.642.747 1.535.747 2.68v.11zm-1.212-.137c0-.8-.17-1.43-.511-1.893-.34-.463-.808-.695-1.402-.695-.734 0-1.284.326-1.651.976v3.387c.362.647.917.97 1.664.97.581 0 1.042-.23 1.382-.688.346-.463.518-1.149.518-2.057zm4.865 1.828l1.65-5.313h1.298l-2.85 8.182c-.441 1.18-1.142 1.77-2.103 1.77l-.23-.02-.452-.086v-.982l.328.026c.41 0 .73-.083.957-.25.231-.165.421-.469.57-.91l.268-.72-2.529-7.01h1.324l1.769 5.313zm7.799-3.374a.934.934 0 00-.38-.786c-.253-.197-.6-.295-1.042-.295-.428 0-.786.111-1.074.334-.284.223-.426.485-.426.786h-1.205c0-.616.257-1.12.773-1.513.515-.393 1.16-.59 1.932-.59.83 0 1.477.18 1.94.537.463.354.694.86.694 1.52 0 .32-.096.612-.288.878a1.965 1.965 0 01-.82.636c.826.28 1.239.83 1.239 1.65 0 .651-.251 1.167-.753 1.547-.503.38-1.173.57-2.012.57-.816 0-1.491-.199-2.024-.596-.528-.402-.793-.944-.793-1.625h1.206c0 .345.153.642.458.89.31.245.695.368 1.153.368.463 0 .837-.107 1.12-.321a.996.996 0 00.426-.832c0-.398-.12-.682-.36-.852-.236-.175-.605-.262-1.107-.262h-1.212v-1.022h1.317c.825-.022 1.238-.363 1.238-1.022zm7.367-1.94h1.212v7.09h-1.212V11.5l-3.269 5.17h-1.212V9.58h1.212v5.176l3.269-5.175zm8.291.983H111.3v6.106h-1.212v-6.106h-2.332v-.982h5.922v.982zm2.368 1.461h1.841c.804.01 1.439.219 1.907.63.467.41.701.967.701 1.67 0 .707-.24 1.275-.721 1.703-.48.428-1.127.642-1.939.642h-3.001V9.582h1.212v2.443zm0 .99v2.666h1.802c.454 0 .806-.116 1.055-.347.249-.236.373-.557.373-.963 0-.393-.122-.714-.367-.963-.24-.254-.578-.385-1.015-.393h-1.848zm9.133 3.655V9.582h2.765c.943 0 1.666.166 2.168.498.507.327.76.81.76 1.447 0 .328-.098.625-.294.891-.197.263-.487.463-.872.603.428.1.771.297 1.029.59.262.292.393.642.393 1.048 0 .65-.24 1.149-.721 1.494-.476.345-1.151.517-2.024.517h-3.204zm1.212-3.112v2.136h2.005c.507 0 .884-.094 1.133-.282.254-.187.38-.452.38-.792 0-.708-.519-1.062-1.559-1.062h-1.959zm0-.97h1.566c1.136 0 1.703-.331 1.703-.995 0-.664-.537-1.007-1.611-1.029h-1.658v2.025z" fill="#fff"/><path d="M43.055 18.064c0-1.092-.108-2.17-.366-3.234a7.049 7.049 0 00-.571-1.551c-.59-1.151-1.498-1.966-2.683-2.468a8.84 8.84 0 00-2.234-.59 13.262 13.262 0 00-1.913-.162c-4.331-.014-8.663-.01-12.995-.01-1 0-2-.004-2.995.113-.888.102-1.756.273-2.59.614-1.064.435-1.932 1.113-2.542 2.098-.44.707-.707 1.478-.878 2.288-.2.927-.288 1.863-.288 2.815.005 4.62.005 9.234 0 13.854 0 .868.034 1.732.176 2.59.117.708.283 1.395.56 2.059.66 1.56 1.825 2.56 3.415 3.088.503.166 1.02.283 1.547.366.497.078.995.156 1.492.156 2.615.014 5.225.004 7.835.004v.005c2.268 0 4.537-.005 6.8 0 .854 0 1.698-.034 2.542-.175.736-.122 1.453-.303 2.136-.6 1.317-.576 2.25-1.532 2.81-2.854a8.482 8.482 0 00.566-2.073c.107-.722.17-1.444.17-2.176 0-4.717-.004-9.44.006-14.156zm-21.352 4.45c.17-.274.37-.523.6-.752.122-.127.131-.122.244.02a35.49 35.49 0 011.868 2.624 36.071 36.071 0 012.24 3.942c.067.141.136.283.2.43.019.048.092.102.033.155-.044.04-.102-.014-.146-.034a59.351 59.351 0 01-.961-.493c-.976-.522-1.932-1.063-2.84-1.697a7.75 7.75 0 01-1.155-.961c-.43-.444-.654-.961-.654-1.693-.01-.512.249-1.04.57-1.542zm4.8 4.468a26.123 26.123 0 01-1.366-2.449c-.312-.649-.59-1.312-.732-2.024-.166-.83-.034-1.6.561-2.244a2.146 2.146 0 011.103-.63c.18-.044.366-.083.551-.112.23-.044.283-.01.38.2.313.668.474 1.376.581 2.098.156 1.02.22 2.044.21 3.127.01.765-.05 1.58-.093 2.395-.02.332-.058.668-.088 1 0 .02-.005.039-.01.058-.014.04-.004.103-.058.108-.049.01-.068-.044-.093-.083-.317-.478-.644-.951-.946-1.444zm1.79-2.342c.02-1.107.088-2.214.303-3.302.112-.576.268-1.142.526-1.673.05-.098.108-.166.225-.152.624.073 1.23.21 1.693.678.463.469.736 1.02.683 1.64.02.731-.2 1.356-.45 1.97-.414 1.025-.965 1.986-1.536 2.927a33.453 33.453 0 01-1.054 1.64c-.039.058-.068.16-.15.14-.07-.019-.054-.121-.06-.185-.034-.439-.077-.883-.102-1.322-.039-.79-.092-1.575-.078-2.36zm.947 4.132a35.664 35.664 0 012.014-3.697 39.064 39.064 0 012.25-3.24c.165-.214.17-.22.35-.02.464.518.854 1.074 1.03 1.757.048.2.107.4.087.61-.029.712-.336 1.293-.863 1.76-.946.84-2.03 1.474-3.127 2.089-.532.297-1.073.585-1.62.858-.043.025-.097.078-.146.04-.058-.054.005-.108.025-.157zm-9.186-2.863c.03-.117.073-.127.176-.073 1.185.643 2.365 1.297 3.536 1.97a51.7 51.7 0 012.537 1.547c.03.02.058.034.088.058.039.034.122.049.102.107-.02.069-.102.044-.156.044-.307.005-.61 0-.917 0h-2.527a2.93 2.93 0 01-2.883-2.429 2.808 2.808 0 01.044-1.224zm1.307 10.785c-.429-.01-.37.04-.375-.37 0-.24-.005-.483 0-.722 0-.117-.05-.171-.166-.171h-1.122c-.127 0-.171.063-.171.185.005.308 0 .61.005.917 0 .122-.044.166-.166.166-.468-.01-.39.054-.395-.385-.005-.805 0-1.605 0-2.41 0-.215 0-.22.21-.215.4 0 .341-.044.346.347 0 .239.005.473 0 .707-.005.127.04.19.176.19.37-.005.736-.005 1.107 0 .127 0 .176-.053.17-.18-.004-.303 0-.6-.004-.903 0-.122.044-.166.166-.16.463.01.39-.054.395.385.005.375 0 .751 0 1.122 0 .439-.005.878 0 1.317.015.132-.03.185-.176.18zm.161-6.415c-.073-.116-.058-.14.078-.146.083-.005.166 0 .254 0v-.005c.907-.029 1.81-.049 2.717-.087.57-.025 1.142-.054 1.712-.054.044 0 .098-.02.117.034.015.044-.034.063-.068.088-.654.453-1.322.892-2.024 1.273-.82.44-1.522.22-2.122-.307a3.346 3.346 0 01-.664-.796zm3.552 4.445h-.005c0 .287.005.57 0 .858-.01.527-.308.97-.82 1.073-.492.103-1.005.137-1.41-.283a1.078 1.078 0 01-.312-.746c-.01-.595 0-1.19-.005-1.785 0-.122.044-.166.166-.161.468.01.39-.054.395.385.005.468.005.937 0 1.405-.005.59.547.883 1.059.659.332-.147.385-.454.39-.766.005-.513.005-1.025 0-1.537 0-.112.03-.156.142-.146.097.005.195.005.297 0 .088 0 .117.039.112.127-.014.307-.01.614-.01.917zm3.39 1.946c-.049-.005-.098 0-.146 0-.288-.005-.264.054-.4-.273-.186-.444-.103-.37-.561-.376-.288-.005-.571 0-.859 0-.117 0-.195.044-.239.156-.049.127-.107.254-.161.38-.02.045-.034.113-.083.113-.16.01-.322.02-.483.005-.068-.005-.024-.073-.005-.107l.483-1.093c.24-.547.483-1.088.717-1.634.05-.113.113-.147.23-.161.258-.03.385.053.492.307.351.854.737 1.698 1.112 2.541.054.113.025.147-.097.142zm4.434-2.844c-.224.63-.439 1.264-.658 1.898-.093.258-.186.522-.269.78-.039.117-.097.166-.224.166-.37-.01-.298.044-.415-.298-.18-.522-.375-1.039-.531-1.566-.01-.038-.03-.078-.078-.078-.069 0-.074.059-.088.103-.19.551-.386 1.097-.566 1.649-.049.141-.112.195-.264.19-.282-.01-.282-.005-.37-.263-.293-.84-.59-1.683-.883-2.522-.01-.03-.015-.059-.03-.083-.048-.098 0-.122.088-.117h.176c.039 0 .078.004.117 0 .141-.025.2.053.239.18.18.58.366 1.166.551 1.746.015.044.025.093.083.093.054 0 .069-.049.083-.093.195-.6.395-1.195.59-1.795.03-.088.073-.127.166-.132.327-.014.332-.019.44.288.185.542.36 1.083.54 1.625.015.044.01.112.079.107.058-.005.068-.063.083-.107l.57-1.771c.03-.093.083-.142.181-.132.097.005.195.005.297 0 .103-.014.132.025.093.132zm-.966-2.376c-.775-.375-1.473-.873-2.185-1.351-.03-.02-.078-.039-.059-.088.015-.039.059-.029.093-.029h.268v.005c.952.03 1.898.049 2.85.088.516.02 1.033.053 1.55.053.186 0 .2.02.103.176-.298.468-.654.873-1.166 1.122-.488.244-.966.263-1.454.024zm3.688 5.22c-.629-.005-1.263-.005-1.892 0-.127 0-.176-.039-.171-.17.005-.445 0-.889 0-1.333 0-.434.005-.868-.005-1.302 0-.137.034-.19.18-.19.61.005 1.225.005 1.835 0 .126 0 .175.039.175.17-.005.381.03.332-.331.332-.371 0-.742.005-1.108 0-.141-.005-.2.054-.19.19.005.093 0 .186 0 .283 0 .2.014.215.21.215.258 0 .512.005.77 0 .117 0 .18.03.152.161-.01.049-.005.098-.005.146.005.19.005.19-.176.19-.258 0-.512.005-.77 0-.137-.004-.186.054-.181.186.005.142 0 .288 0 .43 0 .19.03.214.215.214h1.258c.215 0 .215.005.215.215v.073c.02.136-.034.195-.18.19zm.464-9.527c-.215 1.117-.869 1.873-1.942 2.263-.39.142-.8.147-1.21.156-.517.01-1.034.005-1.55.005h-1.64c-.049 0-.127.025-.142-.039-.014-.058.06-.083.098-.112.8-.522 1.615-1.02 2.444-1.497a135.02 135.02 0 013.283-1.85c.147-.077.298-.155.44-.243.102-.064.145-.034.175.073.107.415.127.834.044 1.244zm1.048 6.937c.005.8 0 1.595 0 2.395 0 .185-.01.195-.19.195-.346.005-.346.005-.346-.342v-1.15h-.01v-1.391c0-.068.02-.102.088-.102h.03c.511 0 .424-.064.428.395zm-9.639 1.297c.044.103.015.166-.102.166h-.698c-.107 0-.146-.053-.102-.151.122-.288.244-.57.37-.854.015-.034.035-.078.083-.073.044.005.069.04.083.073.122.278.244.556.366.84z" fill="url(#paint0_linear)"/><path d="M26.482 29.523c-.02.069-.102.044-.156.044-.307.005-.61 0-.917 0h-2.527A2.93 2.93 0 0120 27.138a2.982 2.982 0 01.054-1.23c.03-.116.073-.126.176-.072a167.36 167.36 0 013.536 1.97c.859.498 1.708 1 2.537 1.547.03.02.058.034.088.058.029.034.112.05.092.112zm-4.936 6.981c0 .142-.044.195-.186.19-.429-.01-.37.04-.375-.37 0-.24-.005-.483 0-.722 0-.117-.05-.171-.166-.171h-1.122c-.127 0-.171.064-.171.185.005.308 0 .61.005.917 0 .123-.044.166-.166.166-.468-.01-.39.054-.395-.385-.005-.805 0-1.605 0-2.41 0-.215 0-.22.21-.215.4 0 .341-.043.346.347 0 .239.005.473 0 .707-.005.127.04.19.176.19.37-.004.736-.004 1.107 0 .127 0 .176-.053.17-.18-.004-.303 0-.6-.004-.903 0-.121.044-.165.166-.16.463.01.39-.054.395.385.005.375 0 .751 0 1.122.01.43.005.868.01 1.307zm5.336-7.571c-.044.04-.102-.014-.146-.034a60.169 60.169 0 01-.961-.493c-.976-.522-1.932-1.063-2.84-1.697a7.75 7.75 0 01-1.155-.961c-.43-.444-.654-.961-.654-1.693-.005-.507.254-1.034.576-1.537.17-.273.37-.522.6-.75.122-.128.131-.123.244.019a35.481 35.481 0 011.868 2.624 36.09 36.09 0 012.24 3.942c.067.141.136.283.2.429.014.044.087.098.028.151zm-1.809 5.791h-.005c0 .288.005.57 0 .858-.01.527-.308.971-.82 1.073-.492.103-1.005.137-1.41-.282a1.078 1.078 0 01-.312-.747c-.01-.595 0-1.19-.005-1.785 0-.122.044-.166.166-.161.468.01.39-.054.395.385.005.468.005.937 0 1.405-.005.59.547.883 1.059.659.332-.147.385-.454.39-.766.005-.513.005-1.025 0-1.537 0-.112.03-.156.142-.146.097.005.195.005.297 0 .088 0 .117.039.112.127-.014.307-.01.614-.01.917zm6.649-12.894c.02.732-.2 1.357-.45 1.971-.414 1.025-.965 1.986-1.536 2.927a33.525 33.525 0 01-1.053 1.64c-.04.058-.069.16-.152.14-.068-.019-.053-.121-.058-.184-.034-.44-.078-.883-.103-1.323-.044-.785-.097-1.57-.083-2.36.02-1.108.088-2.215.303-3.303.112-.576.268-1.142.527-1.673.048-.098.107-.166.224-.151.624.073 1.23.21 1.693.678.473.463.746 1.02.688 1.639zm3.248 2.357c-.029.712-.336 1.293-.863 1.76-.946.84-2.03 1.474-3.127 2.089-.532.297-1.073.585-1.62.858-.043.025-.097.078-.146.04-.058-.054.005-.108.025-.157a35.644 35.644 0 012.014-3.698 39.107 39.107 0 012.25-3.239c.165-.214.17-.22.35-.02.464.518.854 1.074 1.03 1.757.053.195.107.395.087.61zm-7.273 3.161c-.02.332-.058.668-.088 1 0 .02-.005.039-.01.058-.014.04-.004.103-.058.108-.049.01-.068-.044-.093-.083-.317-.483-.639-.961-.941-1.449a26.123 26.123 0 01-1.366-2.449c-.312-.649-.59-1.312-.732-2.024-.166-.83-.034-1.6.561-2.244a2.146 2.146 0 011.103-.63 6.78 6.78 0 01.55-.112c.23-.044.284-.01.381.2.313.669.474 1.376.58 2.098.157 1.02.22 2.044.21 3.127 0 .766-.053 1.585-.097 2.4zm-1.366 2.761c-.654.454-1.322.893-2.024 1.273-.82.44-1.522.22-2.122-.307a3.301 3.301 0 01-.659-.79c-.073-.117-.058-.142.078-.147.083-.005.166 0 .254 0v-.005c.907-.029 1.81-.049 2.717-.087.57-.025 1.142-.054 1.712-.054.044 0 .098-.02.117.034.005.039-.044.059-.073.083zm9.752-2.966c-.215 1.117-.869 1.873-1.942 2.264-.39.14-.8.146-1.21.156-.517.01-1.034.004-1.55.004h-1.64c-.049 0-.127.025-.141-.039-.015-.058.058-.082.097-.112.8-.522 1.615-1.02 2.444-1.497 1.083-.635 2.18-1.244 3.283-1.85.147-.077.298-.155.44-.243.102-.064.146-.034.175.073.107.415.127.834.044 1.244zm-.463 9.527a124.4 124.4 0 00-1.893 0c-.127 0-.176-.039-.171-.17.005-.445 0-.889 0-1.333 0-.434.005-.868-.005-1.302 0-.137.034-.19.18-.19.61.005 1.225.005 1.835 0 .127 0 .175.039.175.17-.005.381.03.332-.331.332-.371 0-.742.005-1.108 0-.141-.005-.2.054-.19.19.005.093 0 .186 0 .283 0 .2.015.215.21.215.258 0 .512.005.77 0 .117 0 .18.03.152.161-.01.049-.005.098-.005.146.005.19.005.19-.176.19-.258 0-.512.005-.77 0-.137-.004-.186.054-.181.186.005.142 0 .288 0 .43 0 .19.03.214.215.214h1.258c.215 0 .215.005.215.215v.073c.02.136-.034.195-.18.19zm1.512-2.59c.004.8 0 1.595 0 2.395 0 .185-.01.195-.19.195-.347.005-.347.005-.347-.342v-1.15h-.01v-1.391c0-.068.02-.102.088-.102h.03c.511 0 .424-.064.428.395zm-2.591-3.766c-.297.468-.653.873-1.166 1.122-.483.234-.956.253-1.448.014-.776-.375-1.474-.873-2.186-1.35-.03-.02-.078-.04-.058-.089.014-.039.058-.029.092-.029h.269v.005c.95.03 1.897.049 2.848.088.517.02 1.034.053 1.552.053.185.005.2.03.097.186zm-5.981 6.21c-.375-.844-.76-1.688-1.112-2.542-.102-.254-.234-.336-.492-.307-.117.015-.186.049-.23.16-.234.547-.478 1.094-.717 1.635-.16.366-.322.727-.483 1.093-.014.034-.063.102.005.107.161.015.322.005.483-.005.049-.005.064-.068.083-.112.054-.127.112-.254.161-.38.044-.113.122-.157.239-.157.288.005.57 0 .859 0 .458.005.375-.068.56.376.137.332.118.268.4.273h.147c.122.01.151-.024.098-.141zm-1.17-.98h-.698c-.107 0-.146-.054-.102-.152.122-.288.244-.57.37-.854.015-.034.035-.078.083-.073.044.005.069.04.083.073l.366.84c.044.102.015.16-.102.165zm5.507-1.718c-.224.63-.439 1.264-.658 1.898-.093.258-.186.522-.269.78-.039.117-.097.166-.224.166-.37-.01-.298.044-.415-.297-.18-.522-.375-1.04-.531-1.566-.01-.04-.03-.078-.078-.078-.069 0-.074.058-.088.102-.19.551-.386 1.098-.566 1.649-.049.141-.112.195-.264.19-.282-.01-.282-.005-.37-.263-.293-.84-.59-1.683-.883-2.522-.01-.03-.015-.059-.03-.083-.048-.098 0-.122.088-.117h.176c.039 0 .078.005.117 0 .142-.025.2.053.239.18.18.58.366 1.166.551 1.746.015.044.025.093.083.093.054 0 .069-.049.083-.093.195-.6.395-1.195.59-1.795.03-.087.074-.127.166-.131.327-.015.332-.02.44.287.185.542.36 1.083.54 1.625.015.044.01.112.079.107.058-.005.068-.063.083-.107l.57-1.77c.03-.094.083-.142.181-.133.098.005.195.005.298 0 .102-.014.131.025.092.132z" fill="#fff"/><path d="M35.463 13.718c-.151.195-.297.386-.449.576-1.146 1.429-2.6 2.41-4.336 2.96a8.921 8.921 0 01-3.913.328 8.984 8.984 0 01-3.854-1.469 7.777 7.777 0 01-1.546-1.336c-.268-.303-.541-.605-.77-.947-.03-.044-.044-.097-.103-.117-.112-.19-.225-.375-.337-.566-.117-.204-.068-.4.117-.507.166-.098.361-.034.479.151.107.176.204.356.336.517.215.361.488.678.77.986a8.244 8.244 0 004.02 2.414 8.202 8.202 0 003.064.21c2.044-.239 3.756-1.136 5.166-2.624.258-.278.498-.571.712-.883.02-.03.059-.059.054-.103.132-.15.23-.326.332-.497.063-.108.146-.186.273-.205a.32.32 0 01.331.146.325.325 0 01.02.361c-.127.205-.249.405-.366.605z" fill="#FEFEFE"/><path d="M35.463 13.718c.122-.2.244-.4.356-.605a.316.316 0 00-.02-.36.323.323 0 00-.33-.147c-.128.014-.21.097-.274.205-.103.17-.205.346-.332.497-.088-.049-.117-.141-.136-.224-.103-.532.185-.98.692-1.078a.87.87 0 011.03.854c0 .487-.352.82-.8.892-.064.01-.122-.029-.186-.034zm-14.386-.405c-.131-.16-.229-.341-.336-.517-.117-.185-.308-.249-.478-.151-.186.107-.235.302-.117.507.107.19.224.376.336.566-.517.063-.902-.278-.99-.751-.073-.39.302-.912.697-.956.498-.059.835.136 1.015.595.083.214.015.59-.127.707z" fill="#D4313E"/><defs><linearGradient id="paint0_linear" x1="28.024" y1="40.106" x2="28.024" y2="10.05" gradientUnits="userSpaceOnUse"><stop offset=".438" stop-color="#D4313E"/><stop offset=".571" stop-color="#E2455C"/></linearGradient></defs></svg>