<svg width="175" height="50" fill="none" xmlns="http://www.w3.org/2000/svg"><path d="M0 5.964A5.963 5.963 0 015.963 0h163.074A5.963 5.963 0 01175 5.964v38.073a5.963 5.963 0 01-5.963 5.964H5.963A5.963 5.963 0 010 44.037V5.964z" fill="#000"/><path d="M36.096 26.026c0-4.036 3.208-5.973 3.364-6.054-1.8-2.745-4.694-3.148-5.711-3.148-2.426-.242-4.695 1.453-5.947 1.453-1.251 0-3.13-1.453-5.085-1.373-2.66 0-5.086 1.615-6.416 4.037-2.738 4.924-.704 12.189 1.956 16.144 1.33 1.938 2.895 4.117 4.93 4.036 1.955-.08 2.738-1.291 5.085-1.291s3.051 1.291 5.086 1.291c2.112-.08 3.442-2.018 4.772-3.955 1.487-2.26 2.113-4.44 2.113-4.52-.079-.162-4.147-1.776-4.147-6.62zM32.169 14.115c1.084-1.354 1.814-3.238 1.613-5.115-1.56.065-3.45 1.075-4.572 2.429-1.003 1.196-1.884 3.114-1.644 4.952 1.74.14 3.519-.914 4.603-2.266zM69.168 35.12H63.42l-1.202 3.455h-2.68l5.604-14.838h2.314l5.615 14.838h-2.69l-1.213-3.455zm-5.024-2.079h4.3l-2.15-6.155-2.15 6.155zM83.481 33.174c0 1.705-.387 3.067-1.161 4.086-.775 1.013-1.814 1.519-3.119 1.519-1.21 0-2.177-.398-2.904-1.193v5.229H73.82V27.548h2.283l.102 1.122c.727-.884 1.715-1.325 2.966-1.325 1.345 0 2.398.502 3.159 1.508.767.999 1.151 2.388 1.151 4.168v.153zm-2.466-.214c0-1.1-.22-1.974-.662-2.62-.435-.645-1.06-.967-1.875-.967-1.013 0-1.74.418-2.181 1.253v4.892c.448.856 1.182 1.284 2.2 1.284.789 0 1.404-.316 1.846-.948.448-.639.672-1.603.672-2.894zM95.033 33.174c0 1.705-.387 3.067-1.162 4.086-.774 1.013-1.814 1.519-3.118 1.519-1.21 0-2.178-.398-2.905-1.193v5.229h-2.476V27.548h2.283l.102 1.122c.727-.884 1.715-1.325 2.965-1.325 1.345 0 2.399.502 3.16 1.508.767.999 1.151 2.388 1.151 4.168v.153zm-2.466-.214c0-1.1-.221-1.974-.663-2.62-.434-.645-1.06-.967-1.875-.967-1.012 0-1.74.418-2.18 1.253v4.892c.448.856 1.181 1.284 2.2 1.284.789 0 1.403-.316 1.845-.948.448-.639.673-1.603.673-2.894zM109.912 34.754c0-.653-.231-1.155-.693-1.509-.455-.353-1.28-.71-2.476-1.07-1.196-.36-2.147-.76-2.854-1.202-1.352-.85-2.028-1.957-2.028-3.323 0-1.195.486-2.18 1.458-2.955.978-.774 2.245-1.162 3.801-1.162 1.033 0 1.953.19 2.762.57.808.381 1.443.925 1.905 1.631.462.7.693 1.478.693 2.334h-2.568c0-.774-.244-1.379-.734-1.814-.482-.441-1.175-.662-2.079-.662-.842 0-1.498.18-1.966.54-.462.36-.693.863-.693 1.508 0 .544.251.999.754 1.366.503.36 1.331.713 2.486 1.06 1.155.34 2.083.73 2.782 1.172.7.434 1.213.937 1.539 1.508.326.564.489 1.226.489 1.987 0 1.237-.475 2.222-1.426 2.956-.945.726-2.229 1.09-3.852 1.09-1.074 0-2.062-.197-2.966-.591-.897-.401-1.597-.951-2.099-1.651-.496-.7-.744-1.515-.744-2.446h2.578c0 .843.279 1.495.836 1.957.557.462 1.355.693 2.395.693.896 0 1.569-.18 2.017-.54.456-.367.683-.85.683-1.447zM117.408 24.868v2.68h1.946v1.835h-1.946v6.155c0 .421.081.727.244.917.17.184.469.276.897.276.286 0 .574-.035.866-.102v1.916a6.09 6.09 0 01-1.63.234c-1.902 0-2.854-1.05-2.854-3.15v-6.246h-1.814v-1.835h1.814v-2.68h2.477zM120.277 32.96c0-1.08.214-2.052.642-2.915.428-.87 1.029-1.535 1.804-1.997.774-.469 1.664-.703 2.67-.703 1.488 0 2.693.479 3.617 1.437.931.957 1.434 2.228 1.509 3.811l.01.58c0 1.088-.211 2.06-.632 2.916a4.585 4.585 0 01-1.794 1.987c-.774.468-1.671.703-2.69.703-1.556 0-2.802-.517-3.74-1.55-.931-1.039-1.396-2.421-1.396-4.147v-.122zm2.476.214c0 1.135.235 2.025.703 2.67.469.639 1.121.958 1.957.958.836 0 1.485-.326 1.947-.978.468-.653.703-1.607.703-2.864 0-1.114-.241-1.998-.724-2.65-.475-.652-1.124-.978-1.946-.978-.809 0-1.451.323-1.926.968-.476.639-.714 1.597-.714 2.874zM138.188 29.81a6.138 6.138 0 00-1.009-.08c-1.135 0-1.899.434-2.293 1.304v7.541h-2.477V27.548h2.365l.061 1.234c.598-.958 1.427-1.437 2.486-1.437.354 0 .646.047.877.142l-.01 2.324zM144.195 38.779c-1.569 0-2.843-.493-3.821-1.478-.972-.992-1.458-2.31-1.458-3.954v-.306c0-1.1.211-2.082.632-2.945.428-.87 1.026-1.545 1.794-2.028a4.73 4.73 0 012.568-.723c1.502 0 2.66.479 3.475 1.437.822.957 1.233 2.313 1.233 4.066v.998h-7.205c.075.91.377 1.631.907 2.16.537.53 1.21.796 2.018.796 1.135 0 2.059-.459 2.772-1.376l1.335 1.274a4.495 4.495 0 01-1.773 1.539c-.734.36-1.559.54-2.477.54zm-.295-9.447c-.68 0-1.23.238-1.651.713-.414.476-.679 1.138-.795 1.987h4.718v-.183c-.054-.829-.275-1.454-.662-1.875-.387-.428-.924-.642-1.61-.642zM65.168 9.693c0-.507-.186-.908-.557-1.205-.367-.302-.885-.452-1.553-.452-.559 0-1.028.155-1.408.465-.376.305-.564.685-.564 1.14h-1.258c0-.507.138-.961.413-1.363.28-.402.668-.714 1.166-.937a3.931 3.931 0 011.651-.34c1.066 0 1.893.24 2.483.72.59.476.885 1.14.885 1.992 0 .44-.136.843-.407 1.205-.27.363-.648.649-1.133.858 1.122.376 1.684 1.12 1.684 2.234 0 .857-.32 1.536-.957 2.038-.638.502-1.49.753-2.555.753-.633 0-1.21-.111-1.73-.334-.515-.227-.917-.548-1.205-.963-.288-.415-.432-.908-.432-1.48h1.258c0 .502.198.921.596 1.257.397.332.902.498 1.513.498.686 0 1.232-.16 1.638-.478.41-.319.616-.74.616-1.264 0-1.119-.692-1.688-2.077-1.71h-1.18v-1.035h1.173c.638-.014 1.12-.158 1.448-.433.328-.275.492-.664.492-1.166zm7.124 6.977c-.07-.14-.126-.389-.17-.747-.563.586-1.236.878-2.018.878-.699 0-1.273-.196-1.723-.59a1.932 1.932 0 01-.668-1.506c0-.738.28-1.31.839-1.717.563-.41 1.353-.615 2.371-.615h1.18v-.557c0-.424-.127-.76-.38-1.01-.254-.252-.627-.38-1.12-.38-.433 0-.796.11-1.088.328-.293.219-.44.483-.44.793h-1.218c0-.354.124-.694.374-1.022a2.59 2.59 0 011.022-.786 3.462 3.462 0 011.421-.288c.817 0 1.457.205 1.92.615.463.407.703.968.72 1.684v3.263c0 .65.083 1.168.25 1.552v.105h-1.272zm-2.01-.924c.379 0 .74-.098 1.08-.294.34-.197.588-.452.74-.767v-1.454h-.95c-1.484 0-2.227.434-2.227 1.303 0 .38.127.677.38.891.253.214.579.321.976.321zm9.377-5.162H76.39v6.086h-1.218V9.582h4.487v1.002zm6.909 2.62c0 1.08-.247 1.948-.74 2.608-.494.66-1.162.99-2.005.99-.86 0-1.537-.274-2.031-.82v3.414H80.58V9.582h1.107l.06.786c.493-.612 1.178-.917 2.056-.917.852 0 1.525.32 2.018.963.498.642.747 1.535.747 2.68v.11zm-1.212-.137c0-.8-.17-1.43-.511-1.893-.34-.463-.808-.695-1.402-.695-.734 0-1.284.326-1.651.976v3.387c.362.647.917.97 1.664.97.581 0 1.042-.23 1.382-.688.346-.463.518-1.149.518-2.057zm4.865 1.828l1.65-5.313h1.298l-2.85 8.182c-.441 1.18-1.142 1.77-2.103 1.77l-.23-.02-.452-.086v-.982l.328.026c.41 0 .73-.083.957-.25.231-.165.421-.469.57-.91l.268-.72-2.529-7.01h1.324l1.769 5.313zm7.799-3.374a.934.934 0 00-.38-.786c-.253-.197-.6-.295-1.042-.295-.428 0-.786.111-1.074.334-.284.223-.426.485-.426.786h-1.205c0-.616.257-1.12.773-1.513.515-.393 1.16-.59 1.932-.59.83 0 1.477.18 1.94.537.463.354.694.86.694 1.52 0 .32-.096.612-.288.878-.193.267-.466.479-.82.636.826.28 1.239.83 1.239 1.65 0 .651-.251 1.167-.753 1.547-.503.38-1.173.57-2.012.57-.816 0-1.491-.199-2.024-.596-.528-.402-.793-.944-.793-1.625h1.206c0 .345.153.642.458.89.31.245.695.368 1.153.368.463 0 .837-.107 1.12-.321a.996.996 0 00.426-.832c0-.398-.12-.682-.36-.852-.236-.175-.605-.262-1.107-.262h-1.212v-1.022h1.317c.825-.022 1.238-.363 1.238-1.022zm7.367-1.94h1.212v7.09h-1.212V11.5l-3.269 5.17h-1.212V9.58h1.212v5.176l3.269-5.175zm8.291.983H111.3v6.106h-1.212v-6.106h-2.332v-.982h5.922v.982zm2.368 1.461h1.841c.804.01 1.439.219 1.907.63.467.41.701.967.701 1.67 0 .707-.24 1.275-.721 1.703-.48.428-1.127.642-1.939.642h-3.001V9.582h1.212v2.443zm0 .99v2.666h1.802c.454 0 .806-.116 1.055-.347.249-.236.373-.557.373-.963 0-.393-.122-.714-.367-.963-.24-.254-.578-.385-1.015-.393h-1.848zm9.133 3.655V9.582h2.765c.943 0 1.666.166 2.168.498.507.327.76.81.76 1.447 0 .328-.098.625-.294.891-.197.263-.487.463-.872.603.428.1.771.297 1.029.59.262.292.393.642.393 1.048 0 .65-.24 1.149-.721 1.494-.476.345-1.151.517-2.024.517h-3.204zm1.212-3.112v2.136h2.005c.507 0 .884-.094 1.133-.282.254-.187.38-.452.38-.792 0-.708-.519-1.062-1.559-1.062h-1.959zm0-.97h1.566c1.136 0 1.703-.331 1.703-.995 0-.664-.537-1.007-1.611-1.029h-1.658v2.025z" fill="#fff"/></svg>