<svg width="50" height="42" viewBox="0 0 50 42" fill="none" xmlns="http://www.w3.org/2000/svg">
<path d="M22.7592 41.8333C32.6135 41.8333 40.602 33.736 40.602 23.7476C40.602 13.7592 32.6135 5.66199 22.7592 5.66199C12.905 5.66199 4.9165 13.7592 4.9165 23.7476C4.9165 33.736 12.905 41.8333 22.7592 41.8333Z" fill="#F4F8FF"/>
<path fill-rule="evenodd" clip-rule="evenodd" d="M8.72314 15.439H12.6882V17.1056H8.72314V15.439Z" fill="#4C739E"/>
<path fill-rule="evenodd" clip-rule="evenodd" d="M0 18.6542H10.3091V20.3208H0V18.6542Z" fill="#4C739E"/>
<path fill-rule="evenodd" clip-rule="evenodd" d="M30.9275 4.18567H41.2366V5.85233H30.9275V4.18567Z" fill="#DFEEFF"/>
<path fill-rule="evenodd" clip-rule="evenodd" d="M22.2043 37.1417H36.4785V38.8084H22.2043V37.1417Z" fill="#DFEEFF"/>
<path fill-rule="evenodd" clip-rule="evenodd" d="M3.17212 0.166626H17.4463V1.83329H3.17212V0.166626Z" fill="#DFEEFF"/>
<path fill-rule="evenodd" clip-rule="evenodd" d="M7.13705 17.1056H5.55103V15.439H7.13705V17.1056Z" fill="#4C739E"/>
<path fill-rule="evenodd" clip-rule="evenodd" d="M27.7554 4.18567H29.3414V5.85233H27.7554V4.18567Z" fill="#DFEEFF"/>
<path fill-rule="evenodd" clip-rule="evenodd" d="M24.5833 4.18567H26.1693V5.85233H24.5833V4.18567Z" fill="#DFEEFF"/>
<path fill-rule="evenodd" clip-rule="evenodd" d="M21.4114 4.18567H22.9974V5.85233H21.4114V4.18567Z" fill="#DFEEFF"/>
<path d="M49.1667 11.4495H13.4812V32.3484H49.1667V11.4495Z" fill="white"/>
<path fill-rule="evenodd" clip-rule="evenodd" d="M12.6479 10.6161H50.0001V33.1817H12.6479V27.5255H14.3146V31.515H48.3334V12.2828H14.3146V25.1141H12.6479V10.6161Z" fill="#4C739E"/>
<path d="M42.8226 28.3294H19.8253C19.8253 26.9629 18.7944 25.918 17.4463 25.918V17.8799C18.7944 17.8799 19.8253 16.835 19.8253 15.4685H42.8226C42.8226 16.835 43.8535 17.8799 45.2017 17.8799V25.918C43.8535 25.918 42.8226 27.0433 42.8226 28.3294Z" fill="#A3D4FF"/>
<path fill-rule="evenodd" clip-rule="evenodd" d="M18.9921 14.6351H43.656V15.4685C43.656 16.3854 44.3245 17.0465 45.2017 17.0465H46.0351V26.7513H45.2017C44.3423 26.7513 43.656 27.4746 43.656 28.3294V29.1627H18.9921V28.3294C18.9921 27.4125 18.3237 26.7513 17.4464 26.7513H16.613V17.0465H17.4464C18.3237 17.0465 18.9921 16.3854 18.9921 15.4685V14.6351ZM20.5568 16.3018C20.2713 17.4374 19.4101 18.3162 18.2797 18.6086V25.1893C19.4101 25.4816 20.2713 26.3604 20.5568 27.496H42.0989C42.3905 26.4029 43.2411 25.4979 44.3684 25.1939V18.6086C43.238 18.3162 42.3769 17.4374 42.0913 16.3018H20.5568Z" fill="#4C739E"/>
<path fill-rule="evenodd" clip-rule="evenodd" d="M23.7904 22.7322H22.2043V21.0656H23.7904V22.7322Z" fill="#4C739E"/>
<path fill-rule="evenodd" clip-rule="evenodd" d="M40.4434 22.7322H38.8574V21.0656H40.4434V22.7322Z" fill="#4C739E"/>
<path d="M31.3239 25.9179C33.2948 25.9179 34.8925 24.1186 34.8925 21.8989C34.8925 19.6793 33.2948 17.8799 31.3239 17.8799C29.3531 17.8799 27.7554 19.6793 27.7554 21.8989C27.7554 24.1186 29.3531 25.9179 31.3239 25.9179Z" fill="white"/>
<path fill-rule="evenodd" clip-rule="evenodd" d="M31.324 18.7132C29.9037 18.7132 28.5888 20.0436 28.5888 21.8989C28.5888 23.7542 29.9037 25.0846 31.324 25.0846C32.7443 25.0846 34.0592 23.7542 34.0592 21.8989C34.0592 20.0436 32.7443 18.7132 31.324 18.7132ZM26.9221 21.8989C26.9221 19.3149 28.8025 17.0465 31.324 17.0465C33.8455 17.0465 35.7259 19.3149 35.7259 21.8989C35.7259 24.4829 33.8455 26.7512 31.324 26.7512C28.8025 26.7512 26.9221 24.4829 26.9221 21.8989Z" fill="#4C739E"/>
<path fill-rule="evenodd" clip-rule="evenodd" d="M5.55103 24.2808H15.8602V25.9474H5.55103V24.2808Z" fill="#4C739E"/>
</svg>
