<svg width="61" height="60" fill="none" xmlns="http://www.w3.org/2000/svg">
    <path d="M2.81 27.336h55.98v-5.67H47.307v-2.584L30.8 5.733l-16.507 13.35v2.583H2.81v5.67z" fill="#A3D4FF"/>
    <path d="M59.508 28.054H2.092v-4.522h1.435v3.086h54.546v-2.44h1.435v3.876z" fill="#4C739E"/>
    <path d="M30.8 21.594a4.45 4.45 0 1 0 0-8.9 4.45 4.45 0 0 0 0 8.9z" fill="#fff"/>
    <path d="M30.8 22.384a5.146 5.146 0 0 1-5.168-5.168A5.146 5.146 0 0 1 30.8 12.05a5.146 5.146 0 0 1 5.167 5.167c0 2.8-2.296 5.168-5.167 5.168zm0-8.972a3.707 3.707 0 0 0-3.732 3.732 3.706 3.706 0 0 0 3.732 3.733 3.706 3.706 0 0 0 3.732-3.732 3.706 3.706 0 0 0-3.732-3.733z"
          fill="#4C739E"/>
    <path d="M59.508 22.384H46.59V19.44L30.8 6.666 15.01 19.441v2.943H2.093v-2.369L.8 18.723v-6.746h18.588v1.435H2.236v4.737l1.292 1.292v1.507h10.048v-2.225L30.8 4.8l17.225 13.923v2.225h10.048v-1.507l1.292-1.292v-4.737H42.21v-1.435H60.8v6.746l-1.292 1.292v2.369zM4.03 29.848v26.124h1.435v-6.244h2.44v-1.435h-2.44v-4.306h2.44V42.55h-2.44V37.6h2.44v-1.435h-2.44v-4.88h8.11v16.435h1.436V29.848H4.03zM25.13 47.719h-1.435V34.01a2.802 2.802 0 0 0-2.8-2.798c-1.578 0-2.798 1.22-2.798 2.799v13.708H16.66V34.01c0-2.296 1.866-4.234 4.235-4.234 2.296 0 4.234 1.866 4.234 4.235v13.708zM47.235 29.848v17.87h1.436V31.284h8.11v4.88h-2.44V37.6h2.44v4.952h-2.44v1.435h2.44v4.307h-2.44v1.435h2.44v6.244h1.435V29.848h-10.98zM45.513 47.719h-1.435V34.01a2.802 2.802 0 0 0-2.8-2.798c-1.578 0-2.799 1.22-2.799 2.799v13.708h-1.435V34.01c0-2.296 1.866-4.234 4.234-4.234 2.297 0 4.235 1.866 4.235 4.235v13.708zM35.322 47.719h-1.436V34.01a2.802 2.802 0 0 0-2.799-2.798c-1.507 0-2.799 1.22-2.799 2.799v13.708h-1.435V34.01c0-2.296 1.866-4.234 4.234-4.234 2.297 0 4.235 1.866 4.235 4.235v13.708zM49.89 50.805H11.71v1.435h38.18v-1.435zM53.049 54.609H8.55v1.435H53.05v-1.435z"
          fill="#4C739E"/>
</svg>