<svg width="60" height="60" fill="none" xmlns="http://www.w3.org/2000/svg">
    <g clip-path="url(#a)">
        <path d="M1.797 27.687h55.596v-5.63H45.99V19.49L29.595 6.233 13.201 19.49v2.565H1.797v5.631z" fill="#A3D4FF"/>
        <path d="M58.106 28.4H1.084v-4.49H2.51v3.065h54.17V24.55h1.426v3.85z" fill="#4C739E"/>
        <path d="M29.595 21.985a4.42 4.42 0 1 0 0-8.838 4.42 4.42 0 0 0 0 8.838z" fill="#fff"/>
        <path d="M29.595 22.77a5.11 5.11 0 0 1-5.132-5.133 5.11 5.11 0 0 1 5.132-5.132 5.11 5.11 0 0 1 5.132 5.132c0 2.78-2.28 5.132-5.132 5.132zm0-8.91a3.681 3.681 0 0 0-3.706 3.706 3.681 3.681 0 0 0 3.706 3.706 3.681 3.681 0 0 0 3.707-3.706 3.681 3.681 0 0 0-3.707-3.706z"
              fill="#4C739E"/>
        <path d="M58.106 22.77h-12.83v-2.923L29.596 7.16 13.913 19.847v2.922H1.084v-2.352l-1.283-1.283v-6.7h18.461v1.426H1.227v4.704l1.283 1.283v1.497h9.979v-2.21L29.595 5.306l17.107 13.828v2.21h9.979v-1.497l1.283-1.283V13.86H40.928v-1.426H59.39v6.7l-1.283 1.283v2.352zM3.009 30.182v25.945h1.425v-6.201h2.424V48.5H4.434v-4.276h2.424v-1.426H4.434V37.88h2.424v-1.425H4.434v-4.847h8.055V47.93h1.425V30.182H3.01zM23.964 47.93H22.54V34.316a2.783 2.783 0 0 0-2.78-2.78c-1.568 0-2.78 1.212-2.78 2.78V47.93h-1.425V34.316c0-2.28 1.853-4.205 4.205-4.205 2.28 0 4.205 1.853 4.205 4.205V47.93zM44.207 47.93h-1.425V34.316a2.783 2.783 0 0 0-2.78-2.78c-1.568 0-2.78 1.212-2.78 2.78V47.93h-1.426V34.316c0-2.28 1.854-4.205 4.206-4.205 2.28 0 4.205 1.853 4.205 4.205V47.93zM34.086 47.93H32.66V34.316a2.783 2.783 0 0 0-2.78-2.78 2.783 2.783 0 0 0-2.78 2.78V47.93h-1.425V34.316c0-2.28 1.853-4.205 4.205-4.205 2.281 0 4.206 1.853 4.206 4.205V47.93zM48.555 50.995h-37.92v1.426h37.92v-1.426zM51.691 54.773H7.5v1.425h44.192v-1.425z"
              fill="#4C739E"/>
        <path d="M58.562 38.838c0 4.939-4.71 7.978-6.838 11.777-1.444 2.583.076 4.559-1.9 4.559-1.975 0-.455-1.976-1.9-4.559-2.127-3.8-6.837-6.079-6.837-11.777a8.69 8.69 0 0 1 8.737-8.738 8.69 8.69 0 0 1 8.738 8.738z"
              fill="#A3D4FF"/>
        <path d="M49.825 55.934c-1.824 0-1.9-1.368-1.9-2.28 0-.76-.076-1.672-.684-2.66-.684-1.215-1.596-2.203-2.66-3.343-1.975-2.203-4.254-4.71-4.254-8.813 0-5.243 4.255-9.498 9.498-9.498 5.242 0 9.497 4.255 9.497 9.498 0 3.57-2.203 6.154-4.255 8.661-.987 1.216-1.975 2.356-2.66 3.496-.607.987-.607 1.9-.683 2.659-.076.912-.076 2.28-1.9 2.28zm-.304-1.52h.303c.228 0 .304-.076.304-.076.076-.076.076-.532.076-.836.076-.836.076-2.051.836-3.343.76-1.292 1.824-2.584 2.812-3.723 2.051-2.356 3.95-4.635 3.95-7.674 0-4.331-3.57-7.902-7.977-7.902a7.977 7.977 0 0 0-7.979 7.978c0 3.495 1.9 5.622 3.952 7.826.987 1.14 2.051 2.28 2.81 3.57.76 1.292.837 2.508.837 3.344 0 .304 0 .684.076.836z"
              fill="#4C739E"/>
        <path d="M49.825 42.257a3.42 3.42 0 1 0 0-6.838 3.42 3.42 0 0 0 0 6.838z" fill="#fff"/>
        <path d="M49.825 43.093a4.248 4.248 0 0 1-4.255-4.255c0-2.356 1.9-4.255 4.255-4.255s4.255 1.9 4.255 4.255-1.9 4.255-4.255 4.255zm0-6.839a2.562 2.562 0 0 0-2.584 2.584 2.562 2.562 0 0 0 2.584 2.583 2.562 2.562 0 0 0 2.583-2.583 2.562 2.562 0 0 0-2.584-2.584z"
              fill="#4C739E"/>
    </g>
    <defs>
        <clipPath id="a">
            <path fill="#fff" d="M0 0h60v60H0z"/>
        </clipPath>
    </defs>
</svg>