<svg width="60" height="50" fill="none" xmlns="http://www.w3.org/2000/svg">
    <path d="M56.8 15c1.4 3.4 2.2 7.1 2.2 11 0 5.1-1.3 9.8-3.6 14M4.6 40C2.3 35.8 1 31.1 1 26c0-6.4 2-12.2 5.5-17"
          stroke="#DFEEFF" stroke-width="2" stroke-miterlimit="10"/>
    <path d="M46 45h-3M53 45h-3M48 47v3M48 40v3M12 45l-2 2M17 40l-2 2M15 45l2 2M10 40l2 2M32 9.1c8.4 1 15 8.2 15 16.9 0 9.4-7.6 17-17 17M14 31.8c-.6-1.8-1-3.8-1-5.8 0-4.7 1.9-8.9 5-12M48.3 12c3 3.9 4.7 8.7 4.7 14 0 3.2-.7 6.2-1.8 9"
          stroke="#4C739E" stroke-width="2" stroke-miterlimit="10"/>
    <path d="M7 26c0-7 3.1-13.2 8-17.4C19 5.1 24.3 3 30 3M39 47.2c-2.8 1.2-5.8 1.8-9 1.8-1.7 0-3.4-.2-5-.5-1.4-.3-2.7-.7-4-1.3M45 0v3M45 7v3M43 5h-3M50 5h-3"
          stroke="#4C739E" stroke-width="2" stroke-miterlimit="10"/>
    <path d="m30.2 15 3.3 6.8 7.5 1.1-5.4 5.2 1.3 7.5-6.7-3.6-6.7 3.6 1.3-7.5-5.4-5.2 7.5-1.1 3.3-6.8z" fill="#A3D4FF"
          stroke="#4C739E" stroke-width="2" stroke-miterlimit="10"/>
</svg>