<svg width="60" height="60" fill="none" xmlns="http://www.w3.org/2000/svg">
    <path d="M30.821 58.174c15.789 0 28.587-12.799 28.587-28.587S46.61 1 30.821 1C15.033 1 2.234 13.799 2.234 29.587s12.8 28.587 28.587 28.587z"
          fill="#F4F8FF"/>
    <path d="M13.65 11.543A4.694 4.694 0 0 1 8.939 6.83a4.694 4.694 0 0 1 4.713-4.713 4.694 4.694 0 0 1 4.713 4.713 4.694 4.694 0 0 1-4.713 4.713zm0-7.331a2.593 2.593 0 0 0-2.618 2.618 2.593 2.593 0 0 0 2.619 2.619 2.593 2.593 0 0 0 2.618-2.619 2.593 2.593 0 0 0-2.618-2.618zM31.002 6.586h-2.095v6.284h2.095V6.586z"
          fill="#DFEEFF"/>
    <path d="M33.097 8.68h-6.284v2.095h6.284V8.681zM4.19 19.643H2.094v6.284h2.094v-6.284z" fill="#DFEEFF"/>
    <path d="M6.284 21.738H0v2.095h6.284v-2.095z" fill="#DFEEFF"/>
    <path d="M20.57 16.51a3.955 3.955 0 0 0-3.944 3.942v20.701a3.955 3.955 0 0 0 3.944 3.943H55.07a3.955 3.955 0 0 0 3.943-3.943v-20.7a3.955 3.955 0 0 0-3.943-3.944H20.57z"
          fill="#A3D4FF"/>
    <path d="M55.071 46.082H20.57c-2.76 0-4.93-2.169-4.93-4.929v-20.7c0-2.76 2.17-4.93 4.93-4.93H55.07c2.76 0 4.929 2.17 4.929 4.93v20.7c0 2.76-2.169 4.93-4.929 4.93zM20.57 17.495c-1.676 0-2.958 1.282-2.958 2.957v20.701c0 1.676 1.282 2.958 2.958 2.958H55.07c1.676 0 2.958-1.282 2.958-2.958v-20.7c0-1.676-1.282-2.958-2.958-2.958H20.57z"
          fill="#4C739E"/>
    <path d="M28.456 37.21H22.54v1.972h5.915V37.21zM36.342 37.21h-4.93v1.972h4.93V37.21zM45.214 37.21h-5.915v1.972h5.915V37.21zM54.085 37.21h-5.914v1.972h5.914V37.21z"
          fill="#4C739E"/>
    <path d="M54.085 25.874c0 1.873-1.577 3.45-3.45 3.45h-.985c-1.873 0-3.45-1.577-3.45-3.45 0-1.873 1.577-3.45 3.45-3.45h.985c1.873 0 3.45 1.577 3.45 3.45z"
          fill="#fff"/>
    <path d="M50.635 30.31h-.986a4.417 4.417 0 0 1-4.435-4.436 4.418 4.418 0 0 1 4.435-4.436h.986a4.418 4.418 0 0 1 4.436 4.436 4.417 4.417 0 0 1-4.436 4.436zm-.986-6.9a2.44 2.44 0 0 0-2.464 2.464 2.44 2.44 0 0 0 2.464 2.465h.986a2.44 2.44 0 0 0 2.465-2.465 2.44 2.44 0 0 0-2.465-2.464h-.986z"
          fill="#4C739E"/>
    <path d="M20.88 41.371c-.33.048-.66 0-.99-.096-.331-.145-.756 0-.945.337-.85 1.347-2.832 1.347-3.73 0-.188-.337-.613-.433-.943-.337-.189.096-.425.096-.614.144 0 0-.897 4.812-4.72 9.528 1.746-.096 2.785-.577 3.965-1.25.425.577.897 1.587 1.274 2.694.992-.962 2.691-4.331 3.258-5.775.708 2.118 1.746 4.572 3.02 5.775.378-1.107.85-2.117 1.275-2.695 1.18.626 2.219 1.107 3.965 1.251-3.823-4.716-4.814-9.576-4.814-9.576z"
          fill="#A3D4FF"/>
    <path fill-rule="evenodd" clip-rule="evenodd"
          d="M9.494 49.91a23.978 23.978 0 0 0 3.357-5.532 20.15 20.15 0 0 0 .795-2.147 13.254 13.254 0 0 0 .22-.82l.002-.012v-.004l.001-.001-.496-.088-.495-.087v.002l-.002.007-.008.036a12.367 12.367 0 0 1-.194.716c-.15.494-.392 1.203-.76 2.053a23.097 23.097 0 0 1-3.978 6.198.437.437 0 0 0-.058.512.515.515 0 0 0 .488.25c1.758-.132 2.888-.544 4.031-1.073.35.529.732 1.301 1.055 2.158.056.15.191.263.358.3a.534.534 0 0 0 .467-.115c.309-.272.644-.688.973-1.153.335-.472.683-1.021 1.015-1.58a38.989 38.989 0 0 0 1.61-3.008l-.926-.37c-.322.684-.92 1.836-1.57 2.93a22.857 22.857 0 0 1-.974 1.519c-.107.15-.21.29-.308.415-.349-.796-.745-1.508-1.127-1.978a.532.532 0 0 0-.637-.134c-.925.444-1.742.8-2.839 1.005z"
          fill="#4C739E"/>
    <path fill-rule="evenodd" clip-rule="evenodd"
          d="M21.92 44.034a24.503 24.503 0 0 0 3.67 6.199.47.47 0 0 1 .053.512.458.458 0 0 1-.444.248c-1.601-.131-2.63-.543-3.67-1.071-.32.528-.666 1.3-.96 2.157a.455.455 0 0 1-.75.185c-.69-.66-1.287-1.618-1.794-2.65-.51-1.038-.945-2.182-1.296-3.241a41.874 41.874 0 0 1-1.07-3.852l-.014-.062-.003-.017-.001-.005.449-.098.45-.098v.005l.003.014a17.45 17.45 0 0 0 .065.285 40.85 40.85 0 0 0 .992 3.531c.344 1.036.762 2.137 1.247 3.123.35.71.725 1.345 1.121 1.85.32-.808.687-1.533 1.04-2.009a.456.456 0 0 1 .58-.133c.841.443 1.584.798 2.582 1.004a25.566 25.566 0 0 1-3.099-5.522 22.431 22.431 0 0 1-.755-2.143 14.84 14.84 0 0 1-.214-.818l-.003-.012v-.004s0-.002.45-.097l.449-.096v.002l.002.008.008.035.035.147c.032.13.082.323.155.57.144.494.376 1.203.723 2.053z"
          fill="#4C739E"/>
    <path d="M24.107 33.993c.922-1.294.323-3.336-1.106-3.834a.81.81 0 0 1-.553-.846c.047-1.643-1.52-2.938-2.948-2.34-.323.149-.738 0-.922-.35-.83-1.393-2.765-1.393-3.64 0-.184.35-.6.45-.922.35-1.428-.548-2.995.697-2.949 2.34 0 .398-.23.747-.553.846-1.474.448-2.073 2.49-1.105 3.834.23.299.23.747 0 1.046-.922 1.294-.323 3.336 1.105 3.834a.81.81 0 0 1 .553.846c-.046 1.643 1.52 2.938 2.95 2.34.322-.15.737 0 .92.349.83 1.394 2.766 1.394 3.641 0 .184-.349.599-.448.922-.349 1.428.548 2.995-.697 2.948-2.34 0-.398.23-.747.553-.846 1.475-.448 2.074-2.49 1.106-3.834-.23-.349-.23-.747 0-1.046z"
          fill="#fff"/>
    <path fill-rule="evenodd" clip-rule="evenodd"
          d="M14.382 26.776c1.137-1.59 3.663-1.608 4.759.01l.007.01.006.01a.324.324 0 0 0 .367.131l.008-.003.009-.003c1.9-.698 3.919.805 3.86 2.67l-.002.023-.002.022a.218.218 0 0 0 .053.165.37.37 0 0 0 .187.125l.008.002.008.002c1.866.571 2.64 2.881 1.435 4.368l-.006.008-.006.007c-.084.094-.113.23.017.407 1.24 1.526.486 3.847-1.457 4.366-.11.03-.233.156-.235.343.053 1.874-1.962 3.288-3.829 2.673a.515.515 0 0 0-.258.006.258.258 0 0 0-.157.107l-.01.016-.01.015c-1.137 1.589-3.663 1.607-4.759-.01l-.007-.01-.006-.01a.324.324 0 0 0-.367-.131l-.008.003-.009.003c-1.9.698-3.919-.805-3.86-2.67l.001-.023.003-.022a.218.218 0 0 0-.053-.166.37.37 0 0 0-.187-.124l-.008-.002-.008-.002C8 38.52 7.226 36.21 8.431 34.724l.006-.008.006-.007a.298.298 0 0 0 0-.386l-.005-.007-.005-.006c-1.25-1.525-.496-3.855 1.45-4.375.11-.03.233-.155.235-.342-.053-1.874 1.961-3.288 3.829-2.673.08.02.176.018.258-.006a.258.258 0 0 0 .157-.108l.01-.015.01-.015zm.832.517c-.35.559-1.062.664-1.552.531l-.015-.004-.014-.005c-1.209-.407-2.56.53-2.52 1.758v.014c0 .564-.372 1.097-.957 1.256h-.002c-1.234.33-1.772 1.861-.94 2.883.393.455.394 1.123 0 1.579-.774.964-.258 2.512.951 2.887.522.146 1.017.646.947 1.285-.026 1.236 1.325 2.173 2.5 1.747.582-.23 1.283 0 1.606.52.694 1.013 2.329 1.032 3.084-.005.35-.559 1.062-.664 1.552-.531l.015.004.014.005c1.209.406 2.56-.53 2.52-1.758v-.015c0-.563.372-1.096.957-1.255h.002c1.236-.33 1.774-1.867.936-2.888l-.006-.008-.006-.008c-.36-.477-.39-1.09.015-1.558.775-.964.26-2.512-.95-2.887-.522-.146-1.017-.646-.947-1.285.026-1.236-1.325-2.173-2.5-1.747-.582.23-1.283 0-1.606-.521-.694-1.012-2.33-1.031-3.084.006z"
          fill="#4C739E"/>
    <path d="M16.758 38.985a4.469 4.469 0 1 0 0-8.938 4.469 4.469 0 0 0 0 8.938z" fill="#A3D4FF"/>
    <path fill-rule="evenodd" clip-rule="evenodd"
          d="M16.758 30.94a3.575 3.575 0 1 0 0 7.151 3.575 3.575 0 0 0 0-7.15zm-4.469 3.576a4.469 4.469 0 1 1 8.938 0 4.469 4.469 0 0 1-8.938 0z"
          fill="#4C739E"/>
</svg>