<svg width="60" height="60" fill="none" xmlns="http://www.w3.org/2000/svg">
    <path d="M2.666 27.166h51.538v-5.22H43.632v-2.378L28.435 7.278l-15.197 12.29v2.378H2.666v5.22z" fill="#A3D4FF"/>
    <path d="M54.865 27.827H2.005v-4.163h1.322v2.842h50.216v-2.247h1.322v3.568z" fill="#4C739E"/>
    <path d="M28.435 21.88a4.097 4.097 0 1 0 0-8.193 4.097 4.097 0 0 0 0 8.193z" fill="#fff"/>
    <path d="M28.435 22.607a4.738 4.738 0 0 1-4.757-4.757 4.737 4.737 0 0 1 4.757-4.758 4.738 4.738 0 0 1 4.757 4.758c0 2.577-2.114 4.757-4.757 4.757zm0-8.26a3.412 3.412 0 0 0-3.436 3.437 3.412 3.412 0 0 0 3.436 3.436 3.412 3.412 0 0 0 3.436-3.436 3.412 3.412 0 0 0-3.436-3.436z"
          fill="#4C739E"/>
    <path d="M54.865 22.607H42.97v-2.709L28.435 8.137 13.899 19.898v2.71H2.005v-2.181l-1.19-1.19v-6.21H17.93v1.32H2.137v4.362l1.19 1.19v1.387h9.25v-2.049L28.435 6.42l15.858 12.818v2.049h9.25v-1.388l1.19-1.19v-4.36H38.94v-1.322h17.113v6.211l-1.19 1.19v2.18zM3.79 29.479v24.05h1.32v-5.748h2.247V46.46H5.111v-3.965h2.246v-1.321H5.111v-4.56h2.246v-1.32H5.111V30.8h7.466v15.131h1.322V29.48H3.789zM23.215 45.931h-1.322v-12.62a2.58 2.58 0 0 0-2.576-2.577c-1.454 0-2.577 1.124-2.577 2.577v12.62h-1.322v-12.62c0-2.114 1.718-3.898 3.899-3.898 2.114 0 3.898 1.718 3.898 3.898v12.62zM41.98 44H41l-.341-10.689a2.58 2.58 0 0 0-2.577-2.577c-1.454 0-2.577 1.124-2.577 2.577v12.62h-1.322v-12.62c0-2.114 1.718-3.898 3.899-3.898 2.114 0 3.898 1.718 3.898 3.898V44zM32.598 45.931h-1.322v-12.62a2.58 2.58 0 0 0-2.577-2.577 2.58 2.58 0 0 0-2.577 2.577v12.62h-1.321v-12.62c0-2.114 1.718-3.898 3.898-3.898 2.115 0 3.899 1.718 3.899 3.898v12.62zM40.485 48.773H10.86v1.321h29.626v-1.321zM42.476 52.275H7.952v1.321h34.524v-1.321z"
          fill="#4C739E"/>
    <path d="M52.132 43.864c-.408.06-.816 0-1.224-.118-.409-.179-.934 0-1.167.416-1.05 1.664-3.498 1.664-4.606 0-.233-.416-.758-.535-1.166-.416-.233.118-.525.118-.758.178 0 0-1.108 5.944-5.831 11.769 2.157-.119 3.44-.713 4.898-1.545.525.713 1.108 1.961 1.574 3.328 1.225-1.189 3.324-5.35 4.023-7.133.875 2.616 2.158 5.647 3.732 7.133.467-1.367 1.05-2.615 1.575-3.328 1.457.772 2.74 1.367 4.897 1.545-4.723-5.825-5.947-11.829-5.947-11.829z"
          fill="#A3D4FF"/>
    <path fill-rule="evenodd" clip-rule="evenodd"
          d="M38.067 54.41a29.61 29.61 0 0 0 4.147-6.831c.474-1.093.786-2.008.982-2.653a16.576 16.576 0 0 0 .271-1.012l.003-.016.001-.004v-.001l-.612-.109-.613-.107v.001l-.002.01a6.276 6.276 0 0 1-.053.225c-.04.16-.104.399-.197.704-.184.61-.483 1.485-.938 2.535a28.525 28.525 0 0 1-4.913 7.657.54.54 0 0 0-.072.632.636.636 0 0 0 .603.307c2.172-.162 3.567-.67 4.98-1.324.432.653.903 1.607 1.302 2.666.07.185.236.324.442.37a.66.66 0 0 0 .577-.142c.381-.336.795-.85 1.203-1.424.413-.583.842-1.262 1.252-1.953a48.182 48.182 0 0 0 1.99-3.715l-1.145-.457a47.083 47.083 0 0 1-1.939 3.62c-.4.675-.813 1.326-1.202 1.876a13.4 13.4 0 0 1-.38.512c-.432-.983-.922-1.862-1.394-2.443a.657.657 0 0 0-.786-.165c-1.143.548-2.152.987-3.507 1.242z"
          fill="#4C739E"/>
    <path fill-rule="evenodd" clip-rule="evenodd"
          d="M53.417 47.154a30.264 30.264 0 0 0 4.532 7.657.58.58 0 0 1 .066.632.566.566 0 0 1-.55.307c-1.977-.163-3.247-.67-4.532-1.324-.395.653-.823 1.606-1.187 2.664a.563.563 0 0 1-.926.229c-.851-.815-1.59-1.999-2.216-3.273-.63-1.282-1.166-2.695-1.6-4.003a51.67 51.67 0 0 1-1.338-4.835l-.005-.02-.001-.007.555-.121.555-.12v.004l.005.018.016.072.063.28a50.543 50.543 0 0 0 1.226 4.362c.424 1.28.942 2.64 1.54 3.858.432.877.896 1.66 1.385 2.285.396-.998.848-1.894 1.284-2.482a.563.563 0 0 1 .716-.165c1.04.548 1.958.986 3.19 1.24a31.574 31.574 0 0 1-3.828-6.82 27.705 27.705 0 0 1-.932-2.647 18.3 18.3 0 0 1-.265-1.01l-.003-.015v-.005h-.001c0-.001 0-.002.555-.12l.556-.118v.002l.002.01.01.043.043.181c.04.161.102.4.192.705.178.61.465 1.486.893 2.536z"
          fill="#4C739E"/>
    <path d="M56.118 34.751c1.138-1.599.398-4.12-1.366-4.736-.399-.123-.74-.553-.683-1.045.057-2.03-1.879-3.629-3.643-2.89-.398.184-.91 0-1.138-.431-1.025-1.722-3.415-1.722-4.496 0-.228.43-.74.553-1.139.43-1.764-.676-3.7.861-3.642 2.89 0 .493-.285.923-.683 1.046-1.822.554-2.562 3.075-1.366 4.736.284.37.284.923 0 1.292-1.139 1.599-.399 4.12 1.366 4.735.398.123.74.554.683 1.046-.057 2.03 1.878 3.629 3.642 2.89.399-.184.91 0 1.139.431 1.024 1.722 3.414 1.722 4.496 0 .228-.43.74-.553 1.138-.43 1.764.676 3.7-.862 3.643-2.891 0-.492.284-.923.683-1.046 1.82-.553 2.56-3.075 1.366-4.735-.285-.43-.285-.923 0-1.292z"
          fill="#fff"/>
    <path fill-rule="evenodd" clip-rule="evenodd"
          d="M44.105 25.836c1.404-1.962 4.524-1.985 5.878.012l.009.013.008.013a.4.4 0 0 0 .453.162l.01-.005.01-.003c2.348-.862 4.841.994 4.767 3.299v.027l-.004.027a.27.27 0 0 0 .066.205c.06.075.147.13.23.153l.01.003.01.003c2.306.705 3.263 3.559 1.773 5.395l-.007.01-.008.008c-.103.117-.139.285.022.504 1.532 1.884.6 4.752-1.8 5.393-.136.037-.288.191-.291.423.066 2.314-2.422 4.06-4.729 3.301a.638.638 0 0 0-.319.007.319.319 0 0 0-.193.134l-.012.02-.014.018c-1.404 1.962-4.524 1.985-5.878-.012l-.008-.013-.008-.013a.4.4 0 0 0-.453-.162l-.01.004-.01.004c-2.348.862-4.842-.994-4.768-3.299v-.027l.004-.028a.27.27 0 0 0-.066-.204.458.458 0 0 0-.23-.154l-.01-.002-.01-.003c-2.306-.706-3.262-3.559-1.773-5.396l.008-.009.008-.008a.368.368 0 0 0 0-.478l-.007-.007-.006-.008c-1.545-1.884-.613-4.762 1.79-5.404.137-.037.289-.192.292-.423-.066-2.314 2.422-4.061 4.728-3.302.1.024.218.023.319-.007a.319.319 0 0 0 .194-.133l.012-.02.013-.018zm1.028.639c-.434.69-1.312.82-1.917.656l-.019-.005-.018-.006c-1.492-.502-3.16.654-3.112 2.171V29.31c0 .697-.46 1.355-1.182 1.55l-.003.001c-1.524.407-2.188 2.3-1.16 3.561.485.562.486 1.388 0 1.95-.957 1.191-.32 3.103 1.174 3.566.645.18 1.256.799 1.17 1.588-.032 1.526 1.637 2.684 3.089 2.157.717-.284 1.584.002 1.982.644.858 1.25 2.877 1.274 3.81-.007.433-.69 1.312-.82 1.917-.656l.018.005.018.006c1.492.502 3.16-.654 3.112-2.172v-.017c0-.697.46-1.355 1.183-1.55l.002-.002c1.526-.407 2.19-2.305 1.156-3.567l-.008-.01-.007-.009c-.444-.59-.482-1.345.02-1.925.956-1.19.32-3.103-1.175-3.566-.645-.18-1.256-.798-1.17-1.587.032-1.526-1.636-2.684-3.088-2.158-.718.285-1.584 0-1.983-.643-.858-1.25-2.877-1.274-3.81.007z"
          fill="#4C739E"/>
    <path d="M47.04 40.917a5.52 5.52 0 1 0 0-11.04 5.52 5.52 0 0 0 0 11.04z" fill="#A3D4FF"/>
    <path fill-rule="evenodd" clip-rule="evenodd"
          d="M47.04 30.981a4.416 4.416 0 1 0 0 8.832 4.416 4.416 0 0 0 0-8.832zm-5.52 4.416a5.52 5.52 0 1 1 11.04 0 5.52 5.52 0 0 1-11.04 0z"
          fill="#4C739E"/>
</svg>