<svg width="60" height="60" fill="none" xmlns="http://www.w3.org/2000/svg">
    <path d="M20.5 43C31.822 43 41 33.822 41 22.5S31.822 2 20.5 2 0 11.178 0 22.5 9.178 43 20.5 43z" fill="#F4F8FF"/>
    <path d="M51.23 25.23H6v30.462h45.23V25.231z" fill="#fff"/>
    <path d="M52.154 56.615H5.077V24.308h47.077v32.307zM6.924 54.77h43.384V26.154H6.923v28.615zM36.185 23.108H21.046v-5.816c0-2.4 1.846-4.246 4.246-4.246h6.646c2.4 0 4.247 1.846 4.247 4.246v5.816zM23.26 20.892h10.616v-3.6c0-1.107-.83-2.03-2.03-2.03H25.2c-1.108 0-2.03.83-2.03 2.03v3.6h.091z"
          fill="#4C739E"/>
    <path d="M44.4 39.077H12.83c-4.522 0-8.215-3.692-8.215-8.215V20.614h48v10.247c0 4.523-3.692 8.215-8.215 8.215z"
          fill="#A3D4FF"/>
    <path d="M44.4 40H12.83a9.1 9.1 0 0 1-9.138-9.138v-11.17h49.846v11.17A9.1 9.1 0 0 1 44.4 40zM5.538 21.538v9.324a7.25 7.25 0 0 0 7.293 7.292H44.4a7.25 7.25 0 0 0 7.292-7.292v-9.323H5.538zM18.462 52.923H8.308v-9.23h1.846v7.384h8.308v1.846zM48.923 52.923H38.77v-1.846h8.308v-7.385h1.846v9.231z"
          fill="#4C739E"/>
    <path d="M21.23 36.308h-5.538v6.461h5.539v-6.461z" fill="#fff"/>
    <path d="M22.154 43.692h-7.385v-8.307h7.385v8.307zm-5.539-1.846h3.693v-4.615h-3.693v4.615z" fill="#4C739E"/>
    <path d="M40.615 36.308h-5.538v6.461h5.538v-6.461z" fill="#fff"/>
    <path d="M41.538 43.692h-7.384v-8.307h7.384v8.307zM36 41.846h3.692v-4.615H36v4.615zM49.846 13.23H48V16h1.846v-2.77zM54.787 13.907l-2.023 2.023 1.305 1.306 2.024-2.024-1.306-1.305zM59.405 18.137l-2.745.366.244 1.83 2.745-.365-.244-1.83zM60 23.385h-2.77v1.846H60v-1.846z"
          fill="#4C739E"/>
</svg>