<svg width="60" height="60" fill="none" xmlns="http://www.w3.org/2000/svg">
    <path d="M23.26 60c12.294 0 22.26-9.966 22.26-22.26 0-12.294-9.966-22.26-22.26-22.26C10.966 15.48 1 25.446 1 37.74 1 50.034 10.966 60 23.26 60z"
          fill="#F4F8FF"/>
    <path d="M18.22 41.82h-1.8v1.8h1.8v-1.8z" fill="#4C739E"/>
    <path d="M32.8 19.08H22.78v23.64H32.8V19.08z" fill="#fff"/>
    <path d="M33.7 43.62H21.88V18.18H33.7v25.44zm-9.96-1.8h8.16V19.98h-8.16v21.84z" fill="#4C739E"/>
    <path d="M32.8 13.62h-7.26v5.46h7.26v-5.46z" fill="#fff"/>
    <path d="M33.7 19.98h-9.06v-7.26h9.12v7.26h-.06zm-7.26-1.8h5.46v-3.66h-5.46v3.66z" fill="#4C739E"/>
    <path d="M57.34 5.46H32.8v37.26h24.54V5.46z" fill="#fff"/>
    <path d="M58.24 43.62H31.9V4.56h26.34v39.06zm-24.54-1.8h22.74V6.36H33.7v35.46z" fill="#4C739E"/>
    <path d="M48.28 35.46h-6.36v7.26h6.36v-7.26z" fill="#fff"/>
    <path d="M49.18 43.62h-8.22v-9.06h8.16v9.06h.06zm-6.36-1.8h4.56v-5.46h-4.56v5.46z" fill="#4C739E"/>
    <path d="M54.58.9H35.5v4.56h19.08V.9z" fill="#fff"/>
    <path d="M55.54 6.36H34.6V0h20.88v6.36h.06zm-19.08-1.8h17.28V1.8H36.46v2.76z" fill="#4C739E"/>
    <path d="M42.82 18.18v-4.56h-5.46v4.56" fill="#fff"/>
    <path d="M43.72 18.18h-1.8v-3.66h-3.66v3.66h-1.8v-5.46h7.26v5.46z" fill="#4C739E"/>
    <path d="M42.82 26.34v-4.5h-5.46v4.5" fill="#fff"/>
    <path d="M43.72 26.34h-1.8v-3.6h-3.66v3.6h-1.8v-5.46h7.26v5.46z" fill="#4C739E"/>
    <path d="M53.74 18.18v-4.56h-5.46v4.56" fill="#fff"/>
    <path d="M54.64 18.18h-1.86v-3.66h-3.6v3.66h-1.86v-5.46h7.32v5.46z" fill="#4C739E"/>
    <path d="M53.74 26.34v-4.5h-5.46v4.5" fill="#fff"/>
    <path d="M54.64 26.34h-1.86v-3.6h-3.6v3.6h-1.86v-5.46h7.32v5.46z" fill="#4C739E"/>
    <path d="M39.16 8.16H7.36v38.16h31.8V8.16z" fill="#fff"/>
    <path d="M39.16 47.28H7.36c-.48 0-.9-.42-.9-.9V8.16c0-.48.42-.9.9-.9h31.8c.48 0 .9.42.9.9v38.16c0 .54-.42.96-.9.96zm-30.9-1.8h30V9.12h-30v36.36z"
          fill="#4C739E"/>
    <path d="M35.5 11.82H10.96v30.9H35.5v-30.9z" fill="#fff"/>
    <path d="M35.5 27.3H10.96v1.8H35.5v-1.8zM27.34 34.56H10.96v1.8h16.38v-1.8z" fill="#4C739E"/>
    <path d="M20.08 20.88h-1.8v21.84h1.8V20.88zM28.24 20.88h-1.8v21.84h1.8V20.88z" fill="#4C739E"/>
    <path d="M35.5 11.82H10.96v9.12H35.5v-9.12z" fill="#A3D4FF"/>
    <path d="M36.46 21.84h-26.4V10.92H36.4v10.92h.06zm-24.54-1.86h22.74v-7.26H11.92v7.26z" fill="#2A5082"/>
    <path d="M36.46 43.62h-26.4v-32.7H36.4v32.7h.06zm-24.54-1.8h22.74v-29.1H11.92v29.1z" fill="#4C739E"/>
    <path d="M35.5 19.98H10.96v1.8H35.5v-1.8z" fill="#4C739E"/>
    <path d="M41 56.111c7.793 0 14.111-6.318 14.111-14.111 0-7.793-6.318-14.111-14.111-14.111-7.793 0-14.111 6.318-14.111 14.111 0 7.793 6.318 14.111 14.111 14.111z"
          fill="#fff"/>
    <path d="M41 57c-8.278 0-15-6.722-15-15 0-8.278 6.722-15 15-15 8.278 0 15 6.722 15 15 0 8.278-6.722 15-15 15zm0-28.222c-7.278 0-13.222 5.889-13.222 13.222 0 7.333 5.944 13.222 13.222 13.222S54.167 49.278 54.167 42 48.277 28.778 41 28.778z"
          fill="#4C739E"/>
    <path d="M39.611 39.722c0 1.111-.278 2-.778 2.611-.5.611-1.222.945-2.166.945-.89 0-1.611-.334-2.111-.945-.5-.666-.778-1.5-.778-2.61 0-1.112.278-2 .778-2.612.5-.611 1.222-.944 2.11-.944.89 0 1.612.333 2.167.944.5.667.778 1.5.778 2.611zm-3.5 0c0 .611.056 1 .167 1.278.11.278.222.389.444.389s.334-.111.445-.389c.11-.278.166-.667.166-1.278 0-.61-.055-1-.166-1.278-.111-.277-.223-.389-.445-.389s-.333.112-.444.39c-.111.277-.167.722-.167 1.277zm9.111-3.389-6.278 11.334h-2.277l6.277-11.334h2.278zm3 7.89c0 1.11-.278 2-.778 2.61-.5.611-1.222.945-2.166.945-.89 0-1.611-.334-2.111-.945-.5-.666-.778-1.5-.778-2.61 0-1.112.278-2 .778-2.612.5-.611 1.222-.944 2.11-.944.89 0 1.612.333 2.167.944.5.667.778 1.5.778 2.611zm-3.5 0c0 .61.056 1 .167 1.277.111.278.222.389.444.389.223 0 .39-.167.445-.445.11-.277.11-.722.11-1.222s-.055-.944-.11-1.222c-.056-.278-.278-.444-.5-.444-.222 0-.334.11-.445.388-.11.278-.11.723-.11 1.278z"
          fill="#4C739E"/>
</svg>