<svg width="60" height="60" fill="none" xmlns="http://www.w3.org/2000/svg">
    <path d="M30.77 53.289c10.952 0 19.83-8.95 19.83-19.99s-8.878-19.99-19.83-19.99c-10.953 0-19.831 8.95-19.831 19.99s8.878 19.99 19.83 19.99z"
          fill="#F4F8FF"/>
    <path d="M44.927 6.796H16.612v34.26h28.315V6.797z" fill="#fff"/>
    <path d="M44.927 41.852H16.612a.782.782 0 0 1-.79-.796V6.796c0-.448.346-.796.79-.796h28.315c.444 0 .839.348.839.796v34.26c0 .448-.395.796-.839.796zM17.45 40.261h26.688V7.64H17.45v32.62z"
          fill="#4C739E"/>
    <path d="M41.72 10.078H19.869v27.697H41.72V10.078z" fill="#fff"/>
    <path d="M41.72 23.95H19.869v1.642H41.72V23.95zM34.42 30.465H19.867v1.64H34.42v-1.64z" fill="#4C739E"/>
    <path d="M27.958 18.233H26.33v19.542h1.628V18.233zM35.259 18.233H33.63v19.542h1.628V18.233z" fill="#4C739E"/>
    <path d="M41.72 10.078H19.869v8.154H41.72v-8.154z" fill="#A3D4FF"/>
    <path d="M42.51 19.028H19.078V9.282H42.51v9.746zm-21.853-1.591h20.225v-6.564H20.657v6.564z" fill="#2A5082"/>
    <path d="M42.51 38.62H19.078V9.282H42.51V38.62zm-21.853-1.641h20.225V10.873H20.657V36.98z" fill="#4C739E"/>
    <path d="M41.72 17.437H19.869v1.64H41.72v-1.64z" fill="#4C739E"/>
    <path d="M6.58 24.154a3.674 3.674 0 0 0-3.664 3.663V47.05a3.674 3.674 0 0 0 3.663 3.664h32.056a3.674 3.674 0 0 0 3.663-3.664V27.817a3.674 3.674 0 0 0-3.663-3.663H6.579z"
          fill="#A3D4FF"/>
    <path d="M38.635 51.63H6.579C4.015 51.63 2 49.615 2 47.05V27.817c0-2.564 2.015-4.58 4.58-4.58h32.054c2.565 0 4.58 2.016 4.58 4.58V47.05c0 2.565-2.015 4.58-4.58 4.58zM6.579 25.07c-1.557 0-2.747 1.19-2.747 2.747V47.05c0 1.557 1.19 2.748 2.747 2.748h32.056c1.556 0 2.747-1.19 2.747-2.748V27.817c0-1.557-1.19-2.747-2.747-2.747H6.579z"
          fill="#4C739E"/>
    <path d="M13.906 43.387H8.411v1.831h5.495v-1.831zM21.233 43.387h-4.58v1.831h4.58v-1.831zM29.476 43.387H23.98v1.831h5.495v-1.831zM37.719 43.387h-5.495v1.831h5.495v-1.831z"
          fill="#4C739E"/>
    <path d="M37.719 32.854c0 1.74-1.466 3.206-3.206 3.206h-.916c-1.74 0-3.205-1.465-3.205-3.206 0-1.74 1.465-3.205 3.205-3.205h.916c1.74 0 3.206 1.465 3.206 3.205z"
          fill="#fff"/>
    <path d="M34.513 36.976h-.916a4.104 4.104 0 0 1-4.121-4.122 4.104 4.104 0 0 1 4.121-4.121h.916a4.104 4.104 0 0 1 4.122 4.121 4.104 4.104 0 0 1-4.122 4.122zm-.916-6.411a2.267 2.267 0 0 0-2.29 2.29 2.267 2.267 0 0 0 2.29 2.29h.916a2.267 2.267 0 0 0 2.29-2.29 2.267 2.267 0 0 0-2.29-2.29h-.916z"
          fill="#4C739E"/>
    <path d="M51.143 34.609c3.355 0 6.068 1.193 6.068 2.635v8.702c0 1.442-2.713 2.636-6.068 2.636-3.354 0-6.068-1.194-6.068-2.636v-8.752c0-1.442 2.714-2.585 6.068-2.585z"
          fill="#fff"/>
    <path d="M51.143 45.001c-3.404 0-6.857-1.193-6.857-3.43v-4.377h1.628v4.376c0 .597 1.875 1.79 5.229 1.79 3.404 0 5.23-1.193 5.23-1.79v-4.376H58v4.376c0 2.238-3.453 3.431-6.857 3.431z"
          fill="#4C739E"/>
    <path d="M51.143 49.377c-3.404 0-6.857-1.193-6.857-3.43V41.57h1.628v4.376c0 .597 1.875 1.79 5.229 1.79 3.404 0 5.23-1.193 5.23-1.79V41.57H58v4.376c0 2.238-3.453 3.431-6.857 3.431zM51.143 40.626c-3.404 0-6.857-1.194-6.857-3.431 0-2.238 3.453-3.432 6.857-3.432 3.404 0 6.857 1.194 6.857 3.431 0 2.238-3.453 3.431-6.857 3.431zm0-5.222c-3.404 0-5.229 1.194-5.229 1.79 0 .597 1.875 1.79 5.229 1.79 3.404 0 5.23-1.193 5.23-1.79 0-.596-1.826-1.79-5.23-1.79z"
          fill="#4C739E"/>
    <path d="M51.143 25.907c3.355 0 6.068 1.193 6.068 2.635v8.702c0 1.442-2.713 2.636-6.068 2.636-3.354 0-6.068-1.194-6.068-2.636v-8.752c0-1.442 2.714-2.585 6.068-2.585z"
          fill="#fff"/>
    <path d="M51.143 36.3c-3.404 0-6.857-1.194-6.857-3.432v-4.375h1.628v4.375c0 .597 1.875 1.79 5.229 1.79 3.404 0 5.23-1.193 5.23-1.79v-4.375H58v4.375c0 2.238-3.453 3.431-6.857 3.431z"
          fill="#4C739E"/>
    <path d="M51.143 40.625c-3.404 0-6.857-1.193-6.857-3.43v-4.377h1.628v4.376c0 .597 1.875 1.79 5.229 1.79 3.404 0 5.23-1.193 5.23-1.79v-4.376H58v4.376c0 2.288-3.453 3.431-6.857 3.431zM51.143 31.924c-3.404 0-6.857-1.194-6.857-3.431 0-2.238 3.453-3.431 6.857-3.431 3.404 0 6.857 1.193 6.857 3.43 0 2.238-3.453 3.432-6.857 3.432zm0-5.222c-3.404 0-5.229 1.194-5.229 1.79 0 .597 1.875 1.79 5.23 1.79 3.403 0 5.228-1.193 5.228-1.79 0-.596-1.825-1.79-5.229-1.79z"
          fill="#4C739E"/>
    <path d="M47.032 37.46c3.355 0 6.068 1.193 6.068 2.635v8.702c0 1.442-2.713 2.635-6.068 2.635-3.354 0-6.067-1.193-6.067-2.635v-8.702c0-1.442 2.713-2.635 6.067-2.635z"
          fill="#fff"/>
    <path d="M47.032 47.852c-3.404 0-6.857-1.193-6.857-3.43v-4.377h1.628v4.376c0 .597 1.875 1.79 5.23 1.79 3.403 0 5.228-1.193 5.228-1.79v-4.376h1.628v4.376c0 2.288-3.453 3.431-6.857 3.431z"
          fill="#4C739E"/>
    <path d="M47.032 52.228c-3.404 0-6.857-1.193-6.857-3.431v-4.376h1.628v4.376c0 .597 1.875 1.79 5.23 1.79 3.403 0 5.228-1.193 5.228-1.79v-4.376h1.628v4.376c0 2.238-3.453 3.431-6.857 3.431zM47.032 43.526c-3.404 0-6.857-1.193-6.857-3.431s3.453-3.431 6.857-3.431c3.404 0 6.857 1.193 6.857 3.431s-3.453 3.431-6.857 3.431zm0-5.27c-3.404 0-5.229 1.193-5.229 1.79 0 .596 1.875 1.79 5.23 1.79 3.403 0 5.228-1.194 5.228-1.79 0-.597-1.874-1.79-5.229-1.79z"
          fill="#4C739E"/>
</svg>