<svg width="60" height="60" fill="none" xmlns="http://www.w3.org/2000/svg">
    <path d="M33.742 52.6c10.561 0 19.123-8.63 19.123-19.276 0-10.645-8.562-19.275-19.123-19.275-10.561 0-19.123 8.63-19.123 19.275 0 10.646 8.562 19.276 19.123 19.276z"
          fill="#F4F8FF"/>
    <path d="M53.388 34.587c3.235 0 5.85 1.15 5.85 2.541v8.392c0 1.39-2.615 2.54-5.85 2.54-3.235 0-5.851-1.15-5.851-2.54v-8.44c0-1.39 2.616-2.493 5.85-2.493z"
          fill="#fff"/>
    <path d="M53.388 44.608c-3.282 0-6.612-1.15-6.612-3.308v-4.22h1.57v4.22c0 .575 1.807 1.726 5.042 1.726 3.282 0 5.042-1.15 5.042-1.726v-4.22H60v4.22c0 2.158-3.33 3.308-6.612 3.308z"
          fill="#4C739E"/>
    <path d="M53.388 48.828c-3.282 0-6.612-1.15-6.612-3.309V41.3h1.57v4.22c0 .576 1.807 1.727 5.042 1.727 3.282 0 5.042-1.151 5.042-1.727V41.3H60v4.22c0 2.158-3.33 3.309-6.612 3.309zM53.388 40.389c-3.282 0-6.612-1.15-6.612-3.309 0-2.157 3.33-3.308 6.612-3.308S60 34.922 60 37.08s-3.33 3.309-6.612 3.309zm0-5.035c-3.282 0-5.042 1.15-5.042 1.726 0 .576 1.807 1.727 5.042 1.727 3.282 0 5.042-1.151 5.042-1.727 0-.575-1.76-1.726-5.042-1.726z"
          fill="#4C739E"/>
    <path d="M53.388 26.196c3.235 0 5.85 1.15 5.85 2.541v8.391c0 1.39-2.615 2.542-5.85 2.542-3.235 0-5.851-1.151-5.851-2.542V28.69c0-1.39 2.616-2.493 5.85-2.493z"
          fill="#fff"/>
    <path d="M53.388 36.217c-3.282 0-6.612-1.15-6.612-3.308v-4.22h1.57v4.22c0 .575 1.807 1.726 5.042 1.726 3.282 0 5.042-1.15 5.042-1.726v-4.22H60v4.22c0 2.157-3.33 3.308-6.612 3.308z"
          fill="#4C739E"/>
    <path d="M53.388 40.389c-3.282 0-6.612-1.15-6.612-3.309v-4.22h1.57v4.22c0 .576 1.807 1.727 5.042 1.727 3.282 0 5.042-1.151 5.042-1.727v-4.22H60v4.22c0 2.206-3.33 3.309-6.612 3.309zM53.388 31.998c-3.282 0-6.612-1.151-6.612-3.309 0-2.157 3.33-3.308 6.612-3.308S60 26.53 60 28.689s-3.33 3.309-6.612 3.309zm0-5.035c-3.282 0-5.042 1.15-5.042 1.726 0 .576 1.807 1.726 5.042 1.726 3.282 0 5.042-1.15 5.042-1.726 0-.575-1.76-1.726-5.042-1.726z"
          fill="#4C739E"/>
    <path d="M47.394 7.767H20.09v33.037h27.304V7.767z" fill="#fff"/>
    <path d="M47.394 41.572H20.09a.754.754 0 0 1-.761-.768V7.767c0-.431.333-.767.76-.767h27.305c.428 0 .809.336.809.767v33.037c0 .432-.38.768-.809.768zM20.9 40.037h25.734V8.582H20.898v31.455z"
          fill="#4C739E"/>
    <path d="M44.302 10.932H23.23V37.64h21.073V10.932z" fill="#fff"/>
    <path d="M44.302 24.31H23.23v1.582h21.073V24.31zM37.262 30.591H23.23v1.582h14.033v-1.582z" fill="#4C739E"/>
    <path d="M31.03 18.796h-1.57V37.64h1.57V18.796zM38.07 18.796h-1.569V37.64h1.57V18.796z" fill="#4C739E"/>
    <path d="M44.302 10.932H23.23v7.864h21.073v-7.864z" fill="#A3D4FF"/>
    <path d="M45.063 19.563H22.468v-9.398h22.595v9.398zM23.99 18.028h19.504V11.7H23.99v6.33z" fill="#2A5082"/>
    <path d="M45.063 38.455H22.468v-28.29h22.595v28.29zM23.99 36.873h19.504V11.699H23.99v25.174z" fill="#4C739E"/>
    <path d="M44.302 18.028H23.23v1.583h21.073v-1.583z" fill="#4C739E"/>
    <path fill-rule="evenodd" clip-rule="evenodd"
          d="M7.884 35.198h3.584v1.46H7.884v-1.46zM0 38.013h9.317v1.46H0v-1.46zM6.45 36.657H5.018v-1.46h1.434v1.46z"
          fill="#4C739E"/>
    <path d="M44.437 31.705H12.184v18.3h32.253v-18.3z" fill="#fff"/>
    <path fill-rule="evenodd" clip-rule="evenodd"
          d="M11.431 30.975h33.76v19.759H11.43V45.78h1.507v3.493h30.746v-16.84H12.938V43.67H11.43V30.975z"
          fill="#4C739E"/>
    <path d="M38.703 46.485H17.918c0-1.197-.932-2.112-2.15-2.112v-7.038c1.218 0 2.15-.915 2.15-2.111h20.785c0 1.196.932 2.111 2.15 2.111v7.038c-1.218 0-2.15.986-2.15 2.112z"
          fill="#A3D4FF"/>
    <path fill-rule="evenodd" clip-rule="evenodd"
          d="M17.165 34.494h22.291v.73c0 .803.605 1.382 1.397 1.382h.754v8.497h-.754c-.776 0-1.397.633-1.397 1.382v.73H17.165v-.73c0-.803-.604-1.382-1.397-1.382h-.753v-8.498h.753c.793 0 1.397-.578 1.397-1.381v-.73zm1.414 1.46a2.81 2.81 0 0 1-2.058 2.02v5.761a2.81 2.81 0 0 1 2.058 2.02h19.47A2.888 2.888 0 0 1 40.1 43.74v-5.766a2.81 2.81 0 0 1-2.058-2.02H18.58z"
          fill="#4C739E"/>
    <path fill-rule="evenodd" clip-rule="evenodd"
          d="M21.502 41.584h-1.434v-1.46h1.434v1.46zM36.553 41.584H35.12v-1.46h1.433v1.46z" fill="#4C739E"/>
    <path d="M28.31 44.373c1.782 0 3.226-1.575 3.226-3.519 0-1.943-1.444-3.519-3.225-3.519-1.782 0-3.226 1.576-3.226 3.52 0 1.943 1.444 3.519 3.226 3.519z"
          fill="#fff"/>
    <path fill-rule="evenodd" clip-rule="evenodd"
          d="M28.31 38.065c-1.283 0-2.471 1.165-2.471 2.79 0 1.624 1.188 2.789 2.472 2.789 1.283 0 2.472-1.165 2.472-2.79 0-1.624-1.189-2.79-2.472-2.79zm-3.978 2.79c0-2.263 1.7-4.25 3.979-4.25s3.978 1.987 3.978 4.25c0 2.262-1.7 4.248-3.978 4.248-2.28 0-3.979-1.986-3.979-4.249zM5.017 42.94h9.318v1.46H5.017v-1.46z"
          fill="#4C739E"/>
    <path d="M49.424 37.336c3.235 0 5.85 1.15 5.85 2.541v8.392c0 1.39-2.615 2.54-5.85 2.54-3.235 0-5.851-1.15-5.851-2.54v-8.392c0-1.39 2.616-2.54 5.85-2.54z"
          fill="#fff"/>
    <path d="M49.424 47.358c-3.282 0-6.612-1.151-6.612-3.309v-4.22h1.57v4.22c0 .575 1.807 1.726 5.042 1.726 3.282 0 5.042-1.15 5.042-1.726v-4.22h1.57v4.22c0 2.206-3.33 3.309-6.612 3.309z"
          fill="#4C739E"/>
    <path d="M49.424 51.577c-3.282 0-6.612-1.15-6.612-3.308v-4.22h1.57v4.22c0 .575 1.807 1.726 5.042 1.726 3.282 0 5.042-1.151 5.042-1.726v-4.22h1.57v4.22c0 2.157-3.33 3.308-6.612 3.308zM49.424 43.186c-3.282 0-6.612-1.15-6.612-3.309 0-2.157 3.33-3.308 6.612-3.308s6.612 1.15 6.612 3.308-3.33 3.309-6.612 3.309zm0-5.083c-3.282 0-5.042 1.151-5.042 1.726 0 .576 1.807 1.727 5.042 1.727 3.282 0 5.042-1.151 5.042-1.727 0-.575-1.807-1.726-5.042-1.726z"
          fill="#4C739E"/>
</svg>