<svg width="70" height="70" fill="none" xmlns="http://www.w3.org/2000/svg"><path d="M30.47 68.97c16.488 0 29.854-13.365 29.854-29.852 0-16.488-13.366-29.853-29.853-29.853C13.983 9.265.617 22.63.617 39.118c0 16.487 13.365 29.853 29.853 29.853z" fill="#F4F8FF"/><path d="M48.382 12.353h-36.03a4.13 4.13 0 00-4.117 4.118v19.558a4.13 4.13 0 004.118 4.118h36.03A4.13 4.13 0 0052.5 36.03V16.471a4.13 4.13 0 00-4.118-4.118z" fill="#fff"/><path d="M15.441 41.176h-3.088c-2.882 0-5.147-2.264-5.147-5.147V16.471c0-2.883 2.265-5.148 5.147-5.148h36.03c2.882 0 5.146 2.265 5.146 5.148v14.411h-2.058V16.471c0-1.75-1.339-3.089-3.089-3.089h-36.03c-1.75 0-3.087 1.339-3.087 3.089v19.558c0 1.75 1.338 3.089 3.088 3.089h3.088v2.058z" fill="#4C739E"/><path d="M52.5 16.47H8.235v2.06H52.5v-2.06zM52.5 22.647H8.235v2.059H52.5v-2.059zM20.588 26.765h-9.265v2.058h9.265v-2.058zM31.912 26.765h-9.265v2.058h9.265v-2.058z" fill="#4C739E"/><path d="M21.618 32.941A4.13 4.13 0 0017.5 37.06v21.617a4.13 4.13 0 004.118 4.118h36.029a4.13 4.13 0 004.118-4.118V37.06a4.13 4.13 0 00-4.118-4.118h-36.03z" fill="#A3D4FF"/><path d="M57.647 63.824h-36.03c-2.882 0-5.146-2.265-5.146-5.148V37.06c0-2.883 2.264-5.147 5.147-5.147h36.029c2.882 0 5.147 2.264 5.147 5.147v21.617c0 2.883-2.265 5.148-5.147 5.148zM21.617 33.97c-1.75 0-3.088 1.338-3.088 3.088v21.617c0 1.75 1.339 3.089 3.089 3.089h36.029c1.75 0 3.088-1.339 3.088-3.089V37.06c0-1.75-1.338-3.088-3.088-3.088h-36.03z" fill="#4C739E"/><path d="M29.853 54.559h-6.177v2.059h6.177v-2.06zM38.088 54.559h-5.147v2.059h5.147v-2.06zM47.353 54.559h-6.177v2.059h6.177v-2.06zM56.618 54.559H50.44v2.059h6.177v-2.06z" fill="#4C739E"/><path d="M56.618 42.72c0 1.956-1.647 3.604-3.603 3.604h-1.03c-1.956 0-3.603-1.648-3.603-3.603 0-1.956 1.647-3.603 3.603-3.603h1.03c1.956 0 3.603 1.647 3.603 3.603z" fill="#fff"/><path d="M53.015 47.353h-1.03a4.613 4.613 0 01-4.632-4.632 4.613 4.613 0 014.632-4.633h1.03a4.613 4.613 0 014.632 4.633 4.613 4.613 0 01-4.632 4.632zm-1.03-7.206a2.549 2.549 0 00-2.573 2.574 2.549 2.549 0 002.573 2.573h1.03a2.549 2.549 0 002.573-2.573 2.549 2.549 0 00-2.573-2.574h-1.03zM70 35h-2.059v2.059H70V35zM70 39.118h-2.059v2.058H70v-2.058zM70 43.235h-2.059v2.06H70v-2.06zM65.882 43.235h-2.059v2.06h2.06v-2.06zM70 33.97h-2.059V23.678a2.065 2.065 0 00-2.059-2.06h-8.235V19.56h8.235A4.13 4.13 0 0170 23.676v10.295z" fill="#4C739E"/><path d="M61.25 24.603l-5.147-3.088c-.309-.206-.515-.515-.515-.927 0-.412.206-.72.515-.926l5.147-3.088 1.03 1.75-3.706 2.264 3.705 2.162-1.029 1.853zM2.059 37.059H0v2.059h2.059v-2.06zM2.059 32.941H0V35h2.059v-2.059zM2.059 28.823H0v2.06h2.059v-2.06zM6.176 28.823H4.119v2.06h2.058v-2.06zM12.353 54.559H4.118A4.13 4.13 0 010 50.44V40.147h2.059v10.294c0 1.133.926 2.059 2.059 2.059h8.235v2.059z" fill="#4C739E"/><path d="M8.75 57.544l-1.03-1.75 3.707-2.162-3.706-2.161 1.029-1.75 5.147 3.088c.309.206.515.515.515.926 0 .412-.206.72-.515.927L8.75 57.544z" fill="#4C739E"/></svg>