<svg width="60" height="60" fill="none" xmlns="http://www.w3.org/2000/svg">
    <path d="M17.64 38.76c9.146 0 16.56-7.414 16.56-16.56 0-9.146-7.414-16.56-16.56-16.56-9.146 0-16.56 7.414-16.56 16.56 0 9.146 7.414 16.56 16.56 16.56z"
          fill="#F4F8FF"/>
    <path d="M4.8 45.6V20.04c0-2.64 2.16-4.8 4.8-4.8h37.26c2.64 0 4.8 2.16 4.8 4.8V45.6H4.8z" fill="#fff"/>
    <path d="M52.44 46.38H4.08V20.04c0-3.06 2.46-5.52 5.52-5.52h37.26c3.06 0 5.52 2.46 5.52 5.52v26.34h.06zm-46.86-1.5h45.36V20.04c0-2.22-1.8-4.02-4.02-4.02H9.6a4.02 4.02 0 0 0-4.02 4.02v24.84z"
          fill="#4C739E"/>
    <path d="M48.84 43.38h-1.5V19.92H9.12v23.46h-1.5V18.42h41.22v24.96zM32.82 49.26H23.7v1.5h9.12v-1.5z"
          fill="#4C739E"/>
    <path d="M47.76 54.36h-39C3.9 54.36 0 50.46 0 45.6v-.78h56.46v.78c0 4.86-3.9 8.76-8.7 8.76zm-46.2-7.98c.36 3.66 3.48 6.48 7.2 6.48h39c3.72 0 6.78-2.82 7.2-6.48H1.56zM21.78 33.54c-2.4 0-4.38-2.58-4.38-5.7s1.98-5.7 4.38-5.7 4.38 2.58 4.38 5.7-1.98 5.7-4.38 5.7zm0-9.9c-1.56 0-2.88 1.92-2.88 4.2 0 2.28 1.32 4.2 2.88 4.2 1.56 0 2.88-1.92 2.88-4.2 0-2.28-1.32-4.2-2.88-4.2z"
          fill="#4C739E"/>
    <path d="M14.16 43.38v-4.14s-.36-3.84 2.94-3.9h19.44s.06 4.14-3.24 4.14h-6.12v3.9H14.16z" fill="#A3D4FF"/>
    <path d="M27.9 43.38h-1.5v-4.62h6.9c.66 0 1.14-.18 1.56-.6.54-.6.78-1.44.9-2.1H17.1c-.66 0-1.14.18-1.5.6-.78.9-.66 2.46-.66 2.46V43.32h-1.5v-4.14c0-.3-.12-2.28 1.08-3.6.66-.72 1.56-1.08 2.64-1.08h20.22v.72c0 .12 0 2.46-1.38 3.9-.66.66-1.56 1.02-2.64 1.02h-5.4v3.24h-.06z"
          fill="#4C739E"/>
    <path d="M18.84 39.96h-1.5v3.42h1.5v-3.42z" fill="#4C739E"/>
    <path d="M32.64 11.46c-1.5 0-2.76 1.2-2.76 2.76v14.4c0 1.5 1.26 2.76 2.76 2.76h23.94c1.5 0 2.76-1.2 2.76-2.76v-14.4c0-1.5-1.2-2.76-2.76-2.76H32.64z"
          fill="#A3D4FF"/>
    <path d="M56.58 31.98H32.64c-1.86 0-3.42-1.56-3.42-3.42v-14.4c0-1.86 1.56-3.42 3.42-3.42h23.94c1.86 0 3.42 1.56 3.42 3.42v14.4c0 1.86-1.56 3.42-3.42 3.42zM32.64 12.12c-1.14 0-2.04.9-2.04 2.04v14.4c0 1.14.9 2.04 2.04 2.04h23.94c1.14 0 2.04-.9 2.04-2.04v-14.4c0-1.14-.9-2.04-2.04-2.04H32.64z"
          fill="#4C739E"/>
    <path d="M38.1 25.8h-4.08v1.38h4.08V25.8zM43.56 25.8h-3.42v1.38h3.42V25.8zM49.68 25.8H45.6v1.38h4.08V25.8zM55.86 25.8h-4.08v1.38h4.08V25.8z"
          fill="#4C739E"/>
    <path d="M53.22 19.74c1.26 0 2.28-.833 2.28-1.86 0-1.027-1.02-1.86-2.28-1.86-1.26 0-2.28.833-2.28 1.86 0 1.027 1.02 1.86 2.28 1.86z"
          fill="#fff"/>
    <path d="M53.52 21h-.72c-1.68 0-3.06-1.38-3.06-3.06 0-1.68 1.38-3.06 3.06-3.06h.66c1.68 0 3.06 1.38 3.06 3.06 0 1.68-1.32 3.06-3 3.06zm-.72-4.74a1.741 1.741 0 0 0 0 3.48h.66a1.741 1.741 0 0 0 0-3.48h-.66z"
          fill="#4C739E"/>
</svg>