<svg width="50" height="47" viewBox="0 0 50 47" fill="none" xmlns="http://www.w3.org/2000/svg">
<path d="M22.8707 46.3333C35.5018 46.3333 45.7413 36.0732 45.7413 23.4167C45.7413 10.7601 35.5018 0.5 22.8707 0.5C10.2395 0.5 0 10.7601 0 23.4167C0 36.0732 10.2395 46.3333 22.8707 46.3333Z" fill="#F4F8FF"/>
<path d="M48.4227 8.40234H46.8455V13.1437H48.4227V8.40234Z" fill="#DFEEFF"/>
<path d="M49.9999 9.98279H45.2681V11.5632H49.9999V9.98279Z" fill="#DFEEFF"/>
<path d="M6.62465 28.9482H5.04736V33.6896H6.62465V28.9482Z" fill="#DFEEFF"/>
<path d="M8.20183 30.5287H3.46997V32.1091H8.20183V30.5287Z" fill="#DFEEFF"/>
<path d="M36.593 2.87073H8.99051C7.2555 2.87073 5.83594 4.29314 5.83594 6.03165V21.046C5.83594 22.7845 7.2555 24.2069 8.99051 24.2069H36.593C38.328 24.2069 39.7476 22.7845 39.7476 21.046V6.03165C39.7476 4.29314 38.328 2.87073 36.593 2.87073Z" fill="white"/>
<path d="M11.3565 24.9971H8.99058C6.78238 24.9971 5.04736 23.2586 5.04736 21.046V6.03159C5.04736 3.81895 6.78238 2.08044 8.99058 2.08044H36.5931C38.8013 2.08044 40.5363 3.81895 40.5363 6.03159V17.0948H38.959V6.03159C38.959 4.6882 37.9338 3.6609 36.5931 3.6609H8.99058C7.64989 3.6609 6.62465 4.6882 6.62465 6.03159V21.046C6.62465 22.3894 7.64989 23.4167 8.99058 23.4167H11.3565V24.9971Z" fill="#4C739E"/>
<path d="M39.7476 6.03162H5.83594V7.61208H39.7476V6.03162Z" fill="#4C739E"/>
<path d="M39.7476 10.7729H5.83594V12.3534H39.7476V10.7729Z" fill="#4C739E"/>
<path d="M16.0882 18.6753C14.3532 18.6753 12.9336 20.0977 12.9336 21.8362V38.431C12.9336 40.1695 14.3532 41.592 16.0882 41.592H43.6907C45.4257 41.592 46.8452 40.1695 46.8452 38.431V21.8362C46.8452 20.0977 45.4257 18.6753 43.6907 18.6753H16.0882Z" fill="#A3D4FF"/>
<path d="M43.6907 42.3821H16.0882C13.88 42.3821 12.145 40.6436 12.145 38.431V21.8362C12.145 19.6235 13.88 17.885 16.0882 17.885H43.6907C45.899 17.885 47.634 19.6235 47.634 21.8362V38.431C47.634 40.6436 45.899 42.3821 43.6907 42.3821ZM16.0882 19.4655C14.7475 19.4655 13.7223 20.4928 13.7223 21.8362V38.431C13.7223 39.7744 14.7475 40.8017 16.0882 40.8017H43.6907C45.0314 40.8017 46.0567 39.7744 46.0567 38.431V21.8362C46.0567 20.4928 45.0314 19.4655 43.6907 19.4655H16.0882Z" fill="#4C739E"/>
<path d="M22.3974 35.2701H17.6655V36.8506H22.3974V35.2701Z" fill="#4C739E"/>
<path d="M28.7066 35.2701H24.7634V36.8506H28.7066V35.2701Z" fill="#4C739E"/>
<path d="M35.8044 35.2701H31.0725V36.8506H35.8044V35.2701Z" fill="#4C739E"/>
<path d="M42.9023 35.2701H38.1704V36.8506H42.9023V35.2701Z" fill="#4C739E"/>
<path d="M42.9022 26.1826C42.9022 27.684 41.6403 28.9484 40.1419 28.9484H39.3533C37.8548 28.9484 36.593 27.684 36.593 26.1826C36.593 24.6811 37.8548 23.4167 39.3533 23.4167H40.1419C41.6403 23.4167 42.9022 24.6811 42.9022 26.1826Z" fill="white"/>
<path d="M40.142 29.7385H39.3533C37.3817 29.7385 35.8044 28.1581 35.8044 26.1825C35.8044 24.2069 37.3817 22.6265 39.3533 22.6265H40.142C42.1136 22.6265 43.6909 24.2069 43.6909 26.1825C43.6909 28.1581 42.1136 29.7385 40.142 29.7385ZM39.3533 24.2069C38.2492 24.2069 37.3817 25.0762 37.3817 26.1825C37.3817 27.2888 38.2492 28.1581 39.3533 28.1581H40.142C41.2461 28.1581 42.1136 27.2888 42.1136 26.1825C42.1136 25.0762 41.2461 24.2069 40.142 24.2069H39.3533Z" fill="#4C739E"/>
<path d="M15.2997 13.934H8.2019V15.5144H15.2997V13.934Z" fill="#4C739E"/>
<path d="M23.9747 13.934H16.877V15.5144H23.9747V13.934Z" fill="#4C739E"/>
</svg>
