<svg width="50" height="49" viewBox="0 0 50 49" fill="none" xmlns="http://www.w3.org/2000/svg">
<path d="M23.8281 48.4896C36.988 48.4896 47.6562 37.8214 47.6562 24.6615C47.6562 11.5016 36.988 0.833374 23.8281 0.833374C10.6682 0.833374 0 11.5016 0 24.6615C0 37.8214 10.6682 48.4896 23.8281 48.4896Z" fill="#F4F8FF"/>
<path d="M49.2188 7.08337H4.6875V39.8959H49.2188V7.08337Z" fill="white"/>
<path d="M5.46875 9.42712V7.86462H7.8125V6.30212H3.90625V9.42712H5.46875Z" fill="#4C739E"/>
<path d="M46.0938 7.86462H48.4375V9.42712H50V6.30212H46.0938V7.86462Z" fill="#4C739E"/>
<path d="M44.5312 6.30212H9.375V7.86462H44.5312V6.30212Z" fill="#4C739E"/>
<path d="M50 10.9896H48.4375V35.9896H50V10.9896Z" fill="#4C739E"/>
<path d="M48.4375 37.5521V39.1146H46.0938V40.6771H50V37.5521H48.4375Z" fill="#4C739E"/>
<path d="M44.5312 39.1146H20.3125V40.6771H44.5312V39.1146Z" fill="#4C739E"/>
<path d="M8.59375 39.1146H5.46875V10.9896H3.90625V40.6771H8.59375V39.1146Z" fill="#4C739E"/>
<path d="M35.9375 37.5521C35.3907 37.5521 34.8438 37.2396 33.9063 36.5365C33.0469 35.9896 31.9532 35.2084 31.25 35.2084C30.7813 35.2084 30.3125 35.6771 29.8438 36.1459C29.2188 36.7709 28.4375 37.5521 27.3438 37.5521C26.1719 37.5521 24.9219 36.6927 23.8282 35.9115C23.3594 35.599 22.8125 35.2084 22.5782 35.1302L22.6563 33.5677C23.2032 33.5677 23.75 33.8802 24.6875 34.5834C25.5469 35.2084 26.6407 35.9896 27.3438 35.9896C27.8125 35.9896 28.2813 35.5209 28.75 35.0521C29.375 34.4271 30.1563 33.6459 31.25 33.6459C32.4219 33.6459 33.6719 34.5052 34.7657 35.2865C35.1563 35.5209 35.7032 35.9115 35.9375 35.9896C36.0938 35.9115 36.4844 35.5209 36.7188 35.3646C37.5782 34.6615 38.5938 33.724 39.8438 33.724C40.625 33.724 41.7969 34.1927 42.9688 34.6615C43.6719 34.8959 44.7657 35.3646 45.3125 35.4427C45.1563 35.0521 44.6875 34.349 44.375 33.8802C43.5938 32.7084 42.8907 31.6146 42.8907 30.599C42.8907 29.5052 43.6719 28.724 44.2969 28.099C44.7657 27.6302 45.2344 27.1615 45.2344 26.6927C45.2344 26.3802 45 26.1459 44.375 25.7552C43.8282 25.2865 42.9688 24.6615 42.9688 23.4896C42.9688 22.3959 43.75 21.6146 44.375 20.9896C44.8438 20.5209 45.3125 20.0521 45.3125 19.5834C45.3125 19.1146 44.8438 18.6459 44.375 18.1771C43.75 17.5521 42.9688 16.7709 42.9688 15.6771C42.9688 14.8177 43.4375 13.9584 43.9063 13.099C44.375 12.2396 44.9219 11.224 44.6875 10.6771C44.1407 10.6771 42.5 11.5365 41.6407 12.0052C40.2344 12.7084 39.1407 13.3334 38.2813 13.3334C37.1094 13.3334 36.0157 12.3959 35.1563 11.6927C34.9219 11.4584 34.6094 11.224 34.375 11.0677C34.2188 11.224 34.0625 11.4584 33.9063 11.6146C33.2813 12.3959 32.5 13.4115 31.1719 13.4115C30 13.4115 28.75 12.5521 27.6563 11.7709C27.3438 11.4584 26.7969 11.0677 26.5625 10.9896C26.3282 11.0677 25.7813 11.4584 25.3907 11.6927C24.2969 12.474 23.0469 13.3334 21.875 13.3334C20.7032 13.3334 19.6094 12.3959 18.75 11.6927C18.5157 11.4584 18.2032 11.224 17.9688 11.0677C17.8125 11.224 17.6563 11.4584 17.5 11.6146C16.875 12.3959 16.0938 13.4115 14.7657 13.4115C13.9844 13.4115 12.8125 12.9427 11.6407 12.474C10.8594 12.1615 9.68754 11.6927 9.14067 11.6927C9.21879 12.3177 9.84379 13.724 10.1563 14.5052C10.625 15.599 10.8594 16.1459 10.8594 16.5365C10.8594 17.6302 9.92192 18.5677 9.06254 19.4271C8.82817 19.6615 8.98442 20.5209 9.21879 20.8334L7.81254 21.5365C7.73442 21.3021 6.79692 19.4271 7.96879 18.2552C8.59379 17.6302 9.29692 16.9271 9.29692 16.4584C9.29692 16.3021 8.98442 15.599 8.75004 15.0521C7.73442 12.7865 7.18754 11.3021 7.96879 10.4427C8.75004 9.66148 10.3125 10.2084 12.1875 10.9896C13.125 11.3802 14.2188 11.7709 14.7657 11.7709C15.3125 11.7709 15.7813 11.1459 16.25 10.599C16.7188 9.97398 17.1875 9.42711 17.8907 9.42711C18.5157 9.42711 19.0625 9.89586 19.6875 10.5209C20.3125 11.0677 21.1719 11.7709 21.7969 11.7709C22.5 11.7709 23.5938 10.9896 24.4532 10.4427C26.4063 9.11461 26.5625 9.11461 28.5157 10.4427C29.4532 10.9896 30.5469 11.7709 31.25 11.7709C31.7969 11.7709 32.2657 11.1459 32.7344 10.599C33.2032 9.97398 33.6719 9.42711 34.375 9.42711C35 9.42711 35.5469 9.89586 36.1719 10.5209C36.7969 11.0677 37.6563 11.7709 38.2813 11.7709C38.6719 11.7709 39.9219 11.0677 40.7813 10.599C42.8125 9.50523 44.1407 8.80211 45.1563 9.11461C45.5469 9.27086 45.8594 9.50523 46.0157 9.81773C46.6407 11.0677 45.9375 12.474 45.2344 13.724C44.9219 14.5052 44.5313 15.2084 44.5313 15.6771C44.5313 16.1459 45 16.6146 45.4688 17.0834C46.0938 17.7084 46.875 18.4896 46.875 19.5834C46.875 20.6771 46.0938 21.4584 45.4688 22.0834C45 22.5521 44.5313 23.0209 44.5313 23.4896C44.5313 23.8021 44.7657 24.0365 45.3907 24.4271C46.0157 24.8177 46.875 25.4427 46.875 26.6146C46.875 27.7084 46.0938 28.4896 45.4688 29.1146C45 29.5834 44.5313 30.0521 44.5313 30.5209C44.5313 30.9896 45.2344 32.1615 45.7813 32.9427C46.7188 34.4271 47.5782 35.6771 46.7188 36.5365C45.9375 37.3177 44.375 36.7709 42.5 35.9896C41.5625 35.599 40.4688 35.2084 39.9219 35.2084C39.2969 35.2084 38.5157 35.9115 37.8125 36.4584C37.1094 37.0834 36.5625 37.5521 35.9375 37.5521Z" fill="#4C739E"/>
<path d="M17.3438 44.7396L14.8438 42.2396L11.4844 44.8959C11.25 45.0521 10.9375 44.8959 10.9375 44.6615V31.3021H17.9688V44.5053C17.9688 44.8178 17.5781 44.974 17.3438 44.7396Z" fill="white"/>
<path d="M11.25 45.7552C11.0937 45.7552 10.9375 45.7552 10.7813 45.6771C10.3906 45.5209 10.1562 45.1302 10.1562 44.6615V30.5209H18.75V44.5052C18.75 44.974 18.5156 45.3646 18.0469 45.5209C17.6563 45.6771 17.1094 45.599 16.7969 45.2865L14.7656 43.2552L11.9531 45.5209C11.7969 45.6771 11.5625 45.7552 11.25 45.7552ZM11.7188 32.0834V43.724L14.9219 41.1459L17.1875 43.4115V32.0834H11.7188Z" fill="#4C739E"/>
<path d="M36.7188 18.8021H24.2188V20.3646H36.7188V18.8021Z" fill="#4C739E"/>
<path d="M36.7188 21.9271H24.2188V23.4896H36.7188V21.9271Z" fill="#4C739E"/>
<path d="M32.8125 25.2084H24.2188V26.5365H32.8125V25.2084Z" fill="#4C739E"/>
<path d="M14.4531 32.8646C17.6892 32.8646 20.3125 30.2413 20.3125 27.0052C20.3125 23.7692 17.6892 21.1459 14.4531 21.1459C11.2171 21.1459 8.59375 23.7692 8.59375 27.0052C8.59375 30.2413 11.2171 32.8646 14.4531 32.8646Z" fill="#A3D4FF"/>
<path d="M14.4531 33.6459C10.7813 33.6459 7.8125 30.6771 7.8125 27.0052C7.8125 23.3334 10.7813 20.3646 14.4531 20.3646C18.125 20.3646 21.0938 23.3334 21.0938 27.0052C21.0938 30.6771 18.125 33.6459 14.4531 33.6459ZM14.4531 21.9271C11.6406 21.9271 9.375 24.1927 9.375 27.0052C9.375 29.8177 11.6406 32.0834 14.4531 32.0834C17.2656 32.0834 19.5312 29.8177 19.5312 27.0052C19.5312 24.1927 17.2656 21.9271 14.4531 21.9271Z" fill="#4C739E"/>
</svg>
