<svg width="60" height="60" fill="none" xmlns="http://www.w3.org/2000/svg">
    <path d="M26.4 56.8c14.58 0 26.4-11.82 26.4-26.4C52.8 15.82 40.98 4 26.4 4 11.82 4 0 15.82 0 30.4c0 14.58 11.82 26.4 26.4 26.4z"
          fill="#F4F8FF"/>
    <path d="M58.98 14.02H12.12v25.92h46.86V14.02z" fill="#fff"/>
    <path d="M60 40.96H11.16v-27.9H60v27.9zm-46.86-1.98h44.88V15.04H13.14v23.94z" fill="#4C739E"/>
    <path d="M51 34.96H20.1c0-1.68-1.32-3-3-3V22c1.68 0 3-1.32 3-3H51c0 1.68 1.32 3 3 3v9.96c-1.62 0-3 1.38-3 3z"
          fill="#A3D4FF"/>
    <path d="M52.02 35.98H19.14v-1.02c0-1.08-.9-1.98-1.98-1.98h-1.02V21.04h1.02c1.08 0 1.98-.9 1.98-1.98v-1.02h32.88V19c0 1.08.9 1.98 1.98 1.98h1.02v11.94H54c-1.08 0-1.98.9-1.98 1.98v1.08zM21 34h29.16c.36-1.38 1.44-2.52 2.88-2.88V22.9c-1.38-.36-2.52-1.44-2.88-2.88H21c-.36 1.38-1.44 2.52-2.88 2.88v8.22c1.38.36 2.52 1.44 2.88 2.88z"
          fill="#4C739E"/>
    <path d="M26.1 26.02h-1.98V28h1.98v-1.98zM47.04 26.02h-1.98V28h1.98v-1.98z" fill="#4C739E"/>
    <path d="M35.58 31.96c2.485 0 4.5-2.23 4.5-4.98 0-2.75-2.015-4.98-4.5-4.98s-4.5 2.23-4.5 4.98c0 2.75 2.015 4.98 4.5 4.98z"
          fill="#fff"/>
    <path d="M35.58 32.98c-1.5 0-2.88-.66-3.9-1.8-1.02-1.14-1.56-2.64-1.56-4.2 0-3.3 2.46-6 5.46-6 1.5 0 2.88.66 3.9 1.8 1.02 1.14 1.56 2.64 1.56 4.2s-.54 3.06-1.56 4.2c-1.02 1.14-2.4 1.8-3.9 1.8zm-3.48-6c0 1.08.36 2.1 1.08 2.88.66.72 1.5 1.14 2.46 1.14.9 0 1.8-.42 2.46-1.14.66-.78 1.08-1.8 1.08-2.88 0-1.08-.36-2.1-1.08-2.88-.66-.72-1.5-1.14-2.46-1.14-1.98.06-3.54 1.86-3.54 4.02z"
          fill="#4C739E"/>
    <path d="M13.14 5.08c3.84 0 6.96 1.32 6.96 3v29.94c0 1.68-3.12 3-6.96 3s-6.96-1.32-6.96-3v-30c0-1.62 3.12-2.94 6.96-2.94z"
          fill="#fff"/>
    <path d="M13.14 41.98c-3.96 0-7.98-1.38-7.98-3.96v-30c0-2.64 4.02-3.96 7.98-3.96 3.96 0 7.98 1.38 7.98 3.96v29.94c0 2.64-4.02 4.02-7.98 4.02zm0-35.94c-3.72 0-6 1.32-6 1.98v29.94c0 .72 2.28 1.98 6 1.98s6-1.32 6-1.98V8.02c0-.66-2.28-1.98-6-1.98z"
          fill="#4C739E"/>
    <path d="M13.14 17.02c-3.96 0-7.98-1.38-7.98-3.96V8.08h1.98v4.98c0 .72 2.28 1.98 6 1.98s6-1.32 6-1.98V8.08h1.98v4.98c0 2.58-4.02 3.96-7.98 3.96z"
          fill="#4C739E"/>
    <path d="M13.14 22c-3.96 0-7.98-1.38-7.98-3.96v-4.98h1.98v4.98c0 .72 2.28 1.98 6 1.98s6-1.32 6-1.98v-4.98h1.98v4.98c0 2.58-4.02 3.96-7.98 3.96z"
          fill="#4C739E"/>
    <path d="M13.14 26.98c-3.96 0-7.98-1.38-7.98-3.96v-4.98h1.98v4.98c0 .72 2.28 1.98 6 1.98s6-1.32 6-1.98v-4.98h1.98v4.98c0 2.58-4.02 3.96-7.98 3.96z"
          fill="#4C739E"/>
    <path d="M13.14 31.96c-3.96 0-7.98-1.38-7.98-3.96v-4.98h1.98V28c0 .72 2.28 1.98 6 1.98s6-1.32 6-1.98v-4.98h1.98V28c0 2.58-4.02 3.96-7.98 3.96z"
          fill="#4C739E"/>
    <path d="M13.14 36.94c-3.96 0-7.98-1.38-7.98-3.96V28h1.98v4.98c0 .72 2.28 1.98 6 1.98s6-1.32 6-1.98V28h1.98v4.98c0 2.64-4.02 3.96-7.98 3.96z"
          fill="#4C739E"/>
    <path d="M13.14 41.98c-3.96 0-7.98-1.38-7.98-3.96V28h1.98v9.96c0 .72 2.28 1.98 6 1.98s6-1.32 6-1.98V28h1.98v9.96c0 2.64-4.02 4.02-7.98 4.02zM13.14 12.04c-3.96 0-7.98-1.38-7.98-3.96s4.02-3.96 7.98-3.96c3.96 0 7.98 1.38 7.98 3.96s-4.02 3.96-7.98 3.96zm0-6c-3.72 0-6 1.32-6 1.98 0 .66 2.28 1.98 6 1.98s6-1.32 6-1.98c0-.66-2.28-1.98-6-1.98z"
          fill="#4C739E"/>
    <path d="M24.12 32.98c3.84 0 6.96 1.32 6.96 3v9.96c0 1.68-3.12 3-6.96 3s-6.96-1.32-6.96-3v-9.96c-.06-1.68 3.06-3 6.96-3z"
          fill="#fff"/>
    <path d="M24.12 49.9c-3.96 0-7.98-1.38-7.98-3.96v-9.96c0-2.64 4.02-3.96 7.98-3.96 3.96 0 7.98 1.38 7.98 3.96v9.96c0 2.64-4.02 3.96-7.98 3.96zm0-15.9c-3.72 0-6 1.32-6 1.98v9.96c0 .72 2.28 1.98 6 1.98s6-1.32 6-1.98v-9.96c-.06-.72-2.28-1.98-6-1.98z"
          fill="#4C739E"/>
    <path d="M31.08 35.98v4.98c0 1.68-3.12 3-6.96 3s-6.96-1.32-6.96-3v-4.98" fill="#fff"/>
    <path d="M24.12 44.92c-3.96 0-7.98-1.38-7.98-3.96v-4.98h1.98v4.98c0 .72 2.28 1.98 6 1.98s6-1.32 6-1.98v-4.98h1.98v4.98c0 2.64-4.02 3.96-7.98 3.96z"
          fill="#4C739E"/>
    <path d="M24.12 49.9c-3.96 0-7.98-1.38-7.98-3.96v-4.98h1.98v4.98c0 .72 2.28 1.98 6 1.98s6-1.32 6-1.98v-4.98h1.98v4.98c0 2.64-4.02 3.96-7.98 3.96z"
          fill="#4C739E"/>
    <path d="M24.12 38.98c3.844 0 6.96-1.343 6.96-3s-3.116-3-6.96-3-6.96 1.343-6.96 3 3.116 3 6.96 3z" fill="#fff"/>
    <path d="M24.12 39.94c-3.96 0-7.98-1.38-7.98-3.96s4.02-3.96 7.98-3.96c3.96 0 7.98 1.38 7.98 3.96s-4.02 3.96-7.98 3.96zm0-5.94c-3.72 0-6 1.32-6 1.98 0 .66 2.28 1.98 6 1.98s6-1.32 6-1.98c0-.66-2.28-1.98-6-1.98z"
          fill="#4C739E"/>
</svg>