<svg width="60" height="60" fill="none" xmlns="http://www.w3.org/2000/svg">
    <g clip-path="url(#a)">
        <path d="m14.33 14.31 4.674-10.278L20.021 2.2h17.073l5.691 12.11h8.13L56.2 26.621l-.508 28.595L54.269 60H3.455L.61 56.845 0 26.622 5.386 14.31h8.944z"
              fill="#A3D4FF"/>
        <path d="m42.5 14.4-4.1-7.5-.9 28.5 5 10v-31zM1.2 25.72l3.772-7.52.828 28.574L1.2 56.8V25.72zM55.6 25.1l-4.1-7.5-.9 28.5 5 10v-31zM24 7.8h8.8v8H24v-8z"
              fill="#fff"/>
        <path d="m56.973 25.195-4.918-11.803a.985.985 0 0 0-.907-.605H43.04a.135.135 0 0 1-.124-.083L38.285 1.589a.985.985 0 0 0-.908-.605H19.672a.984.984 0 0 0-.908.605l-4.631 11.115a.135.135 0 0 1-.125.083H5.902a.985.985 0 0 0-.908.605L.076 25.195a.982.982 0 0 0-.076.379v33.439c0 .002.002.003.003.003.002 0 .004.002.004.004 0 .19.05.379.158.542.183.274.49.438.819.438h55.082a.985.985 0 0 0 .818-.438.977.977 0 0 0 .158-.542c0-.002.002-.004.004-.004a.003.003 0 0 0 .003-.003v-33.44a.981.981 0 0 0-.076-.378zM43.28 14.89c0-.074.06-.135.135-.135h6.615c.074 0 .135.06.135.135v31.205c0 .075-.06.136-.135.136h-6.615a.135.135 0 0 1-.135-.136V14.89zM38.36 7.561c0-.148.203-.188.26-.052l2.68 6.433c.007.017.01.034.01.052V41.62c0 .148-.203.189-.26.052l-2.68-6.433a.135.135 0 0 1-.01-.052V7.561zM20.656 3.086c0-.075.06-.135.135-.135h15.467c.075 0 .135.06.135.135v31.205c0 .075-.06.135-.135.135H20.791a.135.135 0 0 1-.135-.135V3.086zm-.362 33.39a.135.135 0 0 1 .124-.083h16.213c.054 0 .104.033.125.084l3.986 9.565a.135.135 0 0 1-.125.188H16.432a.135.135 0 0 1-.124-.188l3.986-9.565zm-4.556-22.482c0-.018.003-.035.01-.052l2.68-6.432c.057-.137.26-.096.26.052v27.625a.134.134 0 0 1-.01.052l-2.68 6.433c-.057.136-.26.095-.26-.052V13.994zm-8.853.895c0-.074.06-.135.135-.135h6.615c.075 0 .136.06.136.135v31.205c0 .075-.061.136-.136.136H7.02a.135.135 0 0 1-.135-.136V14.89zM1.967 25.798c0-.018.004-.036.01-.052l2.681-6.433c.057-.136.26-.096.26.052V46.99a.135.135 0 0 1-.01.052l-2.68 6.433c-.058.136-.26.096-.26-.052V25.797zm.695 32.235a.135.135 0 0 1-.125-.187l3.986-9.566a.135.135 0 0 1 .125-.083H22.86c.055 0 .104.032.125.083l3.986 9.566a.135.135 0 0 1-.125.187H2.662zm22.498-9.65a.135.135 0 0 1 .125-.186h6.48c.096 0 .161.098.124.187l-3.24 7.776a.135.135 0 0 1-.25 0l-3.24-7.776zm5.043 9.65a.135.135 0 0 1-.125-.187l3.986-9.566a.135.135 0 0 1 .125-.083H50.4c.055 0 .104.032.125.083l3.986 9.566a.135.135 0 0 1-.124.187H30.203zm24.879-4.61c0 .147-.203.188-.26.052l-2.68-6.434a.136.136 0 0 1-.01-.052V19.364c0-.148.202-.188.259-.052l2.68 6.433c.007.017.011.035.011.052v27.626z"
              fill="#4C739E"/>
        <path d="M32.459 6.885H24.59a.983.983 0 0 0-.983.984v7.869c0 .544.44.983.983.983h7.869c.544 0 .984-.44.984-.983v-7.87a.983.983 0 0 0-.984-.983zm-.984 7.87h-5.901V8.851h5.901v5.902zM33.443 20.656H24.59v1.967h8.853v-1.967zM33.443 28.525H24.59v1.967h8.853v-1.967zM26.557 24.59H24.59v1.967h1.967V24.59zM30.492 24.59h-1.967v1.967h1.967V24.59z"
              fill="#4C739E"/>
    </g>
    <defs>
        <clipPath id="a">
            <path fill="#fff" d="M0 0h60v60H0z"/>
        </clipPath>
    </defs>
</svg>