<svg width="49" height="50" viewBox="0 0 49 50" fill="none" xmlns="http://www.w3.org/2000/svg">
<path d="M24.5263 48.9048C35.561 48.9048 44.5064 39.9593 44.5064 28.9246C44.5064 17.8899 35.561 8.94446 24.5263 8.94446C13.4916 8.94446 4.54614 17.8899 4.54614 28.9246C4.54614 39.9593 13.4916 48.9048 24.5263 48.9048Z" fill="#F4F8FF"/>
<path d="M21.0515 2.86353H16.708V13.288H21.0515V2.86353Z" fill="white"/>
<path fill-rule="evenodd" clip-rule="evenodd" d="M15.9116 2.06726H21.8478V14.0843H15.9116V2.06726ZM17.5042 3.65988V12.4917H20.2551V3.65988H17.5042Z" fill="#4C739E"/>
<path d="M38.86 17.6315L27.5669 6.33838L15.405 17.6315V31.5307H38.86V17.6315Z" fill="white"/>
<path fill-rule="evenodd" clip-rule="evenodd" d="M27.5873 5.23267L39.6562 17.3016V32.327H14.6086V17.2842L27.5873 5.23267ZM16.2013 17.9787V30.7344H38.0636V17.9613L27.5463 7.44403L16.2013 17.9787Z" fill="#4C739E"/>
<path fill-rule="evenodd" clip-rule="evenodd" d="M26.0031 17.1248C25.6301 17.1248 25.3226 17.4067 25.3226 17.8053C25.3226 18.1854 25.5588 18.4511 25.7875 18.5164L25.8041 18.5212L28.9793 19.5796L29.0097 19.5926C29.8707 19.9616 30.5348 20.8334 30.5348 21.8013C30.5348 22.992 29.6005 24.0745 28.2617 24.0745H26.2637C24.8683 24.0745 23.73 22.9361 23.73 21.5407H25.3226C25.3226 22.0565 25.7479 22.4818 26.2637 22.4818H28.2617C28.6603 22.4818 28.9422 22.1743 28.9422 21.8013C28.9422 21.5592 28.7475 21.2254 28.4081 21.0679L25.3314 20.0424C24.3546 19.7537 23.73 18.8089 23.73 17.8053C23.73 16.4665 24.8124 15.5322 26.0031 15.5322H28.0011C29.3965 15.5322 30.5348 16.6706 30.5348 18.0659H28.9422C28.9422 17.5502 28.5169 17.1248 28.0011 17.1248H26.0031Z" fill="#4C739E"/>
<path fill-rule="evenodd" clip-rule="evenodd" d="M27.9288 13.7224V16.3285H26.3362V13.7224H27.9288Z" fill="#4C739E"/>
<path fill-rule="evenodd" clip-rule="evenodd" d="M26.3362 25.8842V23.2781H27.9288V25.8842H26.3362Z" fill="#4C739E"/>
<path d="M39.2943 18.5003L27.1324 6.33843L14.9706 18.5003L12.3645 15.8942L26.9587 1.12622L41.9004 15.8942L39.2943 18.5003Z" fill="#A3D4FF"/>
<path fill-rule="evenodd" clip-rule="evenodd" d="M26.9521 0L43.0299 15.8908L39.2943 19.6264L27.1325 7.46454L14.9706 19.6264L11.2417 15.8974L26.9521 0ZM26.9653 2.25235L13.4874 15.8908L14.9706 17.3741L27.1325 5.21223L39.2943 17.3741L40.771 15.8974L26.9653 2.25235Z" fill="#4C739E"/>
<path d="M34.0821 30.6621L38.4256 28.056C38.4256 28.056 41.0317 24.5812 43.6378 24.5812C46.2439 24.5812 47.1126 25.4499 47.1126 25.4499L41.0317 34.1369L33.6477 40.6522C33.3871 40.9128 32.9527 41.0865 32.6053 41.0865H18.4454L15.8393 42.8239L8.021 34.1369L12.8857 29.2722C13.6676 28.4903 14.71 28.056 15.7524 28.056H21.7465C22.3546 28.056 23.0495 28.2297 23.5708 28.4903L26.1769 29.7934H31.3891C32.8659 29.7934 33.9952 30.9227 33.9952 32.3995C33.9952 33.8763 32.8659 35.0056 31.3891 35.0056H23.5708" fill="white"/>
<path fill-rule="evenodd" clip-rule="evenodd" d="M39.0623 28.534L38.9689 28.6585L34.6098 31.274C34.7277 31.6244 34.7914 32.0027 34.7914 32.3994C34.7914 34.316 33.3056 35.8018 31.389 35.8018H23.5706V34.2092H31.389C32.426 34.2092 33.1988 33.4364 33.1988 32.3994C33.1988 31.3624 32.426 30.5896 31.389 30.5896H25.9888L23.2145 29.2025C22.7989 28.9947 22.2254 28.8522 21.7464 28.8522H15.7523C14.9288 28.8522 14.0868 29.1971 13.4487 29.8352L9.11818 34.1657L15.9704 41.7793L18.2042 40.2901H32.6051C32.7438 40.2901 32.9749 40.1986 33.0845 40.089L33.1021 40.0714L40.4336 33.6025L45.9543 25.7157C45.5025 25.5507 44.7616 25.3774 43.6377 25.3774C42.6492 25.3774 41.54 26.0633 40.5833 26.9137C40.126 27.3202 39.7424 27.7291 39.4727 28.0373C39.3383 28.1909 39.2335 28.318 39.1633 28.4054C39.1282 28.4491 39.1018 28.4827 39.0848 28.5047L39.0664 28.5286L39.0623 28.534ZM47.1125 25.4498L47.6756 24.8867L48.148 25.3591L41.6295 34.6712L34.1906 41.235C33.7785 41.635 33.1524 41.8827 32.6051 41.8827H18.6864L15.708 43.8684L6.92358 34.108L12.3225 28.709C13.2481 27.7834 14.4909 27.2596 15.7523 27.2596H21.7464C22.4835 27.2596 23.2999 27.4646 23.9268 27.778L26.3647 28.997H31.389C32.3203 28.997 33.1499 29.3479 33.7568 29.9285L37.8885 27.4494C37.8989 27.4364 37.91 27.4225 37.9218 27.4078C38.0043 27.3052 38.1234 27.1608 38.2741 26.9886C38.5745 26.6453 39.0053 26.1855 39.5252 25.7233C40.5232 24.8363 42.0201 23.7848 43.6377 23.7848C45.0305 23.7848 46.001 24.0172 46.6481 24.2761C46.971 24.4052 47.2099 24.5396 47.3777 24.6515C47.4615 24.7073 47.5271 24.7573 47.5763 24.7978C47.6009 24.818 47.6213 24.8358 47.6378 24.8508C47.646 24.8583 47.6532 24.8651 47.6595 24.8711L47.6683 24.8795L47.6721 24.8833L47.6747 24.8859C47.6751 24.8863 47.6756 24.8867 47.1125 25.4498Z" fill="#4C739E"/>
<path d="M7.01417 32.2274L1.79297 37.4486L13.2182 48.8738L18.4394 43.6526L7.01417 32.2274Z" fill="#A3D4FF"/>
<path fill-rule="evenodd" clip-rule="evenodd" d="M0.666748 37.4486L7.01409 31.1013L19.5655 43.6526L13.2181 50L0.666748 37.4486ZM2.91903 37.4486L13.2181 47.7477L17.3132 43.6526L7.01409 33.3535L2.91903 37.4486Z" fill="#4C739E"/>
<path fill-rule="evenodd" clip-rule="evenodd" d="M8.32657 39.9122L5.72046 37.3061L6.84661 36.1799L9.45272 38.786L8.32657 39.9122Z" fill="#4C739E"/>
</svg>
