<svg width="60" height="60" fill="none" xmlns="http://www.w3.org/2000/svg">
    <path d="M18.281 40.563c10.097 0 18.282-8.185 18.282-18.282C36.563 12.185 28.377 4 18.28 4 8.185 4 0 12.185 0 22.281c0 10.097 8.185 18.282 18.281 18.282z"
          fill="#F4F8FF"/>
    <path d="M51.563 30.25h-45v24.375h45V30.25z" fill="#fff"/>
    <path fill-rule="evenodd" clip-rule="evenodd"
          d="M5.625 29.313H52.5v26.25H5.625v-26.25zM7.5 31.188v22.5h43.125v-22.5H7.5z" fill="#4C739E"/>
    <path d="M44.906 38.688H13.22a7.562 7.562 0 0 1-7.594-7.594V19.937H52.5v11.157a7.562 7.562 0 0 1-7.594 7.593z"
          fill="#A3D4FF"/>
    <path fill-rule="evenodd" clip-rule="evenodd"
          d="M4.688 19h48.75v12.094a8.5 8.5 0 0 1-8.532 8.531H13.22a8.5 8.5 0 0 1-8.531-8.531V19zm1.875 1.875v10.219a6.625 6.625 0 0 0 6.656 6.656h31.687a6.625 6.625 0 0 0 6.657-6.656V20.875h-45z"
          fill="#4C739E"/>
    <path d="M21.563 35.875h-4.688V41.5h4.688v-5.625z" fill="#fff"/>
    <path fill-rule="evenodd" clip-rule="evenodd"
          d="M15.938 34.938H22.5v7.5h-6.563v-7.5zm1.874 1.874v3.75h2.813v-3.75h-2.813z" fill="#4C739E"/>
    <path d="M40.313 35.875h-4.688V41.5h4.688v-5.625z" fill="#fff"/>
    <path fill-rule="evenodd" clip-rule="evenodd"
          d="M34.688 34.938h6.562v7.5h-6.563v-7.5zm1.874 1.874v3.75h2.813v-3.75h-2.813zM9.375 43.375h1.875v6.563h8.438v1.874H9.374v-8.437zM46.875 49.938v-6.563h1.875v8.438H38.437v-1.876h8.438zM22.125 16.75c0-1.807 1.428-3.375 3.375-3.375h7.219c1.806 0 3.375 1.428 3.375 3.375v1.313h-1.875V16.75c0-.865-.682-1.5-1.5-1.5H25.5c-.865 0-1.5.681-1.5 1.5v1.313h-1.875V16.75zM49.688 13.375v2.813h-1.876v-2.813h1.876zM55.155 14.832l-1.875 2.813-1.56-1.04 1.875-2.813 1.56 1.04zM58.645 18.843l-2.813 1.875-1.04-1.56 2.813-1.876 1.04 1.56zM60 25.563h-2.813v-1.875H60v1.875z"
          fill="#4C739E"/>
</svg>