<svg width="61" height="61" fill="none" xmlns="http://www.w3.org/2000/svg">
    <path d="M29.48 57.061c14 0 25.3-11.3 25.3-25.3s-11.3-25.3-25.3-25.3-25.3 11.3-25.3 25.3 11.3 25.3 25.3 25.3z"
          fill="#F4F8FF"/>
    <path d="M8.98 50.461h-1.9v5.7h1.9v-5.7z" fill="#DFEEFF"/>
    <path d="M10.88 52.361h-5.7v1.9h5.7v-1.9zM53.88 4.561h-1.9v5.7h1.9v-5.7z" fill="#DFEEFF"/>
    <path d="M55.78 6.461h-5.7v1.9h5.7v-1.9z" fill="#DFEEFF"/>
    <path d="M21.48 31.861c6.9 0 12.4-5.6 12.4-12.4 0-6.9-5.6-12.4-12.4-12.4-6.8 0-12.5 5.5-12.5 12.4 0 6.8 5.6 12.4 12.5 12.4z"
          fill="#F4F8FF"/>
    <path d="M17.28 23.662v-1.4h1.2v-1.8h-1.2v-1.8h1.2v-6.6h3.8c.7 0 1.4.1 2 .2.6.1 1.2.4 1.7.7.5.3.9.7 1.1 1.3.3.5.4 1.2.4 1.9 0 .8-.1 1.4-.4 2-.3.5-.7 1-1.1 1.3-.5.3-1 .6-1.7.8-.6.2-1.3.2-2 .2h-1.9v1.8h5.1v1.4h-5.1v3.1h-1.9v-3.1h-1.2zm5.1-4.9c1.1 0 1.8-.2 2.4-.6.6-.4.8-1.1.8-1.9 0-1.7-1.1-2.5-3.2-2.5h-2v5.1h2v-.1z"
          fill="#4C739E"/>
    <path d="M21.48 32.861c-7.4 0-13.4-6-13.4-13.4s6-13.4 13.4-13.4 13.4 6 13.4 13.4c-.1 7.3-6.1 13.4-13.4 13.4zm0-24.9c-6.3 0-11.5 5.2-11.5 11.5s5.2 11.5 11.5 11.5 11.5-5.2 11.5-11.5c-.1-6.3-5.2-11.5-11.5-11.5z"
          fill="#4C739E"/>
    <path d="M22.78 54.461c7.1 0 12.9-5.8 12.9-12.9 0-7.1-5.8-12.9-12.9-12.9-7.1 0-12.9 5.7-12.9 12.9s5.8 12.9 12.9 12.9z"
          fill="#A3D4FF"/>
    <path d="M22.78 55.361c-7.6 0-13.9-6.2-13.9-13.9s6.2-13.9 13.9-13.9 13.9 6.2 13.9 13.9-6.3 13.9-13.9 13.9zm0-25.8c-6.6 0-11.9 5.4-11.9 11.9 0 6.6 5.4 11.9 11.9 11.9 6.6 0 11.9-5.4 11.9-11.9s-5.3-11.9-11.9-11.9z"
          fill="#4C739E"/>
    <path d="M26.08 47.761h-2.9c-2.7 0-4.8-2.1-4.8-4.8v-2.9c0-2.7 2.1-4.8 4.8-4.8h2.9v1.9h-2.9c-1.6 0-2.9 1.2-2.9 2.9v2.9c0 1.6 1.2 2.9 2.9 2.9h2.9v1.9z"
          fill="#4C739E"/>
    <path d="M23.28 39.161h-6.7v1.9h6.7v-1.9zM23.28 41.962h-6.7v1.9h6.7v-1.9z" fill="#4C739E"/>
    <path d="M41.48 41.961c6.9 0 12.4-5.6 12.4-12.4 0-6.9-5.6-12.4-12.4-12.4-6.8 0-12.4 5.6-12.4 12.4-.1 6.8 5.5 12.4 12.4 12.4z"
          fill="#fff"/>
    <path d="M41.48 42.861c-7.4 0-13.4-6-13.4-13.4s6-13.4 13.4-13.4 13.4 6 13.4 13.4c-.1 7.4-6.1 13.4-13.4 13.4zm0-24.8c-6.3 0-11.5 5.2-11.5 11.5s5.2 11.5 11.5 11.5 11.5-5.2 11.5-11.5c-.1-6.3-5.2-11.5-11.5-11.5z"
          fill="#4C739E"/>
    <path d="M42.38 35.261h-1.9c-1.6 0-2.9-1.2-2.9-2.9h1.9c0 .6.4 1 1 1h1.9c.6 0 1-.4 1-1v-.6c0-.4-.3-.8-.7-.9l-3.2-1.1c-1.1-.4-2-1.5-2-2.7v-.6c0-1.6 1.2-2.9 2.9-2.9h1.9c1.6 0 2.9 1.2 2.9 2.9h-1.9c0-.6-.4-1-1-1h-1.9c-.6 0-1 .4-1 1v.6c0 .4.3.8.7.9l3.2 1.1c1.1.4 2 1.5 2 2.7v.6c0 1.7-1.3 2.9-2.9 2.9z"
          fill="#4C739E"/>
    <path d="M42.38 21.861h-1.9v2.9h1.9v-2.9zM42.38 34.261h-1.9v2.9h1.9v-2.9z" fill="#4C739E"/>
</svg>