<svg width="60" height="60" fill="none" xmlns="http://www.w3.org/2000/svg">
    <path d="M21.687 44.373c11.977 0 21.686-9.709 21.686-21.686C43.373 10.709 33.665 1 21.688 1 9.709 1 0 10.71 0 22.687s9.71 21.686 21.687 21.686z"
          fill="#F4F8FF"/>
    <path d="M49.57 32.91c0 3.512-1.24 6.816-3.202 9.398l6.713 6.713c3.717-4.338 5.886-10.018 5.886-16.214 0-13.115-10.017-23.855-22.822-25.094v9.604c7.641 1.239 13.425 7.745 13.425 15.593z"
          fill="#A3D4FF"/>
    <path fill-rule="evenodd" clip-rule="evenodd"
          d="m35.112 6.575 1.132.11C49.57 7.975 60 19.15 60 32.807c0 6.44-2.255 12.36-6.135 16.886l-.726.846-8.138-8.138.545-.718c1.836-2.415 2.99-5.503 2.99-8.773 0-7.323-5.396-13.413-12.557-14.574l-.867-.14V6.575zm2.065 2.302v7.584c7.691 1.653 13.425 8.376 13.425 16.45 0 3.426-1.102 6.659-2.884 9.287l5.285 5.285c3.123-4.027 4.931-9.13 4.931-14.676 0-12.186-9.02-22.238-20.757-23.93z"
          fill="#4C739E"/>
    <path d="M42.96 45.613c-2.581 1.859-5.68 2.995-9.19 2.995-7.85 0-14.355-5.784-15.491-13.322H8.675C9.81 48.09 20.654 58.108 33.769 58.108c5.99 0 11.567-2.168 15.904-5.68l-6.713-6.815z"
          fill="#fff"/>
    <path fill-rule="evenodd" clip-rule="evenodd"
          d="M7.546 34.253h11.622l.132.879c1.061 7.041 7.14 12.443 14.47 12.443 3.276 0 6.166-1.058 8.587-2.8l.718-.517 8.132 8.257-.884.716c-4.51 3.65-10.313 5.91-16.554 5.91-13.649 0-24.94-10.424-26.123-23.764l-.1-1.124zm2.284 2.065c1.603 11.73 11.744 20.758 23.94 20.758 5.331 0 10.327-1.794 14.35-4.753l-5.29-5.371c-2.592 1.677-5.644 2.688-9.06 2.688-8.06 0-14.79-5.72-16.356-13.322H9.83z"
          fill="#4C739E"/>
    <path d="M14.354 17.007a25.497 25.497 0 0 0-5.576 13.528h9.604c.413-2.478 1.342-4.853 2.788-6.816l-6.816-6.712z"
          fill="#fff"/>
    <path fill-rule="evenodd" clip-rule="evenodd"
          d="m14.269 15.473 8.264 8.139-.531.72c-1.337 1.814-2.211 4.032-2.601 6.373l-.144.863H7.635l.116-1.138a26.53 26.53 0 0 1 5.801-14.073l.717-.884zm.19 3.086a24.43 24.43 0 0 0-4.511 10.944h7.58c.432-2.011 1.195-3.949 2.3-5.656l-5.369-5.288z"
          fill="#4C739E"/>
    <path d="m17.66 13.599 6.815 6.816a15.707 15.707 0 0 1 7.126-2.995V7.816c-5.37.516-10.12 2.582-13.942 5.783z"
          fill="#fff"/>
    <path fill-rule="evenodd" clip-rule="evenodd"
          d="M32.633 6.679v11.627l-.875.135a14.677 14.677 0 0 0-6.663 2.8l-.717.537-8.247-8.246.865-.725c3.98-3.334 8.927-5.483 14.506-6.02l1.131-.108zm-13.428 7.006 5.383 5.383a16.664 16.664 0 0 1 5.98-2.511v-7.58c-4.296.605-8.142 2.255-11.363 4.708z"
          fill="#4C739E"/>
    <path d="M33.873 44.27c6.274 0 11.36-5.086 11.36-11.36 0-6.273-5.086-11.36-11.36-11.36-6.274 0-11.36 5.087-11.36 11.36 0 6.274 5.086 11.36 11.36 11.36z"
          fill="#fff"/>
    <path fill-rule="evenodd" clip-rule="evenodd"
          d="M33.873 22.584c-5.704 0-10.327 4.623-10.327 10.326 0 5.704 4.623 10.328 10.327 10.328 5.703 0 10.327-4.624 10.327-10.328 0-5.703-4.624-10.326-10.327-10.326zM21.48 32.91c0-6.844 5.549-12.392 12.393-12.392s12.392 5.548 12.392 12.392c0 6.845-5.548 12.393-12.392 12.393-6.844 0-12.393-5.548-12.393-12.392z"
          fill="#4C739E"/>
    <path d="M30.774 35.389c-1.445-1.652-.722-4.44 1.446-5.783l13.322-8.365c1.24-.826 2.479.62 1.446 1.756L36.764 34.975c-1.652 1.859-4.544 2.169-5.99.413z"
          fill="#4C739E"/>
</svg>