<svg width="60" height="60" fill="none" xmlns="http://www.w3.org/2000/svg">
    <path d="M28.048 54.471c12.914 0 23.383-10.468 23.383-23.382 0-12.915-10.469-23.383-23.383-23.383-12.913 0-23.382 10.468-23.382 23.383 0 12.913 10.468 23.382 23.382 23.382z"
          fill="#F4F8FF"/>
    <path d="M17.096 4.594 15.8 5.89l5.188 5.188 1.296-1.297-5.187-5.187zM14.502 2l-1.296 1.297 1.296 1.297L15.8 3.297 14.502 2zM23.582 2.006l-1.297 1.297 11.023 11.023 1.297-1.297L23.582 2.006zM10.611 7.188 9.314 8.485l11.023 11.023 1.297-1.297L10.61 7.188zM48.68 34.298h-1.834v4.585h1.834v-4.585zM52.416 35.234l-2.182 3.78 1.589.917 2.182-3.78-1.589-.917zM56.816 38.964l-3.78 2.182.916 1.588 3.78-2.182-.916-1.588zM58.767 44.385h-4.585v1.834h4.585v-1.834zM42.906 35.233l-1.588.917 2.183 3.78 1.588-.917-2.183-3.78z"
          fill="#4C739E"/>
    <path d="m9.58 46.108 18.157-18.155-3.888-3.889L5.693 42.221a1.837 1.837 0 0 0-2.595 0l-.651.65a1.838 1.838 0 0 0 0 2.596l3.888 3.888c.715.715 1.88.715 2.595 0l.65-.651a1.838 1.838 0 0 0 0-2.596z"
          fill="#A3D4FF"/>
    <path d="M7.637 50.803a2.726 2.726 0 0 1-1.944-.806l-3.888-3.888a2.75 2.75 0 0 1 0-3.888l.65-.651a2.772 2.772 0 0 1 3.128-.541l18.266-18.267 5.19 5.19L10.773 46.22a2.766 2.766 0 0 1-.532 3.127l-.651.65a2.747 2.747 0 0 1-1.953.807zM4.4 42.597a.94.94 0 0 0-.651.265l-.651.651a.924.924 0 0 0 0 1.303l3.888 3.888c.348.348.953.348 1.292 0l.652-.651a.913.913 0 0 0 0-1.293l-.642-.651 18.156-18.157-2.595-2.595L5.693 43.514l-.651-.652a.918.918 0 0 0-.642-.266z"
          fill="#4C739E"/>
    <path d="m15.394 23.294 1.944 1.843h2.595l6.74 6.694v2.595l1.816 1.944a1.76 1.76 0 0 0 2.53 0l7.749-7.785c.715-.715.697-1.788-.019-2.503l-1.962-1.862h-2.595l-6.602-6.666v-2.595l-1.88-1.944a1.794 1.794 0 0 0-2.558 0l-7.767 7.73c-.724.715-.706 1.825.01 2.55z"
          fill="#fff"/>
    <path d="M29.754 37.82a2.695 2.695 0 0 1-1.917-.808l-2.081-2.237v-2.577l-6.199-6.153h-2.586l-2.228-2.109c-1.082-1.082-1.091-2.77-.018-3.842l7.767-7.73a2.701 2.701 0 0 1 3.86 0l2.155 2.228v2.586l6.08 6.116h2.576l2.228 2.11c1.092 1.09 1.1 2.76.037 3.823l-7.748 7.776c-.532.523-1.21.816-1.926.816zm-2.164-3.76 1.568 1.678c.303.302.862.33 1.21-.019l7.749-7.776c.357-.348.348-.853-.018-1.21l-1.679-1.587h-2.613l-7.134-7.207v-2.604l-1.623-1.678a.878.878 0 0 0-1.256.009l-7.767 7.73c-.349.348-.349.871.01 1.238l1.668 1.577h2.604l7.281 7.235v2.613zM6.324 41.55l-1.297 1.296 1.945 1.945 1.297-1.297-1.945-1.945z"
          fill="#4C739E"/>
    <path d="m27.066 16.912-2.594 2.594 1.297 1.297 2.594-2.594-1.297-1.297zM33.548 23.396l-2.594 2.594 1.297 1.297 2.594-2.594-1.297-1.297zM21.23 22.747l-1.945 1.946 1.297 1.296 1.945-1.945-1.297-1.297zM27.712 29.231l-1.945 1.945 1.297 1.297 1.945-1.945-1.297-1.297z"
          fill="#4C739E"/>
    <path d="M49.597 48.97h-.917v-1.834a2.747 2.747 0 0 0-2.75-2.751H30.34a2.747 2.747 0 0 0-2.75 2.75v1.834h-.917a2.747 2.747 0 0 0-2.75 2.751v4.585h28.425V51.72a2.753 2.753 0 0 0-2.75-2.75z"
          fill="#A3D4FF"/>
    <path d="M49.597 48.97h-1.834v-1.834a1.84 1.84 0 0 0-1.834-1.834H30.341a1.84 1.84 0 0 0-1.834 1.834v1.833h-1.834v-1.833a3.667 3.667 0 0 1 3.668-3.668h15.588a3.667 3.667 0 0 1 3.668 3.668v1.833z"
          fill="#4C739E"/>
    <path d="M53.265 57.222h-30.26V51.72a3.667 3.667 0 0 1 3.668-3.667H36.76v1.834H26.673a1.84 1.84 0 0 0-1.834 1.833v3.668h26.592V51.72a1.84 1.84 0 0 0-1.834-1.834h-5.502v-1.833h5.502a3.667 3.667 0 0 1 3.668 3.667v5.502z"
          fill="#4C739E"/>
    <path d="M40.428 48.053h-1.834v1.834h1.834v-1.834z" fill="#4C739E"/>
</svg>