<svg width="60" height="60" fill="none" xmlns="http://www.w3.org/2000/svg">
    <path d="M28.881 53.244c10.64 0 19.264-8.689 19.264-19.407s-8.624-19.406-19.264-19.406c-10.639 0-19.263 8.688-19.263 19.406 0 10.718 8.624 19.407 19.264 19.407z"
          fill="#F4F8FF"/>
    <path fill-rule="evenodd" clip-rule="evenodd"
          d="M17.217 54.368c8.778 4.998 19.077 4.71 27.278.002l.978 1.73c-8.79 5.045-19.83 5.353-29.229.001l.973-1.733zM23.143 9.013c-9.727 2.978-16.5 10.756-18.79 19.99l-1.918-.483c2.45-9.874 9.706-18.218 20.133-21.41l.575 1.903z"
          fill="#DFEEFF"/>
    <path d="m1.122 40.704 1.58-6.369h2.964s.988-.995 3.952-2.986c2.963-1.99 7.903-2.985 7.903-2.985H27.4s.987 0 4.939 1.99 4.94 3.981 4.94 3.981 5.927 0 9.878.995c3.952.995 6.916 3.981 6.916 3.981v6.967H5.468c-2.963 0-5.038-2.688-4.346-5.574z"
          fill="#A3D4FF"/>
    <path fill-rule="evenodd" clip-rule="evenodd"
          d="M17.423 27.369H27.4v.995c0-.995 0-.995.002-.995h.031a1.066 1.066 0 0 1 .126.01c.066.007.149.02.25.04.203.04.49.115.89.25.8.268 2.08.787 4.082 1.795 2.065 1.04 3.388 2.097 4.208 2.923.375.378.643.705.828.959a67.49 67.49 0 0 1 2.981.12c1.99.126 4.533.378 6.599.899 2.135.537 3.976 1.603 5.266 2.514.65.458 1.17.883 1.53 1.197a14.383 14.383 0 0 1 .532.486l.032.031.01.01.002.002.001.002-.697.704.698-.704.29.292v8.374H5.467c-3.608 0-6.147-3.295-5.307-6.802l.002-.008 1.768-7.123h3.352c.15-.132.357-.308.63-.529.643-.517 1.654-1.28 3.157-2.29 1.603-1.076 3.689-1.857 5.32-2.362a35.721 35.721 0 0 1 2.872-.758l.046-.01.013-.002.005-.001.195.976-.195-.976.097-.02zm.2 1.99-.109.023a33.884 33.884 0 0 0-2.543.679c-1.58.49-3.445 1.203-4.805 2.116-1.461.982-2.426 1.711-3.018 2.189a15.986 15.986 0 0 0-.757.647 2.24 2.24 0 0 0-.025.025l-.003.003-.288.29H3.474L2.08 40.94c-.54 2.265 1.07 4.341 3.387 4.341h47.617v-5.538a17.302 17.302 0 0 0-1.554-1.235c-1.18-.831-2.797-1.756-4.613-2.213-1.886-.475-4.283-.72-6.243-.843a65.56 65.56 0 0 0-3.145-.12l-.19-.003H36.669l-.269-.54a2.864 2.864 0 0 0-.14-.218 6.277 6.277 0 0 0-.667-.777c-.662-.667-1.809-1.6-3.695-2.55-1.95-.983-3.14-1.46-3.822-1.688a5.619 5.619 0 0 0-.718-.198h-9.735z"
          fill="#4C739E"/>
    <path fill-rule="evenodd" clip-rule="evenodd"
          d="m11.883 34.044 1.397-1.408 1.686 1.699H31.93l.698-.704 1.398 1.408-1.278 1.286h-18.6l-2.265-2.282z"
          fill="#4C739E"/>
    <path d="M11.593 50.258c2.728 0 4.94-2.227 4.94-4.976 0-2.748-2.212-4.976-4.94-4.976s-4.94 2.228-4.94 4.976c0 2.749 2.212 4.977 4.94 4.977z"
          fill="#fff"/>
    <path fill-rule="evenodd" clip-rule="evenodd"
          d="M11.593 41.301c-2.182 0-3.951 1.783-3.951 3.981 0 2.199 1.769 3.981 3.951 3.981 2.183 0 3.952-1.782 3.952-3.98 0-2.2-1.77-3.982-3.952-3.982zm-5.927 3.981c0-3.297 2.654-5.97 5.927-5.97 3.274 0 5.928 2.673 5.928 5.97 0 3.298-2.654 5.972-5.928 5.972-3.273 0-5.927-2.674-5.927-5.972z"
          fill="#4C739E"/>
    <path d="M43.206 50.258c2.728 0 4.94-2.227 4.94-4.976 0-2.748-2.212-4.976-4.94-4.976s-4.94 2.228-4.94 4.976c0 2.749 2.212 4.977 4.94 4.977z"
          fill="#fff"/>
    <path fill-rule="evenodd" clip-rule="evenodd"
          d="M43.206 41.301c-2.183 0-3.952 1.783-3.952 3.981 0 2.199 1.77 3.981 3.952 3.981s3.951-1.782 3.951-3.98c0-2.2-1.769-3.982-3.951-3.982zm-5.928 3.981c0-3.297 2.654-5.97 5.928-5.97 3.273 0 5.927 2.673 5.927 5.97 0 3.298-2.654 5.972-5.927 5.972-3.274 0-5.928-2.674-5.928-5.972z"
          fill="#4C739E"/>
    <path fill-rule="evenodd" clip-rule="evenodd" d="M56.048 20.402v-5.971h1.976v5.971h-1.976z" fill="#DFEEFF"/>
    <path fill-rule="evenodd" clip-rule="evenodd" d="M54.072 16.421H60v1.99h-5.928v-1.99z" fill="#DFEEFF"/>
    <path d="M32.043 20.601c2.618 0 4.742-2.139 4.742-4.777 0-2.638-2.123-4.777-4.742-4.777-2.62 0-4.742 2.139-4.742 4.777 0 2.638 2.123 4.777 4.742 4.777z"
          fill="#A3D4FF"/>
    <path fill-rule="evenodd" clip-rule="evenodd"
          d="M32.043 12.042c-2.074 0-3.754 1.693-3.754 3.782s1.68 3.782 3.754 3.782c2.073 0 3.754-1.693 3.754-3.782s-1.681-3.782-3.754-3.782zm-5.73 3.782c0-3.188 2.565-5.772 5.73-5.772 3.164 0 5.73 2.584 5.73 5.772s-2.566 5.772-5.73 5.772c-3.165 0-5.73-2.584-5.73-5.772z"
          fill="#4C739E"/>
    <path d="M47.157 10.55c2.62 0 4.742-2.14 4.742-4.778 0-2.638-2.123-4.777-4.742-4.777-2.618 0-4.741 2.139-4.741 4.777 0 2.639 2.123 4.777 4.742 4.777z"
          fill="#A3D4FF"/>
    <path fill-rule="evenodd" clip-rule="evenodd"
          d="M47.157 1.99c-2.073 0-3.753 1.694-3.753 3.782 0 2.089 1.68 3.782 3.753 3.782 2.074 0 3.754-1.693 3.754-3.782 0-2.088-1.68-3.782-3.754-3.782zm-5.73 3.782c0-3.188 2.566-5.772 5.73-5.772 3.165 0 5.73 2.584 5.73 5.772s-2.565 5.772-5.73 5.772c-3.164 0-5.73-2.584-5.73-5.772z"
          fill="#4C739E"/>
    <path d="M45.38 29.956c2.618 0 4.741-2.139 4.741-4.777 0-2.638-2.123-4.777-4.742-4.777-2.619 0-4.742 2.139-4.742 4.777 0 2.638 2.123 4.777 4.742 4.777z"
          fill="#A3D4FF"/>
    <path fill-rule="evenodd" clip-rule="evenodd"
          d="M45.38 21.397c-2.074 0-3.755 1.693-3.755 3.782s1.681 3.782 3.754 3.782c2.074 0 3.754-1.693 3.754-3.782s-1.68-3.782-3.754-3.782zm-5.73 3.782c0-3.188 2.565-5.772 5.73-5.772 3.164 0 5.729 2.584 5.729 5.772s-2.565 5.772-5.73 5.772c-3.164 0-5.73-2.584-5.73-5.772zM31.351 14.43V6.47h1.976v7.962h-1.976zM31.351 4.478v-1.99h1.976v1.99h-1.976z"
          fill="#4C739E"/>
    <path fill-rule="evenodd" clip-rule="evenodd" d="M19.496 25.378v-5.971h1.976v5.971h-1.976z" fill="#DFEEFF"/>
    <path fill-rule="evenodd" clip-rule="evenodd" d="M17.52 21.397h5.928v1.99h-5.927v-1.99z" fill="#DFEEFF"/>
</svg>