<svg width="60" height="61" fill="none" xmlns="http://www.w3.org/2000/svg">
    <path fill-rule="evenodd" clip-rule="evenodd"
          d="M17.217 55.26c8.778 4.998 19.077 4.709 27.278 0l.978 1.73c-8.79 5.046-19.83 5.354-29.229.002l.973-1.733zM55.52 20.6C52.075 11.105 44.044 4.651 34.747 2.922L35.122.97c9.964 1.853 18.572 8.773 22.262 18.94l-1.863.69zM6.632 15.972C1.633 24.75 1.922 35.05 6.63 43.251l-1.73.978C-.144 35.439-.452 24.399 4.9 15l1.733.972z"
          fill="#DFEEFF"/>
    <path d="M30 55c13.255 0 24-10.969 24-24.5S43.255 6 30 6 6 16.969 6 30.5 16.745 55 30 55z" fill="#F4F8FF"/>
    <path d="M16.73 35.55c2.619 0 4.742-2.14 4.742-4.778 0-2.638-2.123-4.777-4.742-4.777-2.62 0-4.742 2.139-4.742 4.777 0 2.639 2.123 4.777 4.742 4.777z"
          fill="#A3D4FF"/>
    <path fill-rule="evenodd" clip-rule="evenodd"
          d="M16.73 26.99c-2.074 0-3.754 1.694-3.754 3.782 0 2.089 1.68 3.782 3.754 3.782 2.073 0 3.754-1.693 3.754-3.782 0-2.088-1.681-3.782-3.754-3.782zM11 30.772C11 27.584 13.565 25 16.73 25c3.164 0 5.73 2.584 5.73 5.772s-2.566 5.773-5.73 5.773c-3.165 0-5.73-2.585-5.73-5.773z"
          fill="#4C739E"/>
    <path d="M43.649 35.55c2.619 0 4.742-2.14 4.742-4.778 0-2.638-2.123-4.777-4.742-4.777-2.619 0-4.742 2.139-4.742 4.777 0 2.639 2.123 4.777 4.742 4.777z"
          fill="#A3D4FF"/>
    <path fill-rule="evenodd" clip-rule="evenodd"
          d="M43.649 26.99c-2.074 0-3.754 1.694-3.754 3.782 0 2.089 1.68 3.782 3.754 3.782 2.073 0 3.754-1.693 3.754-3.782 0-2.088-1.681-3.782-3.754-3.782zm-5.73 3.782c0-3.188 2.565-5.772 5.73-5.772 3.164 0 5.73 2.584 5.73 5.772s-2.566 5.773-5.73 5.773c-3.165 0-5.73-2.585-5.73-5.773z"
          fill="#4C739E"/>
    <path d="M30.19 35.55c2.618 0 4.741-2.14 4.741-4.778 0-2.638-2.123-4.777-4.742-4.777-2.619 0-4.742 2.139-4.742 4.777 0 2.639 2.123 4.777 4.742 4.777z"
          fill="#A3D4FF"/>
    <path fill-rule="evenodd" clip-rule="evenodd"
          d="M30.19 26.99c-2.074 0-3.755 1.694-3.755 3.782 0 2.089 1.681 3.782 3.754 3.782 2.074 0 3.754-1.693 3.754-3.782 0-2.088-1.68-3.782-3.754-3.782zm-5.73 3.782c0-3.188 2.565-5.772 5.73-5.772 3.164 0 5.729 2.584 5.729 5.772s-2.565 5.773-5.73 5.773c-3.164 0-5.73-2.585-5.73-5.773z"
          fill="#4C739E"/>
</svg>