<svg width="60" height="60" fill="none" xmlns="http://www.w3.org/2000/svg">
    <path d="M31.473 50.988c11.593 0 20.992-9.398 20.992-20.992 0-11.593-9.399-20.992-20.992-20.992-11.594 0-20.992 9.399-20.992 20.992 0 11.594 9.398 20.992 20.992 20.992z"
          fill="#F4F8FF"/>
    <path fill-rule="evenodd" clip-rule="evenodd"
          d="M18.761 52.204c9.566 5.407 20.789 5.094 29.726.002l1.066 1.87c-9.579 5.458-21.609 5.792-31.851.003l1.06-1.875zM25.22 3.145C14.62 6.365 7.24 14.779 4.742 24.767l-2.089-.522c2.67-10.681 10.577-19.707 21.939-23.16l.626 2.06z"
          fill="#DFEEFF"/>
    <path d="M56.448 14.387c.323-.215.43-.646.323-.969-.108-.43-.216-.861-.431-1.4-.215-.43-.323-.86-.538-1.291-.216-.323-.538-.538-.861-.538l-2.907.107c-.323 0-.538-.107-.754-.43-.538-.646-1.076-1.292-1.722-1.83a1.163 1.163 0 0 1-.323-.754l.215-2.799c0-.323-.107-.753-.43-.861-.862-.43-1.723-.861-2.584-1.184-.323-.108-.754 0-.969.215L43.53 4.698c-.215.216-.538.323-.86.323-.862-.107-1.723-.107-2.477-.107-.323 0-.646-.108-.753-.323l-1.83-2.153c-.216-.323-.646-.43-.97-.323-.43.107-.86.215-1.399.43-.538.216-.86.323-1.291.539-.323.215-.539.538-.539.86l.108 2.907c0 .323-.108.539-.43.754-.647.538-1.293 1.076-1.83 1.722a1.163 1.163 0 0 1-.754.323l-2.8-.215c-.322 0-.753.108-.86.43-.431.862-.862 1.723-1.185 2.584-.107.323 0 .754.216.97l2.045 1.937c.215.215.323.538.323.861-.108.861-.108 1.723-.108 2.476 0 .323-.107.646-.323.754l-2.153 1.83c-.323.215-.43.646-.323.968.108.431.216.862.431 1.4.215.538.323.861.538 1.292.216.323.538.538.861.538l2.907-.108c.323 0 .538.108.754.431.538.646 1.076 1.292 1.722 1.83.215.215.323.538.323.754l-.215 2.799c0 .322.107.753.43.86.861.431 1.723.862 2.584 1.185.323.108.754 0 .969-.215l1.938-2.046c.215-.215.538-.323.86-.323.862.108 1.723.108 2.477.108.323 0 .646.108.753.323l1.83 2.153c.216.323.646.43.97.323.43-.108.86-.215 1.399-.43.43-.216.86-.324 1.291-.539.323-.215.539-.538.539-.861l-.108-2.907c0-.323.108-.538.43-.753.647-.539 1.293-1.077 1.83-1.723.216-.215.539-.323.754-.323l2.8.216c.322 0 .753-.108.86-.431.431-.861.862-1.722 1.185-2.584.107-.323 0-.753-.216-.968l-2.045-1.938c-.215-.215-.323-.538-.323-.861.108-.862.108-1.723.108-2.476 0-.323.107-.646.323-.754l2.153-1.83z"
          fill="#fff"/>
    <path fill-rule="evenodd" clip-rule="evenodd"
          d="m38.461 1.778 1.75 2.06h.005c.717 0 1.599 0 2.496.104a.274.274 0 0 0 .066-.016l1.918-2.024.01-.01c.284-.284.643-.443.963-.517.325-.075.72-.088 1.108.041l.018.007.019.007c.906.34 1.8.786 2.638 1.204.506.204.771.62.898.924.135.325.177.662.177.925v.041l-.21 2.737.003.01c.689.587 1.258 1.27 1.761 1.874l.058.07 2.782-.103h.02c.796 0 1.414.504 1.756 1.018l.038.055.03.06c.133.267.23.527.307.733l.007.017c.083.222.145.385.224.542l.02.04.017.042c.239.598.36 1.082.467 1.507.212.701.007 1.6-.7 2.114l-2.059 1.75v.004c0 .717 0 1.599-.105 2.496a.273.273 0 0 0 .013.06l.003.006 2.024 1.918.01.01c.284.284.443.644.517.963.075.325.088.72-.041 1.108l-.006.019-.007.018c-.34.906-.787 1.801-1.205 2.638-.204.506-.619.771-.923.898a2.446 2.446 0 0 1-.926.177h-.041l-2.737-.21c-.003 0-.006.002-.009.004-.588.688-1.27 1.257-1.875 1.76l-.07.059.103 2.78v.02c0 .798-.504 1.415-1.017 1.758l-.056.037-.06.03c-.266.133-.527.23-.733.308l-.016.006a5.603 5.603 0 0 0-.543.224l-.04.02-.041.017c-.598.239-1.082.361-1.508.468-.701.21-1.6.006-2.113-.7l-1.75-2.06h-.005c-.717 0-1.599 0-2.496-.105a.272.272 0 0 0-.06.014l-.006.002-1.918 2.025-.01.01a2.004 2.004 0 0 1-.963.516c-.325.075-.72.089-1.108-.04l-.018-.007-.02-.007c-.905-.34-1.8-.786-2.637-1.205-.505-.204-.771-.619-.898-.923a2.447 2.447 0 0 1-.177-.925v-.042l.21-2.737-.003-.009c-.689-.587-1.258-1.27-1.761-1.875l-.058-.07-2.782.104h-.02c-.796 0-1.414-.505-1.756-1.018l-.038-.056-.03-.06c-.182-.364-.306-.684-.438-1.026a32.815 32.815 0 0 0-.137-.347 10.88 10.88 0 0 1-.467-1.508c-.212-.7-.007-1.6.7-2.113l2.059-1.75v-.005c0-.716 0-1.598.105-2.496a.272.272 0 0 0-.013-.059l-.003-.007-2.024-1.917-.01-.01a2.005 2.005 0 0 1-.517-.964 2.062 2.062 0 0 1 .041-1.107l.006-.02.007-.018c.34-.905.787-1.8 1.205-2.637.204-.506.619-.772.923-.898.326-.136.663-.178.926-.178h.041l2.737.211a.184.184 0 0 0 .009-.004c.588-.688 1.27-1.257 1.875-1.76l.07-.06-.103-2.78v-.02c0-.797.504-1.415 1.017-1.757l.056-.037.06-.03c.364-.182.684-.306 1.026-.439.113-.044.228-.088.347-.136.598-.24 1.082-.362 1.508-.468.701-.211 1.6-.006 2.113.7zm-1.636 1.4c-.396.1-.748.192-1.185.367l-.44.173c-.275.106-.463.18-.693.29a.356.356 0 0 0-.017.016l.104 2.807v.02c0 .285-.048.614-.23.94-.164.297-.394.51-.627.673-.642.536-1.197 1.005-1.653 1.553l-.031.037-.035.035c-.43.43-1.033.638-1.514.638h-.042l-2.74-.211c-.385.77-.74 1.494-1.015 2.207l1.964 1.861.01.01c.463.463.639 1.086.639 1.623v.067l-.009.067c-.098.784-.1 1.58-.1 2.342 0 .27-.043.572-.157.857a1.65 1.65 0 0 1-.612.774L26.4 22.06c.1.397.192.748.367 1.185.069.173.124.316.172.44.107.275.18.463.291.694l.015.016 2.808-.104h.02c.285 0 .614.048.94.23.296.164.51.394.673.627.535.642 1.005 1.197 1.552 1.653l.038.031.034.035c.43.43.639 1.033.639 1.515v.041l-.211 2.74c.77.385 1.494.74 2.207 1.015l1.861-1.964.01-.01c.463-.463 1.086-.638 1.623-.638h.067l.066.008c.785.098 1.58.1 2.343.1.27 0 .572.043.857.157.239.096.555.278.774.612l1.736 2.043a8.663 8.663 0 0 0 1.147-.352c.251-.123.494-.214.689-.287l.017-.006c.187-.07.332-.125.467-.188a.323.323 0 0 0 .015-.013l-.104-2.808v-.02a1.9 1.9 0 0 1 .23-.94c.164-.296.394-.51.627-.673.642-.535 1.197-1.005 1.653-1.552l.031-.037.035-.035a2.235 2.235 0 0 1 1.514-.638h.042l2.74.21c.385-.77.74-1.493 1.015-2.207l-1.964-1.86-.01-.011c-.463-.463-.639-1.086-.639-1.622v-.067l.009-.067c.098-.784.1-1.58.1-2.342 0-.271.043-.573.157-.858a1.65 1.65 0 0 1 .612-.774l2.042-1.736a8.668 8.668 0 0 0-.352-1.147c-.122-.25-.213-.494-.286-.688l-.006-.017a6.865 6.865 0 0 0-.188-.468.323.323 0 0 0-.013-.014l-2.808.104h-.02c-.285 0-.614-.049-.94-.23a2.028 2.028 0 0 1-.673-.627c-.535-.642-1.005-1.198-1.552-1.653l-.038-.032-.034-.034a2.235 2.235 0 0 1-.639-1.515v-.041l.211-2.74c-.77-.385-1.494-.74-2.207-1.016L44.3 5.45l-.01.01c-.463.463-1.086.639-1.623.639h-.067l-.066-.008c-.785-.099-1.58-.1-2.343-.1a2.33 2.33 0 0 1-.857-.158 1.65 1.65 0 0 1-.774-.611l-1.736-2.043z"
          fill="#4C739E"/>
    <path d="M40.838 23.645a5.706 5.706 0 1 0 0-11.411 5.706 5.706 0 0 0 0 11.411z" fill="#fff"/>
    <path fill-rule="evenodd" clip-rule="evenodd"
          d="M40.838 13.31a4.629 4.629 0 1 0 0 9.258 4.629 4.629 0 0 0 0-9.258zm-6.782 4.63a6.782 6.782 0 1 1 13.565 0 6.782 6.782 0 0 1-13.565 0z"
          fill="#4C739E"/>
    <path d="m1.223 37.424 1.722-6.89h3.23s1.076-1.076 4.306-3.229 8.612-3.23 8.612-3.23h10.765s1.076 0 5.382 2.154c4.307 2.153 5.383 4.306 5.383 4.306s6.46 0 10.765 1.076c4.306 1.077 7.536 4.306 7.536 4.306v7.536H5.959c-3.23 0-5.49-2.907-4.736-6.029z"
          fill="#A3D4FF"/>
    <path fill-rule="evenodd" clip-rule="evenodd"
          d="M18.986 23h10.872v1.076c0-1.077.001-1.077.002-1.077h.034a1.29 1.29 0 0 1 .138.01c.072.009.162.022.273.045.22.044.533.124.97.27.87.29 2.265.851 4.447 1.942 2.25 1.125 3.692 2.268 4.586 3.162.408.408.7.762.902 1.036l.517.011c.683.017 1.638.051 2.731.12 2.17.135 4.94.409 7.191.972 2.327.581 4.333 1.734 5.74 2.719.707.495 1.274.956 1.666 1.295a15.54 15.54 0 0 1 .58.526l.035.034.01.01.003.003.001.001s.001.001-.76.762l.761-.761.315.315v9.058H5.96c-3.933 0-6.7-3.564-5.784-7.357l.002-.009 1.927-7.705h3.653c.163-.142.388-.333.686-.571.7-.56 1.802-1.386 3.44-2.478 1.747-1.164 4.02-2.008 5.797-2.555a39.197 39.197 0 0 1 2.944-.78l.186-.04.05-.01.014-.003h.006l.212 1.055-.212-1.056.105-.02zm.218 2.152-.118.026a37.107 37.107 0 0 0-2.771.734c-1.722.53-3.755 1.3-5.237 2.289-1.592 1.061-2.643 1.85-3.289 2.367a17.356 17.356 0 0 0-.824.7 1.88 1.88 0 0 0-.028.027l-.003.003-.313.313H3.786l-1.518 6.07c-.588 2.449 1.166 4.695 3.691 4.695h51.888v-5.99a18.827 18.827 0 0 0-1.694-1.336c-1.284-.9-3.046-1.9-5.026-2.394-2.055-.514-4.667-.779-6.803-.912a71.794 71.794 0 0 0-3.633-.133H39.958l-.293-.585a3.065 3.065 0 0 0-.154-.236 6.808 6.808 0 0 0-.726-.84c-.72-.721-1.97-1.73-4.026-2.758-2.124-1.063-3.421-1.578-4.165-1.826a6.166 6.166 0 0 0-.783-.214H19.204z"
          fill="#4C739E"/>
    <path fill-rule="evenodd" clip-rule="evenodd"
          d="m12.95 30.22 1.522-1.523 1.837 1.838h18.486l.76-.762 1.523 1.523-1.391 1.392h-20.27l-2.468-2.469z"
          fill="#4C739E"/>
    <path d="M12.634 47.759a5.383 5.383 0 1 0 0-10.765 5.383 5.383 0 0 0 0 10.765z" fill="#fff"/>
    <path fill-rule="evenodd" clip-rule="evenodd"
          d="M12.634 38.07a4.306 4.306 0 1 0 0 8.612 4.306 4.306 0 0 0 0-8.612zm-6.46 4.306a6.46 6.46 0 1 1 12.919 0 6.46 6.46 0 0 1-12.918 0z"
          fill="#4C739E"/>
    <path d="M47.082 47.759a5.383 5.383 0 1 0 0-10.765 5.383 5.383 0 0 0 0 10.765z" fill="#fff"/>
    <path fill-rule="evenodd" clip-rule="evenodd"
          d="M47.082 38.07a4.306 4.306 0 1 0 0 8.612 4.306 4.306 0 0 0 0-8.612zm-6.459 4.306a6.46 6.46 0 1 1 12.918 0 6.46 6.46 0 0 1-12.918 0z"
          fill="#4C739E"/>
</svg>