<svg width="60" height="60" fill="none" xmlns="http://www.w3.org/2000/svg">
    <path d="M31.363 53.98c13.802 0 24.99-11.189 24.99-24.99C56.353 15.188 45.165 4 31.363 4 17.562 4 6.373 15.188 6.373 28.99c0 13.801 11.189 24.99 24.99 24.99z"
          fill="#F4F8FF"/>
    <path d="M16.37 5.817c-4.999 0-9.088 2-9.088 4.544V33.08l18.174-9.996V10.361c0-2.453-4.089-4.544-9.087-4.544z"
          fill="#fff"/>
    <path fill-rule="evenodd" clip-rule="evenodd"
          d="M9.536 6.3c1.803-.895 4.223-1.415 6.833-1.415 2.617 0 5.038.545 6.837 1.45 1.737.875 3.183 2.25 3.183 4.026v13.274L6.35 34.657V10.361c0-1.816 1.438-3.193 3.187-4.062zm.83 1.67c-1.545.768-2.151 1.663-2.151 2.391v21.14l16.308-8.97v-12.17c0-.678-.598-1.574-2.155-2.359-1.495-.752-3.618-1.252-5.999-1.252-2.387 0-4.511.48-6.003 1.22z"
          fill="#4C739E"/>
    <path d="M7.282 19.448v4.544c0 1.272 1 2.453 2.726 3.271" fill="#fff"/>
    <path fill-rule="evenodd" clip-rule="evenodd"
          d="M6.349 23.992v-4.544h1.866v4.544c0 .738.597 1.673 2.193 2.428l-.8 1.686c-1.857-.88-3.259-2.307-3.259-4.114z"
          fill="#4C739E"/>
    <path d="M7.282 14.905v4.543c0 2 2.635 3.726 6.361 4.362" fill="#fff"/>
    <path fill-rule="evenodd" clip-rule="evenodd"
          d="M6.349 19.448v-4.543h1.866v4.543c0 .557.37 1.241 1.373 1.92.985.666 2.439 1.22 4.212 1.523l-.314 1.839c-1.953-.334-3.679-.961-4.944-1.817-1.246-.843-2.193-2.022-2.193-3.465z"
          fill="#4C739E"/>
    <path d="M7.282 10.361v4.544c0 2.544 4.09 4.543 9.087 4.543 4.998 0 9.087-1.999 9.087-4.543V10.36" fill="#fff"/>
    <path fill-rule="evenodd" clip-rule="evenodd"
          d="M6.349 14.905V10.36h1.866v4.544c0 .728.606 1.623 2.151 2.39 1.492.74 3.616 1.22 6.003 1.22 2.388 0 4.511-.48 6.003-1.22 1.545-.767 2.151-1.662 2.151-2.39V10.36h1.866v4.544c0 1.816-1.438 3.193-3.187 4.061-1.802.895-4.223 1.415-6.833 1.415-2.61 0-5.03-.52-6.833-1.415-1.749-.868-3.187-2.245-3.187-4.061z"
          fill="#4C739E"/>
    <path d="M16.37 14.905c5.018 0 9.086-2.035 9.086-4.544 0-2.51-4.068-4.544-9.087-4.544s-9.087 2.035-9.087 4.544c0 2.51 4.068 4.544 9.087 4.544z"
          fill="#fff"/>
    <path fill-rule="evenodd" clip-rule="evenodd"
          d="M10.36 7.983c-1.545.772-2.145 1.667-2.145 2.378 0 .711.6 1.606 2.146 2.378 1.49.745 3.612 1.233 6.008 1.233s4.52-.488 6.009-1.233c1.545-.772 2.145-1.667 2.145-2.378 0-.71-.6-1.606-2.145-2.378-1.49-.745-3.613-1.233-6.009-1.233-2.396 0-4.519.488-6.008 1.233zm-.834-1.67c1.8-.899 4.22-1.428 6.843-1.428s5.044.53 6.843 1.429c1.744.872 3.177 2.249 3.177 4.047 0 1.798-1.433 3.175-3.177 4.047-1.8.9-4.22 1.43-6.843 1.43s-5.043-.53-6.843-1.43c-1.743-.871-3.177-2.248-3.177-4.047 0-1.798 1.434-3.175 3.177-4.047zM26.39 14.905v4.543h-1.867v-4.543h1.866zM6.349 29.444v-9.996h1.866v9.996H6.349z"
          fill="#4C739E"/>
    <path d="M57.989 34.897 21.367 54.07 2.011 43.984" fill="#fff"/>
    <path fill-rule="evenodd" clip-rule="evenodd"
          d="m21.366 53.018 36.19-18.948.866 1.653-37.054 19.4L1.58 44.811l.863-1.654 18.923 9.861z" fill="#4C739E"/>
    <path d="M57.989 30.444 21.367 49.618 2.011 39.53" fill="#fff"/>
    <path fill-rule="evenodd" clip-rule="evenodd"
          d="m21.366 48.565 36.19-18.948.866 1.653-37.054 19.4L1.58 40.358l.863-1.654 18.923 9.861z" fill="#4C739E"/>
    <path d="M57.989 25.9 21.367 45.165 2.011 35.078l36.622-19.265L57.989 25.9z" fill="#fff"/>
    <path fill-rule="evenodd" clip-rule="evenodd"
          d="M38.63 14.76 60 25.896 21.37 46.218 0 35.082 38.63 14.76zm.005 2.106L4.023 35.075l17.342 9.038 34.612-18.208-17.342-9.038z"
          fill="#4C739E"/>
    <path d="m47.63 25.264-7.725-4.09c-1.272.637-2.817.546-3.816 0l-23.81 12.45c1.273.636 1.091 1.454 0 2l7.725 4.089a4.327 4.327 0 0 1 3.817 0l23.808-12.45c-1-.545-1.272-1.363 0-1.999z"
          fill="#fff"/>
    <path fill-rule="evenodd" clip-rule="evenodd"
          d="m36.098 20.117.437.239c.73.398 1.953.484 2.953-.016l.43-.214 9.75 5.162-1.621.81c-.118.06-.2.112-.258.154.064.055.157.121.287.192l1.533.837L23.83 40.76l-.426-.214a3.394 3.394 0 0 0-2.983 0l-.43.215-9.75-5.162 1.622-.81c.122-.062.211-.12.275-.167a1.898 1.898 0 0 0-.275-.164l-1.632-.816 25.867-13.526zm.017 2.097L13.896 33.832c.143.257.223.551.201.886a1.635 1.635 0 0 1-.21.701l6.157 3.26a5.284 5.284 0 0 1 3.741 0L46.05 27.036a1.684 1.684 0 0 1-.201-.648c-.034-.345.04-.65.182-.914l-6.166-3.265c-1.254.477-2.653.434-3.75.005z"
          fill="#4C739E"/>
    <path fill-rule="evenodd" clip-rule="evenodd"
          d="M38.154 26.718v-1.817h1.866v1.817h-1.866zM19.98 35.805v-1.817h1.866v1.817H19.98z" fill="#4C739E"/>
    <path d="M34.544 38.077 14.552 26.718l9.087-4.544 20.9 10.905v10.996l-9.995 5.361V38.077z" fill="#A3D4FF"/>
    <path fill-rule="evenodd" clip-rule="evenodd"
          d="m23.648 21.127 21.824 11.387v12.119l-11.861 6.362V38.62L12.57 26.666l11.077-5.54zm-7.115 5.644 18.944 10.763v10.343l8.13-4.36v-9.872L23.63 23.222l-7.097 3.549z"
          fill="#4C739E"/>
    <path d="M33.544 28.626c2.09 1.09 2.272 2.817.273 3.908-2 1.09-5.27.909-7.36-.182-2.091-1.09-2.273-2.817-.274-3.907 2-1.09 5.18-.91 7.361.181z"
          fill="#fff"/>
    <path fill-rule="evenodd" clip-rule="evenodd"
          d="M29.764 28.65c-1.207-.041-2.323.172-3.134.614-.835.456-.929.875-.914 1.06.02.239.252.721 1.172 1.201.9.47 2.099.762 3.314.803 1.222.042 2.36-.172 3.168-.613.836-.456.929-.875.914-1.06-.02-.239-.25-.72-1.164-1.198-.956-.476-2.16-.766-3.356-.807zm.064-1.865c1.435.05 2.91.395 4.133 1.007l.008.003.007.004c1.17.61 2.074 1.537 2.168 2.706.099 1.224-.717 2.213-1.88 2.848-1.191.65-2.689.89-4.125.84-1.443-.049-2.925-.393-4.114-1.014-1.17-.61-2.074-1.537-2.169-2.706-.098-1.223.717-2.213 1.88-2.847 1.19-.649 2.663-.89 4.092-.84z"
          fill="#4C739E"/>
</svg>