<svg width="60" height="60" fill="none" xmlns="http://www.w3.org/2000/svg">
    <g clip-path="url(#clip0)">
        <path fill-rule="evenodd" clip-rule="evenodd"
              d="M13.812 8.51a25.736 25.736 0 00-1.943 2.166L10.406 9.52c.642-.805 1.34-1.579 2.083-2.322l1.323 1.313zM10.781 12.164c-.49.734-.94 1.48-1.333 2.238l-1.659-.853c.43-.83.917-1.634 1.438-2.415l1.554 1.03zM8.728 15.882a25.93 25.93 0 00-.841 2.246l-1.778-.568a27.79 27.79 0 01.901-2.406l1.718.728zM7.465 19.608a23.404 23.404 0 002.638 17.646l-1.602.954a25.255 25.255 0 01-2.849-19.044l1.813.444zM12.082 18.203c-.304.722-.562 1.46-.766 2.203l-1.8-.49c.226-.826.511-1.64.844-2.43l1.722.717z"
              fill="#DFEEFF"/>
        <path fill-rule="evenodd" clip-rule="evenodd"
              d="M10.967 21.89a19.303 19.303 0 001.439 11.822l-1.695.78a21.155 21.155 0 01-1.576-12.956l1.832.354zM52.387 33.363c.362-.91.67-1.829.922-2.747l1.8.492c-.27.984-.6 1.967-.987 2.94l-1.735-.685zM53.713 28.824c.161-.848.27-1.709.333-2.564l1.861.137a24.561 24.561 0 01-.36 2.773l-1.834-.346zM54.109 24.612c0-.803-.036-1.593-.117-2.38l1.857-.189c.088.857.127 1.71.127 2.569h-1.867zM53.785 20.704a23.634 23.634 0 00-9.469-15.199L45.412 4a25.492 25.492 0 0110.213 16.395l-1.84.309zM50.1 23.791c-.01-.78-.071-1.562-.178-2.33l1.849-.255c.117.84.186 1.7.195 2.564l-1.866.021z"
              fill="#DFEEFF"/>
        <path fill-rule="evenodd" clip-rule="evenodd"
              d="M49.655 19.78a19.496 19.496 0 00-6.042-10.31l1.247-1.384a21.353 21.353 0 016.618 11.294l-1.823.4z"
              fill="#DFEEFF"/>
        <path d="M24.143 49.613l7.434 5.327 26.527-11.199-7.613-5.428M37.196 36.9l-8.568-4.856L2.102 43.252l8.698 4.93"
              fill="#F4F8FF"/>
        <path d="M30.099 9.304c-9.195 0-16.658 7.35-16.658 16.425 0 4.2 1.601 8.041 4.242 10.94l10.946-4.625 8.567 4.856 4.626.49c3.052-2.974 4.944-7.11 4.944-11.67-.01-9.067-7.463-16.416-16.667-16.416z"
              fill="#F4F8FF"/>
        <path fill-rule="evenodd" clip-rule="evenodd"
              d="M28.688 31.009l8.8 4.987 13.347 1.418L60 43.95 31.458 56l-7.66-5.49-13.29-1.425L0 43.13l28.688-12.122zM4.203 43.373l6.89 3.905 13.395 1.436 7.209 5.165 24.51-10.348-6.06-4.321-13.244-1.407-8.335-4.725L4.203 43.374z"
              fill="#4C739E"/>
        <path d="M30.605 43.556c.309-8.687 8.754-10.838 8.754-17.947 0-5.43-4.803-9.75-10.45-9.048-4.821.6-8.389 4.92-8.033 9.703.496 6.592 8.427 8.882 8.727 17.302"
              fill="#A3D4FF"/>
        <path fill-rule="evenodd" clip-rule="evenodd"
              d="M28.794 15.639c6.2-.771 11.498 3.98 11.498 9.97 0 3.765-2.161 6.281-4.18 8.63l-.304.354c-2.14 2.502-4.129 4.997-4.27 8.996l-1.304-.045-1.564.055c-.138-3.876-2.008-6.345-4.07-8.769-.158-.187-.32-.375-.482-.563-1.893-2.204-3.92-4.562-4.173-7.933v-.001c-.393-5.281 3.538-10.034 8.849-10.694zm1.308 24.94c.813-3.055 2.617-5.242 4.285-7.191l.185-.216c2.118-2.473 3.854-4.499 3.854-7.563 0-4.867-4.309-8.759-9.4-8.126m1.076 23.095c-.78-2.928-2.47-5.059-4.077-6.95l-.42-.492c-1.965-2.299-3.592-4.202-3.798-6.941-.319-4.284 2.885-8.173 7.218-8.712"
              fill="#4C739E"/>
        <path d="M32.907 25.72c0 1.532-1.255 2.77-2.809 2.77-1.554 0-2.809-1.238-2.809-2.77 0-1.533 1.255-2.77 2.81-2.77 1.553 0 2.808 1.246 2.808 2.77z"
              fill="#fff"/>
        <path fill-rule="evenodd" clip-rule="evenodd"
              d="M30.098 23.88c-1.048 0-1.876.829-1.876 1.84 0 1.01.828 1.84 1.876 1.84 1.047 0 1.876-.83 1.876-1.84 0-1.004-.83-1.84-1.876-1.84zm-3.742 1.84c0-2.055 1.68-3.7 3.742-3.7 2.063 0 3.742 1.656 3.742 3.7 0 2.054-1.681 3.699-3.742 3.699s-3.742-1.645-3.742-3.7zM26.913 42.211l-15.74 6.823-.745-1.704 15.74-6.823.745 1.704zM32.086 45.266l17.79-7.931.763 1.697-17.79 7.93-.763-1.696z"
              fill="#4C739E"/>
    </g>
    <defs>
        <clipPath id="clip0">
            <path fill="#fff" d="M0 0h60v60H0z"/>
        </clipPath>
    </defs>
</svg>