<svg xmlns="http://www.w3.org/2000/svg" width="50" height="50" fill="none"  xmlns:v="https://vecta.io/nano"><path d="M23.8 42.05c9.499 0 17.2-7.701 17.2-17.2s-7.701-17.2-17.2-17.2-17.2 7.701-17.2 17.2 7.701 17.2 17.2 17.2z" fill="#fff"/><path d="M23.8 48.6C12.7 48.6 2.95 40.75.55 29.9l1.6-.35c2.2 10.1 11.3 17.4 21.6 17.4 3.6 0 7.15-.85 10.3-2.5l.75 1.45a24.01 24.01 0 0 1-11 2.7zM45.25 35l-1.5-.7c1.4-2.95 2.15-6.15 2.15-9.5a22.13 22.13 0 0 0-15-20.95l.55-1.55C41.1 5.55 47.6 14.6 47.6 24.8c-.05 3.6-.8 7-2.35 10.2z" fill="#4c739e"/><path d="M29.15 26l19.7 19.7-2.9 2.9-19.7-19.7" fill="#a3d4ff"/><path d="M45.95 49.75l-20.3-20.3 1.15-1.15 19.15 19.15 1.75-1.75-19.15-19.1 1.15-1.2L50 45.7l-4.05 4.05z" fill="#4c739e"/><path d="M32.031 27.745l-4.066 4.066 15.061 15.061 4.066-4.066-15.061-15.061z" fill="#a3d4ff"/><g fill="#4c739e"><path d="M43.05 48L26.8 31.8l5.2-5.2 16.25 16.25-5.2 5.15zm-13.9-16.2l13.9 13.9 2.9-2.9-13.9-13.9-2.9 2.9z"/><path d="M33.768 29.458l-4.066 4.066 1.167 1.167 4.066-4.066-1.167-1.167zm9.848 9.854l-4.066 4.066 1.167 1.167 4.066-4.066-1.167-1.167z"/></g><path d="M16.4 32.2c8.588 0 15.55-6.962 15.55-15.55S24.988 1.1 16.4 1.1.85 8.062.85 16.65 7.812 32.2 16.4 32.2z" fill="#f4f8ff"/><path d="M16.4 33.05c-9.05 0-16.4-7.4-16.4-16.4 0-4.4 1.7-8.5 4.8-11.6S12 .25 16.4.25c9.05 0 16.4 7.35 16.4 16.4 0 9-7.35 16.4-16.4 16.4zm0-31.15c-3.95 0-7.65 1.55-10.45 4.3-2.8 2.8-4.3 6.5-4.3 10.45a14.75 14.75 0 1 0 29.5 0A14.75 14.75 0 0 0 16.4 1.9z" fill="#4c739e"/><path d="M16.4 28.95c6.793 0 12.3-5.507 12.3-12.3s-5.507-12.3-12.3-12.3S4.1 9.857 4.1 16.65s5.507 12.3 12.3 12.3z" fill="#fff"/><path d="M16.4 29.75c-7.25 0-13.1-5.9-13.1-13.1C3.25 9.4 9.15 3.5 16.4 3.5c7.2 0 13.1 5.9 13.1 13.15s-5.9 13.1-13.1 13.1zm0-24.6c-6.35 0-11.5 5.15-11.5 11.5s5.15 11.5 11.5 11.5S27.9 23 27.9 16.65c-.05-6.35-5.2-11.5-11.5-11.5zm-8.1 10l-1.6-.3c.85-4.65 4.95-8.05 9.7-8.05v1.65c-4 0-7.4 2.8-8.1 6.7zm12.55 10.3l-.7-1.45c2.3-1.15 4-3.35 4.45-5.85l1.6.3a9.8 9.8 0 0 1-5.35 7z" fill="#4c739e"/><path d="M7.7 19.1c-.2-.8-.35-1.6-.35-2.45l.35 2.45z" fill="#fff"/><path d="M6.9 19.3c-.25-.85-.35-1.75-.35-2.7H8.2a8.7 8.7 0 0 0 .3 2.25l-1.6.45z" fill="#4c739e"/></svg>