<svg width="60" height="60" fill="none" xmlns="http://www.w3.org/2000/svg">
    <path d="M20.581 45.076c11.367 0 20.582-9.195 20.582-20.538S31.948 4 20.58 4C9.215 4 0 13.195 0 24.538s9.215 20.538 20.581 20.538z"
          fill="#F4F8FF"/>
    <path d="M7.674 48.122v-25.76a4.778 4.778 0 014.796-4.786h37.675a4.778 4.778 0 014.796 4.786v25.76H7.674z"
          fill="#fff"/>
    <path fill-rule="evenodd" clip-rule="evenodd"
          d="M12.471 18.446a3.906 3.906 0 00-3.924 3.916v24.89H54.07v-24.89a3.906 3.906 0 00-3.924-3.916H12.47zm-5.668 3.916c0-3.188 2.58-5.656 5.668-5.656h37.675a5.649 5.649 0 015.668 5.657v26.63H6.803v-26.63z"
          fill="#4C739E"/>
    <path fill-rule="evenodd" clip-rule="evenodd"
          d="M10.379 20.622h41.948v25.237h-1.745V22.362H12.123V45.86H10.38V20.622zM35.93 53.43h-9.157v-1.74h9.157v1.74z"
          fill="#4C739E"/>
    <path fill-rule="evenodd" clip-rule="evenodd"
          d="M2.703 47.252H60v.87a8.865 8.865 0 01-8.896 8.877h-39.41c-5.035.091-8.99-3.97-8.99-8.877v-.87zm1.796 1.74c.427 3.56 3.438 6.338 7.17 6.266h39.435a7.123 7.123 0 007.1-6.266H4.498zM22.967 27.203c-.541.734-.902 1.788-.902 2.992 0 1.203.36 2.258.902 2.991.542.734 1.22 1.099 1.888 1.099.669 0 1.346-.365 1.888-1.099.542-.733.903-1.788.903-2.991 0-1.204-.361-2.258-.903-2.992-.542-.733-1.22-1.098-1.888-1.098-.669 0-1.346.365-1.888 1.098zm-1.404-1.032c.784-1.062 1.938-1.807 3.292-1.807 1.354 0 2.508.745 3.292 1.807.785 1.062 1.243 2.487 1.243 4.024 0 1.536-.459 2.962-1.243 4.023-.784 1.062-1.938 1.807-3.292 1.807-1.354 0-2.508-.745-3.292-1.806-.784-1.063-1.243-2.488-1.243-4.024 0-1.537.459-2.962 1.243-4.024z"
          fill="#4C739E"/>
    <path d="M17.093 45.86v-4.178s-.35-3.916 2.965-3.916H39.68s.087 4.177-3.314 4.177h-6.192v3.916H17.093z"
          fill="#A3D4FF"/>
    <path fill-rule="evenodd" clip-rule="evenodd" d="M21.977 42.465v3.394h-1.745v-3.394h1.745z" fill="#4C739E"/>
    <path fill-rule="evenodd" clip-rule="evenodd"
          d="M16.221 41.714l-.001-.023a6.455 6.455 0 010-.666c.021-.415.09-.988.286-1.576.196-.588.535-1.234 1.127-1.735.606-.513 1.411-.819 2.426-.819h19.62c.001 0 .002 0 .002.87l.872-.017v.023a3.642 3.642 0 01-.004.207 7.1 7.1 0 01-.041.54 6.789 6.789 0 01-.395 1.65c-.236.61-.616 1.275-1.235 1.79-.633.528-1.466.855-2.511.855h-5.32v3.046h-1.744v-4.786h7.064c.655 0 1.087-.196 1.394-.45.321-.269.557-.648.724-1.082.12-.308.196-.624.245-.905H20.06c-.643 0-1.038.184-1.298.405-.275.233-.47.567-.601.958-.13.391-.183.797-.2 1.116a4.674 4.674 0 000 .47l.001.02v.002l.004.036v4.216H16.22v-4.145zm23.46-3.948l.872-.018-.018-.852h-.854v.87z"
          fill="#4C739E"/>
    <path d="M32.616 26.105c-1.395 0-2.616-1.132-2.616-2.611V9.57a2.62 2.62 0 012.616-2.611h22.85c1.395 0 2.615 1.131 2.615 2.61v13.925a2.621 2.621 0 01-2.616 2.61H43.692l-8.198 6.876c-.436.522-1.308.174-1.308-.523v-6.352h-1.57z"
          fill="#fff"/>
    <path fill-rule="evenodd" clip-rule="evenodd"
          d="M32.617 7.83a1.75 1.75 0 00-1.744 1.74v13.924c0 .98.812 1.74 1.744 1.74h2.442v6.974l8.316-6.974h12.091a1.75 1.75 0 001.744-1.74V9.57c0-.98-.811-1.74-1.744-1.74H32.617zM29.13 9.57c0-1.854 1.505-3.481 3.488-3.481h22.85c1.857 0 3.488 1.502 3.488 3.48v13.925c0 1.854-1.506 3.48-3.489 3.48H44.011l-7.906 6.63c-.496.533-1.207.596-1.751.38a1.637 1.637 0 01-1.039-1.527v-5.482h-.698c-1.858 0-3.488-1.503-3.488-3.481V9.57z"
          fill="#4C739E"/>
    <path d="M41.773 15.487h-2.267v2.263h2.267v-2.263zM45.262 15.487h-2.268v2.263h2.268v-2.263zM48.662 15.487h-2.267v2.263h2.267v-2.263z"
          fill="#4C739E"/>
</svg>