<svg width="102" height="120" viewBox="0 0 102 120" fill="none" xmlns="http://www.w3.org/2000/svg">
<path d="M70.1275 22.1655C69.7453 21.4012 68.981 20.4458 68.4077 19.6814L71.465 17.3884C72.0383 18.1528 72.8026 19.2993 73.3759 20.2547L70.1275 22.1655Z" fill="#4C739E"/>
<path d="M66.4969 17.5796C65.9236 17.0064 64.9682 16.242 64.2039 15.6688L66.4969 12.6115C67.2612 13.1847 68.2166 14.1401 68.9809 14.9044L66.4969 17.5796Z" fill="#4C739E"/>
<path d="M61.7199 13.9489C60.7645 13.3756 59.8091 12.9935 58.8536 12.6113L60.1912 8.98071C61.3377 9.36288 62.4842 9.93613 63.6307 10.5094L61.7199 13.9489Z" fill="#4C739E"/>
<path d="M28.6623 38.5987C25.0318 25.7962 32.484 12.2293 45.2865 8.5987C49.1082 7.4522 53.1209 7.4522 56.9426 8.21653L56.1783 12.0382C52.9299 11.2739 49.4904 11.4649 46.242 12.4204C35.3502 15.4777 29.0445 26.9426 32.2929 37.6433L28.6623 38.5987Z" fill="#4C739E"/>
<path d="M29.4269 41.0828L21.5925 33.2484L24.2677 30.5733L29.4269 35.5414L34.5862 30.3822L37.2613 33.0574L29.4269 41.0828Z" fill="#4C739E"/>
<path d="M36.3058 4.77707L35.1593 1.1465C36.4969 0.764331 38.2166 0.191083 39.7453 0L40.5096 3.82166C39.172 4.01274 37.6434 4.3949 36.3058 4.77707Z" fill="#4C739E"/>
<path d="M29.4269 8.40761L27.325 5.1592C28.4714 4.39487 30.1912 3.43946 31.3377 2.86621L33.0574 6.3057C31.9109 6.68787 30.3823 7.64328 29.4269 8.40761Z" fill="#4C739E"/>
<path d="M22.93 14.3313L19.8727 11.8472C21.0192 10.5097 22.1657 9.36317 23.3122 8.21667L25.7962 11.0829C24.8408 12.0383 23.8854 13.1848 22.93 14.3313Z" fill="#4C739E"/>
<path d="M21.7835 56.1783C15.2867 49.4904 11.8472 40.3184 12.4204 30.9554C12.8026 25.414 14.3312 20.0636 17.1975 15.4777L20.4459 17.3885C17.9618 21.5923 16.4332 26.1783 16.2421 31.1464C15.8599 39.363 18.7261 47.5796 24.4586 53.5031L21.7835 56.1783Z" fill="#4C739E"/>
<path d="M35.7324 110.064C35.1591 109.299 34.2037 108.153 33.8215 107.197L37.0699 105.287C37.4521 106.051 38.2164 107.006 38.7897 107.771L35.7324 110.064Z" fill="#4C739E"/>
<path d="M40.7007 115.032C39.9363 114.459 38.5988 113.312 38.0255 112.739L40.7007 110.064C41.2739 110.637 42.4204 111.592 43.1848 112.166L40.7007 115.032Z" fill="#4C739E"/>
<path d="M47.1975 118.471C46.0511 118.089 44.9046 117.516 43.7581 116.943L45.6689 113.503C46.6243 114.076 47.5797 114.459 48.5351 114.841L47.1975 118.471Z" fill="#4C739E"/>
<path d="M55.4141 120C53.6943 120 51.9746 119.809 50.4459 119.427L51.2103 115.605C54.4587 116.369 57.8982 116.178 61.1466 115.223C66.3058 113.694 70.7007 110.255 73.3759 105.478C76.051 100.701 76.6243 95.1592 75.0956 90L78.7262 89.0446C80.4459 95.3503 79.6816 101.847 76.6243 107.58C73.5669 113.312 68.4077 117.325 62.102 119.045C59.809 119.618 57.516 120 55.4141 120Z" fill="#4C739E"/>
<path d="M72.6114 97.0702L69.9363 94.3951L77.7707 86.5607L85.6051 94.3951L82.9299 97.0702L77.7707 91.911L72.6114 97.0702Z" fill="#4C739E"/>
<path d="M37.2611 100.701C51.508 100.701 63.0573 89.1512 63.0573 74.9043C63.0573 60.6575 51.508 49.1082 37.2611 49.1082C23.0143 49.1082 11.465 60.6575 11.465 74.9043C11.465 89.1512 23.0143 100.701 37.2611 100.701Z" fill="#A3D4FF"/>
<path d="M37.2611 102.611C21.9745 102.611 9.55408 90.191 9.55408 74.9044C9.55408 59.6178 21.9745 47.1974 37.2611 47.1974C52.5477 47.1974 64.9681 59.6178 64.9681 74.9044C64.9681 90.191 52.5477 102.611 37.2611 102.611ZM37.2611 51.019C24.0764 51.019 13.3757 61.7197 13.3757 74.9044C13.3757 88.0891 24.0764 98.7897 37.2611 98.7897C50.4458 98.7897 61.1464 88.0891 61.1464 74.9044C61.1464 61.7197 50.4458 51.019 37.2611 51.019Z" fill="#4C739E"/>
<path d="M72.6115 77.7706C86.3307 77.7706 97.4523 66.6491 97.4523 52.9299C97.4523 39.2107 86.3307 28.0891 72.6115 28.0891C58.8923 28.0891 47.7708 39.2107 47.7708 52.9299C47.7708 66.6491 58.8923 77.7706 72.6115 77.7706Z" fill="#F4F8FF"/>
<path d="M72.6115 79.6814C57.8981 79.6814 45.8599 67.6432 45.8599 52.9298C45.8599 38.2164 57.8981 26.1782 72.6115 26.1782C87.3248 26.1782 99.363 38.2164 99.363 52.9298C99.363 67.6432 87.3248 79.6814 72.6115 79.6814ZM72.6115 29.9999C60 29.9999 49.6815 40.3184 49.6815 52.9298C49.6815 65.5413 60 75.8597 72.6115 75.8597C85.2229 75.8597 95.5414 65.5413 95.5414 52.9298C95.5414 40.3184 85.2229 29.9999 72.6115 29.9999Z" fill="#4C739E"/>
<path d="M7.64331 100.701H3.82166V112.166H7.64331V100.701Z" fill="#DFEEFF"/>
<path d="M11.465 104.522H0V108.344H11.465V104.522Z" fill="#DFEEFF"/>
<path d="M97.4523 8.98071H93.6306V20.4457H97.4523V8.98071Z" fill="#DFEEFF"/>
<path d="M101.274 12.8025H89.8088V16.6241H101.274V12.8025Z" fill="#DFEEFF"/>
<path d="M74.5223 64.3948H70.7007C67.4523 64.3948 64.9682 61.9107 64.9682 58.6623H68.7898C68.7898 59.8088 69.5542 60.5731 70.7007 60.5731H74.5223C75.6688 60.5731 76.4331 59.8088 76.4331 58.6623V57.5158C76.4331 56.7515 75.8599 55.9871 75.0956 55.7961L68.7898 53.6941C66.4968 52.9298 64.7771 50.6368 64.7771 48.3438V47.1973C64.7771 43.9489 67.2612 41.4648 70.5096 41.4648H74.3312C77.5796 41.4648 80.0637 43.9489 80.0637 47.1973H76.2421C76.2421 46.0508 75.4777 45.2865 74.3312 45.2865H70.5096C69.3631 45.2865 68.5988 46.0508 68.5988 47.1973V48.3438C68.5988 49.1082 69.172 49.8725 69.9363 50.0636L76.2421 52.1655C78.5351 52.9298 80.2548 55.2228 80.2548 57.5158V58.6623C80.2548 61.9107 77.7707 64.3948 74.5223 64.3948Z" fill="#4C739E"/>
<path d="M74.5222 37.6433H70.7006V43.3758H74.5222V37.6433Z" fill="#4C739E"/>
<path d="M74.5222 62.484H70.7006V68.2165H74.5222V62.484Z" fill="#4C739E"/>
<path d="M43.949 87.3248H38.2165C32.8662 87.3248 28.6624 83.121 28.6624 77.7706V72.0381C28.6624 66.6878 32.8662 62.484 38.2165 62.484H43.949V66.3057H38.2165C34.9681 66.3057 32.484 68.7897 32.484 72.0381V77.7706C32.484 81.019 34.9681 83.5031 38.2165 83.5031H43.949V87.3248Z" fill="#4C739E"/>
<path d="M38.2165 70.1273H24.8407V73.949H38.2165V70.1273Z" fill="#4C739E"/>
<path d="M38.2165 75.8597H24.8407V79.6814H38.2165V75.8597Z" fill="#4C739E"/>
</svg>
