<svg width="60" height="60" fill="none" xmlns="http://www.w3.org/2000/svg">
    <path fill-rule="evenodd" clip-rule="evenodd"
          d="M10.156 18.889H2v-2.222h9.622l12.615 29.436c.497 1.065 1.447 1.675 2.54 1.675h21.89V50h-21.89c-2.012 0-3.725-1.163-4.564-2.979l-.006-.014-12.05-28.118z"
          fill="#4C739E"/>
    <path fill-rule="evenodd" clip-rule="evenodd"
          d="M55.667 23.333H17.556v-2.222h38.11c1.631 0 2.867 1.624 2.271 3.257l-4.772 14.317c-.933 2.799-3.588 4.648-6.498 4.648h-24.89v-2.222h24.89c1.979 0 3.767-1.261 4.39-3.129l4.784-14.353.008-.02a.211.211 0 0 0 .014-.106.19.19 0 0 0-.034-.083.198.198 0 0 0-.162-.087z"
          fill="#4C739E"/>
    <path d="M47.556 58.889a3.333 3.333 0 1 0 0-6.667 3.333 3.333 0 0 0 0 6.667z" fill="#A3D4FF"/>
    <path fill-rule="evenodd" clip-rule="evenodd"
          d="M47.556 53.333a2.222 2.222 0 1 0 0 4.445 2.222 2.222 0 0 0 0-4.445zm-4.445 2.223a4.444 4.444 0 1 1 8.889 0 4.444 4.444 0 0 1-8.889 0z"
          fill="#4C739E"/>
    <path d="M25.333 58.889a3.333 3.333 0 1 0 0-6.667 3.333 3.333 0 0 0 0 6.667z" fill="#A3D4FF"/>
    <path fill-rule="evenodd" clip-rule="evenodd"
          d="M25.333 53.333a2.222 2.222 0 1 0 0 4.445 2.222 2.222 0 0 0 0-4.445zm-4.444 2.223a4.445 4.445 0 1 1 8.889 0 4.445 4.445 0 0 1-8.89 0zM20.889 36.667H6.444v-2.223H20.89v2.223zM4.222 30H2v-2.222h2.222V30zM13.111 30H6.444v-2.222h6.667V30z"
          fill="#4C739E"/>
    <path d="M52 18.889V6.667H32v12.222" fill="#A3D4FF"/>
    <path fill-rule="evenodd" clip-rule="evenodd" d="M30.889 5.556H53.11v13.333H50.89V7.778H33.11v11.11H30.89V5.557z"
          fill="#4C739E"/>
    <path d="M22 18.889v-6.667h18.889v6.667" fill="#DFEEFF"/>
    <path fill-rule="evenodd" clip-rule="evenodd"
          d="M20.889 11.111H42v7.778h-2.222v-5.556H23.11v5.556H20.89V11.11zM24.222 0h23.334v3.333h-2.223v-1.11H26.445v6.666h-2.223V0z"
          fill="#4C739E"/>
    <path fill-rule="evenodd" clip-rule="evenodd"
          d="M13.111 42.222H4.222V40h8.89v2.222zM26.445 38.889V25.556h2.222v13.333h-2.223zM34.222 38.889V25.556h2.222v13.333h-2.222zM42 38.889V25.556h2.222v13.333H42z"
          fill="#DFEEFF"/>
    <path fill-rule="evenodd" clip-rule="evenodd"
          d="M49.778 30H22v-2.222h27.778V30zM47.556 35.556H24.222v-2.223h23.334v2.223z" fill="#DFEEFF"/>
</svg>