<svg width="60" height="60" fill="none" xmlns="http://www.w3.org/2000/svg">
    <path d="M29.319 57.038c13.982 0 25.318-11.335 25.318-25.318S43.3 6.4 29.318 6.4C15.335 6.401 4 17.737 4 31.72c0 13.983 11.335 25.318 25.319 25.318z"
          fill="#F4F8FF"/>
    <path d="M40.02 11.083c-.192-.382-.574-.86-.86-1.242l1.528-1.147c.287.382.669.956.955 1.433l-1.624.956zM38.204 8.79c-.287-.287-.764-.669-1.147-.956l1.147-1.528c.382.286.86.764 1.242 1.146L38.204 8.79zM35.815 6.975c-.477-.287-.955-.478-1.433-.67l.669-1.815c.573.192 1.146.478 1.72.765l-.956 1.72zM19.287 19.3c-1.816-6.402 1.91-13.185 8.312-15 1.91-.574 3.917-.574 5.828-.192l-.383 1.911c-1.624-.382-3.343-.287-4.968.191-5.445 1.529-8.598 7.261-6.974 12.612l-1.815.477z"
          fill="#4C739E"/>
    <path d="m19.669 20.541-3.917-3.917 1.337-1.337 2.58 2.484 2.58-2.58 1.337 1.338-3.917 4.012zM23.108 2.389 22.535.573c.669-.19 1.529-.477 2.293-.573l.382 1.91c-.669.096-1.433.287-2.102.479zM19.669 4.204 18.618 2.58c.573-.383 1.433-.86 2.006-1.147l.86 1.72c-.573.19-1.338.669-1.815 1.05zM16.42 7.166l-1.528-1.242c.573-.67 1.146-1.242 1.72-1.816l1.242 1.433c-.478.478-.956 1.051-1.434 1.625z"
          fill="#4C739E"/>
    <path d="M15.847 28.09a16.669 16.669 0 0 1-4.681-12.612c.19-2.771.955-5.446 2.388-7.74l1.624.956c-1.242 2.102-2.006 4.395-2.102 6.88-.19 4.107 1.242 8.216 4.109 11.178l-1.338 1.337zM22.822 55.032c-.287-.382-.765-.956-.956-1.433l1.624-.956c.192.383.574.86.86 1.242l-1.528 1.147zM25.306 57.516a16.62 16.62 0 0 1-1.338-1.147l1.338-1.337c.286.287.86.764 1.242 1.05l-1.242 1.434zM28.554 59.236c-.573-.191-1.146-.478-1.72-.765l.956-1.72c.477.287.955.478 1.433.67l-.669 1.815zM32.662 60c-.86 0-1.72-.096-2.484-.287l.383-1.91c1.624.382 3.343.286 4.968-.191a10.351 10.351 0 0 0 6.114-4.873 9.973 9.973 0 0 0 .86-7.739l1.816-.478c.86 3.153.477 6.402-1.052 9.268-1.528 2.866-4.108 4.872-7.26 5.732-1.147.287-2.294.478-3.345.478z"
          fill="#4C739E"/>
    <path d="m41.261 48.535-1.338-1.337 3.918-3.918 3.917 3.917-1.338 1.338-2.58-2.58-2.579 2.58z" fill="#4C739E"/>
    <path d="M23.586 50.35c7.123 0 12.898-5.774 12.898-12.898 0-7.123-5.775-12.898-12.898-12.898-7.123 0-12.898 5.775-12.898 12.898 0 7.124 5.774 12.898 12.898 12.898z"
          fill="#A3D4FF"/>
    <path d="M23.586 51.306c-7.643 0-13.854-6.21-13.854-13.854 0-7.643 6.21-13.853 13.854-13.853 7.643 0 13.854 6.21 13.854 13.853 0 7.644-6.21 13.854-13.854 13.854zm0-25.796c-6.592 0-11.943 5.35-11.943 11.942 0 6.593 5.35 11.943 11.943 11.943 6.592 0 11.943-5.35 11.943-11.943 0-6.592-5.35-11.942-11.943-11.942z"
          fill="#4C739E"/>
    <path d="M41.261 38.885c6.86 0 12.42-5.56 12.42-12.42s-5.56-12.42-12.42-12.42-12.42 5.56-12.42 12.42 5.56 12.42 12.42 12.42z"
          fill="#fff"/>
    <path d="M41.261 39.84c-7.357 0-13.376-6.018-13.376-13.375s6.02-13.376 13.376-13.376c7.357 0 13.376 6.02 13.376 13.376 0 7.357-6.02 13.376-13.376 13.376zm0-24.84c-6.306 0-11.465 5.16-11.465 11.465 0 6.306 5.16 11.465 11.465 11.465 6.306 0 11.465-5.16 11.465-11.465 0-6.306-5.16-11.465-11.465-11.465z"
          fill="#4C739E"/>
    <path d="M8.777 50.35h-1.91v5.733h1.91V50.35z" fill="#DFEEFF"/>
    <path d="M10.688 52.261H4.955v1.911h5.733v-1.91zM53.681 4.49h-1.91v5.733h1.91V4.49z" fill="#DFEEFF"/>
    <path d="M55.592 6.401H49.86v1.911h5.732v-1.91z" fill="#DFEEFF"/>
    <path d="M42.217 32.197h-1.911c-1.624 0-2.866-1.242-2.866-2.866h1.91c0 .573.383.956.956.956h1.91c.574 0 .956-.383.956-.956v-.573a.918.918 0 0 0-.669-.86l-3.153-1.05c-1.146-.383-2.006-1.53-2.006-2.676v-.573c0-1.625 1.242-2.866 2.866-2.866h1.911c1.624 0 2.866 1.241 2.866 2.866h-1.91c0-.573-.383-.956-.956-.956h-1.91c-.574 0-.956.383-.956.956v.573c0 .382.286.764.669.86l3.152 1.05c1.147.383 2.007 1.53 2.007 2.676v.573c0 1.624-1.242 2.866-2.866 2.866z"
          fill="#4C739E"/>
    <path d="M42.217 18.822h-1.911v2.866h1.91v-2.866zM42.217 31.242h-1.911v2.866h1.91v-2.866zM26.93 43.662h-2.866c-2.675 0-4.777-2.102-4.777-4.777V36.02c0-2.675 2.102-4.777 4.777-4.777h2.866v1.91h-2.866c-1.625 0-2.867 1.243-2.867 2.867v2.866c0 1.625 1.242 2.867 2.867 2.867h2.866v1.91z"
          fill="#4C739E"/>
    <path d="M24.064 35.064h-6.688v1.91h6.688v-1.91zM24.064 37.93h-6.688v1.91h6.688v-1.91z" fill="#4C739E"/>
</svg>