<svg width="61" height="61" fill="none" xmlns="http://www.w3.org/2000/svg">
    <path d="M29.89 60c15.965 0 28.907-12.918 28.907-28.852 0-15.935-12.942-28.853-28.906-28.853C13.925 2.295.983 15.213.983 31.147.984 47.083 13.926 60 29.89 60z"
          fill="#F4F8FF"/>
    <path d="M59.016 17.377H.984v30.601h58.032V17.377z" fill="#fff"/>
    <path fill-rule="evenodd" clip-rule="evenodd"
          d="M0 16.393h60v32.569H0V16.393zm1.967 1.968v28.634h56.066V18.36H1.967z" fill="#4C739E"/>
    <path fill-rule="evenodd" clip-rule="evenodd"
          d="M51.352 23.825H23.978v-1.967h27.374v1.967zM51.352 28.197H23.978V26.23h27.374v1.967zM51.352 32.568H23.978v-1.967h27.374v1.967zM39.307 36.94h-15.33v-1.967h15.33v1.967zM55.731 12.896H4.268V10.93h51.463v1.967zM51.352 7.432H8.648V5.464h42.704v1.968zM46.972 1.967H13.028V0h33.944v1.967z"
          fill="#4C739E"/>
    <path d="M14.452 32.678H8.429a1.96 1.96 0 0 1-1.97-1.968V24.7a1.96 1.96 0 0 1 1.97-1.968h6.023a1.96 1.96 0 0 1 1.97 1.968v6.01c-.109 1.093-.985 1.968-1.97 1.968z"
          fill="#A3D4FF"/>
    <path fill-rule="evenodd" clip-rule="evenodd"
          d="M8.43 23.716a.977.977 0 0 0-.988.983v6.011c0 .548.434.984.987.984h6.023c.387 0 .902-.386.987-1.04V24.7a.977.977 0 0 0-.987-.983H8.429zm-2.955.983a2.945 2.945 0 0 1 2.954-2.95h6.023a2.944 2.944 0 0 1 2.954 2.95v6.06l-.005.05c-.15 1.507-1.374 2.852-2.95 2.852H8.43a2.944 2.944 0 0 1-2.954-2.95v-6.012z"
          fill="#4C739E"/>
</svg>