<svg width="60" height="60" fill="none" xmlns="http://www.w3.org/2000/svg">
    <path d="M22.5 49C34.926 49 45 38.926 45 26.5S34.926 4 22.5 4 0 14.074 0 26.5 10.074 49 22.5 49z" fill="#F4F8FF"/>
    <path d="M39.23 16.346c-3.46 0-6.576 1.385-8.884 3.692-2.307-2.307-5.423-3.692-8.884-3.692A12.656 12.656 0 0 0 8.769 29.038v.808c.577 10.73 12.808 19.27 21.577 25.27 8.654-6 21-14.54 21.577-25.27v-.808c0-7.038-5.769-12.692-12.692-12.692z"
          fill="#A3D4FF"/>
    <path fill-rule="evenodd" clip-rule="evenodd"
          d="M7.615 29.038a13.81 13.81 0 0 1 13.847-13.846c3.385 0 6.47 1.216 8.884 3.276a13.593 13.593 0 0 1 8.885-3.276c7.553 0 13.846 6.164 13.846 13.846v.84l-.002.03c-.311 5.792-3.785 10.866-8.097 15.164-4.296 4.281-9.59 7.951-13.885 10.93l-.742.514-.656-.448c-4.375-2.993-9.712-6.684-14.025-10.997-4.3-4.3-7.742-9.374-8.053-15.163l-.002-.03v-.84zM21.462 17.5A11.502 11.502 0 0 0 9.923 29.038v.776c.276 4.93 3.235 9.482 7.379 13.625 3.934 3.935 8.794 7.363 13.04 10.275 4.2-2.915 9.058-6.341 13.007-10.276 4.16-4.146 7.144-8.696 7.42-13.624v-.776c0-6.394-5.245-11.538-11.538-11.538-3.143 0-5.969 1.254-8.069 3.354l-.816.816-.816-.816c-2.1-2.1-4.925-3.354-8.068-3.354zM51.845 11.678l-2.308 3.462-1.92-1.28 2.308-3.462 1.92 1.28zM57.178 17.652l-3.461 2.308-1.28-1.92 3.461-2.308 1.28 1.92zM60 25.923h-4.615v-2.308H60v2.308z"
          fill="#4C739E"/>
</svg>