<svg width="60" height="60" fill="none" xmlns="http://www.w3.org/2000/svg">
    <path d="M29 55c13.807 0 25-11.193 25-25S42.807 5 29 5 4 16.193 4 30s11.193 25 25 25z" fill="#F4F8FF"/>
    <path d="M56.679 54.107H12.036V18.393h44.643v35.714zM13.82 52.321h41.072V20.18H13.82V52.32z" fill="#DFEEFF"/>
    <path d="M53.107 21.964h-37.5v1.786h37.5v-1.786z" fill="#4C739E"/>
    <path d="M48.643 28.214h-4.464V48.75h4.464V28.214z" fill="#A3D4FF"/>
    <path d="M49.536 49.643h-6.25V27.32h6.25v22.322zm-4.465-1.786h2.679v-18.75h-2.679v18.75z" fill="#4C739E"/>
    <path d="M40.607 32.679h-4.464V48.75h4.464V32.679z" fill="#A3D4FF"/>
    <path d="M41.5 49.643h-6.25V31.786h6.25v17.857zm-4.464-1.786h2.678V33.571h-2.678v14.286z" fill="#4C739E"/>
    <path d="M32.571 38.036h-4.464V48.75h4.464V38.036z" fill="#A3D4FF"/>
    <path d="M33.464 49.643h-6.25v-12.5h6.25v12.5zM29 47.857h2.679V38.93H29v8.928z" fill="#4C739E"/>
    <path d="M24.536 41.607H20.07v7.143h4.465v-7.143z" fill="#A3D4FF"/>
    <path d="M25.429 49.643h-6.25v-8.929h6.25v8.929zm-4.465-1.786h2.679V42.5h-2.679v5.357z" fill="#4C739E"/>
    <path d="M53.107 47.857h-37.5v1.786h37.5v-1.786z" fill="#4C739E"/>
</svg>