<svg width="60" height="60" fill="none" xmlns="http://www.w3.org/2000/svg">
    <path d="M22.25 55.112C12.957 50.371 3 41.836 3 34.345V11.586h1.897v22.759c0 5.69 7.68 13.655 18.206 19.06l-.853 1.707zM38.75 55.112l-.853-1.707C48.422 48 56.103 40.035 56.103 34.345V11.586H58v22.759c0 7.491-9.957 16.026-19.25 20.767z"
          fill="#DFEEFF"/>
    <path d="M30.5 51.414c-3.224 0-21.81-9.293-21.81-19.914V13.293c0-.853.569-1.707 1.422-1.896 2.94-.664 5.31-2.94 5.974-5.975.19-.853.949-1.422 1.897-1.422h25.13c.852 0 1.706.569 1.896 1.422.663 2.94 2.94 5.31 5.974 5.975.853.19 1.422.948 1.422 1.896V31.5C52.31 42.12 33.725 51.414 30.5 51.414zM17.983 5.897c-.854 3.603-3.793 6.543-7.397 7.301V31.5c0 9.483 17.828 18.017 19.914 18.017 2.086 0 19.914-8.534 19.914-18.017V13.293c-3.604-.853-6.543-3.698-7.302-7.396h-25.13z"
          fill="#4C739E"/>
    <path d="M30.5 26.759V12.534h8.535c.474 1.897 2.465 4.268 4.74 4.742v9.483H30.5z" fill="#A3D4FF"/>
    <path d="M44.724 27.707H29.552v-16.12h10.241l.19.758c.38 1.612 2.18 3.698 3.983 3.983l.758.19v11.189zM31.448 25.81h11.38v-7.775c-2.087-.76-3.794-2.656-4.457-4.552h-6.923V25.81z"
          fill="#4C739E"/>
    <path d="M17.224 26.759v3.793c0 5.595 11.474 12.327 13.276 12.327V26.76H17.224z" fill="#A3D4FF"/>
    <path d="M31.448 43.828H30.5c-2.086 0-14.224-7.018-14.224-13.276V25.81h15.172v18.018zM18.172 27.707v2.845c0 4.172 8.25 9.767 11.38 11.095v-13.94h-11.38zM25.759 7.793h-1.897V9.69h1.897V7.793zM14.38 16.328h-1.897v1.896h1.896v-1.896zM14.38 25.81h-1.897v1.897h1.896V25.81zM18.172 37.19h-1.896v1.896h1.896V37.19zM26.707 43.828H24.81v1.896h1.897v-1.896zM37.138 7.793H35.24V9.69h1.897V7.793zM48.517 16.328h-1.896v1.896h1.896v-1.896zM48.517 25.81h-1.896v1.897h1.896V25.81zM44.724 37.19h-1.896v1.896h1.896V37.19zM36.19 43.828h-1.897v1.896h1.897v-1.896z"
          fill="#4C739E"/>
    <path d="M30.5 43.828c-2.086 0-14.224-7.018-14.224-13.276V18.035c0-.76.474-1.518 1.233-1.802 1.612-.57 2.844-2.181 3.319-3.414.284-.759.948-1.233 1.801-1.233h15.647c.758 0 1.517.474 1.802 1.233.474 1.328 1.801 2.845 3.413 3.414.759.284 1.233.948 1.233 1.802v12.517c0 6.258-12.138 13.276-14.224 13.276zm-7.87-30.345c-.57 1.612-2.277 3.793-4.552 4.552l.094 12.517c0 4.741 10.621 11.284 12.328 11.379 1.707-.095 12.328-6.638 12.328-11.38V18.036c-2.181-.76-3.888-2.845-4.457-4.552H22.629z"
          fill="#4C739E"/>
    <path d="M43.776 25.81H17.224v1.897h26.552V25.81z" fill="#4C739E"/>
    <path d="M31.448 12.534h-1.896V42.88h1.896V12.535z" fill="#4C739E"/>
</svg>