<svg width="120" height="120" fill="none" xmlns="http://www.w3.org/2000/svg">
    <path d="M60 113.273c30.727 0 55.636-24.91 55.636-55.637S90.726 2 60 2C29.273 2 4.363 26.91 4.363 57.636c0 30.727 24.91 55.637 55.637 55.637z"
          fill="#F4F8FF"/>
    <path d="M34.91 67.454v34.909h41.455V91.454s8.727-3.054 8.727-13.09v-10.91H34.91z" fill="#fff"/>
    <path fill-rule="evenodd" clip-rule="evenodd"
          d="M32.727 65.272H85.09v.98h2.182v12.111c0 5.739-2.525 9.563-5.064 11.911a17.103 17.103 0 01-3.663 2.582v9.507H74.18V89.906l1.45-.507.004-.002.036-.013c.04-.016.108-.043.201-.083.187-.08.469-.212.815-.4a12.74 12.74 0 002.558-1.83c1.825-1.688 3.663-4.41 3.663-8.708v-8.727H37.09v32.727h-4.363v-37.09z"
          fill="#4C739E"/>
    <path d="M80.729 102.363H30.547v15.273h50.182v-15.273z" fill="#E9EAEB"/>
    <path fill-rule="evenodd" clip-rule="evenodd"
          d="M28.363 100.182H82.91v17.454h-4.364v-13.091H32.727v13.091h-4.364v-17.454z" fill="#4C739E"/>
    <path d="M117.82 15.09H2.184v56.728H117.82V15.091z" fill="#fff"/>
    <path fill-rule="evenodd" clip-rule="evenodd" d="M0 12.91h120V74H0V12.91zm4.364 4.363v52.363h111.272V17.273H4.364z"
          fill="#4C739E"/>
    <path d="M100.363 60.91H19.635c0-3.71-2.836-6.546-6.545-6.546V32.545c3.709 0 6.545-2.836 6.545-6.545h80.728c0 3.71 2.836 6.545 6.545 6.545v21.819c-3.709 0-6.545 3.054-6.545 6.545z"
          fill="#A3D4FF"/>
    <path fill-rule="evenodd" clip-rule="evenodd"
          d="M17.456 23.818h85.091V26c0 2.504 1.859 4.364 4.363 4.364h2.182v26.182h-2.182c-2.457 0-4.363 2.03-4.363 4.363v2.182H17.456V60.91c0-2.504-1.86-4.363-4.364-4.363H10.91V30.364h2.182c2.504 0 4.364-1.86 4.364-4.364v-2.182zm4.102 4.364a8.534 8.534 0 01-6.284 6.284v17.977a8.534 8.534 0 016.284 6.285h76.906c.785-3.004 3.151-5.473 6.264-6.273V34.466a8.535 8.535 0 01-6.284-6.284H21.558z"
          fill="#4C739E"/>
    <path fill-rule="evenodd" clip-rule="evenodd" d="M37.09 45.636h-4.363v-4.364h4.363v4.364z" fill="#2A5082"/>
    <path fill-rule="evenodd" clip-rule="evenodd" d="M89.456 45.636H82.91v-4.364h6.546v4.364z" fill="#4C739E"/>
    <path d="M60.002 54.364c5.422 0 9.818-4.884 9.818-10.909s-4.396-10.91-9.818-10.91c-5.423 0-9.818 4.885-9.818 10.91s4.395 10.91 9.818 10.91z"
          fill="#fff"/>
    <path fill-rule="evenodd" clip-rule="evenodd"
          d="M60 34.727c-4.007 0-7.636 3.685-7.636 8.727s3.63 8.727 7.636 8.727c4.007 0 7.636-3.685 7.636-8.727s-3.63-8.727-7.636-8.727zm-12 8.727c0-7.008 5.162-13.09 12-13.09s12 6.082 12 13.09-5.162 13.091-12 13.091-12-6.083-12-13.09z"
          fill="#4C739E"/>
    <path d="M58.91 84.909s-.654-17.455-17.454-17.455V52.182c0-10.037-15.272-14.182-15.272-6.546v31.637c0 8.29 8.727 14.181 8.727 14.181v8.728l24-15.273z"
          fill="#fff"/>
    <path fill-rule="evenodd" clip-rule="evenodd"
          d="M34.539 40.223c4.377 1.532 9.097 5.718 9.097 11.96v13.184c3.583.318 6.502 1.419 8.854 3.007 2.795 1.886 4.672 4.38 5.929 6.803 1.253 2.417 1.915 4.81 2.266 6.581.176.891.276 1.638.333 2.17a17.632 17.632 0 01.068.816l.002.054v.018l.001.007v.002c0 .001 0 .003-2.18.084-2.18.082-2.18.083-2.18.084l-.001-.018a13.46 13.46 0 00-.05-.585 20.384 20.384 0 00-.274-1.784c-.297-1.501-.85-3.473-1.859-5.42-1.007-1.94-2.443-3.81-4.497-5.196-2.035-1.374-4.793-2.353-8.593-2.353h-2.182V52.182c0-3.795-2.916-6.7-6.176-7.84-1.62-.568-2.977-.563-3.773-.269-.366.135-.573.312-.697.49-.123.176-.263.492-.263 1.074v31.636c0 3.382 1.795 6.43 3.828 8.768a24.336 24.336 0 002.75 2.688 20.578 20.578 0 001.128.876l.054.037.006.004.002.002.959.647v9.887h-4.364V92.55a28.708 28.708 0 01-3.828-3.645C26.569 86.225 24 82.182 24 77.273V45.637c0-1.328.337-2.552 1.05-3.573.71-1.017 1.697-1.691 2.763-2.084 2.067-.763 4.529-.526 6.726.243zM43.635 113.273H37.09v-4.364h6.545v4.364z"
          fill="#4C739E"/>
</svg>