<svg width="60" height="60" fill="none" xmlns="http://www.w3.org/2000/svg">
    <path d="M30 53c12.703 0 23-10.298 23-23C53 17.297 42.703 7 30 7S7 17.296 7 30c0 12.702 10.297 23 23 23z"
          fill="#F4F8FF"/>
    <path fill-rule="evenodd" clip-rule="evenodd"
          d="M18.893 4.32C8.952 8.565 2 18.51 2 30c0 4.246.965 8.3 2.704 11.971l-1.808.857A29.882 29.882 0 0 1 0 29.999C0 17.69 7.448 7.034 18.107 2.48l.786 1.84zM30 58c10.236 0 19.116-5.405 24.042-13.615l1.715 1.029C50.484 54.204 40.964 59.999 30 59.999c-7.039 0-13.552-2.484-18.715-6.511l1.23-1.577c4.837 3.773 10.923 6.088 17.485 6.088zM58 30C58 14.842 45.93 2.482 30.868 1.998L30.932 0C47.069.517 60 13.757 60 30v.024c0 .685 0 1.346-.11 2.117l-1.98-.283c.089-.62.09-1.152.09-1.858z"
          fill="#DFEEFF"/>
    <path d="M28.5 7C22.1 7 17 12.1 17 18.5v17c0 4.4 2.4 8.2 6 10.1V18.5c0-3 2.5-5.5 5.5-5.5s5.5 2.5 5.5 5.5v27.1c3.6-2 6-5.7 6-10.1v-17C40 12.2 34.9 7 28.5 7z"
          fill="#fff"/>
    <path fill-rule="evenodd" clip-rule="evenodd"
          d="M16 18.5C16 11.547 21.548 6 28.5 6 35.458 6 41 11.652 41 18.5v17c0 4.785-2.617 8.809-6.514 10.974L33 47.299v-28.8c0-2.447-2.052-4.5-4.5-4.5S24 16.052 24 18.5v28.759l-1.467-.774C18.607 44.41 16 40.272 16 35.499v-17zM28.5 8C22.652 8 18 12.651 18 18.5v17c0 3.39 1.555 6.38 4 8.27V18.5c0-3.553 2.948-6.5 6.5-6.5s6.5 2.947 6.5 6.5v25.237c2.456-1.936 4-4.861 4-8.238v-17C39 12.747 34.342 8 28.5 8z"
          fill="#4C739E"/>
    <path d="M40.6 48H16.5c-1.9 0-3.4-1.5-3.4-3.4V29.5c0-1.9 1.5-3.4 3.4-3.4h24.1c1.9 0 3.4 1.5 3.4 3.4v15.1c0 1.9-1.5 3.4-3.4 3.4z"
          fill="#A3D4FF"/>
    <path fill-rule="evenodd" clip-rule="evenodd"
          d="M16.5 27.1a2.372 2.372 0 0 0-2.4 2.4v15.1c0 1.347 1.052 2.4 2.4 2.4h24.1c1.348 0 2.4-1.053 2.4-2.4V29.5c0-1.348-1.052-2.4-2.4-2.4H16.5zm-4.4 2.4c0-2.453 1.948-4.4 4.4-4.4h24.1c2.452 0 4.4 1.947 4.4 4.4v15.1c0 2.452-1.948 4.4-4.4 4.4H16.5a4.372 4.372 0 0 1-4.4-4.4V29.5z"
          fill="#4C739E"/>
    <path fill-rule="evenodd" clip-rule="evenodd" d="M17 40V30h2v10h-2zM17 45v-2h2v2h-2z" fill="#4C739E"/>
    <path d="M33 34c0-2.2-1.8-4-4-4s-4 1.8-4 4c0 1.5.8 2.8 2 3.4V42c0 1.1.9 2 2 2s2-.9 2-2v-4.6c1.2-.6 2-1.9 2-3.4z"
          fill="#fff"/>
    <path fill-rule="evenodd" clip-rule="evenodd"
          d="M24 34c0-2.753 2.248-5 5-5s5 2.247 5 5c0 1.623-.761 3.1-2 3.965v4.034c0 1.653-1.348 3-3 3s-3-1.347-3-3v-4.034c-1.239-.866-2-2.342-2-3.966zm5-3c-1.648 0-3 1.352-3 3 0 1.147.608 2.086 1.447 2.505l.553.276V42c0 .548.452 1 1 1s1-.452 1-1v-5.218l.553-.276c.838-.42 1.447-1.358 1.447-2.506 0-1.647-1.352-3-3-3z"
          fill="#4C739E"/>
</svg>