<svg width="60" height="60" fill="none" xmlns="http://www.w3.org/2000/svg">
    <path d="M29.3 57c14 0 25.3-11.3 25.3-25.3S43.3 6.4 29.3 6.4 4 17.7 4 31.7 15.3 57 29.3 57z" fill="#F4F8FF"/>
    <path d="M8.8 50.4H6.9v5.7h1.9v-5.7z" fill="#DFEEFF"/>
    <path d="M10.7 52.3H5v1.9h5.7v-1.9zM53.7 4.5h-1.9v5.7h1.9V4.5z" fill="#DFEEFF"/>
    <path d="M55.6 6.4h-5.7v1.9h5.7V6.4z" fill="#DFEEFF"/>
    <path d="M21.3 31.8c6.9 0 12.4-5.6 12.4-12.4C33.7 12.5 28.1 7 21.3 7 14.5 7 8.8 12.5 8.8 19.4c0 6.8 5.6 12.4 12.5 12.4z"
          fill="#F4F8FF"/>
    <path d="M17.1 23.6v-1.4h1.2v-1.8h-1.2v-1.8h1.2V12h3.8c.7 0 1.4.1 2 .2.6.1 1.2.4 1.7.7.5.3.9.7 1.1 1.3.3.5.4 1.2.4 1.9 0 .8-.1 1.4-.4 2-.3.5-.7 1-1.1 1.3-.5.3-1 .6-1.7.8-.6.2-1.3.2-2 .2h-1.9v1.8h5.1v1.4h-5.1v3.1h-1.9v-3.1h-1.2zm5.1-4.9c1.1 0 1.8-.2 2.4-.6.6-.4.8-1.1.8-1.9 0-1.7-1.1-2.5-3.2-2.5h-2v5.1h2v-.1z"
          fill="#4C739E"/>
    <path d="M21.3 32.8c-7.4 0-13.4-6-13.4-13.4S13.9 6 21.3 6s13.4 6 13.4 13.4c-.1 7.3-6.1 13.4-13.4 13.4zm0-24.9C15 7.9 9.8 13.1 9.8 19.4S15 30.9 21.3 30.9s11.5-5.2 11.5-11.5c-.1-6.3-5.2-11.5-11.5-11.5z"
          fill="#4C739E"/>
    <path d="M22.6 54.4c7.1 0 12.9-5.8 12.9-12.9 0-7.1-5.8-12.9-12.9-12.9-7.1 0-12.9 5.7-12.9 12.9s5.8 12.9 12.9 12.9z"
          fill="#A3D4FF"/>
    <path d="M22.6 55.3c-7.6 0-13.9-6.2-13.9-13.9s6.2-13.9 13.9-13.9 13.9 6.2 13.9 13.9-6.3 13.9-13.9 13.9zm0-25.8c-6.6 0-11.9 5.4-11.9 11.9 0 6.6 5.4 11.9 11.9 11.9 6.6 0 11.9-5.4 11.9-11.9s-5.3-11.9-11.9-11.9z"
          fill="#4C739E"/>
    <path d="M25.9 47.7H23c-2.7 0-4.8-2.1-4.8-4.8V40c0-2.7 2.1-4.8 4.8-4.8h2.9v1.9H23c-1.6 0-2.9 1.2-2.9 2.9v2.9c0 1.6 1.2 2.9 2.9 2.9h2.9v1.9z"
          fill="#4C739E"/>
    <path d="M23.1 39.1h-6.7V41h6.7v-1.9zM23.1 41.9h-6.7v1.9h6.7v-1.9z" fill="#4C739E"/>
    <path d="M41.3 41.9c6.9 0 12.4-5.6 12.4-12.4 0-6.9-5.6-12.4-12.4-12.4-6.8 0-12.4 5.6-12.4 12.4-.1 6.8 5.5 12.4 12.4 12.4z"
          fill="#fff"/>
    <path d="M41.3 42.8c-7.4 0-13.4-6-13.4-13.4S33.9 16 41.3 16s13.4 6 13.4 13.4c-.1 7.4-6.1 13.4-13.4 13.4zm0-24.8c-6.3 0-11.5 5.2-11.5 11.5S35 41 41.3 41s11.5-5.2 11.5-11.5C52.7 23.2 47.6 18 41.3 18z"
          fill="#4C739E"/>
    <path d="M42.2 35.2h-1.9c-1.6 0-2.9-1.2-2.9-2.9h1.9c0 .6.4 1 1 1h1.9c.6 0 1-.4 1-1v-.6c0-.4-.3-.8-.7-.9l-3.2-1.1c-1.1-.4-2-1.5-2-2.7v-.6c0-1.6 1.2-2.9 2.9-2.9h1.9c1.6 0 2.9 1.2 2.9 2.9h-1.9c0-.6-.4-1-1-1h-1.9c-.6 0-1 .4-1 1v.6c0 .4.3.8.7.9l3.2 1.1c1.1.4 2 1.5 2 2.7v.6c0 1.7-1.3 2.9-2.9 2.9z"
          fill="#4C739E"/>
    <path d="M42.2 21.8h-1.9v2.9h1.9v-2.9zM42.2 34.2h-1.9v2.9h1.9v-2.9z" fill="#4C739E"/>
</svg>