<svg width="60" height="60" fill="none" xmlns="http://www.w3.org/2000/svg">
    <g clip-path="url(#a)">
        <path d="M30.408 59c15.69 0 28.408-12.984 28.408-29S46.098 1 30.408 1C14.718 1 2 13.984 2 30s12.719 29 28.408 29z"
              fill="#F4F8FF"/>
        <path d="M56.19 46.78H34.287l-1.905 2.034h-7.62l-1.904-2.034H.952V10.17h55.239v36.61z" fill="#A3D4FF"/>
        <path fill-rule="evenodd" clip-rule="evenodd"
              d="M-.048 9.17H57.19v38.61H34.72l-1.905 2.034h-8.487l-1.904-2.034H-.048V9.17zm2 2v34.61h21.339l1.904 2.034h6.752l1.905-2.034h21.339V11.17H1.952z"
              fill="#4C739E"/>
        <path d="M30.476 44.746h-1.905V13.22c0-3.254 1.905-6.101 5.715-6.101h17.143v35.593H34.286c-1.81 0-3.048.508-3.81 2.034z"
              fill="#fff"/>
        <path fill-rule="evenodd" clip-rule="evenodd"
              d="M30.761 9.597c-.767.902-1.19 2.181-1.19 3.623v30.526h.328a4.196 4.196 0 0 1 1.64-1.482c.823-.415 1.759-.552 2.747-.552h16.143V8.119H34.286c-1.633 0-2.775.598-3.525 1.478zM29.24 8.301c1.155-1.357 2.87-2.182 5.047-2.182h18.143v37.593H34.286c-.822 0-1.41.117-1.848.338-.415.209-.77.548-1.067 1.143l-.276.553H27.57V13.22c0-1.812.53-3.583 1.668-4.92z"
              fill="#4C739E"/>
        <path d="M26.667 44.746h1.904V13.22c0-3.254-1.904-6.101-5.714-6.101H5.714v35.593h17.143c1.81 0 3.143.508 3.81 2.034z"
              fill="#fff"/>
        <path fill-rule="evenodd" clip-rule="evenodd"
              d="M4.714 6.119h18.143c2.177 0 3.892.825 5.047 2.182 1.137 1.336 1.667 3.107 1.667 4.92v32.525h-3.559l-.262-.6c-.242-.555-.579-.883-1.003-1.093-.452-.223-1.066-.341-1.89-.341H4.714V6.119zm2 2v33.593h16.143c.986 0 1.943.136 2.777.548a3.964 3.964 0 0 1 1.635 1.486h.302V13.22c0-1.442-.422-2.721-1.19-3.623-.749-.88-1.891-1.478-3.524-1.478H6.714z"
              fill="#4C739E"/>
        <path d="M58.857 44.644 41.905 31.525v22.272c0 .712.476.915 1.047.406l4.762-4.881 4.572 8.644c.38.712 1.333.814 2 .305l1.904-1.322c.762-.508.953-1.424.667-2.034l-4.476-8.135h5.714c.762-.102 1.238-1.73.762-2.136z"
              fill="#fff"/>
        <path fill-rule="evenodd" clip-rule="evenodd"
              d="m40.905 29.487 18.583 14.381.019.016c.426.364.522.879.538 1.202.018.358-.047.726-.155 1.053a2.96 2.96 0 0 1-.52.961c-.234.282-.613.6-1.142.67l-.066.01h-4.09l3.677 6.682.014.03c.502 1.071.142 2.51-1.01 3.283l-1.881 1.307c-1.029.767-2.73.737-3.468-.644l-.002-.004-3.93-7.431-3.828 3.924-.027.023c-.378.337-1.045.728-1.774.436-.765-.306-.938-1.084-.938-1.59V29.488zm2 4.077V52.82l5.052-5.179 5.21 9.853.001.002c.024.044.062.078.147.09a.506.506 0 0 0 .364-.11l.018-.014 1.93-1.34.008-.005c.352-.235.383-.602.324-.76l-5.27-9.577h7.176a1.184 1.184 0 0 0 .179-.501l-15.14-11.715z"
              fill="#4C739E"/>
        <path fill-rule="evenodd" clip-rule="evenodd"
              d="M41.952 22.373v4.068h-2v-4.068h2zM37.545 23.116l1.715 3.152-1.758.956-1.714-3.153 1.757-.956zM34.05 26.1l2.953 1.83-1.054 1.7-2.952-1.83 1.054-1.7zM32.381 30.525h3.81v2h-3.81v-2zM46.117 24.07l-1.715 3.154-1.757-.956 1.715-3.152 1.757.955zM32.997 35.252l2.952-1.83 1.054 1.7-2.952 1.83-1.054-1.7z"
              fill="#DFEEFF"/>
        <path d="M26.667 44.746h1.904V13.22c0-3.254-1.333-6.61-4.38-7.728L10.476 1.119v35.593l13.714 4.373c1.715.712 2.096 1.932 2.477 3.66z"
              fill="#fff"/>
        <path fill-rule="evenodd" clip-rule="evenodd"
              d="M9.886.311a1 1 0 0 1 .894-.145l13.714 4.373.041.014c3.625 1.33 5.036 5.23 5.036 8.667v31.526a1 1 0 0 1-1 1h-1.904a1 1 0 0 1-.977-.785c-.192-.872-.357-1.464-.625-1.922-.235-.402-.575-.74-1.22-1.015l-13.673-4.36a1 1 0 0 1-.696-.952V1.119a1 1 0 0 1 .41-.808zm1.59 2.176v33.494l13.018 4.151c.027.009.054.018.08.03 1.044.433 1.743 1.056 2.218 1.867.31.53.51 1.119.666 1.717h.113V13.22c0-3.064-1.248-5.868-3.706-6.783l-12.389-3.95z"
              fill="#4C739E"/>
    </g>
    <defs>
        <clipPath id="a">
            <path fill="#fff" d="M0 0h60v60H0z"/>
        </clipPath>
    </defs>
</svg>