<svg width="60" height="60" fill="none" xmlns="http://www.w3.org/2000/svg">
    <path d="m36.31 18.59-1.56-3.78c-.416-.19-.659-.303-1.075-.494l-1.855.616c-.355-.113-.607-.19-.954-.303a13.822 13.822 0 0 0-2.306-2.307c-.112-.355-.19-.606-.303-.953l.615-1.855c-.19-.417-.303-.66-.494-1.076l-3.78-1.56c-.425.156-.685.251-1.11.416l-.875 1.751c-.33.174-.564.295-.893.469a13.23 13.23 0 0 0-3.26 0l-.893-.469-.875-1.75c-.425-.166-.677-.261-1.101-.417l-3.78 1.57c-.191.407-.304.658-.495 1.074l.616 1.855c-.113.356-.19.607-.303.954a13.817 13.817 0 0 0-2.307 2.306c-.355.113-.606.19-.953.304l-1.855-.616c-.408.182-.66.295-1.075.486l-1.561 3.78c.156.424.251.684.416 1.11l1.751.875.469.893a13.23 13.23 0 0 0 0 3.26c-.174.329-.295.563-.469.893l-1.75.875c-.166.416-.261.676-.417 1.101l1.57 3.78c.415.19.658.304 1.074.494l1.855-.615c.356.112.607.19.954.303a13.822 13.822 0 0 0 2.306 2.306c.113.356.191.607.304.954l-.616 1.855c.19.416.304.66.494 1.075l3.78 1.56c.425-.155.685-.25 1.11-.415l.875-1.752c.33-.173.564-.294.893-.468 1.075.13 2.168.139 3.26 0l.893.468.876 1.752c.425.156.685.251 1.11.416l3.78-1.57c.19-.416.303-.658.494-1.075l-.616-1.855c.113-.355.19-.607.303-.953a13.815 13.815 0 0 0 2.307-2.306c.355-.113.607-.191.953-.304l1.856.616 1.075-.495 1.569-3.78c-.156-.424-.252-.684-.416-1.11l-1.752-.875-.468-.893c.13-1.075.139-2.167 0-3.26.174-.329.295-.563.468-.893l1.752-.875c.13-.416.225-.668.39-1.093z"
          fill="#A3D4FF"/>
    <path d="M24.598 40.178a.892.892 0 0 1-.303-.052l-1.11-.416a.836.836 0 0 1-.468-.425l-.746-1.5-.407-.217c-.971.096-1.95.096-2.93 0l-.408.217-.754 1.5a.864.864 0 0 1-.468.425l-1.11.416a.884.884 0 0 1-.633-.009l-3.78-1.56a.913.913 0 0 1-.46-.443l-.494-1.075a.886.886 0 0 1-.034-.633l.529-1.586-.139-.434a13.772 13.772 0 0 1-2.072-2.072l-.442-.138-1.587.529a.886.886 0 0 1-.633-.035l-1.075-.494a.85.85 0 0 1-.442-.46l-1.56-3.78a.842.842 0 0 1-.009-.633l.416-1.11a.835.835 0 0 1 .425-.467l1.5-.746.208-.425a15.043 15.043 0 0 1 0-2.93l-.217-.408-1.5-.745a.863.863 0 0 1-.425-.468l-.416-1.11a.884.884 0 0 1 .009-.633l1.56-3.78a.913.913 0 0 1 .443-.46l1.075-.494a.843.843 0 0 1 .633-.034l1.612.537.434-.138a13.776 13.776 0 0 1 2.072-2.072l.138-.443-.528-1.586a.843.843 0 0 1 .034-.633l.494-1.075a.88.88 0 0 1 .46-.442l3.78-1.57a.841.841 0 0 1 .633-.008l1.11.416a.835.835 0 0 1 .467.425l.746 1.5.399.208c.97-.095 1.95-.095 2.93 0l.408-.217.754-1.5a.864.864 0 0 1 .468-.424l1.11-.417a.885.885 0 0 1 .633.009l3.78 1.57c.199.086.364.242.46.441l.493 1.075c.087.2.104.425.035.633l-.538 1.604.14.434c.762.615 1.456 1.309 2.071 2.072l.442.138 1.587-.528a.843.843 0 0 1 .633.034l1.075.494a.85.85 0 0 1 .442.46l1.56 3.78c.087.2.087.433.009.633l-.416 1.11a.835.835 0 0 1-.425.467l-1.5.746-.217.408c.096.97.096 1.95 0 2.93l.217.407 1.5.755c.2.095.347.268.425.468l.416 1.11a.884.884 0 0 1-.009.632l-1.56 3.78a.913.913 0 0 1-.442.46l-1.075.494a.886.886 0 0 1-.633.035l-1.587-.53-.433.14a13.77 13.77 0 0 1-2.072 2.072l-.139.442.529 1.586c.07.208.06.434-.035.633l-.494 1.075a.88.88 0 0 1-.46.442l-3.78 1.57c-.103.017-.216.043-.329.043zm-.485-1.977.468.173 3.147-1.3.208-.45-.512-1.535a.816.816 0 0 1 0-.538l.304-.954a.902.902 0 0 1 .295-.424 13.377 13.377 0 0 0 2.158-2.159.863.863 0 0 1 .425-.295l.962-.303a.848.848 0 0 1 .53.008l1.534.512.45-.208 1.301-3.147-.173-.468-1.448-.72a.835.835 0 0 1-.382-.373l-.468-.893a.92.92 0 0 1-.095-.502 12.83 12.83 0 0 0 0-3.052.848.848 0 0 1 .095-.503l.425-.815c.087-.165.252-.364.416-.442l1.44-.72.173-.468-1.3-3.147-.452-.208-1.534.512a.849.849 0 0 1-.529.008l-.953-.303a.902.902 0 0 1-.425-.295 13.373 13.373 0 0 0-2.159-2.159.826.826 0 0 1-.295-.425l-.303-.953a.945.945 0 0 1 0-.538l.511-1.534-.208-.45-3.147-1.301-.468.173-.72 1.422a.88.88 0 0 1-.372.381l-.893.468a.918.918 0 0 1-.503.096 12.83 12.83 0 0 0-3.052 0 .787.787 0 0 1-.503-.096l-.893-.468a.836.836 0 0 1-.372-.381l-.72-1.44-.468-.173-3.147 1.3-.208.452.511 1.534c.061.173.061.364 0 .538l-.303.953a.902.902 0 0 1-.295.425 12.36 12.36 0 0 0-2.15 2.159.862.862 0 0 1-.425.294l-.953.304a.847.847 0 0 1-.53-.009l-1.542-.511-.451.208-1.3 3.147.173.468 1.447.72a.88.88 0 0 1 .382.372l.468.885c.078.156.113.33.095.502a12.834 12.834 0 0 0 0 3.052.848.848 0 0 1-.095.503l-.468.884a.835.835 0 0 1-.382.373l-1.439.72-.173.468 1.3 3.147.451.208 1.535-.512a.875.875 0 0 1 .537-.008l.954.303a.903.903 0 0 1 .425.295 13.381 13.381 0 0 0 2.158 2.159.825.825 0 0 1 .295.425l.304.962a.946.946 0 0 1 0 .537l-.512 1.535.208.45 3.147 1.301.468-.173.72-1.448a.88.88 0 0 1 .373-.381l.893-.469a.92.92 0 0 1 .502-.095 12.83 12.83 0 0 0 3.052 0 .788.788 0 0 1 .503.095l.893.468a.836.836 0 0 1 .373.382l.71 1.465z"
          fill="#4C739E"/>
    <path d="m47.078 27.355-.867-1.5c.564-.32.997-.814 1.24-1.413a2.883 2.883 0 0 0 0-2.245 2.933 2.933 0 0 0-1.586-1.586 2.94 2.94 0 0 0-3.832 1.586l-1.604-.668a4.675 4.675 0 0 1 6.103-2.522 4.687 4.687 0 0 1 2.532 2.522 4.639 4.639 0 0 1 0 3.572 4.623 4.623 0 0 1-1.986 2.255zM55.089 37.68l-.84-2.028-1.137-.468-1.395.58a34.824 34.824 0 0 0-1.015-.268 8.67 8.67 0 0 0-1.092-1.092 59.13 59.13 0 0 1-.269-1.015l.581-1.395-.468-1.136-2.029-.841-1.136.468-.58 1.396c-.339.2-.573.33-.91.529a9.183 9.183 0 0 0-1.544 0c-.338-.2-.572-.33-.91-.529l-.581-1.396-1.136-.468-2.029.841c-.181.442-.286.694-.468 1.136l.581 1.395c-.104.373-.173.633-.269 1.015-.39.32-.754.685-1.083 1.083-.382.105-.642.174-1.015.27l-1.395-.582-1.136.469-.841 2.028.468 1.136 1.396.58c.2.339.33.573.529.911a9.162 9.162 0 0 0 0 1.543c-.2.338-.33.572-.53.91l-1.395.581-.468 1.136.84 2.029 1.137.468 1.395-.58c.373.103.633.172 1.015.268.33.399.702.763 1.092 1.092.104.382.174.642.269 1.015l-.581 1.395.468 1.136 2.029.841 1.136-.468.58-1.396c.339-.2.573-.33.91-.529a9.181 9.181 0 0 0 1.544 0c.338.2.572.33.91.53l.581 1.395 1.136.468 2.029-.84c.181-.443.286-.694.468-1.137l-.581-1.395c.104-.373.173-.633.268-1.015.4-.33.764-.702 1.093-1.092a60.32 60.32 0 0 1 1.014-.269l1.396.581 1.136-.468.84-2.029c-.181-.442-.285-.693-.468-1.136l-1.395-.58c-.2-.339-.33-.573-.53-.91a9.183 9.183 0 0 0 0-1.544c.2-.338.33-.572.53-.91l1.395-.581c.174-.442.278-.685.46-1.127z"
          fill="#DFEEFF"/>
    <path d="M47.425 53a.862.862 0 0 1-.33-.07l-1.135-.468a.855.855 0 0 1-.468-.468l-.468-1.127-.425-.242a8.248 8.248 0 0 1-1.136 0l-.425.242-.468 1.127a.855.855 0 0 1-.468.468l-1.136.469a.889.889 0 0 1-.667 0l-2.029-.841a.855.855 0 0 1-.468-.469l-.46-1.135a.889.889 0 0 1 0-.668l.469-1.127-.13-.468a8.841 8.841 0 0 1-.807-.806l-.468-.13-1.127.468a.89.89 0 0 1-.668 0l-1.135-.468a.855.855 0 0 1-.468-.468l-.841-2.03a.867.867 0 0 1 0-.658l.468-1.136a.855.855 0 0 1 .468-.468l1.127-.468.243-.425a8.278 8.278 0 0 1 0-1.136l-.243-.424-1.127-.468a.855.855 0 0 1-.468-.469l-.468-1.135a.867.867 0 0 1 0-.66l.84-2.028a.855.855 0 0 1 .469-.468l1.136-.468a.89.89 0 0 1 .667 0l1.127.468.468-.13c.252-.286.52-.555.807-.806l.12-.468-.467-1.128a.889.889 0 0 1 0-.667l.468-1.136a.883.883 0 0 1 .468-.468l2.029-.84a.889.889 0 0 1 .667 0l1.136.467c.217.087.382.26.468.468l.468 1.127.425.243c.382-.017.754-.017 1.136 0l.425-.243.468-1.127a.855.855 0 0 1 .468-.468l1.136-.468a.889.889 0 0 1 .667 0l2.029.841c.217.087.381.26.468.468l.468 1.127a.89.89 0 0 1 0 .668l-.468 1.127.13.468c.286.251.555.52.806.806l.468.13 1.128-.468a.889.889 0 0 1 .667 0l1.136.468c.217.087.381.26.468.468l.832 2.038a.889.889 0 0 1 0 .667l-.468 1.136a.884.884 0 0 1-.468.468l-1.127.468-.243.425c.026.382.026.763 0 1.136l.243.425 1.127.468c.217.087.381.26.468.468l.468 1.127a.889.889 0 0 1 0 .668l-.84 2.028a.855.855 0 0 1-.469.468l-1.136.469a.89.89 0 0 1-.667 0l-1.127-.469-.468.13c-.252.287-.52.555-.806.807l-.122.468.468 1.127a.89.89 0 0 1 0 .668l-.468 1.135a.855.855 0 0 1-.468.468l-2.029.841c-.112.035-.225.061-.338.061zm-.468-2.003.468.191 1.37-.564.19-.468-.441-1.066a.87.87 0 0 1-.035-.555l.269-1.014a.88.88 0 0 1 .277-.442 7.47 7.47 0 0 0 .98-.98.894.894 0 0 1 .442-.286l1.014-.269a.87.87 0 0 1 .555.035l1.066.442.468-.19.564-1.37-.19-.469-1.067-.442a.851.851 0 0 1-.416-.364l-.529-.91a.887.887 0 0 1-.113-.512c.044-.46.044-.927 0-1.387a.873.873 0 0 1 .113-.511l.529-.91a.851.851 0 0 1 .416-.365l1.066-.442.191-.468-.598-1.379-.434-.182-1.066.443a.87.87 0 0 1-.555.034l-1.014-.269a.84.84 0 0 1-.442-.286 7.47 7.47 0 0 0-.98-.98.894.894 0 0 1-.286-.441l-.269-1.015a.87.87 0 0 1 .035-.555l.442-1.066-.19-.468-1.37-.564-.469.191-.442 1.066a.85.85 0 0 1-.364.417l-.91.528a.888.888 0 0 1-.512.113 7.405 7.405 0 0 0-1.387 0 .888.888 0 0 1-.511-.113l-.91-.528a.85.85 0 0 1-.365-.417l-.442-1.066-.468-.19-1.37.563-.19.468.442 1.066a.87.87 0 0 1 .034.555l-.269 1.014a.839.839 0 0 1-.286.443 7.47 7.47 0 0 0-.98.98.825.825 0 0 1-.441.277l-.98.26a.978.978 0 0 1-.59-.026l-1.066-.442-.468.19-.564 1.37.191.468 1.066.443c.174.069.321.199.417.364l.528.91c.087.156.13.33.113.511-.043.46-.043.928 0 1.388a.873.873 0 0 1-.113.511l-.528.91a.85.85 0 0 1-.417.364l-1.066.443-.19.468.563 1.37.468.19 1.066-.442a.87.87 0 0 1 .555-.035l1.015.27a.88.88 0 0 1 .442.277c.294.355.624.685.98.98a.825.825 0 0 1 .277.442l.268 1.014a.87.87 0 0 1-.034.555l-.442 1.066.19.468 1.37.564.468-.191.443-1.066c.069-.174.199-.321.364-.416l.91-.53a.887.887 0 0 1 .511-.112c.469.043.928.043 1.388 0a.873.873 0 0 1 .511.113l.91.529a.851.851 0 0 1 .364.416l.46 1.083z"
          fill="#4C739E"/>
    <path d="M53.294 30.407a.847.847 0 0 1-.381-.087l-1.907-.927.763-1.56 1.586.77.477-.164.615-1.274-.164-.477-.989-.486a.87.87 0 0 1-.398-.39l-.468-.936a.887.887 0 0 1-.087-.52c.07-.442.095-.893.078-1.344 0-.182.043-.355.147-.503l.564-.85a.972.972 0 0 1 .45-.364l1.04-.364.226-.46-.46-1.334-.459-.226-1.04.364a.868.868 0 0 1-.555 0l-.997-.329a.84.84 0 0 1-.425-.303 8.14 8.14 0 0 0-.893-1.006.863.863 0 0 1-.251-.46l-.2-1.023a.873.873 0 0 1 .07-.554l.485-.989-.164-.477-1.275-.615-.477.165-.485.988a.87.87 0 0 1-.39.399l-.936.468a.91.91 0 0 1-.52.087 6.945 6.945 0 0 0-1.336-.079.798.798 0 0 1-.503-.147l-.875-.58a.862.862 0 0 1-.338-.443l-.364-1.04-.46-.226-1.335.46-.225.46.58 1.664-1.638.563-.694-2.002a.853.853 0 0 1 .044-.668l.537-1.1a.884.884 0 0 1 .494-.443l2.02-.694a.831.831 0 0 1 .66.044l1.1.537a.884.884 0 0 1 .442.495l.382 1.1.407.27c.364 0 .729.025 1.084.069l.433-.217.503-1.05a.884.884 0 0 1 .494-.441l1.162-.4a.83.83 0 0 1 .659.044l1.916.937a.884.884 0 0 1 .442.494l.399 1.162a.83.83 0 0 1-.043.658l-.512 1.05.096.476c.26.26.502.53.719.815l.468.156 1.101-.381a.83.83 0 0 1 .66.043l1.1.538a.884.884 0 0 1 .442.494l.694 2.02a.83.83 0 0 1-.044.659l-.537 1.1a.884.884 0 0 1-.494.443l-1.101.381-.252.4c0 .363-.026.727-.069 1.083l.217.433 1.049.512a.884.884 0 0 1 .442.494l.399 1.162c.078.216.06.46-.044.659l-.936 1.916a.885.885 0 0 1-.494.442l-1.162.398a.515.515 0 0 1-.269.061z"
          fill="#DFEEFF"/>
    <path d="M47.564 39.606a3.827 3.827 0 0 1-2.063 4.993 3.827 3.827 0 0 1-4.994-2.063 3.82 3.82 0 1 1 7.057-2.93z"
          fill="#fff"/>
    <path d="M44.035 45.752a4.695 4.695 0 0 1-4.334-2.895 4.688 4.688 0 0 1 2.54-6.121 4.688 4.688 0 0 1 6.12 2.54 4.688 4.688 0 0 1-4.326 6.476zm-.008-7.638a2.949 2.949 0 0 0-2.722 4.083 2.96 2.96 0 0 0 3.857 1.596 2.952 2.952 0 0 0-1.135-5.679z"
          fill="#4C739E"/>
    <path d="M20.081 32.514c5.267 0 9.537-4.262 9.537-9.52 0-5.257-4.27-9.518-9.537-9.518-5.266 0-9.536 4.261-9.536 9.519 0 5.257 4.27 9.519 9.536 9.519z"
          fill="#fff"/>
    <path d="M20.081 33.39c-5.739 0-10.403-4.665-10.403-10.387 0-5.73 4.664-10.386 10.403-10.386 5.74 0 10.404 4.664 10.404 10.386 0 5.722-4.664 10.386-10.404 10.386zm0-19.047c-4.777 0-8.67 3.883-8.67 8.652 0 4.768 3.893 8.652 8.67 8.652s8.67-3.884 8.67-8.652c0-4.769-3.893-8.653-8.67-8.653z"
          fill="#4C739E"/>
    <path d="M21.174 27.32h-1.96c-1.43 0-2.6-1.17-2.6-2.6h1.733c0 .477.39.867.867.867h1.96a.64.64 0 0 0 .641-.642.635.635 0 0 0-.442-.615l-3.138-1.05a2.37 2.37 0 0 1-1.621-2.253 2.38 2.38 0 0 1 2.375-2.385h1.96c1.43 0 2.6 1.17 2.6 2.601h-1.734a.87.87 0 0 0-.867-.866H18.99a.64.64 0 0 0-.642.641c0 .277.174.529.443.616l3.138 1.049a2.369 2.369 0 0 1 1.621 2.254 2.381 2.381 0 0 1-2.375 2.384z"
          fill="#4C739E"/>
    <path d="M20.948 16.917h-1.734v2.601h1.734v-2.6zM20.948 26.454h-1.734v2.6h1.734v-2.6z" fill="#4C739E"/>
</svg>