<svg width="60" height="60" fill="none" xmlns="http://www.w3.org/2000/svg">
    <path d="M36.478 52.751c11.525 0 20.868-9.343 20.868-20.868 0-11.525-9.343-20.868-20.868-20.868-11.525 0-20.868 9.343-20.868 20.868 0 11.525 9.343 20.868 20.868 20.868z"
          fill="#F4F8FF"/>
    <path d="M36.744 57.902c-14.386 0-26.018-11.633-26.018-26.019H12.5c0 13.409 10.834 24.243 24.243 24.243 8.17 0 15.718-4.085 20.246-10.923l1.51.977c-4.884 7.37-13.054 11.722-21.756 11.722z"
          fill="#DFEEFF"/>
    <path d="M43.848 37.744c0-1.51-1.154-2.664-2.664-2.664h-5.328c-1.51 0-2.664 1.154-2.664 2.664v6.216c0 1.51 1.154 2.664 2.664 2.664h5.328c1.51 0 2.664-1.154 2.664-2.664v-6.216z"
          fill="#fff"/>
    <path d="M41.184 47.512h-5.328a3.562 3.562 0 0 1-3.552-3.552v-6.216a3.562 3.562 0 0 1 3.552-3.552h5.328a3.562 3.562 0 0 1 3.552 3.552v6.216a3.562 3.562 0 0 1-3.552 3.552zm-5.328-11.544c-.977 0-1.776.8-1.776 1.776v6.216c0 .977.8 1.776 1.776 1.776h5.328c.977 0 1.776-.8 1.776-1.776v-6.216c0-.977-.8-1.776-1.776-1.776h-5.328z"
          fill="#4C739E"/>
    <path d="M39.408 41.296H28.486c-3.73 0-6.838-3.02-6.838-6.749v-11.01h1.776v11.01c0 2.753 2.22 4.973 5.062 4.973h10.922v1.776z"
          fill="#4C739E"/>
    <path d="M18.984 25.312v3.552c0 .533.533.888 1.154.888h4.795c.622 0 1.155-.444 1.155-.888v-3.552h-7.104z"
          fill="#DFEEFF"/>
    <path d="M24.934 30.64h-4.795c-1.155 0-2.043-.8-2.043-1.776v-4.44h8.88v4.44c0 .977-.888 1.776-2.042 1.776zm-5.062-1.776h5.062c.177 0 .266-.089.266-.089V26.2h-5.328v2.664z"
          fill="#4C739E"/>
    <path d="M51.662 12.347c-1.065-4.262-4.706-7.459-9.324-7.459H16.231c-8.347 0-12.432 5.595-12.343 14.208h3.374-.088c1.243 4.351 4.528 7.104 8.17 7.104h24.242c2.22 0 4.35-.888 5.86-2.841 1.244-1.599 1.954-3.641 2.132-5.773 2.664-.177 4.617-2.663 4.084-5.239z"
          fill="#fff"/>
    <path d="M39.586 27.088H15.343c-3.996 0-7.459-2.753-8.88-7.104H3v-.888c0-5.062 1.332-9.058 3.907-11.633C9.127 5.154 12.324 4 16.231 4H42.34c4.795 0 8.968 3.374 10.123 8.17.355 1.42 0 2.93-.888 4.084-.8 1.066-1.865 1.776-3.197 2.043-.267 2.131-1.066 3.996-2.22 5.505-1.598 2.132-3.907 3.286-6.571 3.286zm-31.17-7.104c1.333 3.286 3.908 5.328 7.016 5.328h24.242c2.132 0 3.908-.888 5.15-2.486 1.067-1.421 1.777-3.197 1.955-5.24l.088-.71.71-.089c1.066-.089 1.954-.621 2.576-1.42.622-.8.8-1.777.622-2.665-.977-3.996-4.44-6.837-8.436-6.837H16.23c-3.463-.089-6.127.888-8.08 2.841-2.132 2.132-3.286 5.417-3.375 9.502h25.752c3.64-.355 5.15-3.02 5.772-4.618.977-2.752 3.73-6.748 7.193-6.748v1.776c-2.131 0-4.529 2.93-5.506 5.594-1.243 3.374-3.907 5.506-7.37 5.772h-22.2z"
          fill="#4C739E"/>
    <path d="M39.586 10.305h-.444c-.888 1.154-1.599 2.398-1.954 3.552-.533 1.42-1.243 2.664-2.309 3.552.355 3.02 2.309 5.328 4.707 5.328 2.664 0 4.706-2.842 4.706-6.216 0-3.375-2.131-6.216-4.706-6.216z"
          fill="#A3D4FF"/>
    <path d="M39.586 23.714c-2.842 0-5.15-2.576-5.595-6.128l-.089-.444.355-.266c.889-.71 1.51-1.776 2.043-3.197.444-1.332 1.243-2.664 2.131-3.818l.267-.267h.888c3.108 0 5.594 3.197 5.594 7.104 0 3.819-2.486 7.016-5.594 7.016zm-3.73-5.95c.444 2.398 1.953 4.085 3.73 4.085 2.13 0 3.818-2.398 3.818-5.328s-1.687-5.328-3.819-5.328c-.71.888-1.243 1.953-1.598 3.019-.533 1.51-1.243 2.664-2.131 3.552zM18.984 21.76h-1.776v1.776h1.776V21.76zM23.424 21.76h-1.776v1.776h1.776V21.76zM27.864 21.76h-1.776v1.776h1.776V21.76zM48.554 17.587h-1.776v-.178c0-.8 0-1.954-.266-3.286l1.776-.355c.267 1.51.267 2.753.267 3.64v.178z"
          fill="#4C739E"/>
</svg>