<svg width="60" height="60" fill="none" xmlns="http://www.w3.org/2000/svg">
    <path d="M50.351 6.432 51.973 4M53.514 9.514l2.432-1.622M55.135 13.568h3.243" stroke="#4C739E" stroke-width="2"
          stroke-miterlimit="10"/>
    <path d="M27.568 50.054c11.642 0 21.08-9.438 21.08-21.081 0-11.643-9.438-21.081-21.08-21.081-11.643 0-21.081 9.438-21.081 21.081 0 11.643 9.438 21.081 21.08 21.081z"
          fill="#F4F8FF"/>
    <path d="M49.46 11.135H30c-1.378 0-2.433 1.054-2.433 2.433v15.405c0 1.378 1.055 2.432 2.433 2.432h8.108L42.405 37c.568.81 2.19.405 2.19-.73v-4.865h4.864c1.379 0 2.433-1.054 2.433-2.432V13.568c0-1.298-1.054-2.433-2.433-2.433z"
          fill="#fff"/>
    <path d="M43.297 38.216c-.648 0-1.216-.243-1.54-.73l-4.054-5.27H30a3.253 3.253 0 0 1-3.243-3.243c0-.486.324-.81.81-.81.487 0 .811.323.811.81 0 .892.73 1.622 1.622 1.622h8.514l4.54 5.919c.081.08.243.162.486.08.082 0 .244-.08.244-.324v-5.675h5.675c.892 0 1.622-.73 1.622-1.622V13.568c0-.892-.73-1.622-1.622-1.622h-6.486c-.486 0-.81-.324-.81-.81 0-.487.324-.812.81-.812h6.486a3.253 3.253 0 0 1 3.244 3.244v15.405a3.253 3.253 0 0 1-3.244 3.243h-4.054v4.054c0 .811-.567 1.54-1.378 1.865-.243.081-.486.081-.73.081z"
          fill="#4C739E"/>
    <path d="M42.973 48.432c1.946 0 3.243-1.54 3.243-3.486V43.81c0-1.946-1.297-3.487-3.243-3.487s-3.243 1.54-3.243 3.487v1.135c0 1.946 1.297 3.486 3.243 3.486z"
          fill="#fff"/>
    <path d="M42.973 49.243c-2.351 0-4.054-1.865-4.054-4.297V43.81c0-2.433 1.703-4.297 4.054-4.297s4.054 1.864 4.054 4.297v1.135c0 2.514-1.703 4.297-4.054 4.297zm0-8.108c-1.46 0-2.432 1.135-2.432 2.676v1.135c0 1.54.973 2.676 2.432 2.676 1.46 0 2.432-1.136 2.432-2.676V43.81c0-1.54-.973-2.676-2.432-2.676z"
          fill="#4C739E"/>
    <path d="M25.946 51.27v1.622c0 1.054-3.162 2.838-5.676 2.838-2.513 0-5.675-1.784-5.675-2.838V51.27c0-1.054 3.162-2.838 5.675-2.838 2.514 0 5.676 1.784 5.676 2.838z"
          fill="#A3D4FF"/>
    <path d="M25.946 54.108c-.487 0-.81-.324-.81-.81V51.27c-.163-.567-2.677-2.027-4.866-2.027-2.189 0-4.702 1.46-4.865 2.108v1.946c0 .487-.324.811-.81.811-.487 0-.811-.324-.811-.81V51.27c0-1.784 3.81-3.648 6.486-3.648 2.676 0 6.487 1.864 6.487 3.648v2.027c0 .487-.325.811-.811.811z"
          fill="#4C739E"/>
    <path d="M42.973 48.432c-2.514 0-5.676 1.784-5.676 2.838v1.622c0 1.054 3.163 2.838 5.676 2.838 2.514 0 5.676-1.784 5.676-2.838V51.27c0-1.054-3.163-2.838-5.676-2.838z"
          fill="#A3D4FF"/>
    <path d="M48.649 54.108c-.487 0-.811-.324-.811-.81V51.27c-.162-.567-2.676-2.027-4.865-2.027-2.19 0-4.703 1.46-4.865 2.108v1.946c0 .487-.324.811-.81.811-.487 0-.812-.324-.812-.81V51.27c0-1.784 3.811-3.648 6.487-3.648s6.486 1.864 6.486 3.648v2.027c0 .487-.324.811-.81.811z"
          fill="#4C739E"/>
    <path d="M31.622 46.81c-2.514 0-5.676 1.785-5.676 2.839v3.243c0 1.054 3.162 2.838 5.676 2.838 2.513 0 5.675-1.784 5.675-2.838v-3.243c0-1.054-3.162-2.838-5.675-2.838z"
          fill="#A3D4FF"/>
    <path d="M37.297 54.108c-.486 0-.81-.324-.81-.81v-3.65c-.163-.567-2.676-2.026-4.865-2.026-2.19 0-4.703 1.46-4.865 2.108v3.567c0 .487-.325.811-.811.811-.487 0-.81-.324-.81-.81v-3.65c0-1.783 3.81-3.648 6.486-3.648 2.675 0 6.486 1.865 6.486 3.649v3.648c0 .487-.324.811-.81.811z"
          fill="#4C739E"/>
    <path d="M17.027 44.946V43.81c0-1.946 1.297-3.487 3.243-3.487s3.244 1.54 3.244 3.487v1.135c0 1.946-1.298 3.486-3.244 3.486-1.946 0-3.243-1.54-3.243-3.486z"
          fill="#fff"/>
    <path d="M20.27 49.243c-2.351 0-4.054-1.865-4.054-4.297V43.81c0-2.433 1.703-4.297 4.054-4.297 2.352 0 4.054 1.864 4.054 4.297v1.135c0 2.514-1.702 4.297-4.054 4.297zm0-8.108c-1.46 0-2.432 1.135-2.432 2.676v1.135c0 1.54.973 2.676 2.432 2.676 1.46 0 2.433-1.136 2.433-2.676V43.81c0-1.54-.973-2.676-2.433-2.676z"
          fill="#4C739E"/>
    <path d="M28.378 43.324V42.19c0-1.946 1.298-3.486 3.244-3.486 1.946 0 3.243 1.54 3.243 3.486v1.135c0 1.946-1.297 3.487-3.243 3.487s-3.244-1.54-3.244-3.487z"
          fill="#fff"/>
    <path d="M31.622 47.622c-2.352 0-4.055-1.865-4.055-4.298V42.19c0-2.432 1.703-4.297 4.055-4.297 2.35 0 4.054 1.865 4.054 4.297v1.135c0 2.514-1.703 4.298-4.054 4.298zm0-8.108c-1.46 0-2.433 1.135-2.433 2.675v1.135c0 1.54.973 2.676 2.433 2.676 1.459 0 2.432-1.135 2.432-2.676V42.19c0-1.54-.973-2.675-2.432-2.675z"
          fill="#4C739E"/>
    <path d="M12.162 5.46h25.135c1.379 0 2.433 1.054 2.433 2.432v16.216c0 1.378-1.054 2.433-2.433 2.433H23.514l-4.298 5.594c-.567.811-2.189.406-2.189-.73v-4.864h-4.865c-1.378 0-2.432-1.055-2.432-2.433V7.892c0-1.297 1.054-2.433 2.432-2.433z"
          fill="#fff"/>
    <path d="M18.324 33.351c-.243 0-.486 0-.73-.08a1.922 1.922 0 0 1-1.378-1.866v-4.054h-4.054a3.253 3.253 0 0 1-3.243-3.243V7.892a3.253 3.253 0 0 1 3.243-3.243h25.135a3.253 3.253 0 0 1 3.244 3.243v16.216a3.253 3.253 0 0 1-3.244 3.243H23.92l-4.054 5.27c-.324.487-.973.73-1.54.73zm-6.162-27.08c-.892 0-1.622.729-1.622 1.62v16.217c0 .892.73 1.622 1.622 1.622h5.676v5.675c0 .163.162.244.243.325.162.08.405 0 .486-.081l4.541-5.92h14.19c.891 0 1.62-.729 1.62-1.62V7.891c0-.892-.729-1.622-1.62-1.622H12.161z"
          fill="#4C739E"/>
    <path d="M3.243 19.243H1.622v4.865h1.621v-4.865z" fill="#DFEEFF"/>
    <path d="M4.865 20.865H0v1.622h4.865v-1.622zM58.379 26.54h-1.622v4.865h1.622v-4.864z" fill="#DFEEFF"/>
    <path d="M60 28.162h-4.865v1.622H60v-1.622zM11.351 37.892H9.73v4.865h1.621v-4.865z" fill="#DFEEFF"/>
    <path d="M12.973 39.514H8.108v1.621h4.865v-1.621z" fill="#DFEEFF"/>
    <path d="M22.946 15.27h-1.378v1.379h1.378V15.27zM28.622 15.27h-1.379v1.379h1.379V15.27zM25.784 15.27h-1.379v1.379h1.379V15.27z"
          fill="#4C739E"/>
</svg>