<svg width="60" height="60" fill="none" xmlns="http://www.w3.org/2000/svg">
    <path d="M41.294 55.118c9.795 0 17.735-7.94 17.735-17.736 0-9.795-7.94-17.735-17.735-17.735-9.795 0-17.735 7.94-17.735 17.735 0 9.795 7.94 17.736 17.735 17.736z"
          fill="#F4F8FF"/>
    <path d="m8.824 34.382 21.705-21.617 11.824.97 6.882 5.912-3 14.735-20.647 18.706L8.824 34.382z" fill="#fff"/>
    <path d="m23.382 14.97 4.853-4.852a2.41 2.41 0 0 1 1.677-.706l14.382.353c.618 0 1.147.264 1.588.706l.794.794"
          fill="#fff"/>
    <path d="m24 15.588-1.235-1.235L27.618 9.5A3.41 3.41 0 0 1 30 8.53l14.382.352c.795 0 1.589.353 2.206.971l.794.794-1.235 1.235-.794-.794c-.265-.264-.618-.44-.97-.44L30 10.293c-.441 0-.794.177-1.059.441l-4.94 4.853z"
          fill="#4C739E"/>
    <path d="M18.706 51.059 5.294 37.647c-1.323-1.323-1.323-3.353 0-4.676l14.824-14.824" fill="#fff"/>
    <path d="M18.088 51.676 4.676 38.265c-1.588-1.589-1.588-4.236 0-5.912L19.5 17.529l1.235 1.236L5.912 33.588c-.97.97-.97 2.47 0 3.441l13.412 13.412-1.236 1.235z"
          fill="#4C739E"/>
    <path d="m50.559 15.059.97.97c.442.442.706.971.706 1.589l.265 14.47a2.41 2.41 0 0 1-.706 1.677L28.941 56.618c-1.323 1.323-3.353 1.323-4.676 0L21 53.353"
          fill="#fff"/>
    <path d="M26.559 58.47c-1.059 0-2.118-.44-2.912-1.235l-3.265-3.264 1.236-1.236L24.882 56c.971.97 2.47.97 3.441 0l22.853-22.853c.265-.265.442-.706.442-1.059l-.265-14.47c0-.353-.177-.706-.441-.97l-.97-.971 1.234-1.236.971.97c.618.618.97 1.412.97 2.207l.265 14.47c0 .883-.352 1.765-.97 2.383L29.559 57.324c-.794.794-1.941 1.147-3 1.147z"
          fill="#4C739E"/>
    <path d="M51.706 27.412v-1.765a6.515 6.515 0 0 0 6.53-6.53 6.515 6.515 0 0 0-6.53-6.529 6.515 6.515 0 0 0-6.53 6.53h-1.764a8.284 8.284 0 0 1 8.294-8.294A8.285 8.285 0 0 1 60 19.117c0 4.588-3.794 8.294-8.294 8.294z"
          fill="#4C739E"/>
    <path d="m43.059 22.294-3.883-3.882c-.617-.618-.617-1.677 0-2.383l1.06-1.058c.617-.618 1.676-.618 2.382 0l3.882 3.882c.618.618.618 1.676 0 2.382l-1.059 1.06c-.706.705-1.765.705-2.382 0z"
          fill="#fff"/>
    <path d="M44.206 23.706c-.706 0-1.324-.265-1.765-.706l-3.882-3.882c-.97-.97-.97-2.647 0-3.618l1.059-1.059c.97-.97 2.647-.97 3.617 0l3.883 3.882c.44.442.706 1.148.706 1.765 0 .618-.265 1.324-.706 1.765l-1.06 1.059c-.529.53-1.146.794-1.852.794zm-2.824-8.383c-.176 0-.44.089-.529.265l-1.059 1.06c-.265.264-.265.793 0 1.146l3.883 3.883c.264.264.794.264 1.147 0l1.058-1.06c.265-.264.265-.794 0-1.146L42 15.588a.801.801 0 0 0-.618-.264z"
          fill="#4C739E"/>
    <path d="m22.853 22.559 3 1.059c.353.088.706.088 1.059-.089l2.823-1.411c.618-.265 1.412-.089 1.765.53l1.677 2.734c.176.265.44.53.794.618l3.088.794c.706.177 1.147.794.97 1.5l-.529 3.177a.996.996 0 0 0 .265.97L39.618 35c.441.53.353 1.324-.177 1.765l-2.382 2.117c-.265.265-.441.53-.441.883l-.265 3.176c-.088.706-.618 1.235-1.324 1.235l-3.176.089c-.353 0-.706.176-.97.44L28.677 47c-.442.53-1.236.53-1.765.088l-2.47-2.03a.996.996 0 0 0-.971-.264l-3.177.353c-.706.088-1.323-.441-1.412-1.059L18.265 41c-.088-.353-.265-.618-.53-.882l-2.647-1.765c-.53-.353-.794-1.147-.44-1.765l1.5-2.823c.176-.353.176-.706.087-.97l-.882-3.09c-.176-.705.177-1.41.794-1.587l3-1.147a.957.957 0 0 0 .706-.706l1.324-2.912c.352-.706 1.058-.97 1.676-.794z"
          fill="#A3D4FF"/>
    <path d="M27.794 48.235c-.53 0-.97-.176-1.412-.53l-2.47-2.029c-.088-.088-.177-.088-.353-.088l-3.177.353c-1.147.088-2.206-.617-2.382-1.765l-.618-3.088c0-.088-.088-.264-.176-.264l-2.647-1.765c-.97-.618-1.235-1.941-.706-2.912l1.5-2.823a.269.269 0 0 0 0-.353l-.882-3.089c-.353-1.147.264-2.294 1.323-2.647l3-1.147c.088-.088.177-.088.265-.264l1.323-2.912c.442-1.059 1.677-1.588 2.736-1.147l3 1.059h.353l2.823-1.412c1.059-.53 2.294-.088 2.912.882l1.676 2.735c.089.089.177.177.265.177l3.088.794a2.166 2.166 0 0 1 1.677 2.47l-.53 3.177c0 .088 0 .265.089.353l1.853 2.559c.706.97.529 2.206-.353 3l-2.383 2.117c-.088.089-.176.177-.176.353l-.265 3.177a2.211 2.211 0 0 1-2.206 2.03l-3.176.088c-.088 0-.265.088-.353.176l-2.206 2.294c-.265.265-.882.441-1.412.441zm-4.235-4.323c.53 0 .97.176 1.412.53l2.47 2.029a.426.426 0 0 0 .618 0l2.206-2.294c.44-.442.97-.618 1.588-.706l3.176-.089c.265 0 .442-.176.442-.44l.264-3.177c.089-.618.353-1.147.794-1.5l2.383-2.118A.544.544 0 0 0 39 35.53l-1.853-2.558c-.353-.442-.441-1.06-.353-1.677l.53-3.176c0-.265-.089-.441-.353-.53l-3.089-.794c-.529-.176-1.058-.53-1.323-.97l-1.677-2.736c-.088-.176-.353-.264-.617-.176l-2.824 1.412c-.53.264-1.147.264-1.676.088l-3-1.059c-.265-.088-.441 0-.53.265l-1.323 2.911c-.265.53-.706.971-1.235 1.148l-3 1.147c-.265.088-.353.352-.265.529l.882 3.088c.177.53.088 1.147-.176 1.677l-1.5 2.823a.465.465 0 0 0 .176.618l2.647 1.765c.441.352.794.794.97 1.411l.618 3.089c.089.264.265.352.53.352l3.176-.352c-.264.088-.176.088-.176.088z"
          fill="#4C739E"/>
    <path d="m31.363 27.662-9.843 12.8 1.399 1.076 9.843-12.8-1.399-1.076zM13.765 13.823h-1.941v1.765h1.94v-1.764zM9.794 13.823H7.853v1.765h1.941v-1.764zM30.53 13.823H16.764v1.765h13.764v-1.764zM5.912 50.265H3.97v1.764h1.94v-1.764zM1.941 50.265H0v1.764h1.941v-1.764zM22.588 50.265H8.824v1.764h13.764v-1.764z"
          fill="#4C739E"/>
    <path d="M24.706 32.441H23.47a.884.884 0 0 1-.883-.882v-2.206c0-.441.353-.882.883-.882h1.235c.441 0 .882.353.882.882v2.206a.884.884 0 0 1-.882.882z"
          fill="#fff"/>
    <path d="M24.706 33.324H23.47a1.77 1.77 0 0 1-1.765-1.765v-2.206c0-.97.794-1.765 1.765-1.765h1.235c.97 0 1.765.794 1.765 1.765v2.206a1.77 1.77 0 0 1-1.765 1.765zm0-3.971H23.47v2.206h1.147v-2.206h.088z"
          fill="#4C739E"/>
    <path d="M30.706 40.382H29.47a.884.884 0 0 1-.883-.882v-2.206c0-.441.353-.882.883-.882h1.235c.441 0 .882.353.882.882V39.5c0 .53-.353.882-.882.882z"
          fill="#fff"/>
    <path d="M30.706 41.265H29.47a1.77 1.77 0 0 1-1.765-1.765v-2.206c0-.97.794-1.765 1.765-1.765h1.235c.97 0 1.765.795 1.765 1.765V39.5a1.77 1.77 0 0 1-1.765 1.765zm0-3.97H29.47V39.5h1.147v-2.206h.088z"
          fill="#4C739E"/>
    <path d="M39.353 2H18.706v1.765h20.647V2zM16.676 2h-1.94v1.765h1.94V2zM7.853 23.706H0v1.765h7.853v-1.765z"
          fill="#DFEEFF"/>
</svg>