<svg width="60" height="60" fill="none" xmlns="http://www.w3.org/2000/svg">
    <path d="M30.21 50.745c11.337 0 20.527-9.24 20.527-20.64 0-11.398-9.19-20.638-20.527-20.638-11.336 0-20.526 9.24-20.526 20.639 0 11.398 9.19 20.639 20.526 20.639z"
          fill="#F4F8FF"/>
    <path d="M53.053 17.934H7.263v24.344h45.79V17.934z" fill="#fff"/>
    <path fill-rule="evenodd" clip-rule="evenodd"
          d="M6.21 16.876h47.895v26.46H6.211v-26.46zm2.106 2.117v22.226H52V18.993H8.316z" fill="#4C739E"/>
    <path d="M46.21 37.938h-32c0-1.482-1.157-2.646-2.631-2.646V24.814c1.474 0 2.631-1.164 2.631-2.646h32c0 1.482 1.158 2.646 2.632 2.646v10.478c-1.474 0-2.631 1.27-2.631 2.646z"
          fill="#A3D4FF"/>
    <path fill-rule="evenodd" clip-rule="evenodd"
          d="M13.158 21.11h34.105v1.058c0 .897.687 1.588 1.58 1.588h1.052V36.35h-1.053c-.865 0-1.579.77-1.579 1.588v1.058H13.158v-1.058c0-.897-.687-1.588-1.58-1.588h-1.052V23.755h1.053c.892 0 1.579-.69 1.579-1.587V21.11zm1.956 2.116a3.654 3.654 0 0 1-2.482 2.497v8.66a3.654 3.654 0 0 1 2.482 2.497H45.32c.357-1.155 1.276-2.123 2.47-2.49v-8.667a3.654 3.654 0 0 1-2.482-2.497H15.114z"
          fill="#4C739E"/>
    <path fill-rule="evenodd" clip-rule="evenodd"
          d="M22 31.164h-2.632v-2.117H22v2.117zM40.947 31.164h-2.526v-2.117h2.526v2.117z" fill="#4C739E"/>
    <path d="M25.369 30.106c0-2.434 2.105-5.186 4.736-5.186 2.632 0 4.737 2.857 4.737 5.186 0 2.328-2.105 5.186-4.737 5.186-2.526 0-4.736-2.752-4.736-5.186z"
          fill="#fff"/>
    <path fill-rule="evenodd" clip-rule="evenodd"
          d="M27.546 27.293c-.713.827-1.125 1.884-1.125 2.813 0 .915.428 1.971 1.159 2.807.73.835 1.648 1.32 2.525 1.32.924 0 1.838-.505 2.556-1.349.721-.848 1.129-1.908 1.129-2.778 0-.87-.408-1.93-1.13-2.779-.717-.843-1.63-1.349-2.555-1.349-.937 0-1.85.493-2.56 1.315zm-1.591-1.386c1.001-1.162 2.456-2.046 4.15-2.046 1.708 0 3.163.923 4.156 2.09.988 1.163 1.634 2.696 1.634 4.155 0 1.458-.646 2.991-1.634 4.154-.993 1.168-2.448 2.09-4.156 2.09-1.648 0-3.1-.89-4.106-2.039-1.005-1.149-1.683-2.686-1.683-4.205 0-1.506.64-3.042 1.639-4.2z"
          fill="#4C739E"/>
    <path fill-rule="evenodd" clip-rule="evenodd"
          d="M52.196 8.409H40V6.292h13.068L60 13.262v35.895c0 4.395-3.524 7.938-7.895 7.938H32.632v.953c0 .88-.523 1.555-1.236 1.824a2.083 2.083 0 0 1-2.07-.376l-.037-.03-6.567-6.604 6.534-6.57c.598-.601 1.44-.68 2.087-.446.68.246 1.289.892 1.289 1.83v.952h5.263v2.117h-7.369v-2.737L25.7 52.862l4.827 4.853v-2.737h21.58c3.207 0 5.789-2.595 5.789-5.82V14.138l-5.7-5.73zm-21.5 49.475z"
          fill="#4C739E"/>
    <path fill-rule="evenodd" clip-rule="evenodd"
          d="M42.105 50.745H40v-2.117h2.105v2.117zM46.316 50.745H44.21v-2.117h2.105v2.117zM29.304 2.116zm.17.169L34.3 7.138l-4.827 4.854V9.255h-7.369v2.117h5.264v.953c0 .937.608 1.583 1.288 1.829.646.234 1.49.155 2.087-.446l6.534-6.57L30.711.535l-.037-.03a2.083 2.083 0 0 0-2.07-.377c-.713.269-1.235.945-1.235 1.824v.953H7.895C3.524 2.905 0 6.448 0 10.843v35.895l6.932 6.97H20v-2.116H7.804L2.105 45.86V10.843c0-3.226 2.582-5.821 5.79-5.821h21.579V2.285z"
          fill="#4C739E"/>
    <path fill-rule="evenodd" clip-rule="evenodd"
          d="M17.895 9.255H20v2.117h-2.105V9.255zM13.684 9.255h2.106v2.117h-2.106V9.255z" fill="#4C739E"/>
</svg>