<svg width="66" height="60" viewBox="0 0 66 60" fill="none" xmlns="http://www.w3.org/2000/svg">
<path d="M30.1756 60C46.8036 60 60.2832 46.5685 60.2832 30C60.2832 13.4315 46.8036 0 30.1756 0C13.5477 0 0.0681152 13.4315 0.0681152 30C0.0681152 46.5685 13.5477 60 30.1756 60Z" fill="#F4F8FF"/>
<path d="M63.813 10.3448H61.7366V16.5517H63.813V10.3448Z" fill="#DFEEFF"/>
<path d="M65.8894 12.4138H59.6603V14.4828H65.8894V12.4138Z" fill="#DFEEFF"/>
<path d="M4.77459 50.2414H2.69821V56.4483H4.77459V50.2414Z" fill="#DFEEFF"/>
<path d="M6.85097 52.3104H0.621826V54.3793H6.85097V52.3104Z" fill="#DFEEFF"/>
<path d="M48.2402 3.10345H11.9035C9.61951 3.10345 7.75076 4.96552 7.75076 7.24139V26.8966C7.75076 29.1724 9.61951 31.0345 11.9035 31.0345H48.2402C50.5242 31.0345 52.393 29.1724 52.393 26.8966V7.24139C52.393 4.96552 50.5242 3.10345 48.2402 3.10345Z" fill="white"/>
<path d="M15.0181 32.069H11.9035C8.99657 32.069 6.71255 29.7931 6.71255 26.8966V7.24138C6.71255 4.34483 8.99657 2.06897 11.9035 2.06897H48.2402C51.1471 2.06897 53.4311 4.34483 53.4311 7.24138V21.7241H51.3548V7.24138C51.3548 5.48276 50.0051 4.13794 48.2402 4.13794H11.9035C10.1386 4.13794 8.78894 5.48276 8.78894 7.24138V26.8966C8.78894 28.6552 10.1386 30 11.9035 30H15.0181V32.069Z" fill="#4C739E"/>
<path d="M52.393 7.24139H7.75076V9.31036H52.393V7.24139Z" fill="#4C739E"/>
<path d="M52.393 13.4483H7.75076V15.5173H52.393V13.4483Z" fill="#4C739E"/>
<path d="M21.2472 23.7931C18.9632 23.7931 17.0945 25.6552 17.0945 27.931V49.6552C17.0945 51.931 18.9632 53.7931 21.2472 53.7931H57.5839C59.8679 53.7931 61.7367 51.931 61.7367 49.6552V27.931C61.7367 25.6552 59.8679 23.7931 57.5839 23.7931H21.2472Z" fill="#A3D4FF"/>
<path d="M57.5839 54.8276H21.2472C18.3403 54.8276 16.0563 52.5517 16.0563 49.6552V27.931C16.0563 25.0345 18.3403 22.7586 21.2472 22.7586H57.5839C60.4908 22.7586 62.7749 25.0345 62.7749 27.931V49.6552C62.7749 52.5517 60.4908 54.8276 57.5839 54.8276ZM21.2472 24.8276C19.4823 24.8276 18.1327 26.1724 18.1327 27.931V49.6552C18.1327 51.4138 19.4823 52.7586 21.2472 52.7586H57.5839C59.3488 52.7586 60.6985 51.4138 60.6985 49.6552V27.931C60.6985 26.1724 59.3488 24.8276 57.5839 24.8276H21.2472Z" fill="#4C739E"/>
<path d="M29.5527 45.5172H23.3236V47.5862H29.5527V45.5172Z" fill="#4C739E"/>
<path d="M37.8583 45.5172H32.6673V47.5862H37.8583V45.5172Z" fill="#4C739E"/>
<path d="M47.202 45.5172H40.9728V47.5862H47.202V45.5172Z" fill="#4C739E"/>
<path d="M56.5457 45.5172H50.3166V47.5862H56.5457V45.5172Z" fill="#4C739E"/>
<path d="M56.5457 33.6207C56.5457 35.5862 54.8846 37.2414 52.9121 37.2414H51.8739C49.9013 37.2414 48.2402 35.5862 48.2402 33.6207C48.2402 31.6552 49.9013 30 51.8739 30H52.9121C54.8846 30 56.5457 31.6552 56.5457 33.6207Z" fill="white"/>
<path d="M52.912 38.2759H51.8738C49.2783 38.2759 47.202 36.2069 47.202 33.6207C47.202 31.0345 49.2783 28.9655 51.8738 28.9655H52.912C55.5075 28.9655 57.5839 31.0345 57.5839 33.6207C57.5839 36.2069 55.5075 38.2759 52.912 38.2759ZM51.8738 31.0345C50.4204 31.0345 49.2783 32.1724 49.2783 33.6207C49.2783 35.069 50.4204 36.2069 51.8738 36.2069H52.912C54.3655 36.2069 55.5075 35.069 55.5075 33.6207C55.5075 32.1724 54.3655 31.0345 52.912 31.0345H51.8738Z" fill="#4C739E"/>
<path d="M20.209 17.5862H10.8653V19.6551H20.209V17.5862Z" fill="#4C739E"/>
<path d="M31.6291 17.5862H22.2854V19.6551H31.6291V17.5862Z" fill="#4C739E"/>
</svg>
