<svg width="61" height="60" fill="none" xmlns="http://www.w3.org/2000/svg">
    <path d="M24.983 54.497c11.044 0 19.997-8.953 19.997-19.997s-8.953-19.997-19.997-19.997S4.986 23.456 4.986 34.5s8.953 19.997 19.997 19.997z"
          fill="#F4F8FF"/>
    <path d="m23.317 21.168.833-2.5 1.666 1.667 8.332-1.666s-3.332-5-10.831-3.333c-7.5 1.666-9.166 8.332-9.166 8.332l9.166-2.5z"
          fill="#A3D4FF"/>
    <path fill-rule="evenodd" clip-rule="evenodd"
          d="m34.841 18.206-.693.463.694-.463.69 1.036-9.99 1.998-1.028-1.029-.548 1.644-10.968 2.991.345-1.38.808.202-.808-.203v-.001l.001-.002.002-.007.005-.021.02-.07a10.875 10.875 0 0 1 .39-1.086c.292-.697.764-1.64 1.485-2.639 1.448-2.005 3.902-4.23 7.89-5.117 3.97-.882 6.893-.003 8.831 1.137.961.565 1.67 1.188 2.142 1.674a8.145 8.145 0 0 1 .675.791l.039.055.012.017.004.006.002.004zm-19.323 4.226 7.15-1.95 1.118-3.356 2.304 2.305 6.456-1.291a8.68 8.68 0 0 0-1.424-1.044c-1.602-.943-4.096-1.73-7.625-.947-3.51.78-5.64 2.72-6.9 4.466a11.857 11.857 0 0 0-1.08 1.817z"
          fill="#4C739E"/>
    <path d="M23.15 11.003 25.4 9.67l.166 2.333 9 5.083s.832-5.916-5.917-9.666c-6.749-3.666-12.415.167-12.415.167l6.916 3.416z"
          fill="#A3D4FF"/>
    <path fill-rule="evenodd" clip-rule="evenodd"
          d="M19.73 5.315c2.415-.534 5.731-.575 9.317 1.373l.007.004c3.57 1.983 5.18 4.575 5.876 6.709.345 1.058.462 1.99.492 2.665a8.01 8.01 0 0 1-.02 1.036l-.008.067-.002.02-.001.008v.003c0 .001 0 .002-.826-.114l.825.116-.17 1.21-10.453-5.903-.102-1.435-1.479.876-8.605-4.25 1.187-.803.466.69-.466-.69.001-.001.002-.002.006-.004.018-.011.06-.04c.052-.031.124-.076.218-.13.186-.108.454-.255.795-.416a13.56 13.56 0 0 1 2.863-.978zm-1.642 2.258a12.003 12.003 0 0 1 2.003-.63c2.105-.466 4.995-.509 8.157 1.208 3.176 1.765 4.524 4.006 5.098 5.766a8.56 8.56 0 0 1 .374 1.734l-7.354-4.154-.231-3.231-3.021 1.79-5.026-2.483z"
          fill="#4C739E"/>
    <path d="m46.813 15.253-1.916-1.834-.75 2.25-9.998 2.666s.666-5.999 8.165-7.915c7.416-1.917 11.915 3.25 11.915 3.25l-7.416 1.583z"
          fill="#A3D4FF"/>
    <path fill-rule="evenodd" clip-rule="evenodd"
          d="M50.672 12.068c-1.909-.98-4.678-1.739-8.15-.841h-.002c-3.53.902-5.399 2.743-6.397 4.316a8.602 8.602 0 0 0-.805 1.618l8.18-2.181 1.024-3.072 2.549 2.438 5.387-1.15a11.812 11.812 0 0 0-1.786-1.128zm3.557 1.601.628-.548-.003-.002-.004-.005-.015-.017a7.062 7.062 0 0 0-.225-.236 10.824 10.824 0 0 0-.662-.605 13.388 13.388 0 0 0-2.516-1.671c-2.194-1.125-5.382-1.99-9.325-.972-3.969 1.014-6.182 3.131-7.391 5.037-.6.944-.946 1.826-1.144 2.476a8.107 8.107 0 0 0-.238 1.017l-.01.067-.002.021-.001.007v.004l.828.093-.829-.092-.134 1.212 11.61-3.096.476-1.428 1.284 1.229 9.23-1.971-.929-1.067-.628.547z"
          fill="#4C739E"/>
    <path d="m33.565 20.585 3.166-.25s5 7.5 6.666 19.164c1.667 11.665 1.667 14.998 1.667 14.998H32.565s4.166-1.666 4.166-12.498c-.083-11.665-3.166-21.414-3.166-21.414z"
          fill="#fff"/>
    <path fill-rule="evenodd" clip-rule="evenodd"
          d="m37.425 19.873-.694.462.694-.462.002.003.004.005.012.02a11.423 11.423 0 0 1 .217.343c.145.237.353.585.606 1.039a45.441 45.441 0 0 1 1.937 3.926 55.018 55.018 0 0 1 4.02 14.172c.834 5.843 1.252 9.607 1.462 11.916.105 1.155.158 1.946.185 2.453a22.847 22.847 0 0 1 .026.694V54.496l-.832.001h.833v.833H28.239l4.005-1.602.004-.002c.012-.005.037-.018.075-.04.076-.045.201-.126.36-.259.316-.263.775-.736 1.247-1.54.946-1.607 1.968-4.574 1.968-9.885-.041-5.764-.824-11.06-1.598-14.92a77.725 77.725 0 0 0-1.057-4.578 52.226 52.226 0 0 0-.465-1.644l-.006-.019v-.004l-.317-1 4.699-.371.27.407zm-2.773 1.462c.06.215.128.463.202.742.294 1.11.686 2.71 1.08 4.677.788 3.93 1.589 9.338 1.63 15.239v.006c0 5.518-1.06 8.8-2.197 10.733-.21.356-.42.664-.627.932h9.456a67.915 67.915 0 0 0-.17-2.216c-.207-2.274-.622-6.009-1.454-11.831a53.349 53.349 0 0 0-3.896-13.74 43.759 43.759 0 0 0-1.865-3.781c-.21-.377-.386-.675-.517-.89l-1.642.13z"
          fill="#4C739E"/>
    <path fill-rule="evenodd" clip-rule="evenodd"
          d="M38.315 25.334h-3.333v-1.666h3.333v1.666zM41.647 32.667h-5.666V31h5.666v1.667zM43.23 40.332h-6.582v-1.666h6.582v1.666zM44.23 47.748h-7.915v-1.666h7.916v1.666z"
          fill="#4C739E"/>
    <path d="M31.649 25.334a3.333 3.333 0 1 0 0-6.665 3.333 3.333 0 0 0 0 6.665z" fill="#fff"/>
    <path fill-rule="evenodd" clip-rule="evenodd"
          d="M31.649 19.502a2.5 2.5 0 1 0 0 5 2.5 2.5 0 0 0 0-5zm-4.166 2.5a4.166 4.166 0 1 1 8.332 0 4.166 4.166 0 0 1-8.332 0z"
          fill="#4C739E"/>
    <path d="M36.648 22.002a4.166 4.166 0 1 0 0-8.333 4.166 4.166 0 0 0 0 8.333z" fill="#fff"/>
    <path fill-rule="evenodd" clip-rule="evenodd"
          d="M36.648 14.503a3.333 3.333 0 1 0 0 6.665 3.333 3.333 0 0 0 0-6.665zm-5 3.332a5 5 0 1 1 10 0 5 5 0 0 1-10 0z"
          fill="#4C739E"/>
    <path d="M13.318 54.497s12.498-10.832 26.663-10.832c14.165 0 19.164 10.832 19.164 10.832H13.318z" fill="#fff"/>
    <path fill-rule="evenodd" clip-rule="evenodd"
          d="m13.318 54.497-.546-.63-1.688 1.463h49.363l-.546-1.182-.756.349.756-.35v-.001l-.002-.003-.004-.01-.014-.03a10.909 10.909 0 0 0-.25-.477 16.98 16.98 0 0 0-.8-1.29 21.417 21.417 0 0 0-3.4-3.875c-3.15-2.824-8.133-5.629-15.45-5.629-7.282 0-14.093 2.78-19.047 5.52a57.11 57.11 0 0 0-5.933 3.78c-.707.515-1.261.946-1.64 1.25a28.247 28.247 0 0 0-.547.45l-.03.025-.008.007-.002.002-.002.001.546.63zm2.412-.833H57.71a19.749 19.749 0 0 0-3.393-3.962c-2.89-2.593-7.49-5.204-14.337-5.204-6.882 0-13.404 2.637-18.24 5.312a55.435 55.435 0 0 0-6.011 3.854zM23.227 39.922c-.58-.58-1.458-.645-2.003-.249l-.017.012-1.924 1.255c-1.165.807-2.627.655-3.693-.092l-.017-.012-.786-.61-.018-.017c-.38-.332-1.008-.417-1.578-.131L9.525 41.91l-.746-1.49 3.666-1.834c1.089-.544 2.45-.467 3.402.351l.714.556c.593.407 1.283.419 1.779.072l.01-.007 1.912-1.247c1.287-.92 3.062-.65 4.144.431l1.916 1.917-1.178 1.178-1.917-1.916zM14.895 45.754c-.58-.58-1.458-.645-2.003-.248l-.018.012-1.923 1.255c-1.165.807-2.627.654-3.693-.092l-.017-.012-.786-.611-.018-.016c-.38-.332-1.008-.417-1.578-.132l-3.667 1.833-.745-1.49 3.666-1.833c1.089-.544 2.45-.467 3.402.35l.714.556c.593.407 1.283.42 1.778.073l.011-.008 1.912-1.247c1.287-.92 3.062-.65 4.144.432l1.916 1.916-1.178 1.178-1.917-1.916z"
          fill="#4C739E"/>
</svg>