<svg width="60" height="60" fill="none" xmlns="http://www.w3.org/2000/svg">
    <path d="M30.046 48c9.956 0 18.027-8.059 18.027-18s-8.07-18-18.027-18c-9.956 0-18.028 8.059-18.028 18s8.072 18 18.028 18z"
          fill="#fff"/>
    <path d="M29.952 48.846C19.505 48.846 11 40.354 11 29.923 11 19.493 19.505 11 29.952 11c10.447 0 18.952 8.492 18.952 18.923 0 10.43-8.505 18.923-18.952 18.923zm0-36c-9.43 0-17.103 7.662-17.103 17.077C12.849 39.34 20.522 47 29.952 47c9.43 0 17.103-7.661 17.103-17.077 0-9.415-7.673-17.077-17.103-17.077z"
          fill="#4C739E"/>
    <path d="M11.833 46.339C7.766 41.815 5.547 36.092 5.547 30c0-7.2 3.143-14.03 8.69-18.646l1.202 1.385C10.354 17.076 7.396 23.354 7.396 30a22.625 22.625 0 0 0 5.732 15.046l-1.295 1.293z"
          fill="#DFEEFF"/>
    <path d="M28.104 60C12.388 58.985 0 45.877 0 30.092c0-1.292.092-2.584.277-3.784l1.85.277c-.186 1.2-.186 2.4-.186 3.6 0 14.769 11.557 27.138 26.348 28.061L28.104 60zM41.417 57.785l-.74-1.662C51.31 51.785 58.15 41.54 58.15 30.093c0-4.8-1.202-9.508-3.513-13.662l1.572-.923c2.496 4.43 3.79 9.507 3.79 14.584.093 12.185-7.21 23.077-18.582 27.693zM6.01 15.23l-1.572-1.015C9.984 5.262 19.507 0 30.046 0a29.939 29.939 0 0 1 17.38 5.538l-1.11 1.477C41.51 3.6 35.87 1.846 29.954 1.846c-9.8 0-18.767 4.985-23.944 13.385z"
          fill="#DFEEFF"/>
    <path fill-rule="evenodd" clip-rule="evenodd"
          d="M37.92 24.286 35.644 22 30 27.674 24.355 22l-2.274 2.286 5.645 5.673L22 35.714 24.274 38 30 32.245 35.726 38 38 35.714l-5.726-5.755 5.645-5.673z"
          fill="#A3D4FF"/>
    <path fill-rule="evenodd" clip-rule="evenodd"
          d="m35.645 19.59 4.672 4.696-5.645 5.673 5.726 5.755-4.672 4.696L30 34.655l-5.726 5.755-4.672-4.696 5.726-5.755-5.645-5.673 4.672-4.696L30 25.263l5.645-5.673zM30 27.674 24.355 22l-2.274 2.286 5.645 5.673L22 35.714 24.274 38 30 32.245 35.726 38 38 35.714l-5.726-5.755 5.645-5.673L35.645 22 30 27.674z"
          fill="#4C739E"/>
</svg>