<svg width="120" height="120" fill="none" xmlns="http://www.w3.org/2000/svg">
    <path d="M62.16 113.16c29.16 0 52.799-23.64 52.799-52.8 0-29.161-23.639-52.8-52.8-52.8-29.16 0-52.8 23.639-52.8 52.8 0 29.16 23.64 52.8 52.8 52.8z"
          fill="#F4F8FF"/>
    <path d="M84.118 45.24l-.36-.48c-2.16-2.28-2.4-5.52-.48-7.2l7.8-7.44c2.88-2.64 6.84-3.12 9-.84l.36.48c2.16 2.28 1.56 6.24-1.32 9l-7.8 7.44c-1.8 1.68-5.04 1.2-7.2-.96z"
          fill="#fff"/>
    <path d="M88.44 49.08h-.84a7.859 7.859 0 01-4.8-2.52l-.36-.48c-1.32-1.44-2.16-3.12-2.28-4.92-.12-1.92.48-3.72 1.8-4.92l7.8-7.44c3.6-3.36 8.88-3.72 11.64-.72l.36.48c2.88 3 2.28 8.16-1.32 11.64l-7.8 7.44c-1.08.84-2.64 1.44-4.2 1.44zm7.92-19.32c-1.32 0-2.88.6-4.08 1.8L84.48 39c-.6.6-.72 1.44-.6 1.92.12.96.48 1.92 1.2 2.64l.36.48c.72.72 1.68 1.2 2.52 1.32.48 0 1.32.12 1.92-.6l7.8-7.44c2.04-1.92 2.64-4.8 1.2-6.24l-.36-.48c-.36-.6-1.2-.84-2.16-.84z"
          fill="#4C739E"/>
    <path d="M44.402 54.96l-10.2-3.72-13.44 42.96c.84.6 1.56 1.2 2.28 1.92 2.52 2.28 5.04 4.919 7.08 7.679l13.08 1.92c2.88-3.12 5.04-5.16 7.56-7.56 19.32 1.44 28.2-12.84 30.12-15.12 1.92-2.28-36.48-28.08-36.48-28.08z"
          fill="#fff"/>
    <path d="M43.92 107.64l-14.88-2.16-.48-.6c-1.92-2.64-4.2-5.04-6.72-7.44l-2.16-1.8-1.2-.84L33 48.72l12.36 4.68c.24.12 9.24 6.12 18.24 12.6 18.84 13.44 19.08 15.24 19.2 16.44.12.6-.12 1.32-.48 1.8-.12.24-.36.48-.6.84-3 3.96-12.24 15.96-30.24 15-2.28 2.16-4.32 4.08-6.84 6.84l-.72.72zM31.08 102l11.4 1.68c2.52-2.64 4.44-4.56 6.72-6.72l.84-.84.84.12c16.56 1.2 25.08-9.84 27.84-13.44-3-3.48-19.68-15.6-35.16-26.04l-8.04-3-12.6 39.72c.48.36.96.72 1.32 1.2 2.64 2.28 4.92 4.8 6.84 7.32z"
          fill="#4C739E"/>
    <path d="M84.722 84.96h-37.68c-3.12 0-5.64-2.52-5.64-5.64V7.68c0-3.12 2.52-5.64 5.64-5.64h37.68c3.12 0 5.64 2.52 5.64 5.64v71.64c0 3-2.52 5.64-5.64 5.64z"
          fill="#DFEEFF"/>
    <path d="M84.72 86.76H47.04c-4.2 0-7.56-3.36-7.56-7.56V7.56c0-4.2 3.36-7.56 7.56-7.56h37.68c4.2 0 7.56 3.36 7.56 7.56V79.2c0 4.2-3.36 7.56-7.56 7.56zM47.04 3.72c-2.04 0-3.72 1.68-3.72 3.72V79.2c0 2.04 1.68 3.72 3.72 3.72h37.68c2.04 0 3.72-1.68 3.72-3.72V7.56c0-2.04-1.68-3.72-3.72-3.72H47.04v-.12z"
          fill="#4C739E"/>
    <path d="M90.482 11.28h-49.08v58.44h49.08V11.28z" fill="#fff"/>
    <path d="M92.28 71.76h-52.8V9.48h52.8v62.28zM43.2 67.92h45.24V13.2H43.2v54.72z" fill="#4C739E"/>
    <path d="M89.281 83.28l-.36-.36c-2.16-1.8-2.88-4.44-1.8-5.76l4.92-5.64c1.8-2.04 5.04-2.28 7.08-.48l.36.36c2.16 1.8 2.4 5.04.6 7.08l-4.92 5.64c-.96 1.32-3.72.96-5.88-.84z"
          fill="#fff"/>
    <path d="M93.36 86.76c-1.68 0-3.6-.72-5.16-2.16l-.36-.36c-1.32-1.08-2.28-2.52-2.64-3.96-.48-1.68-.24-3.36.72-4.44l4.92-5.64c1.2-1.44 2.88-2.16 4.68-2.28 1.8-.12 3.6.48 5.041 1.68l.36.36c2.88 2.52 3.24 6.84.84 9.72l-4.92 5.64c-.96.96-2.16 1.44-3.48 1.44zm2.52-15.12h-.24c-.84 0-1.56.36-2.16 1.08l-4.92 5.64c-.12.12-.12.36 0 .96.24.72.84 1.56 1.56 2.16l.36.36c1.56 1.32 3.12 1.32 3.36 1.08l4.92-5.64c1.08-1.32.96-3.24-.48-4.44l-.36-.36c-.6-.6-1.32-.84-2.04-.84z"
          fill="#4C739E"/>
    <path d="M42.357 54.6c1.92-5.88 2.76-10.08 3.36-16.92.36-3.96-1.32-7.32-3.12-9.84-1.8-2.52-6.12-1.92-7.08.84-3.84 12.36-4.56 15.72-6.96 21.96-2.64 6.96-1.2 16.68-2.52 19.56-.24.6-9.24 12.12-11.76 15.72 2.64 1.32 8.16 3.84 10.44 5.76 2.64 2.4 5.16 5.04 7.32 8.04l2.04.12 12-12.36c5.28-14.64.96-27-3.72-32.88z"
          fill="#fff"/>
    <path d="M34.08 101.76l-2.88-.24-.6-.72c-1.92-2.64-4.32-5.28-7.08-7.68-1.56-1.32-5.4-3.24-8.04-4.44l-1.92-.96-1.92-.96 1.32-1.8c1.32-1.8 4.32-5.76 6.96-9.24 2.04-2.64 4.2-5.52 4.68-6.24.36-.84.36-3.24.48-5.64.12-4.2.24-9.36 1.92-13.8 1.56-3.96 2.4-6.72 3.84-11.64.84-2.64 1.8-5.88 3.12-10.32.6-1.92 2.4-3.36 4.56-3.72 2.28-.36 4.56.48 5.88 2.28 2.64 3.6 3.72 7.44 3.36 11.16-.6 6.84-1.44 11.04-3.24 16.44 4.92 6.84 8.52 19.32 3.48 33.84l-3.6-1.2c4.8-13.68 1.08-25.32-3.48-31.08l-.6-.84.36-.96c1.8-5.64 2.64-9.6 3.36-16.56.24-2.76-.6-5.64-2.76-8.52-.48-.72-1.56-.84-2.16-.72-.6.12-1.32.48-1.56 1.08-1.32 4.32-2.28 7.56-3.12 10.2-1.44 4.8-2.28 7.8-3.96 11.88-1.56 3.84-1.68 8.64-1.68 12.6-.12 3.12-.12 5.64-.84 7.2-.12.36-.6.96-5.04 6.84-1.92 2.52-4.08 5.4-5.52 7.32 3.12 1.44 6.84 3.36 8.76 5.04 2.64 2.4 5.04 4.92 7.08 7.56l1.2.12-.36 3.72z"
          fill="#4C739E"/>
    <path d="M18.03 78.003L7.757 88.266l29.007 29.031 10.271-10.262L18.03 78.003z" fill="#A3D4FF"/>
    <path d="M36.72 120L5.04 88.32 18 75.36l31.68 31.68L36.72 120zM10.44 88.32l26.4 26.4 7.56-7.56L18 80.76l-7.56 7.56z"
          fill="#4C739E"/>
    <path d="M89.4 69.96l-.48-.36c-2.16-1.92-3-4.56-1.8-5.88l5.04-5.76c1.8-2.16 5.04-2.28 7.2-.48l.48.36c2.16 1.92 2.4 5.16.6 7.2L95.4 70.8c-1.08 1.44-3.84 1.08-6-.84z"
          fill="#fff"/>
    <path d="M93.479 73.56c-1.68 0-3.6-.72-5.28-2.16l-.48-.36c-3-2.64-3.84-6.36-2.04-8.52l5.04-5.76c1.2-1.44 2.88-2.28 4.8-2.4 1.8-.12 3.72.48 5.04 1.68l.48.36c1.44 1.2 2.28 2.88 2.4 4.8.12 1.92-.36 3.72-1.68 5.04L96.719 72c-.72 1.08-1.92 1.56-3.24 1.56zm2.52-15.48h-.24c-.84 0-1.68.48-2.16 1.08l-5.04 5.76c-.24.36 0 1.92 1.56 3.24l.48.36c1.56 1.32 3.12 1.44 3.36 1.08l5.04-5.76c.48-.6.84-1.44.72-2.28-.12-.84-.48-1.68-1.2-2.28l-.48-.36c-.48-.48-1.2-.84-2.04-.84z"
          fill="#4C739E"/>
    <path d="M89.4 57.12l-.48-.36c-2.16-1.92-3-4.56-1.8-5.88l5.04-5.76c1.8-2.16 5.04-2.28 7.2-.48l.48.36c2.16 1.92 2.4 5.16.6 7.2l-5.04 5.76c-1.08 1.44-3.84 1.08-6-.84z"
          fill="#fff"/>
    <path d="M93.479 60.72c-1.68 0-3.6-.72-5.28-2.16l-.48-.36c-3-2.64-3.84-6.36-2.04-8.52l5.04-5.76c2.52-2.88 6.96-3.12 9.84-.6l.48.36c1.44 1.2 2.28 2.88 2.4 4.8.12 1.92-.36 3.72-1.68 5.04l-5.04 5.76c-.72.96-1.92 1.44-3.24 1.44zm2.52-15.48c-.84 0-1.8.36-2.4 1.08l-5.04 5.76c-.24.36 0 1.92 1.56 3.24l.48.36c1.56 1.32 3.12 1.44 3.36 1.08l5.04-5.76c.48-.6.84-1.44.72-2.28-.12-.84-.48-1.68-1.2-2.28l-.48-.36c-.48-.48-1.32-.84-2.04-.84zM71.518 75.48h-11.28v3.72h11.28v-3.72zM53.64 43.32l4.8-4.68 4.2 4.08L75.6 29.64l5.4 5.4L63.12 52.8l-9.48-9.48z"
          fill="#4C739E"/>
</svg>