<svg width="61" height="61" fill="none" xmlns="http://www.w3.org/2000/svg">
    <path d="M38.263 59.432l-.501-1.911c10.818-2.918 18.831-11.973 20.434-23.14l2.003.301c-1.703 11.872-10.317 21.632-21.936 24.75zM8.713 12.448L7.211 11.14C13.822 2.99 24.44-1.235 34.857.374 41.568 1.38 47.879 4.6 52.487 9.631l-1.503 1.408C46.577 6.31 40.967 3.292 34.556 2.387 24.84.978 14.924 4.8 8.713 12.447zM25.24 60.036C12.218 57.722 2.302 47.36.7 34.18l2.003-.302C4.305 46.152 13.52 55.911 25.64 58.024l-.4 2.012z"
          fill="#DFEEFF"/>
    <path d="M37.912 12.907l-2.242 2.01 1.334 1.501 2.242-2.01-1.334-1.5zM24.188 12.864l-1.495 1.34 2.001 2.252 1.495-1.34-2-2.252zM32.893 9.919l-.809 2.907 1.93.541.808-2.907-1.93-.541zM29.008 9.918l-1.93.541.808 2.907 1.93-.54-.808-2.908z"
          fill="#4C739E"/>
    <path d="M9.414 31.261l17.228 19.217c.501.604 1.303.905 2.104.905h.601c.701 0 1.402-.301 2.003-.804l1.102-1.208-4.006-4.024 3.205 3.22c.5.502 1.202.804 2.003.804h1.102c1.002 0 2.003-.603 2.504-1.509l.2-.503-6.01-6.037 5.21 5.232c.5.503 1.201.805 2.003.805h1.402c.901 0 1.803-.503 2.304-1.207l.7-1.006c.301-.403.201-1.007-.2-1.308l-7.412-6.54 6.41 5.634c.902.805 2.305.906 3.407.201.8-.503 1.202-1.408 1.202-2.314v-3.521l-12.02-12.073-12.02-1.006-4.007-4.025L8.412 30.255l1.002 1.006z"
          fill="#fff"/>
    <path d="M29.347 52.39h-.601c-1.102 0-2.104-.503-2.805-1.208L8.713 31.966l-1.703-1.71 11.419-11.47 4.407 4.427 12.02 1.006 12.621 12.677v3.923c0 1.308-.6 2.415-1.703 3.12-.5.301-1.102.502-1.602.603 0 .402-.1.704-.3 1.006l-.702 1.006c-.701 1.208-1.903 1.811-3.205 1.811h-1.903c-.601 1.308-1.904 2.012-3.306 2.012h-1.102c-.2 0-.5 0-.701-.1l-1.002 1.006c-.7.704-1.602 1.107-2.604 1.107zM9.814 30.255l.3.302 17.23 19.217c.3.402.801.603 1.302.603h.6c.502 0 .902-.2 1.303-.503l.5-.503-3.305-3.32 1.403-1.408 3.205 3.22c.3.301.801.502 1.202.502h1.102c.6 0 1.202-.302 1.502-.805l-5.509-5.533 1.402-1.409 5.21 5.232c.3.302.8.503 1.201.503h1.402c.602 0 1.102-.302 1.503-.805l.701-1.006-.801-.704c-.1 0-.1-.1-.2-.201l-6.411-5.635 1.302-1.509 6.41 5.634c.602.503 1.503.604 2.104.101.501-.302.801-.906.801-1.51V37.6L34.055 26.231l-12.02-1.006-3.606-3.622-8.615 8.652z"
          fill="#4C739E"/>
    <path d="M2.604 27.539l1.202-1.308 12.42-12.375 4.908 4.93L7.512 32.469l-4.908-4.93z" fill="#A3D4FF"/>
    <path d="M7.51 33.877L1.1 27.438l15.025-15.091 6.41 6.439L7.51 33.877zM4.004 27.54L7.51 31.06l12.22-12.274-3.505-3.521-12.22 12.274z"
          fill="#4C739E"/>
    <path d="M15.307 18.163l-1.983 1.992 1.417 1.423 1.983-1.992-1.417-1.423z" fill="#4C739E"/>
    <path d="M46.475 38.304s6.01-4.024 7.012-7.042c1.001-3.019-11.019-12.073-11.019-12.073s-1.001 3.018-2.003 3.018c-1.002 0-7.012-3.018-8.013-3.018l-11.019 4.024s-2.003 1.006 0 3.018c2.004 2.012 5.009 1.006 5.009 1.006s3.005-1.006 5.008-1.006 3.005 1.006 4.007 2.012c1.001 1.007 9.015 10.061 10.016 10.061h1.002z"
          fill="#DFEEFF"/>
    <path d="M46.776 39.31h-1.302c-.801 0-2.003-.805-9.215-8.753-.702-.805-1.303-1.408-1.503-1.61-1.002-1.006-1.703-1.71-3.305-1.71-1.803 0-4.708.906-4.708.906-.1 0-3.606 1.207-6.01-1.208-.902-.905-1.303-1.81-1.202-2.716.2-1.207 1.302-1.811 1.402-1.912h.1l11.219-4.125h.2c.601 0 1.803.503 4.407 1.61 1.203.503 2.905 1.207 3.506 1.409.3-.302.802-1.308 1.202-2.314l.401-1.308 1.102.805c3.806 2.817 12.52 9.86 11.319 13.18-1.102 3.219-6.812 7.143-7.413 7.545l-.2.201zm-1.102-2.012h.501c1.703-1.207 5.71-4.225 6.41-6.338.401-1.208-4.006-5.735-9.615-10.162-.601 1.308-1.403 2.415-2.505 2.415-.6 0-1.803-.503-4.407-1.61-1.202-.503-2.905-1.207-3.506-1.409l-10.718 3.924c-.1.1-.3.202-.3.403 0 .1 0 .402.601 1.006 1.502 1.509 4.007.805 4.007.805.1 0 3.205-1.006 5.309-1.006 2.404 0 3.706 1.308 4.707 2.314.2.2.802.805 1.603 1.71 1.803 1.912 6.711 7.244 7.913 7.948z"
          fill="#4C739E"/>
    <path d="M23.638 49.17l1.803-1.81c.601-.605.701-1.41.3-2.114l-.1-.1c-.2-.403-.6-.805-1.101-.906l-1.102-.604c-.601-.2-1.002-.804-1.002-1.408v-.403c0-.804-.701-1.509-1.502-1.509-.802 0-1.503-.704-1.503-1.509 0-.805-.701-1.509-1.502-1.509h-.3c-.702 0-1.303-.503-1.503-1.107l-.401-1.71c-.2-.704-.801-1.107-1.503-1.107H12.42l-2.504 1.51a1.988 1.988 0 00.1 2.917l11.22 11.47c.6.603 1.702.603 2.403-.101z"
          fill="#DFEEFF"/>
    <path d="M22.436 50.68a2.73 2.73 0 01-1.903-.806L9.214 38.404c-.601-.502-.902-1.307-.902-2.112 0-.805.301-1.61.902-2.213l.2-.101 2.705-1.71h2.103c1.102 0 2.104.804 2.404 1.911l.401 1.71c.1.202.3.403.5.403h.301a2.485 2.485 0 012.505 2.515c0 .302.2.503.5.503a2.485 2.485 0 012.505 2.515v.403c0 .201.1.402.3.503l1.202.402c.701.202 1.302.805 1.703 1.409l.1.1c.601 1.107.3 2.415-.5 3.32l-1.804 1.812c-.5.603-1.202.905-1.903.905zm-11.92-15.092c-.2.2-.2.402-.2.704 0 .302.1.503.3.704l11.219 11.47c.3.302.801.302 1.102-.1l1.803-1.812c.3-.302.3-.704.2-1.006l-.1-.1c-.1-.202-.3-.403-.5-.403l-1.203-.402c-1.002-.302-1.703-1.308-1.703-2.415v-.403c0-.301-.2-.503-.5-.503a2.485 2.485 0 01-2.505-2.515c0-.302-.2-.503-.5-.503h-.301c-1.102 0-2.104-.805-2.404-1.911l-.4-1.71c-.1-.202-.301-.403-.502-.403H12.72l-2.204 1.308z"
          fill="#4C739E"/>
    <path d="M54.289 32.469l-1.302-1.207-12.321-12.476 4.908-4.93 13.623 13.683-4.908 4.93z" fill="#A3D4FF"/>
    <path d="M54.289 33.877L39.264 18.786l6.41-6.44L60.7 27.439l-6.41 6.44zm-12.22-15.091l12.22 12.274 3.506-3.521-12.22-12.274-3.507 3.521z"
          fill="#4C739E"/>
    <path d="M46.55 18.182l-1.417 1.423 1.983 1.992 1.417-1.423-1.984-1.992z" fill="#4C739E"/>
</svg>