<svg width="55" height="60" viewBox="0 0 55 60" fill="none" xmlns="http://www.w3.org/2000/svg">
<path d="M27.2632 58.7369C42.3202 58.7369 54.5263 46.5307 54.5263 31.4737C54.5263 16.4167 42.3202 4.21054 27.2632 4.21054C12.2061 4.21054 0 16.4167 0 31.4737C0 46.5307 12.2061 58.7369 27.2632 58.7369Z" fill="#F4F8FF"/>
<path d="M31.579 52.6315V48.421C31.579 48.421 35.7895 45.8947 35.7895 41.0526C35.7895 32.6315 35.7895 22.1052 35.7895 22.1052L18.5263 20L11.7895 25.4737C10.3158 26.8421 9.47369 28.8421 9.47369 30.9473V40.8421V52.6315H31.579Z" fill="white"/>
<path d="M32.6316 53.6842H8.42108V30.9474C8.42108 28.6316 9.36845 26.3158 11.0527 24.7368L18.2106 18.9474L36.8421 21.1579V41.0526C36.8421 45.3684 33.8948 48.1053 32.6316 48.9474V53.6842ZM10.5263 51.5789H30.5263V47.7895L31.0527 47.4737C31.1579 47.3684 34.7369 45.1579 34.7369 41.0526V23.0526L18.8421 21.0526L12.4211 26.3158C11.1579 27.4737 10.4211 29.1579 10.4211 30.9474L10.5263 51.5789Z" fill="#4C739E"/>
<path d="M32.6316 52.6316H7.36841V60H32.6316V52.6316Z" fill="#DFEEFF"/>
<path d="M33.6842 60H31.579V53.6842H8.42106V60H6.3158V51.579H33.6842V60Z" fill="#4C739E"/>
<path d="M13.6842 55.7895H10.5263V57.8948H13.6842V55.7895Z" fill="#4C739E"/>
<path d="M43.1579 1.05264H21.0527C19.8948 1.05264 18.9474 2.00001 18.9474 3.15791V34.7369L22.1053 37.8947H43.1579C44.3158 37.8947 45.2632 36.9474 45.2632 35.7895V3.15791C45.2632 2.00001 44.3158 1.05264 43.1579 1.05264Z" fill="#A3D4FF"/>
<path d="M43.1579 38.9474H22.1052V36.8421H43.1579C43.7895 36.8421 44.2105 36.4211 44.2105 35.7895V3.15789C44.2105 2.52632 43.7895 2.10526 43.1579 2.10526H21.0526C20.421 2.10526 20 2.52632 20 3.15789V34.7368H17.8947V3.15789C17.8947 1.36842 19.2631 0 21.0526 0H43.1579C44.9473 0 46.3158 1.36842 46.3158 3.15789V35.7895C46.3158 37.5789 44.9473 38.9474 43.1579 38.9474Z" fill="#4C739E"/>
<path d="M40 1.05264H33.6842V37.8947H40V1.05264Z" fill="white"/>
<path d="M41.0526 38.9474H32.6316V0H41.0526V38.9474ZM34.7369 36.8421H38.9474V2.10526H34.7369V36.8421Z" fill="#4C739E"/>
<path d="M30.5263 4.21054H28.4211V8.42107H30.5263V4.21054Z" fill="#4C739E"/>
<path d="M30.5263 10.5263H28.4211V14.7368H30.5263V10.5263Z" fill="#4C739E"/>
<path d="M26.6316 22.3158C24.2105 24.8421 14.6316 34.1053 14.6316 34.1053L23.0526 45.0526C23.0526 45.0526 26.6316 40.7368 24.2105 35.4737C24.2105 35.4737 28.4211 30.7368 29.4737 29.2631C31.8947 25.8947 29.0526 19.8947 26.6316 22.3158Z" fill="white"/>
<path d="M23.8948 45.7895L22.3158 44.421C22.4211 44.3158 25.3685 40.5263 23.3685 35.8947L23.0527 35.2631L23.4737 34.7368C23.4737 34.7368 27.6842 30 28.7369 28.6316C30 26.8421 29.2632 23.7895 28.2106 22.9473C27.8948 22.7368 27.7895 22.6316 27.3685 23.0526C24.9474 25.4737 15.4737 34.7368 15.3685 34.8421L13.8948 33.3684C14 33.2631 23.4737 24 25.8948 21.5789C26.9474 20.5263 28.4211 20.421 29.579 21.3684C31.4737 22.9473 32.3158 27.1579 30.4211 29.8947C29.579 31.1579 26.6316 34.421 25.4737 35.6842C27.579 41.2631 24 45.5789 23.8948 45.7895Z" fill="#4C739E"/>
</svg>
