<svg width="119" height="120" viewBox="0 0 119 120" fill="none" xmlns="http://www.w3.org/2000/svg">
<path d="M57.7132 115.426C89.5874 115.426 115.426 89.5874 115.426 57.7132C115.426 25.8391 89.5874 0 57.7132 0C25.8391 0 0 25.8391 0 57.7132C0 89.5874 25.8391 115.426 57.7132 115.426Z" fill="#F4F8FF"/>
<path d="M99.5282 44.2103C108.457 44.2103 115.862 47.2593 115.862 51.1795V74.4826C115.862 78.4027 108.457 81.4517 99.5282 81.4517C90.599 81.4517 83.1943 78.4027 83.1943 74.4826V51.1795C83.1943 47.4771 90.599 44.2103 99.5282 44.2103Z" fill="white"/>
<path d="M99.5282 72.0871C90.3811 72.0871 81.0164 69.0381 81.0164 62.9401V51.3975H85.3721V62.9401C85.3721 64.4646 90.3811 67.7314 99.5282 67.7314C108.675 67.7314 113.684 64.4646 113.684 62.9401V51.3975H118.04V62.9401C118.04 68.8203 108.675 72.0871 99.5282 72.0871Z" fill="#4C739E"/>
<path d="M99.5282 83.6297C90.3811 83.6297 81.0164 80.5807 81.0164 74.4827V62.9401H85.3721V74.4827C85.3721 76.0072 90.3811 79.274 99.5282 79.274C108.675 79.274 113.684 76.0072 113.684 74.4827V62.9401H118.04V74.4827C118.04 80.5807 108.675 83.6297 99.5282 83.6297Z" fill="#4C739E"/>
<path d="M99.5282 60.3265C90.3811 60.3265 81.0164 57.2775 81.0164 51.1795C81.0164 45.0815 90.3811 42.0325 99.5282 42.0325C108.675 42.0325 118.04 45.0815 118.04 51.1795C118.04 57.2775 108.675 60.3265 99.5282 60.3265ZM99.5282 46.3882C90.3811 46.3882 85.3721 49.655 85.3721 51.1795C85.3721 52.704 90.3811 55.9708 99.5282 55.9708C108.675 55.9708 113.684 52.704 113.684 51.1795C113.684 49.655 108.675 46.3882 99.5282 46.3882Z" fill="#4C739E"/>
<path d="M99.5282 20.9075C108.457 20.9075 115.862 23.9565 115.862 27.8766V51.1797C115.862 55.0998 108.457 58.1489 99.5282 58.1489C90.599 58.1489 83.1943 55.0998 83.1943 51.1797V27.8766C83.1943 24.1743 90.599 20.9075 99.5282 20.9075Z" fill="white"/>
<path d="M99.5282 48.784C90.3811 48.784 81.0164 45.735 81.0164 39.637V28.0944H85.3721V39.637C85.3721 41.1615 90.3811 44.4283 99.5282 44.4283C108.675 44.4283 113.684 41.1615 113.684 39.637V28.0944H118.04V39.637C118.04 45.5172 108.675 48.784 99.5282 48.784Z" fill="#4C739E"/>
<path d="M99.5282 60.3266C90.3811 60.3266 81.0164 57.2776 81.0164 51.1796V39.637H85.3721V51.1796C85.3721 52.7041 90.3811 55.9709 99.5282 55.9709C108.675 55.9709 113.684 52.7041 113.684 51.1796V39.637H118.04V51.1796C118.04 57.2776 108.675 60.3266 99.5282 60.3266Z" fill="#4C739E"/>
<path d="M99.5282 37.0235C90.3811 37.0235 81.0164 33.9745 81.0164 27.8765C81.0164 21.7785 90.3811 18.7295 99.5282 18.7295C108.675 18.7295 118.04 21.7785 118.04 27.8765C118.04 33.9745 108.675 37.0235 99.5282 37.0235ZM99.5282 23.0852C90.3811 23.0852 85.3721 26.352 85.3721 27.8765C85.3721 29.401 90.3811 32.6678 99.5282 32.6678C108.675 32.6678 113.684 29.401 113.684 27.8765C113.684 26.352 108.675 23.0852 99.5282 23.0852Z" fill="#4C739E"/>
<path d="M64.6824 2.39563C73.6117 2.39563 81.0164 5.44463 81.0164 9.36478V79.274C81.0164 83.1942 73.6117 86.2432 64.6824 86.2432C55.7532 86.2432 48.3485 83.1942 48.3485 79.274V9.36478C48.3485 5.44463 55.5354 2.39563 64.6824 2.39563Z" fill="white"/>
<path d="M64.6824 30.0543C55.5354 30.0543 46.1707 27.0053 46.1707 20.9073V9.36462H50.5264V20.9073C50.5264 22.4318 55.5354 25.6986 64.6824 25.6986C73.8295 25.6986 78.8385 22.4318 78.8385 20.9073V9.36462H83.1942V20.9073C82.9765 27.0053 73.8295 30.0543 64.6824 30.0543Z" fill="#4C739E"/>
<path d="M64.6824 41.8149C55.5354 41.8149 46.1707 38.7659 46.1707 32.6679V20.9075H50.5264V32.6679C50.5264 34.1924 55.5354 37.4592 64.6824 37.4592C73.8295 37.4592 78.8385 34.1924 78.8385 32.6679V20.9075H83.1942V32.6679C82.9765 38.5481 73.8295 41.8149 64.6824 41.8149Z" fill="#4C739E"/>
<path d="M64.6824 53.3576C55.5354 53.3576 46.1707 50.3086 46.1707 44.2106V32.668H50.5264V44.2106C50.5264 45.7351 55.5354 49.0019 64.6824 49.0019C73.8295 49.0019 78.8385 45.7351 78.8385 44.2106V32.668H83.1942V44.2106C82.9765 50.3086 73.8295 53.3576 64.6824 53.3576Z" fill="#4C739E"/>
<path d="M64.6824 65.1179C55.5354 65.1179 46.1707 62.0689 46.1707 55.9709V44.4282H50.5264V55.9709C50.5264 57.4954 55.5354 60.7622 64.6824 60.7622C73.8295 60.7622 78.8385 57.4954 78.8385 55.9709V44.4282H83.1942V55.9709C82.9765 61.8511 73.8295 65.1179 64.6824 65.1179Z" fill="#4C739E"/>
<path d="M64.6824 76.6606C55.5354 76.6606 46.1707 73.6116 46.1707 67.5136V55.9709H50.5264V67.5136C50.5264 69.0381 55.5354 72.3049 64.6824 72.3049C73.8295 72.3049 78.8385 69.0381 78.8385 67.5136V55.9709H83.1942V67.5136C82.9765 73.6116 73.8295 76.6606 64.6824 76.6606Z" fill="#4C739E"/>
<path d="M64.6824 88.421C55.5354 88.421 46.1707 85.372 46.1707 79.274V55.9709H50.5264V79.274C50.5264 80.7985 55.5354 84.0653 64.6824 84.0653C73.8295 84.0653 78.8385 80.7985 78.8385 79.274V55.9709H83.1942V79.274C82.9765 85.1543 73.8295 88.421 64.6824 88.421Z" fill="#4C739E"/>
<path d="M64.6824 18.5118C55.5354 18.5118 46.1707 15.4628 46.1707 9.36478C46.1707 3.26678 55.5354 0.217773 64.6824 0.217773C73.8295 0.217773 83.1942 3.26678 83.1942 9.36478C83.1942 15.4628 73.8295 18.5118 64.6824 18.5118ZM64.6824 4.57349C55.5354 4.57349 50.5264 7.84028 50.5264 9.36478C50.5264 10.8893 55.5354 14.1561 64.6824 14.1561C73.8295 14.1561 78.8385 10.8893 78.8385 9.36478C78.8385 7.84028 73.6117 4.57349 64.6824 4.57349Z" fill="#4C739E"/>
<path d="M90.1634 67.5137C99.0926 67.5137 106.497 70.5627 106.497 74.4828V97.7859C106.497 101.706 99.0926 104.755 90.1634 104.755C81.2342 104.755 73.8295 101.706 73.8295 97.7859V74.4828C73.8295 70.7805 81.2342 67.5137 90.1634 67.5137Z" fill="white"/>
<path d="M90.1634 95.3903C81.0164 95.3903 71.6516 92.3413 71.6516 86.2433V74.7007H76.0073V86.2433C76.0073 87.7678 81.0164 91.0346 90.1634 91.0346C99.3104 91.0346 104.319 87.7678 104.319 86.2433V74.7007H108.675V86.2433C108.675 92.1236 99.3104 95.3903 90.1634 95.3903Z" fill="#4C739E"/>
<path d="M90.1634 106.933C81.0164 106.933 71.6516 103.884 71.6516 97.7858V86.2432H76.0073V97.7858C76.0073 99.3103 81.0164 102.577 90.1634 102.577C99.3104 102.577 104.319 99.3103 104.319 97.7858V86.2432H108.675V97.7858C108.675 103.884 99.3104 106.933 90.1634 106.933Z" fill="#4C739E"/>
<path d="M90.1634 83.6297C81.0164 83.6297 71.6516 80.5807 71.6516 74.4827C71.6516 68.3847 81.0164 65.3357 90.1634 65.3357C99.3104 65.3357 108.675 68.3847 108.675 74.4827C108.675 80.5807 99.3104 83.6297 90.1634 83.6297ZM90.1634 69.6914C81.0164 69.6914 76.0073 72.9582 76.0073 74.4827C76.0073 76.0072 81.0164 79.274 90.1634 79.274C99.3104 79.274 104.319 76.0072 104.319 74.4827C104.319 72.9582 99.3104 69.6914 90.1634 69.6914Z" fill="#4C739E"/>
<path d="M40.726 117.822C59.3694 117.822 74.4828 102.709 74.4828 84.0653C74.4828 65.4219 59.3694 50.3085 40.726 50.3085C22.0827 50.3085 6.96924 65.4219 6.96924 84.0653C6.96924 102.709 22.0827 117.822 40.726 117.822Z" fill="white"/>
<path d="M40.7259 120C20.9074 120 4.79126 103.884 4.79126 84.0653C4.79126 64.2468 20.9074 48.1306 40.7259 48.1306C60.5444 48.1306 76.6606 64.2468 76.6606 84.0653C76.6606 103.884 60.5444 120 40.7259 120ZM40.7259 52.4863C23.3031 52.4863 9.14698 66.6424 9.14698 84.0653C9.14698 101.488 23.3031 115.644 40.7259 115.644C58.1488 115.644 72.3049 101.488 72.3049 84.0653C72.3049 66.6424 58.1488 52.4863 40.7259 52.4863Z" fill="#4C739E"/>
<path d="M37.2414 78.6206C37.2414 81.234 36.588 83.4119 35.4991 84.9364C34.1924 86.4609 32.4501 87.1143 30.2722 87.1143C28.0944 87.1143 26.5699 86.2431 25.2632 84.7186C23.9565 83.1941 23.3031 81.0163 23.3031 78.4028C23.3031 75.7894 23.9565 73.6115 25.0454 72.087C26.3521 70.5625 27.8766 69.9092 30.0545 69.9092C32.2323 69.9092 33.9746 70.5625 35.2813 72.087C36.8058 74.0471 37.2414 76.0072 37.2414 78.6206ZM28.9655 78.6206C28.9655 80.1451 29.1833 81.0163 29.4011 81.6696C29.6189 82.323 30.0545 82.5408 30.49 82.5408C30.9256 82.5408 31.3612 82.323 31.579 81.6696C31.7967 81.0163 32.0145 79.9273 32.0145 78.6206C32.0145 77.0961 31.7967 76.225 31.579 75.5716C31.3612 74.9183 30.9256 74.7005 30.49 74.7005C30.0545 74.7005 29.6189 74.9183 29.4011 75.5716C29.1833 76.225 28.9655 77.3139 28.9655 78.6206ZM50.7441 70.5625L35.7169 97.568H30.2722L45.2995 70.5625H50.7441ZM57.9311 89.2921C57.9311 91.9056 57.2777 94.0834 56.1888 95.6079C54.882 97.1324 53.1398 97.7858 50.9619 97.7858C48.784 97.7858 47.2595 96.9146 45.9528 95.3901C44.6461 93.8656 43.9928 91.6878 43.9928 89.0743C43.9928 86.4609 44.6461 84.283 45.735 82.7585C47.0418 81.234 48.5663 80.5807 50.7441 80.5807C52.922 80.5807 54.6643 81.234 55.971 82.7585C57.2777 84.7186 57.9311 86.6787 57.9311 89.2921ZM49.4374 89.5099C49.4374 91.0344 49.6552 91.9056 49.873 92.5589C50.0908 93.2123 50.5263 93.4301 50.9619 93.4301C51.3975 93.4301 51.833 92.9945 52.0508 92.3411C52.2686 91.6878 52.2686 90.5988 52.2686 89.5099C52.2686 88.421 52.2686 87.3321 52.0508 86.6787C51.833 86.0253 51.3975 85.5898 50.9619 85.5898C50.5263 85.5898 50.0908 85.8076 49.873 86.4609C49.6552 87.1143 49.4374 87.9854 49.4374 89.5099Z" fill="#4C739E"/>
</svg>
