<svg width="60" height="60" fill="none" xmlns="http://www.w3.org/2000/svg">
    <path d="M29.23 58.956c14.69 0 26.598-11.908 26.598-26.598S43.92 5.76 29.23 5.76 2.632 17.668 2.632 32.358 14.54 58.956 29.23 58.956z"
          fill="#F4F8FF"/>
    <path d="M37.236 41.291 18.37 22.424 7.887 32.906l18.868 18.867 10.482-10.482z" fill="#A3D4FF"/>
    <path fill-rule="evenodd" clip-rule="evenodd"
          d="M18.37 21.226 38.433 41.29l-11.68 11.68L6.69 32.906l11.68-11.68zm0 2.396-9.285 9.284 17.67 17.67 9.284-9.285-17.67-17.67z"
          fill="#4C739E"/>
    <path d="M38.548 42.777 16.863 21.092l9.826-9.826c.593-.593 1.61-.763 2.372-.34 2.456 1.441 7.793 4.406 10.08 3.643 2.965-1.016 6.946-9.826 8.894-11.859 1.948-1.948 5.93-2.964 8.894 0 2.965 2.965 2.965 7.878 0 9.826-2.964 1.949-10.842 3.982-11.859 7.878-.762 2.965 2.033 7.793 3.558 10.08a1.934 1.934 0 0 1-.254 2.457l-9.826 9.826z"
          fill="#fff"/>
    <path fill-rule="evenodd" clip-rule="evenodd"
          d="M48.64 3.303c-.412.433-.979 1.281-1.678 2.419-.285.462-.595.978-.918 1.517-.437.728-.899 1.497-1.356 2.23-.81 1.3-1.67 2.597-2.526 3.642-.828 1.01-1.762 1.922-2.746 2.26l-.007.002c-.794.265-1.742.181-2.648-.022-.931-.21-1.943-.575-2.93-.998-1.973-.846-3.953-1.965-5.189-2.69-.42-.228-1.02-.132-1.354.202l-9.227 9.227 20.487 20.487 9.227-9.227c.39-.39.434-.96.148-1.388-.777-1.166-1.888-2.993-2.71-4.923-.803-1.882-1.42-4.061-.963-5.838V20.2c.318-1.215 1.149-2.213 2.145-3.039 1-.83 2.24-1.543 3.494-2.173 1.01-.507 2.061-.975 3.036-1.409l.697-.31c1.18-.53 2.167-.997 2.842-1.44 1.192-.783 1.842-2.198 1.842-3.824 0-1.625-.656-3.377-1.976-4.696-2.545-2.545-5.977-1.712-7.69-.006zM47.437 2.11c2.187-2.186 6.711-3.38 10.092 0C59.174 3.757 60 5.944 60 8.005c0 2.058-.832 4.074-2.605 5.24-.807.53-1.918 1.048-3.08 1.57l-.718.32c-.972.432-1.977.88-2.948 1.367-1.212.608-2.318 1.255-3.173 1.964-.86.712-1.394 1.428-1.586 2.16-.305 1.189.095 2.905.88 4.75.767 1.797 1.816 3.528 2.563 4.648a2.78 2.78 0 0 1-.36 3.526L38.548 43.975 15.665 21.092 26.09 10.667c.85-.85 2.277-1.094 3.382-.48l.009.004.008.005c1.222.716 3.133 1.795 5.009 2.6.94.402 1.844.725 2.634.902.812.182 1.388.184 1.738.069.497-.172 1.171-.741 1.982-1.73.785-.958 1.598-2.18 2.398-3.464.462-.741.899-1.47 1.322-2.173.322-.537.636-1.06.947-1.566.684-1.112 1.344-2.125 1.904-2.71l.007-.006.006-.007z"
          fill="#4C739E"/>
    <path fill-rule="evenodd" clip-rule="evenodd"
          d="M28.296 15.268 44.288 31.26l-5.21 5.21L23.084 20.48l5.21-5.211zm0 2.395L25.48 20.48l13.596 13.596 2.815-2.815-13.596-13.597z"
          fill="#4C739E"/>
    <path d="M52.863 9.656a1.948 1.948 0 1 0 0-3.896 1.948 1.948 0 0 0 0 3.896z" fill="#fff"/>
    <path fill-rule="evenodd" clip-rule="evenodd"
          d="M52.863 6.607a1.101 1.101 0 1 0 0 2.202 1.101 1.101 0 0 0 0-2.202zm-2.795 1.101a2.795 2.795 0 1 1 5.59 0 2.795 2.795 0 0 1-5.59 0zM7.133 36.848l-4.914 4.998-1.208-1.188 4.913-4.997 1.209 1.187zM11.024 41.851l-9.826 9.826L0 50.48l9.826-9.826 1.198 1.198zM16.022 45.748l-3.981 3.981-1.198-1.198 3.98-3.981 1.199 1.198zM20.938 50.658 13.06 58.62l-1.204-1.191 7.878-7.963 1.204 1.192zM24.831 54.642l-4.913 4.913-1.198-1.198 4.914-4.913 1.197 1.198zM28.813 42.783 23.9 47.696l-1.198-1.198 4.913-4.913 1.198 1.198zM20.935 38.886l-2.965 2.965-1.198-1.198 2.965-2.965 1.198 1.198zM17.97 32.957l-4.913 4.913-1.198-1.198 4.913-4.913 1.198 1.198z"
          fill="#4C739E"/>
</svg>