<svg width="60" height="60" fill="none" xmlns="http://www.w3.org/2000/svg">
    <path d="M51.389 31.514c1.923-11.889-6.123-23.09-17.972-25.02-11.848-1.93-23.012 6.144-24.935 18.033-1.923 11.889 6.123 23.09 17.972 25.02 11.848 1.93 23.012-6.144 24.935-18.033z"
          fill="#F4F8FF"/>
    <path d="M21.741 28.019c.502-.84 3.101-4.958 3.678-5.72.2-.26.234-.429.084-.613-.16-.193-.493-.193-.87-.084-.693.21-1.554-.017-2.532-.294-1.948-.562-4.757-1.367-5.885.697-.109.2-.034.251.184.494.593.663 3.084 4.69 3.594 5.528h1.747v-.008z"
          fill="#fff"/>
    <path d="M22.21 28.857h-2.684l-.242-.402c-.778-1.275-3.027-4.865-3.503-5.402-.242-.26-.686-.747-.293-1.46 1.463-2.658 4.832-1.685 6.855-1.098.853.243 1.588.436 2.065.302 1.028-.302 1.538.1 1.747.36.276.344.493.906-.076 1.644-.551.73-3.134 4.823-3.619 5.637l-.25.42zm-1.748-1.677h.803c.66-1.066 2.131-3.397 2.976-4.664-.744.042-1.522-.16-2.375-.402-1.98-.57-3.836-.999-4.706-.009.744.948 2.625 3.976 3.302 5.075z"
          fill="#4C739E"/>
    <path d="M32.608 43.804c-.577-1.493-.827-3.061-1.011-5.083-.117-1.325-.218-2.373-.377-3.044-.601-2.533-1.964-5.301-7.715-8.623-2.265-1.308-4.163-.62-5.342 0-5.86 3.078-7.113 6.09-7.715 8.623-.16.67-.251 1.72-.376 3.044-.184 2.022-.435 3.59-1.012 5.083-.117.294-.117.63 0 .931.117.294.335.529.602.646 3.427 1.485 7.532 2.223 11.527 2.223 4.021 0 7.917-.755 10.876-2.256.535-.269.777-.956.543-1.544z"
          fill="#fff"/>
    <path d="M21.19 48.443c-4.23 0-8.443-.814-11.854-2.298a1.999 1.999 0 0 1-1.053-1.116 2.136 2.136 0 0 1 0-1.527c.56-1.45.786-2.994.961-4.856.125-1.359.217-2.433.393-3.162.694-2.91 2.157-6.031 8.142-9.168 2.157-1.133 4.163-1.124 6.144.017 6.044 3.489 7.473 6.458 8.117 9.15.175.73.267 1.804.392 3.155.168 1.87.393 3.413.962 4.864.384.998-.034 2.14-.945 2.6-2.984 1.51-6.98 2.34-11.26 2.34zm-.31-21.297c-.936 0-1.73.327-2.324.646-5.392 2.827-6.687 5.553-7.289 8.078-.142.612-.242 1.627-.351 2.919-.184 2.012-.435 3.682-1.062 5.317a.442.442 0 0 0 0 .327.303.303 0 0 0 .16.177c3.209 1.392 7.18 2.155 11.192 2.155 4.02 0 7.75-.771 10.5-2.164.133-.067.225-.285.141-.495-.635-1.635-.877-3.305-1.061-5.31-.117-1.3-.21-2.314-.351-2.926-.552-2.324-1.823-4.916-7.323-8.095-.82-.461-1.563-.629-2.232-.629z"
          fill="#4C739E"/>
    <path d="M21.574 12.082h-1.672v5.032h1.672v-5.032z" fill="#DFEEFF"/>
    <path d="M23.246 13.76H18.23v1.677h5.016v-1.678zM32.44 7.888H30.77v5.033h1.672V7.888z" fill="#DFEEFF"/>
    <path d="M34.113 9.566h-5.016v1.677h5.016V9.566z" fill="#DFEEFF"/>
    <path d="M38.551 28.019c.72-.84 4.422-7.03 5.242-8.103.284-.37.343-.587.125-.847-.226-.277-.702-.269-1.237-.11-.995.294-2.224-.016-3.611-.419-2.776-.805-6.78-1.946-8.393.998-.159.286-.05.31.26.655.843.93 4.405 6.987 5.123 7.826h2.491z"
          fill="#A3D4FF"/>
    <path d="M38.936 28.857h-3.252l-.25-.285c-.368-.42-1.146-1.669-2.4-3.657-1.036-1.652-2.323-3.716-2.725-4.16l-.117-.126c-.217-.235-.677-.713-.25-1.493 1.947-3.548 6.587-2.198 9.362-1.4 1.262.368 2.365.645 3.143.419 1.212-.353 1.822.016 2.123.385.677.848.084 1.628-.108 1.888-.36.47-1.388 2.122-2.383 3.707-1.488 2.382-2.491 3.976-2.884 4.437l-.259.285zm-2.458-1.677h1.655c.519-.738 1.614-2.491 2.525-3.942.878-1.401 1.714-2.743 2.207-3.465-1.187.336-2.533 0-4.03-.436-3.084-.889-5.96-1.535-7.255.31.476.546 1.446 2.09 2.876 4.362.752 1.208 1.588 2.55 2.022 3.17z"
          fill="#4C739E"/>
    <path d="M54.05 50.615c-.828-2.13-1.18-4.37-1.438-7.247-.168-1.887-.31-3.389-.535-4.345-.861-3.607-2.8-7.566-11.01-12.296-3.226-1.862-5.934-.88-7.615 0-8.359 4.387-10.148 8.69-11.009 12.296-.225.956-.36 2.45-.535 4.337-.259 2.877-.618 5.125-1.438 7.255-.167.42-.167.898 0 1.325.16.42.477.755.861.923 4.882 2.114 10.742 3.179 16.435 3.179 5.726 0 11.285-1.074 15.506-3.212.76-.386 1.112-1.368.778-2.215z"
          fill="#A3D4FF"/>
    <path d="M37.766 56.88c-5.985 0-11.946-1.148-16.769-3.245a2.495 2.495 0 0 1-1.312-1.393 2.739 2.739 0 0 1 0-1.929c.819-2.105 1.145-4.336 1.387-7.029.176-1.937.318-3.447.552-4.462.97-4.06 3.026-8.43 11.436-12.842 2.959-1.551 5.709-1.551 8.417.017 8.502 4.907 10.508 9.067 11.402 12.825.243 1.015.385 2.533.552 4.462.242 2.693.568 4.916 1.388 7.02.484 1.25-.034 2.685-1.18 3.264-4.187 2.139-9.83 3.313-15.873 3.313zm-.443-30.38c-1.405 0-2.583.495-3.486.965-7.816 4.102-9.705 8.069-10.583 11.751-.209.89-.343 2.349-.51 4.186-.259 2.868-.61 5.225-1.496 7.515a.978.978 0 0 0 0 .721c.083.21.234.378.41.453 4.622 2.005 10.34 3.104 16.1 3.104 5.784 0 11.159-1.107 15.13-3.12.376-.193.551-.713.376-1.158-.886-2.29-1.237-4.647-1.497-7.482-.167-1.854-.3-3.321-.518-4.219-.81-3.397-2.658-7.171-10.608-11.768-1.195-.688-2.307-.948-3.318-.948z"
          fill="#4C739E"/>
    <path d="m27.258 40.063-1.63-.394c.844-3.531 2.633-7.33 9.93-11.164l.778 1.485c-6.704 3.523-8.325 6.928-9.078 10.073zM14.828 36.993l-1.63-.394c.527-2.222 1.647-4.613 6.203-7.003l.777 1.484c-4.155 2.19-4.94 4.202-5.35 5.913z"
          fill="#4C739E"/>
    <path d="M52.503 23.825h-1.672v5.032h1.672v-5.032z" fill="#DFEEFF"/>
    <path d="M54.175 25.502h-5.016v1.678h5.016v-1.678z" fill="#DFEEFF"/>
    <path d="m38.24 18.245-.585 4.677 1.659.21.585-4.678-1.66-.209zM38.292 47.31H36.62a2.52 2.52 0 0 1-2.507-2.516h1.672a.84.84 0 0 0 .836.839h1.671a.84.84 0 0 0 .836-.839v-.47c0-.36-.225-.679-.568-.796l-2.725-.915a2.508 2.508 0 0 1-1.714-2.39v-.462a2.52 2.52 0 0 1 2.508-2.516H38.3a2.52 2.52 0 0 1 2.508 2.516h-1.672a.84.84 0 0 0-.836-.838h-1.672a.84.84 0 0 0-.836.838v.47c0 .36.234.68.568.797l2.726.914a2.508 2.508 0 0 1 1.713 2.39v.462a2.514 2.514 0 0 1-2.508 2.516z"
          fill="#4C739E"/>
    <path d="M38.292 34.729H36.62v3.355h1.672v-3.355zM38.292 46.472H36.62v3.355h1.672v-3.355z" fill="#4C739E"/>
</svg>