<svg width="60" height="60" fill="none" xmlns="http://www.w3.org/2000/svg">
    <path d="M30.968 46.452c12.827 0 23.226-10.399 23.226-23.226S43.795 0 30.968 0C18.14 0 7.742 10.399 7.742 23.226S18.14 46.452 30.968 46.452z"
          fill="#F4F8FF"/>
    <path d="M31.452 13.548c.58 0 3.677-5.516 4.354-6.387.194-.29.29-.387.097-.58-.193-.194-.58-.194-1.064 0-.871.193-1.839 0-3-.29-2.323-.678-5.613-1.549-6.968.774-.097.193 0 0 .194.29.677.774 3.677 6.097 4.258 6.097h2.129v.096z"
          fill="#A3D4FF"/>
    <path d="M31.452 14.516h-2.033c-.774 0-1.258-.58-3.58-4.258-.484-.87-1.162-1.839-1.355-2.129l-.29-.193L24 7.452a.826.826 0 0 1 .097-.871c1.742-3.097 5.71-1.936 8.032-1.258.871.29 1.839.483 2.42.29.386-.097 1.451-.387 2.032.387.677.774.193 1.548 0 1.839a32.58 32.58 0 0 0-1.162 1.935c-2.613 4.065-3.193 4.742-3.967 4.742zm-1.742-1.935h1.451C31.741 12 33 9.87 33.677 8.71c.29-.387.484-.775.678-1.065-.871.097-1.839-.193-2.71-.484C29.42 6.484 27.29 6 26.13 7.065c.29.387.774 1.16 1.355 2.129.677 1.16 1.742 2.806 2.226 3.387z"
          fill="#4C739E"/>
    <path d="M32.903 12.58c-2.226-1.354-4.451-.774-5.806 0-6.871 3.678-9.678 10.936-9.678 14.42 0 7.161 5.613 9.774 12.581 9.774 6.968 0 12.58-2.516 12.58-9.677 0-3.387-3-10.452-9.677-14.516z"
          fill="#A3D4FF"/>
    <path d="M30 37.742c-8.613 0-13.548-3.871-13.548-10.742 0-4.064 3.193-11.516 10.16-15.29 1.065-.581 3.872-1.742 6.775 0 6.968 4.258 10.161 11.613 10.161 15.387 0 6.87-4.838 10.645-13.548 10.645zm.097-24.968c-1.065 0-1.936.387-2.516.678-6.29 3.387-9.194 10.064-9.194 13.548 0 7.258 6.29 8.806 11.613 8.806 5.323 0 11.613-1.548 11.613-8.71 0-3.29-2.903-9.87-9.194-13.644a4.52 4.52 0 0 0-2.322-.678z"
          fill="#4C739E"/>
    <path d="M30.968 30h-1.936c-1.645 0-2.903-1.258-2.903-2.903h1.935c0 .58.388.967.968.967h1.936c.58 0 .968-.387.968-.967v-.58a.93.93 0 0 0-.678-.872l-3.194-1.064c-1.16-.387-1.935-1.452-1.935-2.71v-.58c0-1.646 1.258-2.904 2.903-2.904h1.936c1.645 0 2.903 1.258 2.903 2.903h-1.936c0-.58-.387-.967-.967-.967h-1.936c-.58 0-.968.387-.968.967v.581c0 .387.29.774.678.871l3.194 1.064c1.16.388 2.032 1.549 2.032 2.71v.58c-.097 1.646-1.355 2.904-3 2.904z"
          fill="#4C739E"/>
    <path d="M30.968 16.452h-1.936v2.903h1.936v-2.903zM30.968 29.032h-1.936v2.904h1.936v-2.904z" fill="#4C739E"/>
    <path d="m54.194 28.064-2.517 5.13c-.677 0-1.451.29-1.935.87l-3.097 3.097c-.968.968-3.774.968-4.839 2.13l-4.064 4.064c-1.742 1.548-1.936 4.355-1.936 6v7.742h12.581c0-2.032-.097-3.968.968-5.032.774-.775 4.742-4.742 7.645-7.549 1.258-1.258 2.032-3 2.032-4.839V21.29c-1.935 0-5.516 1.646-4.838 6.774z"
          fill="#fff"/>
    <path d="M49.355 57.097h-1.936v-.29c0-2.13 0-4.065 1.258-5.42.484-.484 2.226-2.226 4.258-4.161l3.387-3.29c1.065-1.065 1.742-2.613 1.742-4.162V22.452a4.513 4.513 0 0 0-1.935 1.16c-.871 1.065-1.258 2.517-.968 4.356v.29L53.13 33.29l-1.839-.677 1.839-4.645c-.29-2.904.677-4.645 1.452-5.613 1.258-1.452 3.096-2.032 4.354-2.032h.968v19.451c0 2.032-.87 4.065-2.322 5.516l-3.388 3.29c-1.935 1.936-3.774 3.678-4.258 4.162-.58.774-.58 2.323-.58 4.064v.29z"
          fill="#4C739E"/>
    <path d="M36.774 57.097H34.84v-7.742c0-3.097.677-5.323 2.129-6.774l4.064-4.065c.774-.774 1.936-1.064 3.097-1.451.677-.194 1.548-.484 1.839-.678l3.096-3.097c1.452-1.451 3.968-1.451 5.517 0 .774.775 1.16 1.742 1.16 2.71 0 1.065-.386 2.032-1.16 2.71l-5.904 5.903-1.354-1.355 5.903-5.903c.387-.387.58-.871.58-1.355a1.91 1.91 0 0 0-.58-1.355c-.774-.774-2.032-.774-2.71 0l-3.097 3.097c-.58.58-1.645.87-2.613 1.161-.87.29-1.838.484-2.225.968l-4.065 4.064c-1.064 1.065-1.548 2.904-1.548 5.42v7.742h-.194z"
          fill="#4C739E"/>
    <path d="M51.194 55.161H33.87V60h17.323v-4.839z" fill="#A3D4FF"/>
    <path d="M50.226 60v-3.871H34.839V60h-1.936v-5.806h19.258V60h-1.935z" fill="#4C739E"/>
    <path d="M39.677 58.065h-2.903V60h2.903v-1.935z" fill="#4C739E"/>
    <path d="m5.806 28.064 2.517 5.13c.677 0 1.451.29 1.935.87l3.097 3.097c.968.968 3.774.968 4.838 2.13l4.065 4.064c1.645 1.645 1.839 4.451 1.839 6.097v7.742H11.613c0-2.033.097-3.968-.968-5.033-.774-.774-4.839-4.742-7.645-7.548-1.258-1.258-2.032-3-2.032-4.839V21.29c1.935 0 5.516 1.646 4.838 6.774z"
          fill="#fff"/>
    <path d="M12.58 57.097h-1.935v-.29c0-1.742 0-3.29-.677-4.065-.484-.484-2.226-2.226-4.258-4.161l-3.387-3.29C.87 43.838 0 41.805 0 39.773V20.323h.968c1.258 0 3 .483 4.355 2.032.87.968 1.838 2.71 1.451 5.613l1.839 4.645-1.839.677-1.935-5.129v-.29c.193-1.839-.097-3.29-.968-4.355-.58-.677-1.258-1.064-1.936-1.161v17.322c0 1.549.678 3.097 1.742 4.162l3.388 3.29c2.032 1.936 3.774 3.774 4.258 4.161 1.258 1.258 1.258 3.29 1.258 5.42v.387z"
          fill="#4C739E"/>
    <path d="M25.161 57.097h-1.935v-7.742c0-2.516-.58-4.355-1.549-5.42l-4.064-4.064c-.387-.387-1.355-.678-2.226-.968-1.064-.29-2.032-.58-2.613-1.161l-3.097-3.097c-.774-.774-2.032-.774-2.71 0A1.91 1.91 0 0 0 6.388 36c0 .484.194.968.58 1.355l5.904 5.903-1.355 1.355-5.903-5.903c-.774-.775-1.161-1.742-1.161-2.71 0-1.065.387-2.032 1.16-2.71 1.452-1.451 3.969-1.451 5.517 0l3.097 3.097c.29.29 1.064.484 1.838.678 1.162.29 2.323.677 3.097 1.451l4.065 4.065c1.451 1.451 2.129 3.677 2.129 6.774v7.742h-.194z"
          fill="#4C739E"/>
    <path d="M26.129 55.161H8.709V60h17.42v-4.839z" fill="#A3D4FF"/>
    <path d="M27.097 60H25.16v-3.871H9.677V60H7.742v-5.806h19.355V60z" fill="#4C739E"/>
    <path d="M23.226 58.065h-2.903V60h2.903v-1.935z" fill="#4C739E"/>
</svg>