<svg width="61" height="60" fill="none" xmlns="http://www.w3.org/2000/svg">
    <path d="M31.082 56.58c14.58 0 26.4-11.82 26.4-26.4 0-14.58-11.82-26.4-26.4-26.4-14.58 0-26.4 11.82-26.4 26.4 0 14.58 11.82 26.4 26.4 26.4z"
          fill="#F4F8FF"/>
    <path d="M42.063 22.62l-.18-.24c-1.08-1.14-1.2-2.76-.24-3.6l3.9-3.72c1.44-1.32 3.42-1.56 4.5-.42l.18.24c1.08 1.14.78 3.12-.66 4.5l-3.9 3.72c-.9.84-2.52.6-3.6-.48z"
          fill="#fff"/>
    <path d="M44.222 24.54h-.42a3.93 3.93 0 01-2.4-1.26l-.18-.24c-.66-.72-1.08-1.56-1.14-2.46-.06-.96.24-1.86.9-2.46l3.9-3.72c1.8-1.68 4.44-1.86 5.82-.36l.18.24c1.44 1.5 1.14 4.08-.66 5.82l-3.9 3.72c-.54.42-1.32.72-2.1.72zm3.96-9.66c-.66 0-1.44.3-2.04.9l-3.9 3.72c-.3.3-.36.72-.3.96.06.48.24.96.6 1.32l.18.24c.36.36.84.6 1.26.66.24 0 .66.06.96-.3l3.9-3.72c1.02-.96 1.32-2.4.6-3.12l-.18-.24c-.18-.3-.6-.42-1.08-.42z"
          fill="#4C739E"/>
    <path d="M22.203 27.48l-5.1-1.86-6.72 21.48c.42.3.78.6 1.14.96 1.26 1.14 2.52 2.46 3.54 3.84l6.54.96c1.44-1.56 2.52-2.58 3.78-3.78 9.66.72 14.1-6.42 15.06-7.56.96-1.14-18.24-14.04-18.24-14.04z"
          fill="#fff"/>
    <path d="M21.963 53.82l-7.44-1.08-.24-.3c-.96-1.32-2.1-2.52-3.36-3.72l-1.08-.9-.6-.42 7.26-23.04 6.18 2.34c.12.06 4.62 3.06 9.12 6.3 9.42 6.72 9.54 7.62 9.6 8.22.06.3-.06.66-.24.9-.06.12-.18.24-.3.42-1.5 1.98-6.12 7.98-15.12 7.5-1.14 1.08-2.16 2.04-3.42 3.42l-.36.36zM15.543 51l5.7.84c1.26-1.32 2.22-2.28 3.36-3.36l.42-.42.42.06c8.28.6 12.54-4.92 13.92-6.72-1.5-1.74-9.84-7.8-17.58-13.02l-4.02-1.5-6.3 19.86c.24.18.48.36.66.6 1.32 1.14 2.46 2.4 3.42 3.66z"
          fill="#4C739E"/>
    <path d="M42.363 42.48h-18.84c-1.56 0-2.82-1.26-2.82-2.82V3.84c0-1.56 1.26-2.82 2.82-2.82h18.84c1.56 0 2.82 1.26 2.82 2.82v35.82c0 1.5-1.26 2.82-2.82 2.82z"
          fill="#DFEEFF"/>
    <path d="M42.363 43.38h-18.84c-2.1 0-3.78-1.68-3.78-3.78V3.78c0-2.1 1.68-3.78 3.78-3.78h18.84c2.1 0 3.78 1.68 3.78 3.78V39.6c0 2.1-1.68 3.78-3.78 3.78zM23.523 1.86c-1.02 0-1.86.84-1.86 1.86V39.6c0 1.02.84 1.86 1.86 1.86h18.84c1.02 0 1.86-.84 1.86-1.86V3.78c0-1.02-.84-1.86-1.86-1.86h-18.84v-.06z"
          fill="#4C739E"/>
    <path d="M45.243 5.64h-24.54v29.22h24.54V5.64z" fill="#fff"/>
    <path d="M46.143 35.88h-26.4V4.74h26.4v31.14zm-24.54-1.92h22.62V6.6h-22.62v27.36z" fill="#4C739E"/>
    <path d="M44.642 41.64l-.18-.18c-1.08-.9-1.44-2.22-.9-2.88l2.46-2.82c.9-1.02 2.52-1.14 3.54-.24l.18.18c1.08.9 1.2 2.52.3 3.54l-2.46 2.82c-.48.66-1.86.48-2.94-.42z"
          fill="#fff"/>
    <path d="M46.682 43.38c-.84 0-1.8-.36-2.58-1.08l-.18-.18c-.66-.54-1.14-1.26-1.32-1.98-.24-.84-.12-1.68.36-2.22l2.46-2.82c.6-.72 1.44-1.08 2.34-1.14.9-.06 1.8.24 2.52.84l.18.18c1.44 1.26 1.62 3.42.42 4.86l-2.46 2.82c-.48.48-1.08.72-1.74.72zm1.26-7.56h-.12c-.42 0-.78.18-1.08.54l-2.46 2.82c-.06.06-.06.18 0 .48.12.36.42.78.78 1.08l.18.18c.78.66 1.56.66 1.68.54l2.46-2.82c.54-.66.48-1.62-.24-2.22l-.18-.18c-.3-.3-.66-.42-1.02-.42z"
          fill="#4C739E"/>
    <path d="M21.183 27.3c.96-2.94 1.38-5.04 1.68-8.46.18-1.98-.66-3.66-1.56-4.92-.9-1.26-3.06-.96-3.54.42-1.92 6.18-2.28 7.86-3.48 10.98-1.32 3.48-.6 8.34-1.26 9.78-.12.3-4.62 6.06-5.88 7.86 1.32.66 4.08 1.92 5.22 2.88 1.32 1.2 2.58 2.52 3.66 4.02l1.02.06 6-6.18c2.64-7.32.48-13.5-1.86-16.44z"
          fill="#fff"/>
    <path d="M17.043 50.88l-1.44-.12-.3-.36a23.36 23.36 0 00-3.54-3.84c-.78-.66-2.7-1.62-4.02-2.22l-.96-.48-.96-.48.66-.9c.66-.9 2.16-2.88 3.48-4.62 1.02-1.32 2.1-2.76 2.34-3.12.18-.42.18-1.62.24-2.82.06-2.1.12-4.68.96-6.9.78-1.98 1.2-3.36 1.92-5.82.42-1.32.9-2.94 1.56-5.16.3-.96 1.2-1.68 2.28-1.86 1.14-.18 2.28.24 2.94 1.14 1.32 1.8 1.86 3.72 1.68 5.58-.3 3.42-.72 5.52-1.62 8.22 2.46 3.42 4.26 9.66 1.74 16.92l-1.8-.6c2.4-6.84.54-12.66-1.74-15.54l-.3-.42.18-.48c.9-2.82 1.32-4.8 1.68-8.28.12-1.38-.3-2.82-1.38-4.26-.24-.36-.78-.42-1.08-.36-.3.06-.66.24-.78.54-.66 2.16-1.14 3.78-1.56 5.1-.72 2.4-1.14 3.9-1.98 5.94-.78 1.92-.84 4.32-.84 6.3-.06 1.56-.06 2.82-.42 3.6-.06.18-.3.48-2.52 3.42-.96 1.26-2.04 2.7-2.76 3.66 1.56.72 3.42 1.68 4.38 2.52 1.32 1.2 2.52 2.46 3.54 3.78l.6.06-.18 1.86z"
          fill="#4C739E"/>
    <path d="M9.017 39.001L3.88 44.133l14.503 14.516 5.136-5.132L9.017 39.001z" fill="#A3D4FF"/>
    <path d="M18.363 60L2.523 44.16l6.48-6.48 15.84 15.84-6.48 6.48zM5.223 44.16l13.2 13.2 3.78-3.78-13.2-13.2-3.78 3.78z"
          fill="#4C739E"/>
    <path d="M44.703 34.98l-.24-.18c-1.08-.96-1.5-2.28-.9-2.94l2.52-2.88c.9-1.08 2.52-1.14 3.6-.24l.24.18c1.08.96 1.2 2.58.3 3.6l-2.52 2.88c-.54.72-1.92.54-3-.42z"
          fill="#fff"/>
    <path d="M46.743 36.78c-.84 0-1.8-.36-2.64-1.08l-.24-.18c-1.5-1.32-1.92-3.18-1.02-4.26l2.52-2.88c.6-.72 1.44-1.14 2.4-1.2.9-.06 1.86.24 2.52.84l.24.18c.72.6 1.14 1.44 1.2 2.4.06.96-.18 1.86-.84 2.52L48.363 36c-.36.54-.96.78-1.62.78zm1.26-7.74h-.12c-.42 0-.84.24-1.08.54l-2.52 2.88c-.12.18 0 .96.78 1.62l.24.18c.78.66 1.56.72 1.68.54l2.52-2.88c.24-.3.42-.72.36-1.14-.06-.42-.24-.84-.6-1.14l-.24-.18c-.24-.24-.6-.42-1.02-.42z"
          fill="#4C739E"/>
    <path d="M44.703 28.56l-.24-.18c-1.08-.96-1.5-2.28-.9-2.94l2.52-2.88c.9-1.08 2.52-1.14 3.6-.24l.24.18c1.08.96 1.2 2.58.3 3.6l-2.52 2.88c-.54.72-1.92.54-3-.42z"
          fill="#fff"/>
    <path d="M46.743 30.36c-.84 0-1.8-.36-2.64-1.08l-.24-.18c-1.5-1.32-1.92-3.18-1.02-4.26l2.52-2.88c1.26-1.44 3.48-1.56 4.92-.3l.24.18c.72.6 1.14 1.44 1.2 2.4.06.96-.18 1.86-.84 2.52l-2.52 2.88c-.36.48-.96.72-1.62.72zm1.26-7.74c-.42 0-.9.18-1.2.54l-2.52 2.88c-.12.18 0 .96.78 1.62l.24.18c.78.66 1.56.72 1.68.54l2.52-2.88c.24-.3.42-.72.36-1.14-.06-.42-.24-.84-.6-1.14l-.24-.18c-.24-.24-.66-.42-1.02-.42zM35.763 37.74h-5.64v1.86h5.64v-1.86zM37.694 17.62c-.123-1.456-1.373-1.96-2.957-2.118l.024-2.018-1.228-.014-.024 1.965c-.323-.005-.652-.002-.981 0l.025-1.977-1.228-.015-.025 2.018c-.266.001-.528.004-.782 0v-.006l-1.695-.021-.016 1.312s.908-.006.893.01c.498.006.655.297.7.547l-.028 2.3c.035 0 .079.002.13.01l-.13-.002-.039 3.22c-.024.157-.119.405-.467.402.016.014-.893-.01-.893-.01l-.261 1.463 1.599.02c.297.003.59.012.876.017l-.024 2.041 1.228.015.024-2.018c.337.01.663.016.982.02l-.026 2.01 1.228.015.026-2.037c2.067-.094 3.518-.596 3.721-2.534.164-1.56-.562-2.266-1.73-2.561.716-.354 1.169-.988 1.078-2.054zm-1.773 4.344c-.017 1.526-2.627 1.32-3.46 1.31l.034-2.704c.833.01 3.446-.197 3.426 1.394zm-.524-3.823c-.017 1.388-2.194 1.2-2.887 1.191l.03-2.452c.693.008 2.874-.186 2.857 1.261z"
          fill="#4C739E"/>
</svg>