<svg width="61" height="61" fill="none" xmlns="http://www.w3.org/2000/svg">
    <path d="M29.36 57.061c14 0 25.3-11.3 25.3-25.3s-11.3-25.3-25.3-25.3-25.3 11.3-25.3 25.3 11.3 25.3 25.3 25.3z"
          fill="#F4F8FF"/>
    <path d="M8.86 50.461h-1.9v5.7h1.9v-5.7z" fill="#DFEEFF"/>
    <path d="M10.76 52.361h-5.7v1.9h5.7v-1.9zM53.76 4.561h-1.9v5.7h1.9v-5.7z" fill="#DFEEFF"/>
    <path d="M55.66 6.461h-5.7v1.9h5.7v-1.9z" fill="#DFEEFF"/>
    <path d="M21.36 31.861c6.9 0 12.4-5.6 12.4-12.4 0-6.9-5.6-12.4-12.4-12.4-6.8 0-12.5 5.5-12.5 12.4 0 6.8 5.6 12.4 12.5 12.4z"
          fill="#F4F8FF"/>
    <path d="M21.36 32.861c-7.4 0-13.4-6-13.4-13.4s6-13.4 13.4-13.4 13.4 6 13.4 13.4c-.1 7.3-6.1 13.4-13.4 13.4zm0-24.9c-6.3 0-11.5 5.2-11.5 11.5s5.2 11.5 11.5 11.5 11.5-5.2 11.5-11.5c-.1-6.3-5.2-11.5-11.5-11.5z"
          fill="#4C739E"/>
    <path d="M22.66 54.461c7.1 0 12.9-5.8 12.9-12.9 0-7.1-5.8-12.9-12.9-12.9-7.1 0-12.9 5.7-12.9 12.9s5.8 12.9 12.9 12.9z"
          fill="#A3D4FF"/>
    <path d="M22.66 55.361c-7.6 0-13.9-6.2-13.9-13.9s6.2-13.9 13.9-13.9 13.9 6.2 13.9 13.9-6.3 13.9-13.9 13.9zm0-25.8c-6.6 0-11.9 5.4-11.9 11.9 0 6.6 5.4 11.9 11.9 11.9 6.6 0 11.9-5.4 11.9-11.9s-5.3-11.9-11.9-11.9z"
          fill="#4C739E"/>
    <path d="M41.36 41.961c6.9 0 12.4-5.6 12.4-12.4 0-6.9-5.6-12.4-12.4-12.4-6.8 0-12.4 5.6-12.4 12.4-.1 6.8 5.5 12.4 12.4 12.4z"
          fill="#fff"/>
    <path d="M41.36 42.861c-7.4 0-13.4-6-13.4-13.4s6-13.4 13.4-13.4 13.4 6 13.4 13.4c-.1 7.4-6.1 13.4-13.4 13.4zm0-24.8c-6.3 0-11.5 5.2-11.5 11.5s5.2 11.5 11.5 11.5 11.5-5.2 11.5-11.5c-.1-6.3-5.2-11.5-11.5-11.5z"
          fill="#4C739E"/>
    <path d="M45.728 27.366c-.122-1.456-1.372-1.96-2.956-2.118l.024-2.018-1.228-.015-.024 1.966c-.323-.005-.652-.002-.981 0l.025-1.977-1.229-.015-.024 2.017c-.266.002-.528.005-.782.001v-.006l-1.695-.021-.016 1.312s.908-.007.893.01c.498.006.656.297.7.547l-.028 2.3c.035 0 .079.002.13.009l-.13-.001-.039 3.22c-.024.157-.119.405-.467.402.016.014-.893-.01-.893-.01l-.262 1.463 1.6.02c.297.004.59.012.876.017l-.024 2.041 1.228.015.024-2.019c.337.01.663.017.981.021l-.024 2.01 1.228.015.025-2.037c2.067-.094 3.518-.596 3.721-2.534.164-1.56-.562-2.266-1.731-2.561.717-.354 1.17-.988 1.078-2.054zm-1.772 4.344c-.017 1.525-2.627 1.32-3.46 1.31l.034-2.704c.833.01 3.446-.197 3.426 1.394zm-.525-3.823c-.016 1.388-2.193 1.2-2.886 1.191l.03-2.452c.693.008 2.874-.186 2.856 1.261z"
          fill="#4C739E"/>
    <path fill-rule="evenodd" clip-rule="evenodd"
          d="M27.883 17.363l-1.34 4.196s-.827 2.092-2.793 2.092h-9.483l.678-2.091h8.592l1.352-4.197h-8.58l.664-2.091h9.432c2.067 0 1.478 2.091 1.478 2.091zm-13.277 1.128h5.085l-.65 1.941h-5.1l.664-1.941h.001zM18.092 40.774L22.7 38.89l4.466 1.933-4.474-6.843-4.6 6.795zm.014 2.091l4.6 2.586 4.694-2.586-4.651 6.279-4.643-6.279zm4.614-3.054l4.666 2.015-4.665 2.53-4.8-2.585 4.8-1.96z"
          fill="#4C739E"/>
</svg>