<svg width="60" height="60" fill="none" xmlns="http://www.w3.org/2000/svg">
    <path d="M29.032 51.98c12.293 0 22.258-9.964 22.258-22.257 0-12.293-9.965-22.258-22.258-22.258S6.774 17.43 6.774 29.723 16.74 51.98 29.032 51.98z"
          fill="#F4F8FF"/>
    <path fill-rule="evenodd" clip-rule="evenodd"
          d="M19.547 5.159c10.184-4.39 21.68-2.055 29.344 5.048l1.315-1.42C42 1.181 29.69-1.323 18.778 3.383l-.006.002c-4.095 1.798-7.6 4.399-10.308 7.509l1.46 1.27c2.516-2.889 5.785-5.32 9.623-7.005zM5.488 43.28c2.892 5.13 7.558 9.333 13.542 11.67l.002.001c9.251 3.645 19.25 1.87 26.54-3.737l1.18 1.534c-7.807 6.005-18.518 7.908-28.428 4.005C11.921 54.25 6.91 49.744 3.802 44.23l1.686-.95z"
          fill="#DFEEFF"/>
    <path d="M45.484 39.4s-1.936 5.807-14.516 5.807S15.484 39.4 15.484 39.4V27.787h30V39.4z" fill="#A3D4FF"/>
    <path fill-rule="evenodd" clip-rule="evenodd"
          d="M14.516 26.82h31.936v12.737l-.05.15-.918-.307c.918.306.918.307.917.308v.002l-.002.004-.003.01-.01.027a3.926 3.926 0 0 1-.14.323c-.098.2-.247.47-.466.785-.44.633-1.153 1.44-2.278 2.235-2.257 1.593-6.094 3.08-12.534 3.08-6.444 0-10.5-1.489-12.977-3.052-1.234-.78-2.063-1.57-2.59-2.183a7.307 7.307 0 0 1-.577-.76 4.566 4.566 0 0 1-.185-.306l-.013-.024-.004-.01-.002-.003v-.002c-.001 0-.002-.001.864-.434l-.866.433-.102-.204v-12.81zm1.936 12.313c.082.125.217.313.415.543.41.476 1.094 1.137 2.158 1.81 2.12 1.339 5.806 2.753 11.943 2.753 6.14 0 9.561-1.416 11.418-2.726.93-.657 1.487-1.3 1.804-1.758.16-.229.26-.413.317-.53l.01-.02v-10.45H16.451v10.378z"
          fill="#4C739E"/>
    <path d="M49.355 26.82 30 33.594.968 23.916v-2.903l30-7.742 28.064 7.742v2.903l-4.838 1.936" fill="#fff"/>
    <path fill-rule="evenodd" clip-rule="evenodd"
          d="M30.976 12.27 60 20.276v4.296l-5.447 2.178-.719-1.797 4.23-1.692V21.75L30.96 14.273l-29.024 7.49v1.456l28.057 9.352 19.043-6.665.64 1.827-19.667 6.883L0 24.614v-4.35l30.976-7.994z"
          fill="#4C739E"/>
    <path fill-rule="evenodd" clip-rule="evenodd"
          d="M51.851 26.664c.81.22 1.375.993 1.375 1.8v5.13H51.29v-5.077l-20.617-6.582.59-1.844 20.588 6.573zM50.179 40.933c.68-2.044 3.477-2.044 4.158 0l.004.011 2.237 7.294.006.024c.336 1.346-.656 2.751-2.1 2.751h-4.452c-1.444 0-2.436-1.405-2.1-2.75l.006-.025 2.237-7.294.004-.011zm1.839.604-2.212 7.21a.296.296 0 0 0 .057.234c.055.073.118.097.17.097h4.45c.052 0 .115-.024.17-.097a.296.296 0 0 0 .057-.233l-2.212-7.211a.31.31 0 0 0-.108-.16.227.227 0 0 0-.132-.041.227.227 0 0 0-.131.04.31.31 0 0 0-.11.16z"
          fill="#4C739E"/>
    <path d="M52.258 41.336a3.871 3.871 0 1 0 0-7.742 3.871 3.871 0 0 0 0 7.742z" fill="#A3D4FF"/>
    <path fill-rule="evenodd" clip-rule="evenodd"
          d="M52.258 34.562a2.903 2.903 0 1 0 0 5.806 2.903 2.903 0 0 0 0-5.806zm-4.839 2.903a4.839 4.839 0 1 1 9.678 0 4.839 4.839 0 0 1-9.678 0zM18.387 36.497v-5.806h1.936v5.806h-1.936z"
          fill="#4C739E"/>
</svg>