<svg width="60" height="60" fill="none" xmlns="http://www.w3.org/2000/svg">
    <g clip-path="url(#a)">
        <path d="M30.509 12.203c10.067 0 18.305 8.238 18.305 18.306 0 10.067-8.238 18.305-18.305 18.305-10.068 0-18.306-8.238-18.306-18.305 0-10.068 8.238-18.306 18.306-18.306z"
              fill="#fff"/>
        <path fill-rule="evenodd" clip-rule="evenodd"
              d="M30.509 13.203c-9.516 0-17.306 7.79-17.306 17.306 0 9.515 7.79 17.305 17.306 17.305 9.515 0 17.305-7.79 17.305-17.305 0-9.516-7.79-17.306-17.305-17.306zM11.203 30.51c0-10.62 8.685-19.306 19.306-19.306 10.62 0 19.305 8.685 19.305 19.306 0 10.62-8.685 19.305-19.305 19.305s-19.306-8.685-19.306-19.305z"
              fill="#4C739E"/>
        <path fill-rule="evenodd" clip-rule="evenodd"
              d="M.017 31.138C-.603 14.632 12.227.648 28.843.018l.076 1.998c-15.512.59-27.492 13.647-26.903 29.065l.001.018v.02c0 .555.07 1.034.16 1.655l.033.237-1.98.283a79.789 79.789 0 0 0-.033-.234c-.088-.602-.178-1.221-.18-1.922zM57.984 28.917A27.742 27.742 0 0 0 41.298 4.375l.794-1.835a29.742 29.742 0 0 1 17.89 26.304c.21 5.469-1.052 10.62-3.363 15.137l-1.78-.911c2.163-4.229 3.341-9.043 3.145-14.15v-.003zM6.44 45.028c5.101 8.142 14.427 13.349 24.742 12.956h.005c5.79-.197 11.085-2.159 15.4-5.394l1.2 1.6c-4.635 3.476-10.323 5.582-16.53 5.792-11.04.42-21.036-5.153-26.511-13.892l1.695-1.062z"
              fill="#DFEEFF"/>
        <path fill-rule="evenodd" clip-rule="evenodd"
              d="M13.036 48.213c-9.95-9.223-10.583-24.795-1.363-34.757l1.468 1.359c-8.47 9.152-7.889 23.469 1.267 31.943l.014.013.014.013c.176.177.355.334.562.514l.008.008c.199.174.423.37.65.597l-1.414 1.414a11.257 11.257 0 0 0-.562-.514l-.009-.008c-.194-.17-.413-.361-.635-.582z"
              fill="#DFEEFF"/>
        <path d="M25.424 41.695V39.66s1.729-.61 3.05-1.017V30.51l-3.05-1.018v-2.033h7.118v11.186c1.322.407 3.051 1.017 3.051 1.017v2.034h-10.17z"
              fill="#A3D4FF"/>
        <path fill-rule="evenodd" clip-rule="evenodd"
              d="M24.424 26.458h9.118V37.91a93.874 93.874 0 0 1 2.089.704l.216.075.079.028.667.235v3.742h-12.17v-3.742l.668-.235.079-.028a150.495 150.495 0 0 1 .961-.331c.398-.136.872-.295 1.344-.448V31.23l-3.051-1.017V26.458zm2 2.313 3.05 1.017v9.595l-.705.217a74.95 74.95 0 0 0-2.345.772v.323h8.17v-.323a74.94 74.94 0 0 0-2.345-.772l-.707-.217V28.458h-5.118v.313z"
              fill="#4C739E"/>
        <path d="M30.509 24.407a3.05 3.05 0 1 0 0-6.102 3.05 3.05 0 0 0 0 6.102z" fill="#A3D4FF"/>
        <path fill-rule="evenodd" clip-rule="evenodd"
              d="M30.509 19.305a2.05 2.05 0 1 0 0 4.102 2.05 2.05 0 0 0 0-4.102zm-4.051 2.05a4.05 4.05 0 1 1 8.101.001 4.05 4.05 0 0 1-8.101 0z"
              fill="#4C739E"/>
    </g>
    <defs>
        <clipPath id="a">
            <path fill="#fff" d="M0 0h60v60H0z"/>
        </clipPath>
    </defs>
</svg>