<svg width="60" height="60" fill="none" xmlns="http://www.w3.org/2000/svg">
    <path d="M30.968 46.452c12.827 0 23.226-10.399 23.226-23.226S43.795 0 30.968 0C18.14 0 7.742 10.399 7.742 23.226S18.14 46.452 30.968 46.452z"
          fill="#F4F8FF"/>
    <path d="m54.194 28.064-2.517 5.13c-.677 0-1.451.29-1.935.87l-3.097 3.097c-.968.968-3.774.968-4.839 2.13l-4.064 4.064c-1.742 1.548-1.936 4.355-1.936 6v7.742h12.581c0-2.032-.097-3.968.968-5.032.774-.775 4.742-4.742 7.645-7.549 1.258-1.258 2.032-3 2.032-4.839V21.29c-1.935 0-5.516 1.645-4.838 6.774z"
          fill="#fff"/>
    <path d="M49.355 57.097h-1.936v-.29c0-2.13 0-4.065 1.258-5.42.484-.484 2.226-2.226 4.258-4.161l3.387-3.29c1.065-1.065 1.742-2.613 1.742-4.162V22.452a4.513 4.513 0 0 0-1.935 1.16c-.871 1.065-1.258 2.517-.968 4.356v.29L53.13 33.29l-1.839-.677 1.839-4.645c-.29-2.904.677-4.645 1.452-5.613 1.258-1.452 3.096-2.032 4.354-2.032h.968v19.451c0 2.032-.87 4.065-2.322 5.516l-3.388 3.29c-1.935 1.936-3.774 3.678-4.258 4.162-.58.774-.58 2.323-.58 4.064v.29z"
          fill="#4C739E"/>
    <path d="M36.774 57.097H34.84v-7.742c0-3.097.677-5.323 2.129-6.774l4.064-4.065c.774-.774 1.936-1.064 3.097-1.451.677-.194 1.548-.484 1.839-.678l3.096-3.097c1.452-1.451 3.968-1.451 5.517 0 .774.775 1.16 1.742 1.16 2.71 0 1.065-.386 2.032-1.16 2.71l-5.904 5.903-1.354-1.355 5.903-5.903c.387-.387.58-.871.58-1.355a1.91 1.91 0 0 0-.58-1.355c-.774-.774-2.032-.774-2.71 0l-3.097 3.097c-.58.58-1.645.87-2.613 1.161-.87.29-1.838.484-2.225.968l-4.065 4.064c-1.064 1.065-1.548 2.904-1.548 5.42v7.742h-.194z"
          fill="#4C739E"/>
    <path d="M51.194 55.161H33.87V60h17.323v-4.839z" fill="#A3D4FF"/>
    <path d="M50.226 60v-3.871H34.839V60h-1.936v-5.806h19.258V60h-1.935z" fill="#4C739E"/>
    <path d="M39.677 58.065h-2.903V60h2.903v-1.935z" fill="#4C739E"/>
    <path d="m5.806 28.064 2.517 5.13c.677 0 1.451.29 1.935.87l3.097 3.097c.968.968 3.774.968 4.838 2.13l4.065 4.064c1.645 1.645 1.839 4.451 1.839 6.097v7.742H11.613c0-2.033.097-3.968-.968-5.033-.774-.774-4.839-4.742-7.645-7.548-1.258-1.258-2.032-3-2.032-4.839V21.29c1.935 0 5.516 1.645 4.838 6.774z"
          fill="#fff"/>
    <path d="M12.58 57.097h-1.935v-.29c0-1.742 0-3.29-.677-4.065-.484-.484-2.226-2.226-4.258-4.161l-3.387-3.29C.87 43.838 0 41.805 0 39.773V20.323h.968c1.258 0 3 .483 4.355 2.032.87.968 1.838 2.71 1.451 5.613l1.839 4.645-1.839.677-1.935-5.129v-.29c.193-1.839-.097-3.29-.968-4.355-.58-.677-1.258-1.064-1.936-1.161v17.322c0 1.549.678 3.097 1.742 4.162l3.388 3.29c2.032 1.936 3.774 3.774 4.258 4.161 1.258 1.258 1.258 3.29 1.258 5.42v.387z"
          fill="#4C739E"/>
    <path d="M25.161 57.097h-1.935v-7.742c0-2.516-.58-4.355-1.549-5.42l-4.064-4.064c-.387-.387-1.355-.678-2.226-.968-1.064-.29-2.032-.58-2.613-1.161l-3.097-3.097c-.774-.774-2.032-.774-2.71 0A1.91 1.91 0 0 0 6.388 36c0 .484.194.968.58 1.355l5.904 5.903-1.355 1.355-5.903-5.903c-.774-.775-1.161-1.742-1.161-2.71 0-1.065.387-2.032 1.16-2.71 1.452-1.451 3.969-1.451 5.517 0l3.097 3.097c.29.29 1.064.484 1.838.678 1.162.29 2.323.677 3.097 1.451l4.065 4.065c1.451 1.451 2.129 3.677 2.129 6.774v7.742h-.194z"
          fill="#4C739E"/>
    <path d="M26.129 55.161H8.709V60h17.42v-4.839z" fill="#A3D4FF"/>
    <path d="M27.097 60H25.16v-3.871H9.677V60H7.742v-5.806h19.355V60z" fill="#4C739E"/>
    <path d="M23.226 58.065h-2.903V60h2.903v-1.935z" fill="#4C739E"/>
    <path d="M26.35 37.067c-5.576-2.845-11.55-7.965-11.55-12.46V10.952h1.138v13.655c0 3.414 4.609 8.193 10.924 11.436l-.512 1.024zM36.25 37.067l-.512-1.024c6.315-3.243 10.924-8.022 10.924-11.436V10.952H47.8v13.655c0 4.495-5.974 9.615-11.55 12.46z"
          fill="#DFEEFF"/>
    <path d="M31.3 34.848c-1.934 0-13.086-5.576-13.086-11.948V11.976c0-.512.341-1.024.853-1.138a4.715 4.715 0 0 0 3.585-3.585c.113-.512.569-.853 1.138-.853h15.077c.512 0 1.024.341 1.138.853a4.715 4.715 0 0 0 3.585 3.585c.512.114.853.569.853 1.138V22.9c-.057 6.372-11.209 11.948-13.143 11.948zm-7.51-27.31c-.512 2.162-2.276 3.926-4.438 4.381V22.9c0 5.69 10.696 10.81 11.948 10.81 1.252 0 11.948-5.12 11.948-10.81V11.976c-2.162-.512-3.926-2.22-4.38-4.438H23.79z"
          fill="#4C739E"/>
    <path d="M31.3 20.055v-8.534h5.12c.285 1.138 1.48 2.56 2.846 2.845v5.69H31.3z" fill="#A3D4FF"/>
    <path d="M39.834 20.624h-9.103v-9.672h6.145l.114.455c.227.967 1.308 2.219 2.39 2.39l.454.113v6.714zm-7.965-1.138h6.828v-4.665c-1.252-.455-2.276-1.593-2.675-2.731H31.87v7.396z"
          fill="#4C739E"/>
    <path d="M23.334 20.055v2.276c0 3.357 6.885 7.397 7.966 7.397v-9.673h-7.966z" fill="#A3D4FF"/>
    <path d="M31.869 30.297H31.3c-1.252 0-8.535-4.21-8.535-7.966v-2.845h9.104v10.81zm-7.966-9.673v1.707c0 2.503 4.95 5.86 6.828 6.657v-8.364h-6.828zM28.455 8.676h-1.138v1.138h1.138V8.676zM21.628 13.797H20.49v1.137h1.138v-1.137zM21.628 19.486H20.49v1.138h1.138v-1.138zM23.903 26.314h-1.137v1.138h1.137v-1.138zM29.024 30.297h-1.138v1.137h1.138v-1.137zM35.283 8.676h-1.138v1.138h1.138V8.676zM42.11 13.797h-1.138v1.137h1.138v-1.137zM42.11 19.486h-1.138v1.138h1.138v-1.138zM39.834 26.314h-1.138v1.138h1.139v-1.138zM34.714 30.297h-1.138v1.137h1.138v-1.137z"
          fill="#4C739E"/>
    <path d="M31.3 30.297c-1.252 0-8.535-4.21-8.535-7.966v-7.51c0-.455.285-.91.74-1.081.967-.342 1.707-1.309 1.992-2.049.17-.455.569-.74 1.08-.74h9.388c.456 0 .91.285 1.081.74.285.797 1.082 1.707 2.049 2.049.455.17.74.569.74 1.08v7.511c0 3.755-7.283 7.966-8.535 7.966zM26.578 12.09c-.342.967-1.366 2.276-2.732 2.73l.057 7.511c0 2.845 6.373 6.77 7.397 6.828 1.024-.057 7.396-3.983 7.396-6.828v-7.51c-1.308-.455-2.332-1.707-2.674-2.731h-9.444z"
          fill="#4C739E"/>
    <path d="M39.266 19.486H23.335v1.138h15.93v-1.138z" fill="#4C739E"/>
    <path d="M31.869 11.52H30.73v18.208h1.138V11.52z" fill="#4C739E"/>
</svg>