<svg width="60" height="60" fill="none" xmlns="http://www.w3.org/2000/svg">
    <g clip-path="url(#a)">
        <path d="M39.375 51.531c10.873 0 19.688-8.814 19.688-19.687 0-10.873-8.815-19.688-19.688-19.688s-19.688 8.815-19.688 19.688S28.502 51.53 39.376 51.53z"
              fill="#F4F8FF"/>
        <path d="M51.563 45.906h-11.25v9.375h11.25v-9.375z" fill="#A3D4FF" stroke="#4C739E" stroke-width="2"
              stroke-miterlimit="10"/>
        <path d="M40.313 32.781h-11.25v22.5h11.25v-22.5z" fill="#DFEEFF" stroke="#4C739E" stroke-width="2"
              stroke-miterlimit="10"/>
        <path d="M29.063 39.344h-11.25V55.28h11.25V39.344z" fill="#A3D4FF" stroke="#4C739E" stroke-width="2"
              stroke-miterlimit="10"/>
        <path d="M17.813 28.094H6.563V55.28h11.25V28.094z" fill="#fff" stroke="#4C739E" stroke-width="2"
              stroke-miterlimit="10"/>
        <path d="M58.125 55.281H60M0 55.281h1.875M56.25 55.281H3.75M43.125 35.594h8.438v-8.438" stroke="#4C739E"
              stroke-width="2" stroke-miterlimit="10"/>
        <path d="M51.563 35.594 33.75 17.78l-9.375 9.375-8.438-8.437M14.063 16.844 11.25 14.03M9.375 12.156 7.5 10.281M5.625 8.406 3.75 6.531"
              stroke="#4C739E" stroke-width="2" stroke-miterlimit="10"/>
        <path d="m26.25 17.781-5.625-5.625M18.75 10.281l-1.875-1.875M15 6.531l-1.875-1.875" stroke="#DFEEFF"
              stroke-width="2" stroke-miterlimit="10"/>
    </g>
    <defs>
        <clipPath id="a">
            <path fill="#fff" transform="translate(0 4)" d="M0 0h60v52.219H0z"/>
        </clipPath>
    </defs>
</svg>