<svg width="60" height="60" fill="none" xmlns="http://www.w3.org/2000/svg">
    <path fill="#fff" d="M0 0h60v60H0z"/>
    <path d="M23.095 54.564c12.755 0 23.095-10.34 23.095-23.095 0-12.755-10.34-23.095-23.095-23.095C10.34 8.374 0 18.714 0 31.469c0 12.755 10.34 23.095 23.095 23.095z"
          fill="#F4F8FF"/>
    <path d="M26.884 30.199a3.325 3.325 0 0 0-3.311 3.318v17.42a3.325 3.325 0 0 0 3.311 3.319h28.977a3.325 3.325 0 0 0 3.311-3.318v-17.42a3.325 3.325 0 0 0-3.311-3.32H26.884z"
          fill="#A3D4FF"/>
    <path d="M55.86 55.086H26.885c-2.318 0-4.14-1.825-4.14-4.148v-17.42c0-2.324 1.822-4.149 4.14-4.149h28.977c2.318 0 4.139 1.825 4.139 4.148v17.42c0 2.324-1.821 4.149-4.14 4.149zM26.885 31.028c-1.407 0-2.483 1.079-2.483 2.49v17.42c0 1.41 1.076 2.488 2.483 2.488h28.977c1.407 0 2.483-1.078 2.483-2.488v-17.42c0-1.411-1.076-2.49-2.483-2.49H26.884z"
          fill="#4C739E"/>
    <path d="M33.508 47.62H28.54v1.659h4.968v-1.66zM40.13 47.62h-4.139v1.659h4.14v-1.66zM47.582 47.62h-4.968v1.659h4.968v-1.66zM55.033 47.62h-4.968v1.659h4.968v-1.66z"
          fill="#4C739E"/>
    <path d="M55.033 38.08c0 1.576-1.325 2.903-2.898 2.903h-.828c-1.573 0-2.897-1.327-2.897-2.903s1.324-2.904 2.897-2.904h.828c1.573 0 2.898 1.328 2.898 2.904z"
          fill="#fff"/>
    <path d="M52.135 41.813h-.828a3.714 3.714 0 0 1-3.725-3.733 3.714 3.714 0 0 1 3.725-3.733h.828c2.07 0 3.726 1.659 3.726 3.733a3.714 3.714 0 0 1-3.726 3.733zm-.828-5.807c-1.159 0-2.07.912-2.07 2.074 0 1.161.911 2.074 2.07 2.074h.828c1.16 0 2.07-.913 2.07-2.074 0-1.162-.91-2.074-2.07-2.074h-.828z"
          fill="#4C739E"/>
    <path d="M32.035 49.035H15.554a2.464 2.464 0 0 1-2.467-2.467V15.233a2.464 2.464 0 0 1 2.467-2.468h16.481a2.464 2.464 0 0 1 2.467 2.467v31.336c0 1.312-1.102 2.467-2.467 2.467z"
          fill="#DFEEFF"/>
    <path d="M32.035 49.822H15.554a3.293 3.293 0 0 1-3.307-3.306V15.18a3.293 3.293 0 0 1 3.307-3.307h16.481a3.293 3.293 0 0 1 3.307 3.307v31.336a3.293 3.293 0 0 1-3.307 3.306zM15.554 13.5c-.892 0-1.627.735-1.627 1.627v31.389c0 .892.735 1.627 1.627 1.627h16.481c.893 0 1.628-.735 1.628-1.627V15.18c0-.892-.735-1.627-1.628-1.627H15.554V13.5z"
          fill="#4C739E"/>
    <path d="M34.555 16.807H13.087V42.37h21.468V16.807z" fill="#fff"/>
    <path d="M35.342 43.261H12.247V16.02h23.095V43.26zm-21.468-1.68h19.788V17.648H13.875v23.935zM26.262 44.888h-4.934v1.628h4.934v-1.628z"
          fill="#4C739E"/>
    <path d="m18.44 30.822 2.1-2.047 1.838 1.784 5.668-5.721 2.362 2.362-7.82 7.768-4.147-4.147z" fill="#4C739E"/>
    <path d="M50.077 17.997h-1.419v4.256h1.419v-4.256z" fill="#DFEEFF"/>
    <path d="M51.495 19.416H47.24v1.418h4.256v-1.418zM5.462 44.241H4.043v4.256h1.419V44.24z" fill="#DFEEFF"/>
    <path d="M6.88 45.66H2.624v1.418H6.88V45.66zM28.206 4h-1.418v4.256h1.418V4z" fill="#DFEEFF"/>
    <path d="M29.625 5.419H25.37v1.418h4.256V5.42z" fill="#DFEEFF"/>
</svg>