<svg width="50" height="50" viewBox="0 0 50 50" fill="none" xmlns="http://www.w3.org/2000/svg">
<path d="M46.5493 44.8827H3.0282V46.2911H46.5493V44.8827Z" fill="#4C739E"/>
<path d="M1.40845 44.8827H0V46.2911H1.40845V44.8827Z" fill="#4C739E"/>
<path d="M47.1831 44.8827H45.7747V46.2911H47.1831V44.8827Z" fill="#4C739E"/>
<path d="M44.3662 44.8827H41.5493V46.2911H44.3662V44.8827Z" fill="#4C739E"/>
<path d="M12.676 27.277H4.92957V45.5868H12.676V27.277Z" fill="white"/>
<path d="M13.3803 46.2911H4.22534V26.5728H13.3803V46.2911ZM5.63379 44.8826H11.9718V27.9812H5.63379V44.8826Z" fill="#4C739E"/>
<path d="M12.6761 23.0516H7.0423V27.277H12.6761V23.0516Z" fill="white"/>
<path d="M13.3803 27.9812H6.33804V22.3474H13.3803V27.9812ZM7.74649 26.5728H11.9718V23.7559H7.74649V26.5728Z" fill="#4C739E"/>
<path d="M31.6901 16.7136H12.6761V45.5869H31.6901V16.7136Z" fill="white"/>
<path d="M32.3944 46.2911H11.9718V16.0094H32.3944V46.2911ZM13.3803 44.8826H30.9859V17.4179H13.3803V44.8826Z" fill="#4C739E"/>
<path d="M24.6479 39.9531H19.7183V45.5869H24.6479V39.9531Z" fill="white"/>
<path d="M25.3521 46.2911H19.0141V39.2489H25.3521V46.2911ZM20.4225 44.8827H23.9437V40.6574H20.4225V44.8827Z" fill="#4C739E"/>
<path d="M29.5775 13.1925H14.7888V16.7136H29.5775V13.1925Z" fill="white"/>
<path d="M30.2817 17.4179H14.0845V12.4883H30.2817V17.4179ZM15.493 16.0094H28.8732V13.8967H15.493V16.0094Z" fill="#4C739E"/>
<path d="M20.4225 26.5728V23.0516H16.1972V26.5728" fill="white"/>
<path d="M21.1268 26.5728H19.7183V23.7559H16.9014V26.5728H15.493V22.3474H21.1268V26.5728Z" fill="#4C739E"/>
<path d="M20.4225 32.9108V29.3896H16.1972V32.9108" fill="white"/>
<path d="M21.1268 32.9108H19.7183V30.0939H16.9014V32.9108H15.493V28.6854H21.1268V32.9108Z" fill="#4C739E"/>
<path d="M40.1408 30.446C40.1408 35.0235 35.7746 37.8404 33.8028 41.3615C32.4648 43.7559 33.8732 45.5868 32.0423 45.5868C30.2113 45.5868 31.6197 43.7559 30.2817 41.3615C28.3099 37.8404 23.9437 35.7277 23.9437 30.446C23.9437 25.939 27.5352 22.3474 32.0423 22.3474C36.5493 22.3474 40.1408 25.939 40.1408 30.446Z" fill="#A3D4FF"/>
<path d="M32.0423 46.2911C30.3521 46.2911 30.2817 45.0235 30.2817 44.1784C30.2817 43.4742 30.2113 42.6291 29.6479 41.7136C29.0141 40.5868 28.169 39.6714 27.1831 38.615C25.3521 36.5728 23.2394 34.2488 23.2394 30.446C23.2394 25.5868 27.1831 21.6432 32.0423 21.6432C36.9014 21.6432 40.8451 25.5868 40.8451 30.446C40.8451 33.7559 38.8028 36.1502 36.9014 38.4742C35.9859 39.6009 35.0704 40.6573 34.4366 41.7136C33.8732 42.6291 33.8732 43.4742 33.8028 44.1784C33.7324 45.0235 33.7324 46.2911 32.0423 46.2911ZM31.7606 44.8826C31.7606 44.8826 31.831 44.8826 32.0423 44.8826C32.2535 44.8826 32.3239 44.8122 32.3239 44.8122C32.3944 44.7418 32.3944 44.3192 32.3944 44.0375C32.4648 43.2629 32.4648 42.1361 33.169 40.939C33.8732 39.7418 34.8592 38.5446 35.7747 37.4883C37.6761 35.3052 39.4366 33.1925 39.4366 30.3756C39.4366 26.3615 36.1268 23.0516 32.0423 23.0516C27.9578 23.0516 24.6479 26.3615 24.6479 30.446C24.6479 33.6854 26.4085 35.6573 28.3099 37.6995C29.2254 38.7559 30.2113 39.8122 30.9155 41.0094C31.6197 42.2066 31.6901 43.3333 31.6901 44.108C31.6901 44.3897 31.6901 44.7418 31.7606 44.8826Z" fill="#4C739E"/>
<path d="M32.0423 33.6151C33.7925 33.6151 35.2113 32.1963 35.2113 30.4461C35.2113 28.6959 33.7925 27.2771 32.0423 27.2771C30.2921 27.2771 28.8733 28.6959 28.8733 30.4461C28.8733 32.1963 30.2921 33.6151 32.0423 33.6151Z" fill="white"/>
<path d="M32.0423 34.3898C29.8592 34.3898 28.0987 32.6292 28.0987 30.4461C28.0987 28.263 29.8592 26.5024 32.0423 26.5024C34.2254 26.5024 35.986 28.263 35.986 30.4461C35.986 32.6292 34.2254 34.3898 32.0423 34.3898ZM32.0423 28.0517C30.7043 28.0517 29.648 29.1081 29.648 30.4461C29.648 31.7841 30.7043 32.8405 32.0423 32.8405C33.3804 32.8405 34.4367 31.7841 34.4367 30.4461C34.4367 29.1081 33.3804 28.0517 32.0423 28.0517Z" fill="#4C739E"/>
<path d="M8.4507 13.1925H3.52112V14.601H8.4507V13.1925Z" fill="#DFEEFF"/>
<path d="M11.2676 13.1925H9.85916V14.601H11.2676V13.1925Z" fill="#DFEEFF"/>
<path d="M33.0986 7.55872H31.6901V8.96717H33.0986V7.55872Z" fill="#DFEEFF"/>
<path d="M29.5775 7.55872H28.169V8.96717H29.5775V7.55872Z" fill="#DFEEFF"/>
<path d="M26.7606 8.96718H20.9155L20.7746 8.54464C20.7746 8.54464 20.5634 7.98126 20 7.41788C19.7887 7.20661 19.0141 7.34746 18.7324 7.55873L17.9577 7.98126L17.6056 6.99535C17.6056 6.92492 16.9718 4.74182 14.0845 4.74182C11.1972 4.74182 10.6338 8.19253 10.6338 8.33337L10.5634 8.96718H4.22534V7.55873H9.36619C9.78872 5.79816 11.1972 3.33337 14.0845 3.33337C16.6901 3.33337 18.0986 4.81225 18.7324 5.93901C19.3662 5.79816 20.2817 5.65732 20.9155 6.36154C21.338 6.78408 21.6197 7.27704 21.831 7.55873H26.7606V8.96718Z" fill="#DFEEFF"/>
<path d="M50 12.4179H45.1408L45 11.9954C45 11.9954 44.7887 11.3616 44.2958 10.7982C44.1549 10.5869 43.5915 10.8686 43.3803 10.939L42.6056 11.432L42.3944 10.5869C42.3944 10.5165 41.9014 8.26297 39.5775 8.26297C37.3239 8.26297 36.831 11.9249 36.831 11.9249L36.7606 12.4883H31.5493V11.2207H35.6338C35.9155 9.95311 36.831 6.99536 39.507 6.99536C41.6901 6.99536 42.8169 8.40381 43.3098 9.60099C43.9437 9.46015 44.6479 9.46015 45.1408 10.0235C45.4929 10.4461 45.7042 10.8686 45.8451 11.2207H50V12.4179Z" fill="#DFEEFF"/>
</svg>
