<svg width="60" height="60" fill="none" xmlns="http://www.w3.org/2000/svg">
    <g clip-path="url(#a)">
        <path d="M48.193 32.595C49.85 22.325 42.866 12.655 32.595 11 22.325 9.343 12.655 16.326 11 26.597c-1.656 10.271 5.327 19.94 15.598 21.596 10.271 1.657 19.94-5.327 21.596-15.598z"
              fill="#F4F8FF"/>
        <path fill-rule="evenodd" clip-rule="evenodd"
              d="M51.46 23.24c1.946 2.459 2.947 5.7 2.947 8.91 0 3.209-1 6.45-2.948 8.909l-1.568-1.242c1.632-2.062 2.516-4.85 2.516-7.668 0-2.819-.884-5.606-2.516-7.668l1.568-1.241z"
              fill="#DFEEFF"/>
        <path fill-rule="evenodd" clip-rule="evenodd"
              d="M58.058 32.15c0-5.438-1.814-10.772-5.056-14.824l1.562-1.249c3.54 4.426 5.494 10.206 5.494 16.072 0 5.87-1.955 11.55-5.391 15.967l-1.579-1.228c3.157-4.059 4.97-9.305 4.97-14.739zM10.203 24.481c-1.632 2.062-2.515 4.85-2.515 7.668 0 2.819.883 5.606 2.515 7.668L8.635 41.06c-1.947-2.46-2.947-5.7-2.947-8.91s1-6.45 2.947-8.91l1.568 1.242z"
              fill="#DFEEFF"/>
        <path fill-rule="evenodd" clip-rule="evenodd"
              d="M-.058 32.15c0-5.963 1.954-11.649 5.494-16.073l1.562 1.25c-3.243 4.052-5.056 9.293-5.056 14.822 0 5.434 1.813 10.68 4.97 14.74l-1.579 1.227C1.897 43.7-.058 38.018-.058 32.15z"
              fill="#DFEEFF"/>
        <path fill-rule="evenodd" clip-rule="evenodd"
              d="M28.222 10.61a1.633 1.633 0 0 0 1.637 1.607c.931 0 1.637-.754 1.637-1.638 0-.979-.706-1.637-1.543-1.637-.935 0-1.655.67-1.731 1.668zm-1.999-.093c.125-2 1.66-3.575 3.73-3.575 1.989 0 3.543 1.602 3.543 3.637 0 1.942-1.555 3.638-3.637 3.638-1.942 0-3.638-1.555-3.638-3.638v-.03l.002-.032z"
              fill="#4C739E"/>
        <path d="M35.793 39.873c0 2.731-2.638 4.898-5.934 4.898-3.297 0-5.934-2.167-5.934-4.898 0-2.732 2.637-4.898 5.934-4.898 3.296 0 5.934 2.166 5.934 4.898z"
              fill="#fff"/>
        <path fill-rule="evenodd" clip-rule="evenodd"
              d="M29.859 35.975c-2.934 0-4.934 1.89-4.934 3.898 0 2.007 2 3.898 4.934 3.898s4.934-1.891 4.934-3.898-2-3.898-4.934-3.898zm-6.934 3.898c0-3.456 3.274-5.898 6.934-5.898s6.934 2.442 6.934 5.898c0 3.456-3.275 5.898-6.934 5.898-3.66 0-6.934-2.442-6.934-5.898z"
              fill="#4C739E"/>
        <path d="M44.27 32.243c-1.13-1.224-3.58-3.673-4.144-9.136-.471-5.558-4.71-9.984-10.267-9.984-5.558 0-9.796 4.426-10.267 9.984-.471 5.463-2.92 7.912-4.145 9.136-.941 1.507-1.224 4.05-1.224 5.087 3.768 1.884 9.042 2.637 15.824 2.637s11.586-.753 15.353-2.637c.095-1.036-.188-3.485-1.13-5.087z"
              fill="#A3D4FF"/>
        <path fill-rule="evenodd" clip-rule="evenodd"
              d="M18.596 23.022c.509-6.003 5.117-10.9 11.263-10.9 6.142 0 10.75 4.892 11.262 10.89.512 4.925 2.62 7.193 3.747 8.406.048.05.093.1.137.147l.073.079.054.092c.552.938.887 2.075 1.075 3.078.187 1 .247 1.969.19 2.606l-.051.555-.498.25c-3.976 1.987-8.965 2.742-15.8 2.742-6.823 0-12.29-.752-16.272-2.743l-.553-.276v-.618c0-.588.078-1.547.278-2.56.197-1 .533-2.152 1.098-3.057l.06-.096.099-.098c1.154-1.154 3.398-3.398 3.838-8.497zm11.263-8.9c-4.969 0-8.838 3.958-9.27 9.07-.49 5.676-3.022 8.343-4.349 9.672-.348.598-.607 1.43-.777 2.293-.113.572-.18 1.117-.213 1.553 3.519 1.58 8.415 2.257 14.797 2.257 6.394 0 10.881-.679 14.367-2.274a10.243 10.243 0 0 0-.173-1.51c-.158-.842-.419-1.691-.782-2.344l-.052-.055c-1.228-1.324-3.698-3.986-4.276-9.574l-.001-.01v-.009c-.434-5.111-4.303-9.068-9.271-9.068z"
              fill="#4C739E"/>
        <path fill-rule="evenodd" clip-rule="evenodd"
              d="M25.675 16.689c.723-.517 1.55-.939 2.324-1.068l.329 1.973c-.356.06-.895.297-1.49.722a6.754 6.754 0 0 0-1.534 1.51 7.788 7.788 0 0 0-.999 1.934c-.235.684-.296 1.23-.242 1.56l-1.972.328c-.134-.801.04-1.715.323-2.538a9.787 9.787 0 0 1 1.262-2.446 8.748 8.748 0 0 1 1.999-1.975z"
              fill="#4C739E"/>
    </g>
    <defs>
        <clipPath id="a">
            <path fill="#fff" transform="translate(0 7)" d="M0 0h60v46.06H0z"/>
        </clipPath>
    </defs>
</svg>