<svg width="60" height="60" fill="none" xmlns="http://www.w3.org/2000/svg">
    <g clip-path="url(#a)">
        <path d="M30.407 45.763a3.05 3.05 0 1 0 0-6.102 3.05 3.05 0 0 0 0 6.102z" fill="#A3D4FF"/>
        <path fill-rule="evenodd" clip-rule="evenodd"
              d="M30.407 40.661a2.05 2.05 0 1 0 0 4.102 2.05 2.05 0 0 0 0-4.102zm-4.051 2.05a4.05 4.05 0 1 1 8.102 0 4.05 4.05 0 0 1-8.102 0z"
              fill="#4C739E"/>
        <path d="M27.356 33.56c0-2.746 4.271-5.594 5.898-7.221 1.424-1.424 1.22-3.763-.508-4.983-1.017-.712-2.44-.712-3.458-.102-.915.61-1.424 1.424-1.525 2.44 0 1.221-.204 1.73-1.424 1.73h-2.034c-1.22 0-1.932-.509-1.932-1.73.102-2.44 1.22-4.779 3.356-6.406 2.847-2.237 6.915-2.44 9.966-.407 4.678 3.153 5.186 9.56 1.322 13.22-1.22 1.12-4.271 3.052-4.576 4.475v1.017c0 .61-.407 1.017-1.017 1.017h-3.051c-.61 0-1.017-.407-1.017-1.017V33.56z"
              fill="#A3D4FF"/>
        <path fill-rule="evenodd" clip-rule="evenodd"
              d="M35.138 17.712c-2.685-1.789-6.279-1.612-8.791.363l-.006.004-.006.005c-1.884 1.435-2.866 3.483-2.962 5.63.003.396.113.505.154.54.075.063.282.17.778.17h2.034c.195 0 .309-.017.37-.032a.927.927 0 0 0 .018-.084c.023-.134.036-.326.036-.613v-.05l.005-.05c.134-1.34.823-2.411 1.965-3.173l.02-.013.02-.012c1.336-.802 3.188-.811 4.546.14l.003.002c2.216 1.564 2.518 4.628.64 6.507-.399.398-.935.857-1.486 1.328l-.18.153c-.629.539-1.29 1.112-1.898 1.713-.61.604-1.134 1.207-1.502 1.793-.371.59-.54 1.097-.54 1.526V35.61H31.44v-1.14l.023-.103c.13-.61.517-1.156.896-1.59.398-.457.892-.905 1.383-1.318a47.28 47.28 0 0 1 1.473-1.175c.466-.364.85-.667 1.12-.914 3.377-3.206 2.964-8.852-1.197-11.658zm-10.021-1.215c3.181-2.495 7.718-2.724 11.133-.448l.004.003c5.19 3.498 5.796 10.66 1.45 14.776l-.005.005-.006.006c-.34.312-.793.667-1.248 1.022l-.128.1c-.429.334-.87.678-1.288 1.03-.462.387-.865.759-1.163 1.1-.257.295-.377.502-.425.624v.878c0 .533-.182 1.054-.573 1.445-.39.39-.912.572-1.444.572h-3.051c-.532 0-1.054-.182-1.445-.572-.39-.391-.572-.912-.572-1.445V33.56c0-.944.365-1.823.846-2.589.483-.77 1.128-1.496 1.79-2.151a37.514 37.514 0 0 1 2.004-1.811l.167-.143c.571-.489 1.045-.894 1.384-1.233.968-.968.864-2.581-.376-3.458-.67-.467-1.652-.48-2.349-.074-.659.446-.981.983-1.06 1.65-.001.571-.039 1.297-.445 1.855-.494.68-1.275.819-1.978.819h-2.034c-.724 0-1.483-.147-2.07-.644-.619-.524-.862-1.277-.862-2.085V23.653c.114-2.724 1.366-5.342 3.744-7.156z"
              fill="#4C739E"/>
        <path fill-rule="evenodd" clip-rule="evenodd"
              d="M3.276 16.432C10.75 1.592 28.846-4.19 43.571 3.278l-.905 1.783C28.916-1.912 12.032 3.493 5.063 17.33c-.311.623-.582 1.168-.758 1.698l-1.898-.632c.226-.678.558-1.342.853-1.931l.016-.033zM54.84 42.762c5.004-9.816 3.63-21.304-2.555-29.552l1.6-1.2c6.627 8.836 8.101 21.142 2.735 31.665l-.005.008c-2.52 4.83-6.093 8.72-10.404 11.559l-1.1-1.67c4.027-2.652 7.368-6.286 9.73-10.81zM2.016 31.474A27.936 27.936 0 0 0 17.234 54.94l.006.003c5.1 2.648 10.692 3.532 16.091 2.845l.253 1.984c-5.786.736-11.787-.21-17.262-3.052C6.434 51.67.544 41.885.018 31.576l1.998-.102z"
              fill="#DFEEFF"/>
        <path fill-rule="evenodd" clip-rule="evenodd"
              d="M22.985 8.505c12.011-3.827 24.881 2.76 28.713 14.68l-1.904.613c-3.487-10.85-15.207-16.87-26.17-13.398-.267.106-.508.186-.723.258l-.009.003c-.23.077-.433.144-.656.234l-.743-1.857c.282-.113.534-.197.759-.272l.008-.003c.23-.077.433-.145.657-.234l.033-.013.035-.011zM36.406 50.099c7.863-2.524 13.198-9.218 14.265-16.881l1.98.276c-1.17 8.405-7.021 15.744-15.632 18.508-3.941 1.278-7.978 1.381-11.786.64l.382-1.963c3.514.684 7.204.583 10.788-.58h.003zM14.57 16.334c-4.853 5.339-6.79 12.999-4.367 20.369 1.366 4.096 3.796 7.582 6.977 9.991l-1.208 1.595c-3.53-2.675-6.185-6.51-7.666-10.956l-.002-.004c-2.66-8.087-.529-16.494 4.787-22.34l1.48 1.345z"
              fill="#4C739E"/>
    </g>
    <defs>
        <clipPath id="a">
            <path fill="#fff" d="M0 0h60v60H0z"/>
        </clipPath>
    </defs>
</svg>