<svg width="60" height="60" fill="none" xmlns="http://www.w3.org/2000/svg">
    <path d="M30.9 59.1C46.972 59.1 60 46.071 60 30 60 13.928 46.971.9 30.9.9 14.828.9 1.8 13.928 1.8 30c0 16.072 13.028 29.1 29.1 29.1z"
          fill="#F4F8FF"/>
    <path d="M30.5 3.4H4.6C2.5 3.4.8 5.1.8 7.2v14.7c0 2.1 1.7 3.8 3.8 3.8h16.6l6.2 8.3c.3.4.8.2.8-.3v-8h2.2c2.1 0 3.8-1.7 3.8-3.8V7.2c.1-2.1-1.6-3.8-3.7-3.8z"
          fill="#fff"/>
    <path d="M27.8 35.1c-.4 0-.8-.2-1.1-.5l-6-8H4.6C2 26.6 0 24.5 0 22V7.2c0-2.6 2.1-4.6 4.6-4.6h25.9c2.6 0 4.6 2.1 4.6 4.6v14.7c0 2.6-2.1 4.6-4.6 4.6h-1.4v7.2c0 .6-.4 1.1-.9 1.3-.1 0-.2.1-.4.1zM4.6 4.3C3 4.3 1.7 5.6 1.7 7.2v14.7c0 1.6 1.3 2.9 2.9 2.9h17l5.8 7.7v-7.7h3.1c1.6 0 2.9-1.3 2.9-2.9V7.2c0-1.6-1.3-2.9-2.9-2.9H4.6z"
          fill="#4C739E"/>
    <path d="M15 13.7h-1.7v1.7H15v-1.7zM21.8 13.7h-1.7v1.7h1.7v-1.7zM18.4 13.7h-1.7v1.7h1.7v-1.7zM54.9 56.6H16.3v1.7h38.6v-1.7zM58.3 56.6h-1.7v1.7h1.7v-1.7zM14.6 56.6h-1.7v1.7h1.7v-1.7zM10.3 56.6H8.6v1.7h1.7v-1.7z"
          fill="#4C739E"/>
    <path d="M37.7 39.4c2.375 0 4.3-2.283 4.3-5.1 0-2.817-1.925-5.1-4.3-5.1s-4.3 2.283-4.3 5.1c0 2.817 1.925 5.1 4.3 5.1z"
          fill="#fff"/>
    <path d="M37.7 40.4c-2.9 0-5.2-2.7-5.2-6.1 0-3.4 2.3-6.1 5.2-6.1 2.9 0 5.2 2.7 5.2 6.1 0 3.3-2.3 6.1-5.2 6.1zm0-10.3c-1.8 0-3.3 1.9-3.3 4.2 0 2.3 1.5 4.2 3.3 4.2 1.8 0 3.3-1.9 3.3-4.2 0-2.3-1.4-4.2-3.3-4.2z"
          fill="#4C739E"/>
    <path d="M27.5 57.4v-7.3c0-4 3.2-7.3 7.2-7.3h6.5l6-5.1v-10c0-.4.5-.7.9-.4l1.6 1.3c1.7 1.4 2.7 3.6 2.7 5.8v6.7l-7 6.9v9.4H27.5z"
          fill="#A3D4FF"/>
    <path d="M46.3 58.3H26.6v-8.2c0-2.2.8-4.2 2.4-5.7 1.5-1.5 3.6-2.4 5.7-2.4h6.1l5.5-4.7v-9.6c0-.5.3-1 .8-1.2.5-.2 1.1-.2 1.5.2l1.6 1.3c1.9 1.6 3 4 3 6.5v7.1l-6.9 6.9v9.8zm-17.9-1.7h16.2v-8.9l6.9-6.9v-6.4c0-2-.9-3.9-2.4-5.2l-1-.8v9.7l-6.5 5.6h-6.8c-1.7 0-3.3.7-4.5 1.9-1.2 1.2-1.9 2.8-1.9 4.5v6.5z"
          fill="#4C739E"/>
</svg>