<svg width="60" height="60" fill="none" xmlns="http://www.w3.org/2000/svg">
    <g clip-path="url(#a)">
        <path d="M30 47.719c8.284 0 15-6.716 15-15 0-8.285-6.716-15-15-15-8.284 0-15 6.715-15 15 0 8.284 6.716 15 15 15z"
              fill="#F4F8FF"/>
        <path fill-rule="evenodd" clip-rule="evenodd"
              d="M44.184 15.152a1 1 0 0 1 1.413-.03c4.502 4.305 7.247 10.282 7.247 16.94 0 9.8-6.076 18.217-14.684 21.739a1 1 0 1 1-.757-1.852c7.891-3.228 13.44-10.936 13.44-19.886 0-6.092-2.505-11.553-6.628-15.497a1 1 0 0 1-.031-1.413z"
              fill="#4C739E"/>
        <path d="M49.594 43.781c3.562.563 7.687-.281 8.718-7.218-4.406-.563-7.874 2.062-8.718 7.218z" fill="#A3D4FF"/>
        <path fill-rule="evenodd" clip-rule="evenodd"
              d="M51.989 37.25c1.76-1.423 4.011-1.99 6.45-1.68a1 1 0 0 1 .863 1.14c-.543 3.653-1.938 5.91-3.868 7.121-1.899 1.192-4.105 1.237-5.996.938a1 1 0 0 1-.831-1.15c.452-2.765 1.628-4.953 3.382-6.37zm-1.192 5.659c1.298.076 2.537-.121 3.574-.772 1.133-.71 2.19-2.071 2.756-4.65-1.517.007-2.833.471-3.882 1.318-1.097.887-1.97 2.249-2.448 4.104z"
              fill="#4C739E"/>
        <path d="M42.469 51c2.906 2.156 6.937 3.375 11.156-2.25-3.563-2.719-7.969-1.969-11.156 2.25z" fill="#A3D4FF"/>
        <path fill-rule="evenodd" clip-rule="evenodd"
              d="M47.717 46.291c2.252-.434 4.53.15 6.515 1.664a1 1 0 0 1 .193 1.395c-2.221 2.962-4.524 4.286-6.803 4.44-2.24.153-4.211-.846-5.75-1.987a1 1 0 0 1-.201-1.406c1.708-2.26 3.807-3.674 6.046-4.105zm-3.776 4.496c1.122.679 2.316 1.092 3.546 1.008 1.348-.091 2.937-.795 4.676-2.818-1.33-.756-2.721-.981-4.067-.722-1.406.271-2.846 1.088-4.155 2.532z"
              fill="#4C739E"/>
        <path d="M52.313 33.469c3.562-.375 7.406-2.25 6.656-9.188-4.407.469-7.219 3.938-6.657 9.188z" fill="#A3D4FF"/>
        <path fill-rule="evenodd" clip-rule="evenodd"
              d="M58.863 23.287a1 1 0 0 1 1.1.887c.396 3.661-.405 6.192-1.98 7.85-1.546 1.63-3.674 2.24-5.566 2.44a1 1 0 0 1-1.099-.889c-.302-2.823.295-5.269 1.659-7.092 1.368-1.829 3.438-2.936 5.886-3.196zm-5.62 9.03c1.274-.262 2.437-.771 3.29-1.67.93-.98 1.622-2.566 1.52-5.195-1.476.36-2.657 1.135-3.475 2.23-.854 1.141-1.364 2.699-1.336 4.634z"
              fill="#4C739E"/>
        <path d="M50.719 24.188c3.093-1.875 5.718-5.157 1.968-11.157-3.75 2.344-4.78 6.656-1.968 11.156z"
              fill="#A3D4FF"/>
        <path fill-rule="evenodd" clip-rule="evenodd"
              d="M52.157 12.183a1 1 0 0 1 1.379.318c1.972 3.156 2.378 5.784 1.686 7.958-.68 2.138-2.347 3.591-3.985 4.584a1 1 0 0 1-1.366-.325c-1.512-2.419-2.043-4.877-1.61-7.108.433-2.237 1.815-4.126 3.896-5.427zM51.059 22.76c-.883-1.743-1.105-3.37-.834-4.768.259-1.334.982-2.541 2.152-3.507 1.268 2.364 1.346 4.094.94 5.37-.372 1.17-1.202 2.12-2.258 2.905z"
              fill="#4C739E"/>
        <path d="M45.656 16.313c.844-3.47.469-7.594-6.375-9.375C38.156 11.25 40.5 15 45.656 16.313z" fill="#A3D4FF"/>
        <path fill-rule="evenodd" clip-rule="evenodd"
              d="M38.314 6.685a1 1 0 0 1 1.22-.715c3.596.936 5.698 2.546 6.712 4.575.998 1.996.827 4.173.382 6.004a1 1 0 0 1-1.218.733c-2.76-.703-4.873-2.087-6.13-3.979-1.264-1.903-1.593-4.217-.966-6.618zm1.74 1.522c-.182 1.504.142 2.86.892 3.99.787 1.183 2.092 2.192 3.943 2.841.187-1.276.111-2.512-.432-3.599-.598-1.196-1.854-2.389-4.403-3.232zM15.809 15.145a1 1 0 0 1-.016 1.414c-4.044 3.953-6.637 9.42-6.637 15.503 0 8.951 5.55 16.66 13.441 19.888a1 1 0 1 1-.757 1.85C13.232 50.28 7.156 41.862 7.156 32.064c0-6.668 2.845-12.638 7.239-16.934a1 1 0 0 1 1.414.016z"
              fill="#4C739E"/>
        <path d="M10.406 43.781c-3.562.563-7.687-.281-8.719-7.218 4.407-.563 7.875 2.062 8.72 7.218z" fill="#A3D4FF"/>
        <path fill-rule="evenodd" clip-rule="evenodd"
              d="M2.872 37.487c.567 2.579 1.624 3.94 2.757 4.65 1.037.651 2.276.848 3.574.772-.478-1.855-1.35-3.217-2.449-4.104-1.048-.847-2.364-1.311-3.882-1.318zm5.14-.238c1.753 1.417 2.929 3.605 3.381 6.37a1 1 0 0 1-.83 1.15c-1.892.299-4.098.254-5.997-.938-1.93-1.211-3.325-3.468-3.868-7.122a1 1 0 0 1 .863-1.139c2.439-.31 4.69.257 6.45 1.68z"
              fill="#4C739E"/>
        <path d="M17.531 51c-2.906 2.156-6.937 3.375-11.156-2.25 3.563-2.719 7.969-1.969 11.156 2.25z" fill="#A3D4FF"/>
        <path fill-rule="evenodd" clip-rule="evenodd"
              d="M7.837 48.977c1.739 2.023 3.328 2.727 4.676 2.818 1.23.084 2.424-.33 3.546-1.008-1.31-1.444-2.749-2.26-4.155-2.532-1.346-.26-2.738-.034-4.067.722zm4.446-2.685c2.239.431 4.338 1.844 6.046 4.105a1 1 0 0 1-.202 1.406c-1.538 1.141-3.509 2.14-5.75 1.988-2.278-.155-4.58-1.48-6.802-4.441a1 1 0 0 1 .193-1.395c1.985-1.515 4.263-2.098 6.515-1.663z"
              fill="#4C739E"/>
        <path d="M7.687 33.469c-3.562-.375-7.406-2.25-6.656-9.188 4.406.469 7.219 3.938 6.656 9.188z" fill="#A3D4FF"/>
        <path fill-rule="evenodd" clip-rule="evenodd"
              d="M.037 24.174a1 1 0 0 1 1.1-.887c2.448.26 4.518 1.367 5.886 3.196 1.364 1.823 1.961 4.269 1.659 7.092a1 1 0 0 1-1.1.888c-1.89-.199-4.019-.81-5.565-2.439-1.575-1.659-2.376-4.189-1.98-7.85zm1.91 1.278c-.102 2.629.59 4.214 1.52 5.195.853.899 2.016 1.408 3.29 1.67.03-1.936-.48-3.494-1.335-4.636-.818-1.094-2-1.87-3.476-2.23z"
              fill="#4C739E"/>
        <path d="M9.281 24.188C6.187 22.313 3.562 19.03 7.312 13.03c3.75 2.344 4.782 6.656 1.97 11.156z"
              fill="#A3D4FF"/>
        <path fill-rule="evenodd" clip-rule="evenodd"
              d="M7.088 12.057a1 1 0 0 1 .754.126c2.082 1.301 3.464 3.19 3.897 5.427.433 2.232-.099 4.69-1.61 7.108a1 1 0 0 1-1.366.325c-1.638-.993-3.305-2.446-3.985-4.584-.692-2.174-.286-4.802 1.686-7.958a1 1 0 0 1 .624-.444zm.536 2.427c-1.268 2.364-1.346 4.094-.94 5.37.372 1.17 1.202 2.12 2.258 2.905.883-1.743 1.105-3.37.834-4.768-.259-1.334-.982-2.541-2.152-3.507z"
              fill="#4C739E"/>
        <path d="M14.344 16.313c-.844-3.47-.469-7.594 6.375-9.375C21.844 11.25 19.5 15 14.344 16.313z" fill="#A3D4FF"/>
        <path fill-rule="evenodd" clip-rule="evenodd"
              d="M20.467 5.97a1 1 0 0 1 1.22.715c.626 2.4.297 4.715-.967 6.618-1.257 1.892-3.37 3.276-6.13 3.979a1 1 0 0 1-1.218-.733c-.445-1.831-.616-4.008.382-6.004 1.014-2.029 3.116-3.64 6.713-4.575zm-5.356 9.068c1.851-.65 3.156-1.658 3.943-2.841.75-1.13 1.074-2.486.892-3.99-2.549.843-3.805 2.036-4.403 3.232-.543 1.087-.62 2.323-.432 3.6z"
              fill="#4C739E"/>
        <path fill-rule="evenodd" clip-rule="evenodd"
              d="M22.735 16.422a1 1 0 0 1-.438 1.345c-5.392 2.74-9.11 8.4-9.11 14.952 0 4.86 2.12 9.285 5.49 12.39a1 1 0 0 1-1.354 1.47c-3.756-3.459-6.136-8.408-6.136-13.86 0-7.324 4.158-13.663 10.204-16.736a1 1 0 0 1 1.344.439zM36.884 16.246a1 1 0 0 1 1.339-.456c6.23 3.066 10.59 9.497 10.59 16.929 0 5.452-2.38 10.401-6.136 13.86a1 1 0 1 1-1.355-1.47c3.37-3.105 5.49-7.53 5.49-12.39 0-6.631-3.89-12.388-9.472-15.134a1 1 0 0 1-.456-1.339z"
              fill="#DFEEFF"/>
        <path d="m30 22.406 3.188 6.75 7.124.75-5.156 5.344 1.219 6.844-6.375-3-6.375 3 1.219-6.844-5.157-5.344 7.125-.75L30 22.406z"
              fill="#A3D4FF"/>
        <path fill-rule="evenodd" clip-rule="evenodd"
              d="M30 21.406a1 1 0 0 1 .904.573l2.948 6.242 6.565.69a1 1 0 0 1 .615 1.69l-4.802 4.976 1.13 6.341a1 1 0 0 1-1.41 1.08l-5.95-2.8-5.95 2.8a1 1 0 0 1-1.41-1.08l1.13-6.34-4.802-4.977a1 1 0 0 1 .615-1.69l6.565-.69 2.948-6.242a1 1 0 0 1 .904-.573zm0 3.342-2.283 4.835a1 1 0 0 1-.8.568l-5.087.535 3.733 3.87a1 1 0 0 1 .265.87l-.88 4.94 4.626-2.177a1 1 0 0 1 .852 0l4.625 2.177-.88-4.94a1 1 0 0 1 .266-.87l3.733-3.87-5.087-.535a1 1 0 0 1-.8-.568L30 24.748z"
              fill="#4C739E"/>
    </g>
    <defs>
        <clipPath id="a">
            <path fill="#fff" transform="translate(0 6)" d="M0 0h60v47.906H0z"/>
        </clipPath>
    </defs>
</svg>