<svg width="50" height="46" viewBox="0 0 50 46" fill="none" xmlns="http://www.w3.org/2000/svg">
<path d="M48.3871 22.7581C48.2259 35.0161 38.1452 45.0161 25.8871 45.0161C13.6291 45.0161 3.79036 35.0968 3.87101 22.7581C4.0323 10.4194 14.1129 0.5 26.4517 0.5C38.7097 0.5 48.5484 10.4194 48.3871 22.7581Z" fill="#F4F8FF"/>
<path d="M46.6936 6.70972H5.88712C4.59679 6.70972 3.14518 7.7581 3.14518 9.12907V36.9517C3.14518 38.242 4.59679 39.5323 5.88712 39.5323H46.6936C47.9839 39.5323 49.1936 38.242 49.1936 36.9517V9.12907C49.1936 7.83875 47.9839 6.70972 46.6936 6.70972Z" fill="white"/>
<path d="M46.1291 9.04834H6.29036V10.6612H46.1291V9.04834Z" fill="#4C739E"/>
<path d="M46.129 12.1936H44.5161V34.0484H46.129V12.1936Z" fill="#4C739E"/>
<path d="M46.1291 35.5807H6.29036V37.1936H46.1291V35.5807Z" fill="#4C739E"/>
<path d="M15.1613 43.4838H8.3871L7.25806 42.4354L8.3871 41.3064L9.03226 41.8709H14.5161L15.0806 41.3064L16.2097 42.4354L15.1613 43.4838Z" fill="#4C739E"/>
<path d="M44.0323 43.4838H37.2581L36.129 42.4354L37.2581 41.3064L37.9032 41.8709H43.3871L43.9516 41.3064L45.0806 42.4354L44.0323 43.4838Z" fill="#4C739E"/>
<path d="M26.5323 31.7097C31.2534 31.7097 35.0806 27.8824 35.0806 23.1613C35.0806 18.4402 31.2534 14.6129 26.5323 14.6129C21.8111 14.6129 17.9839 18.4402 17.9839 23.1613C17.9839 27.8824 21.8111 31.7097 26.5323 31.7097Z" fill="#A3D4FF"/>
<path d="M26.5323 27.0322C28.6701 27.0322 30.4032 25.2991 30.4032 23.1613C30.4032 21.0234 28.6701 19.2903 26.5323 19.2903C24.3944 19.2903 22.6613 21.0234 22.6613 23.1613C22.6613 25.2991 24.3944 27.0322 26.5323 27.0322Z" fill="white"/>
<path d="M26.5322 27.8387C23.9516 27.8387 21.8548 25.742 21.8548 23.1613C21.8548 20.5807 23.9516 18.4839 26.5322 18.4839C29.1129 18.4839 31.2097 20.5807 31.2097 23.1613C31.2903 25.742 29.1935 27.8387 26.5322 27.8387ZM26.5322 20.0161C24.8387 20.0161 23.4677 21.3871 23.4677 23.0807C23.4677 24.7742 24.8387 26.1452 26.5322 26.1452C28.2258 26.1452 29.5968 24.7742 29.5968 23.0807C29.6774 21.3871 28.3064 20.0161 26.5322 20.0161Z" fill="#4C739E"/>
<path d="M26.5323 13.7258C21.371 13.7258 17.1774 17.9194 17.1774 23.0807C17.1774 28.242 21.371 32.4355 26.5323 32.4355C31.6935 32.4355 35.8871 28.242 35.8871 23.0807C35.8871 17.9194 31.7742 13.7258 26.5323 13.7258ZM34.2742 23.9678C34.1129 25.5 33.4677 26.9516 32.5806 28.0807L31.0484 26.5484L29.9193 27.6774L31.4516 29.2097C30.3226 30.1774 28.871 30.742 27.3387 30.9032V28.6452H25.7258V30.9032C24.1935 30.742 22.7419 30.0968 21.6129 29.2097L23.1452 27.6774L22.0161 26.5484L20.4839 28.0807C19.5161 26.9516 18.9516 25.5 18.7903 23.9678H21.0484V22.3549H18.7903C18.9516 20.8226 19.5968 19.371 20.4839 18.242L22.0161 19.7742L23.1452 18.6452L21.6129 17.1129C22.7419 16.1452 24.1935 15.5807 25.7258 15.4194V17.6774H27.3387V15.4194C28.871 15.5807 30.3226 16.2258 31.4516 17.1129L29.9193 18.6452L31.0484 19.7742L32.5806 18.242C33.4677 19.371 34.1129 20.8226 34.2742 22.3549H32.0161V23.9678H34.2742Z" fill="#4C739E"/>
<path d="M46.6936 5.9032H5.8871C4.19355 5.9032 2.33871 7.27417 2.33871 9.129V13.7258H1.6129C0.725806 13.7258 0 14.4516 0 15.3387V19.2097C0 20.0967 0.725806 20.8226 1.6129 20.8226H2.33871V25.4193H1.6129C0.725806 25.4193 0 26.1451 0 27.0322V30.9032C0 31.7903 0.725806 32.5161 1.6129 32.5161H2.33871V36.9516C2.33871 38.6451 4.1129 40.3387 5.8871 40.3387H46.6936C48.4677 40.3387 50 38.7258 50 36.9516V9.129C50 7.43546 48.4677 5.9032 46.6936 5.9032ZM48.3871 36.9516C48.3871 37.8387 47.5 38.7258 46.6936 38.7258H5.8871C5 38.7258 3.95161 37.758 3.95161 36.9516V32.5161H6.20968V34.0484H7.82258V32.5161H10.9677V28.5645H9.35484V30.9032H1.6129V27.0322H10.9677V25.4193H7.82258V22.3548H6.20968V25.4193H3.95161V20.8226H10.9677V16.8709H9.35484V19.2097H1.6129V15.3387H10.9677V13.7258H7.82258V12.1935H6.20968V13.7258H3.95161V9.129C3.95161 8.32255 5 7.5161 5.8871 7.5161H46.6936C47.5806 7.5161 48.3871 8.24191 48.3871 9.129V36.9516Z" fill="#4C739E"/>
</svg>
