<?xml version="1.0" encoding="utf-8"?>
<!-- Generator: Adobe Illustrator 21.1.0, SVG Export Plug-In . SVG Version: 6.00 Build 0)  -->
<svg xmlns:xlink="http://www.w3.org/1999/xlink" version="1.1" id="Layer_1" xmlns="http://www.w3.org/2000/svg" x="0px"
     y="0px"
     viewBox="0 0 100 100" style="enable-background:new 0 0 100 100;" xml:space="preserve">
<style type="text/css">
	.st0{fill:#FFFFFF;}
	.st1{fill:#4C739E;}
	.st2{fill:#DFEEFF;}
	.st3{fill:#A3D4FF;}
</style>
    <g>
	<g>
		<circle class="st0" cx="50" cy="50.1" r="30"/>
        <path class="st1" d="M50,81.6c-17.4,0-31.5-14.1-31.5-31.5S32.6,18.5,50,18.5s31.5,14.1,31.5,31.5S67.4,81.6,50,81.6z M50,21.6
			c-15.7,0-28.5,12.8-28.5,28.5S34.3,78.5,50,78.5s28.5-12.8,28.5-28.5S65.7,21.6,50,21.6z"/>
	</g>
        <path class="st2" d="M19.6,77.2C12.9,69.8,9.2,60.1,9.2,50.1c0-12,5.3-23.4,14.4-31.1l2,2.3c-8.5,7.2-13.4,17.7-13.4,28.8
		c0,9.3,3.4,18.2,9.6,25.1L19.6,77.2z"/>
        <path class="st2" d="M46.7,99.9C20.5,98.2,0,76.3,0,50.1c0-2.1,0.1-4.3,0.4-6.4l3.1,0.4c-0.3,2-0.4,4-0.4,6
		c0,24.7,19.3,45.2,43.8,46.8L46.7,99.9z"/>
        <path class="st2" d="M69,96.3l-1.2-2.8c17.7-7.3,29.1-24.3,29.1-43.4c0-8-2-15.9-5.9-22.8l2.7-1.5c4.1,7.4,6.3,15.8,6.3,24.3
		C100,70.4,87.8,88.6,69,96.3z"/>
        <path class="st2" d="M10,25.4l-2.6-1.6C16.6,8.9,32.5,0.1,50,0.1c10.5,0,20.5,3.2,29,9.2l-1.8,2.5c-8-5.7-17.4-8.7-27.2-8.7
		C33.6,3.1,18.7,11.5,10,25.4z"/>
        <g>
		<polygon class="st3" points="32.3,53.9 38.5,47.7 43.8,53.1 60.8,36.2 67.7,43.1 44.6,66.2 		"/>
            <path class="st1" d="M44.6,68.4L30.1,53.9l8.3-8.3l5.4,5.4L60.8,34l9.1,9.1L44.6,68.4z M34.5,53.9L44.6,64l20.9-20.9l-4.7-4.7
			L43.8,55.3l-5.4-5.4L34.5,53.9z"/>
	</g>
</g>
    <g>
</g>
    <g>
</g>
    <g>
</g>
    <g>
</g>
    <g>
</g>
    <g>
</g>
    <g>
</g>
    <g>
</g>
    <g>
</g>
    <g>
</g>
    <g>
</g>
    <g>
</g>
    <g>
</g>
    <g>
</g>
    <g>
</g>
</svg>
