<svg width="60" height="61" fill="none" xmlns="http://www.w3.org/2000/svg">
    <path fill-rule="evenodd" clip-rule="evenodd"
          d="M18.217 55.26c8.778 4.998 19.077 4.709 27.278 0l.978 1.73c-8.79 5.046-19.83 5.354-29.229.002l.973-1.733zM56.52 20.6C53.075 11.105 45.044 4.651 35.747 2.922L36.122.97c9.964 1.853 18.572 8.773 22.262 18.94l-1.863.69zM7.632 15.972C2.633 24.75 2.922 35.05 7.63 43.251l-1.73.978C.856 35.439.548 24.399 5.9 15l1.733.972z"
          fill="#DFEEFF"/>
    <path d="M31 55c13.255 0 24-10.969 24-24.5S44.255 6 31 6 7 16.969 7 30.5 17.745 55 31 55z" fill="#F4F8FF"/>
    <path d="M32.352 15.006c-8.527-.233-15.513 6.565-15.513 14.997H13.84c-.754 0-1.122.9-.586 1.416l4.674 4.666a.833.833 0 0 0 1.19 0l4.673-4.666c.537-.516.151-1.416-.586-1.416H20.19c0-6.499 5.327-11.748 11.894-11.665 6.232.084 11.476 5.3 11.56 11.498.083 6.516-5.194 11.831-11.727 11.831a11.59 11.59 0 0 1-7.17-2.466 1.672 1.672 0 0 0-2.212.133c-.704.717-.653 1.883.134 2.5A15.013 15.013 0 0 0 31.917 45c8.46 0 15.312-6.949 15.077-15.43-.218-7.816-6.785-14.348-14.642-14.564z"
          fill="#A3D4FF" stroke="#4C739E" stroke-width="1.5"/>
    <path d="M29.241 24.587c0-.683.57-1.25 1.257-1.25.703 0 1.256.567 1.256 1.234v5.665l4.825 2.85c.586.35.787 1.116.436 1.716a1.273 1.273 0 0 1-1.726.433l-5.227-3.082c-.502-.3-.82-.85-.82-1.434v-6.132z"
          fill="#4C739E"/>
</svg>