<svg width="60" height="60" fill="none" xmlns="http://www.w3.org/2000/svg">
    <path fill-rule="evenodd" clip-rule="evenodd"
          d="M56.405 38.425c2.832-12.39-4.721-24.67-16.875-27.541l.46-1.946c13.238 3.128 21.424 16.477 18.372 29.904-.104.611-.3 1.207-.468 1.722l-.01.033-1.901-.623c.183-.56.336-1.032.41-1.488l.005-.03.007-.03zM28.89 57.629c-4.956-1.142-9.15-3.802-12.4-7.296l1.463-1.362c3.01 3.236 6.864 5.668 11.388 6.709l.005.001c8.124 1.913 16.259-.953 21.576-6.708l1.469 1.358c-5.774 6.249-14.632 9.385-23.5 7.297z"
          fill="#DFEEFF"/>
    <path d="M21.783 41.195c10.373 0 18.782-8.55 18.782-19.097C40.565 11.55 32.156 3 21.783 3 11.409 3 3 11.55 3 22.098c0 10.547 8.41 19.097 18.783 19.097z"
          fill="#F4F8FF"/>
    <path d="M34.751 52.29c10.127 0 18.336-8.347 18.336-18.644 0-10.296-8.21-18.642-18.336-18.642-10.126 0-18.335 8.346-18.335 18.642 0 10.297 8.21 18.643 18.335 18.643z"
          fill="#fff"/>
    <path d="M46.522 19.272H42.05L39.367 22v1.819h-2.684L34 25.638v1.818h4.472l.895.91h1.788l1.79 1.819h3.577l1.789 1.819 1.788-1.82h3.578"
          fill="#A3D4FF"/>
    <path fill-rule="evenodd" clip-rule="evenodd"
          d="M41.84 18.772h4.682v1h-4.263l-2.392 2.433v2.114h-3.03L34.5 25.903v1.053h4.182l.894.91h1.789l1.789 1.819h3.577l1.58 1.605 1.579-1.605h3.787v1h-3.368l-1.998 2.032-1.999-2.032h-3.577l-1.79-1.82h-1.788l-.894-.909H33.5v-2.584l3.03-2.053h2.337v-1.524l2.973-3.023z"
          fill="#4C739E"/>
    <path fill-rule="evenodd" clip-rule="evenodd"
          d="M52.087 33.646c0-9.302-7.114-16.867-16.07-17.555l.153-1.994c10.005.768 17.917 9.208 17.917 19.55 0 10.812-8.66 19.642-19.336 19.642-10.674 0-19.335-8.83-19.335-19.643 0-2.486.47-4.972 1.319-7.18l1.867.719a18.215 18.215 0 0 0-1.186 6.461c0 9.74 7.796 17.643 17.335 17.643 9.54 0 17.336-7.903 17.336-17.643z"
          fill="#4C739E"/>
    <path d="M39.67 35.01h-1.788l-2.683-2.728H31.62l-2.683 2.729 1.789 4.546h2.683l1.789 1.82v4.546l.894.91h1.789l2.683-2.728v-2.729l2.683-2.728-3.577-3.638z"
          fill="#A3D4FF"/>
    <path fill-rule="evenodd" clip-rule="evenodd"
          d="M31.412 31.782h3.996l2.683 2.729h1.79l4.069 4.137-2.885 2.933v2.728l-2.974 3.024h-2.208L34.7 46.128v-4.547L33.2 40.057h-2.814l-2.032-5.166 3.058-3.109zm.419 1-2.309 2.348 1.545 3.927h2.552l2.08 2.115v4.547l.604.614h1.37l2.392-2.433v-2.728l2.482-2.524-3.086-3.138h-1.789l-2.683-2.728h-3.158z"
          fill="#4C739E"/>
    <path d="M25 7.272c-4.404 0-8 3.675-8 8.175 0 7.05 6.826 8.025 7.413 15.225 0 .3.293.6.587.6a.585.585 0 0 0 .587-.6c.587-7.2 7.413-8.1 7.413-15.225 0-4.5-3.596-8.175-8-8.175z"
          fill="#A3D4FF"/>
    <path fill-rule="evenodd" clip-rule="evenodd"
          d="M16 15.447c0-5.032 4.024-9.175 9-9.175s9 4.143 9 9.175c0 3.963-1.945 6.216-3.737 8.246l-.074.084c-1.754 1.986-3.335 3.775-3.602 6.944A1.585 1.585 0 0 1 25 32.271c-.48 0-.87-.234-1.118-.487a1.613 1.613 0 0 1-.468-1.06c-.268-3.181-1.86-4.991-3.62-6.993l-.059-.068C17.947 21.628 16 19.373 16 15.447zm9-7.175c-3.831 0-7 3.207-7 7.175 0 3.123 1.466 4.88 3.237 6.896l.135.153c1.37 1.557 2.89 3.284 3.628 5.834.737-2.538 2.251-4.25 3.617-5.794l.147-.167C30.532 20.367 32 18.61 32 15.447c0-3.968-3.169-7.175-7-7.175z"
          fill="#4C739E"/>
    <path d="M25 18.272a3 3 0 1 0 0-6 3 3 0 0 0 0 6z" fill="#fff"/>
    <path fill-rule="evenodd" clip-rule="evenodd"
          d="M25 13.272a2 2 0 1 0 0 4 2 2 0 0 0 0-4zm-4 2a4 4 0 1 1 8 0 4 4 0 0 1-8 0z" fill="#4C739E"/>
</svg>