<svg width="50" height="45" viewBox="0 0 50 45" fill="none" xmlns="http://www.w3.org/2000/svg">
<path d="M9.60938 15.2552H40.3906C38.5156 7.599 31.5625 1.81775 23.2812 1.81775C13.5938 1.81775 5.78125 9.63025 5.78125 19.3177C5.78125 23.3802 7.1875 27.2084 9.53125 30.1771V15.2552H9.60938Z" fill="#F4F8FF"/>
<path d="M13.2812 19.8646H11.7188C10.3906 19.8646 9.375 18.849 9.375 17.5209V40.9584C9.375 42.2865 10.3906 43.3021 11.7188 43.3021H13.2812V19.8646Z" fill="#DFEEFF"/>
<path d="M40.625 5.02087H39.0625V9.70837H40.625V5.02087Z" fill="#4C739E"/>
<path d="M44.1834 6.28274L42.1526 9.80127L43.5059 10.5824L45.5367 7.06383L44.1834 6.28274Z" fill="#4C739E"/>
<path d="M48.2597 9.79936L44.7412 11.8302L45.5223 13.1835L49.0408 11.1526L48.2597 9.79936Z" fill="#4C739E"/>
<path d="M50 15.1771H46.0938V16.7396H50V15.1771Z" fill="#4C739E"/>
<path d="M7.42188 7.36462C5.46875 7.36462 3.90625 5.80212 3.90625 3.849C3.90625 1.89587 5.46875 0.333374 7.42188 0.333374C9.375 0.333374 10.9375 1.89587 10.9375 3.849C10.9375 5.80212 9.375 7.36462 7.42188 7.36462ZM7.42188 1.89587C6.32813 1.89587 5.46875 2.75525 5.46875 3.849C5.46875 4.94275 6.32813 5.80212 7.42188 5.80212C8.51562 5.80212 9.375 4.94275 9.375 3.849C9.375 2.75525 8.51562 1.89587 7.42188 1.89587Z" fill="#DFEEFF"/>
<path d="M18.75 5.80212H17.1875V10.4896H18.75V5.80212Z" fill="#DFEEFF"/>
<path d="M20.3125 7.36462H15.625V8.92712H20.3125V7.36462Z" fill="#DFEEFF"/>
<path d="M3.125 16.7396H1.5625V21.4271H3.125V16.7396Z" fill="#BCC0C4"/>
<path d="M4.6875 18.3021H0V19.8646H4.6875V18.3021Z" fill="#BCC0C4"/>
<path d="M3.125 16.7396H1.5625V21.4271H3.125V16.7396Z" fill="#DFEEFF"/>
<path d="M4.6875 18.3021H0V19.8646H4.6875V18.3021Z" fill="#DFEEFF"/>
<path d="M9.375 17.5209C9.375 18.849 10.3906 19.8646 11.7188 19.8646H41.4062V15.1771H11.7188C10.3906 15.1771 9.375 16.1927 9.375 17.5209Z" fill="#DFEEFF"/>
<path d="M42.1875 19.8646H40.625V15.9584H11.7188C10.8594 15.9584 10.1562 16.6615 10.1562 17.5209H8.59375C8.59375 15.8021 10 14.3959 11.7188 14.3959H42.1875V19.8646Z" fill="#4C739E"/>
<path d="M37.5781 19.8646L26.5625 8.849L15.5469 19.8646" fill="#A3D4FF"/>
<path d="M16.0937 20.4115L15 19.3178L26.5625 7.75525L38.125 19.3178L37.0313 20.4115L26.5625 9.94275L16.0937 20.4115Z" fill="#4C739E"/>
<path d="M32.0312 19.8646L28.2031 16.0365C27.1094 17.1302 26.0156 17.1302 24.9219 16.0365L21.0938 19.8646" fill="#DFEEFF"/>
<path d="M21.6406 20.4115L20.5469 19.3177L24.9219 14.9427L25.4687 15.4896C26.25 16.2709 26.875 16.2709 27.6563 15.4896L28.2031 14.9427L32.5781 19.3177L31.4844 20.4115L28.2031 17.1302C27.1875 17.8334 26.0156 17.8334 25 17.1302L21.6406 20.4115Z" fill="#4C739E"/>
<path d="M46.0938 44.0834H11.7188C10 44.0834 8.59375 42.6771 8.59375 40.9584V17.5209H10.1562C10.1562 18.3802 10.8594 19.0834 11.7188 19.0834H46.0938V44.0834ZM10.1562 20.2552V40.9584C10.1562 41.8177 10.8594 42.5209 11.7188 42.5209H44.5312V20.6459H11.7188C11.1719 20.6459 10.625 20.4896 10.1562 20.2552Z" fill="#4C739E"/>
<path d="M46.0938 35.4896H34.7656C32.4219 35.4896 30.4688 33.5365 30.4688 31.1927C30.4688 28.849 32.4219 26.8959 34.7656 26.8959H46.0938C46.9531 26.8959 47.6562 27.599 47.6562 28.4584V33.9271C47.6562 34.7865 46.9531 35.4896 46.0938 35.4896Z" fill="#A3D4FF"/>
<path d="M46.0938 36.2709H34.7656C31.9531 36.2709 29.6875 34.0052 29.6875 31.1927C29.6875 28.3802 31.9531 26.1146 34.7656 26.1146H46.0938C47.4219 26.1146 48.4375 27.1302 48.4375 28.4584V33.9271C48.4375 35.2552 47.4219 36.2709 46.0938 36.2709ZM34.7656 27.6771C32.8125 27.6771 31.25 29.2396 31.25 31.1927C31.25 33.1459 32.8125 34.7084 34.7656 34.7084H46.0938C46.5625 34.7084 46.875 34.3959 46.875 33.9271V28.4584C46.875 27.9896 46.5625 27.6771 46.0938 27.6771H34.7656Z" fill="#4C739E"/>
<path d="M35.5469 33.1459C36.6256 33.1459 37.5 32.2714 37.5 31.1927C37.5 30.1141 36.6256 29.2396 35.5469 29.2396C34.4682 29.2396 33.5938 30.1141 33.5938 31.1927C33.5938 32.2714 34.4682 33.1459 35.5469 33.1459Z" fill="white"/>
<path d="M35.5469 33.9271C34.0625 33.9271 32.8125 32.6771 32.8125 31.1927C32.8125 29.7084 34.0625 28.4584 35.5469 28.4584C37.0312 28.4584 38.2812 29.7084 38.2812 31.1927C38.2812 32.6771 37.0312 33.9271 35.5469 33.9271ZM35.5469 30.0209C34.9219 30.0209 34.375 30.5677 34.375 31.1927C34.375 31.8177 34.9219 32.3646 35.5469 32.3646C36.1719 32.3646 36.7188 31.8177 36.7188 31.1927C36.7188 30.5677 36.1719 30.0209 35.5469 30.0209Z" fill="#4C739E"/>
</svg>
