<svg width="60" height="60" fill="none" xmlns="http://www.w3.org/2000/svg">
    <g clip-path="url(#a)">
        <path d="M30.21 57.277c13.32 0 24.119-10.798 24.119-24.118 0-13.32-10.798-24.12-24.119-24.12-13.32 0-24.119 10.8-24.119 24.12s10.799 24.118 24.12 24.118z"
              fill="#F4F8FF"/>
        <path d="M54.61 42.302 33.445 10.506c-1.968-3.445-5.119-3.445-7.087 0L5.095 42.302c-1.97 3.446-.394 6.202 3.544 6.202h42.526c3.839-.098 5.414-2.855 3.445-6.202z"
              fill="#fff"/>
        <path fill-rule="evenodd" clip-rule="evenodd"
              d="M34.296 9.98 55.458 41.77l.014.024c1.094 1.86 1.325 3.78.466 5.315-.858 1.531-2.614 2.339-4.748 2.394H8.64c-2.179 0-3.974-.77-4.856-2.313-.879-1.538-.642-3.485.443-5.385l.018-.03L25.508 9.979c1.083-1.88 2.631-3.057 4.394-3.057 1.762 0 3.31 1.177 4.394 3.058zm-4.394-1.058c-.788 0-1.792.533-2.676 2.08l-.017.03L5.945 42.829c-.866 1.53-.824 2.674-.426 3.37.398.698 1.36 1.306 3.119 1.306H51.15c1.697-.046 2.646-.665 3.042-1.372.393-.701.429-1.825-.431-3.3l-21.168-31.8-.017-.03c-.884-1.547-1.888-2.08-2.675-2.08z"
              fill="#4C739E"/>
        <path fill-rule="evenodd" clip-rule="evenodd"
              d="M53.035 51.146c4.728 0 7.58-5.227 4.973-9.18l1.67-1.1c3.497 5.301-.346 12.28-6.643 12.28v-2zM34.97 6.72a5.9 5.9 0 0 0-9.94 0L23.354 5.63c3.15-4.839 10.141-4.839 13.292 0L34.97 6.72zM1.992 41.967c-2.607 3.952.245 9.18 4.973 9.18v2c-6.297 0-10.14-6.98-6.643-12.281l1.67 1.1zM37.186 53.343h-1.969v-2h1.97v2zM33.248 53.343H31.28v-2h1.968v2zM29.31 53.343h-1.968v-2h1.969v2zM25.373 53.343h-1.969v-2h1.97v2z"
              fill="#DFEEFF"/>
        <path d="M29.901 17.102c2.166 0 3.544 1.575 3.446 3.248l-.886 11.32c-.098 1.182-.492 2.166-2.56 2.166-2.067 0-2.46-.984-2.559-2.165l-.886-11.32c-.197-1.674 1.28-3.25 3.445-3.25z"
              fill="#A3D4FF"/>
        <path fill-rule="evenodd" clip-rule="evenodd"
              d="M29.902 18.102c-1.71 0-2.564 1.185-2.453 2.131l.003.02.887 11.335v.002c.045.538.147.787.274.923.105.111.397.323 1.289.323.891 0 1.183-.212 1.288-.323.127-.136.23-.385.274-.923v-.002l.885-11.305c.056-1.04-.804-2.181-2.447-2.181zm-4.441 2.344c-.268-2.391 1.826-4.344 4.44-4.344 2.684 0 4.58 2.003 4.444 4.307v.01l-.887 11.335c-.054.641-.198 1.475-.809 2.126-.634.676-1.572.956-2.747.956-1.176 0-2.114-.28-2.748-.956-.61-.651-.755-1.485-.808-2.126v-.005l-.885-11.303z"
              fill="#4C739E"/>
        <path d="M29.803 44.468a3.445 3.445 0 1 0 0-6.89 3.445 3.445 0 0 0 0 6.89z" fill="#A3D4FF"/>
        <path fill-rule="evenodd" clip-rule="evenodd"
              d="M29.803 38.577a2.445 2.445 0 1 0 0 4.89 2.445 2.445 0 0 0 0-4.89zm-4.445 2.446a4.445 4.445 0 1 1 8.89 0 4.445 4.445 0 0 1-8.89 0z"
              fill="#4C739E"/>
    </g>
    <defs>
        <clipPath id="a">
            <path fill="#fff" d="M0 0h60v60H0z"/>
        </clipPath>
    </defs>
</svg>