<svg width="60" height="60" fill="none" xmlns="http://www.w3.org/2000/svg">
    <path fill-rule="evenodd" clip-rule="evenodd"
          d="M27.61 54.848c8.845 2.314 17.782-.351 23.85-6.389l1.26 1.283c-6.503 6.47-16.083 9.326-25.554 6.85l.444-1.744zM52.98 15.573C47.741 8.079 39.207 4.317 30.674 4.983l-.129-1.793c9.146-.714 18.293 3.319 23.9 11.343l-1.467 1.04zM9.152 22.98c-2.314 8.845.351 17.782 6.389 23.85l-1.283 1.26c-6.47-6.504-9.326-16.083-6.85-25.555l1.744.445z"
          fill="#DFEEFF"/>
    <path d="M32.725 52.309c11.997 0 21.723-9.929 21.723-22.176 0-12.248-9.726-22.176-21.723-22.176C20.727 7.957 11 17.885 11 30.133c0 12.247 9.726 22.176 21.724 22.176z"
          fill="#F4F8FF"/>
    <path d="M27.746 41.143c4.977 0 9.012-4.865 9.012-10.866 0-6-4.035-10.865-9.012-10.865-4.976 0-9.011 4.865-9.011 10.865 0 6.001 4.035 10.866 9.011 10.866z"
          fill="#A3D4FF"/>
    <path d="M27.746 41.736c-5.244 0-9.504-5.17-9.504-11.459 0-3.074.986-5.939 2.782-8.105 1.797-2.166 4.173-3.354 6.722-3.354 5.245 0 9.504 5.136 9.504 11.46 0 6.288-4.259 11.459-9.504 11.459zm0-21.765c-2.289 0-4.433 1.083-6.055 3.005-1.623 1.956-2.492 4.541-2.492 7.301 0 5.695 3.824 10.307 8.547 10.307 4.723 0 8.548-4.612 8.548-10.307 0-5.694-3.825-10.306-8.548-10.306z"
          fill="#4C739E"/>
    <path d="M27.845 36.142c2.633 0 4.767-2.574 4.767-5.748 0-3.174-2.134-5.748-4.767-5.748-2.632 0-4.767 2.574-4.767 5.748 0 3.175 2.135 5.748 4.767 5.748z"
          fill="#fff"/>
    <path d="M27.845 36.516c-2.81 0-5.077-2.757-5.077-6.122-.02-3.388 2.267-6.145 5.077-6.145 2.79 0 5.078 2.757 5.078 6.145 0 3.388-2.287 6.122-5.078 6.122zm0-11.496c-2.46 0-4.457 2.407-4.457 5.374 0 2.967 1.996 5.374 4.457 5.374s4.457-2.407 4.457-5.374c-.019-2.967-2.015-5.374-4.457-5.374z"
          fill="#4C739E"/>
    <path d="M27.845 35.917c2.53 0 4.582-2.473 4.582-5.523 0-3.051-2.051-5.524-4.582-5.524-2.53 0-4.581 2.473-4.581 5.524 0 3.05 2.051 5.523 4.581 5.523z"
          fill="#fff"/>
    <path d="M27.845 36.277c-2.7 0-4.879-2.65-4.879-5.883-.019-3.256 2.179-5.906 4.88-5.906 2.681 0 4.879 2.65 4.879 5.906s-2.198 5.883-4.88 5.883zm0-11.048c-2.365 0-4.283 2.313-4.283 5.165 0 2.851 1.918 5.164 4.283 5.164 2.366 0 4.284-2.313 4.284-5.164-.019-2.852-1.937-5.165-4.284-5.165z"
          fill="#4C739E"/>
    <ellipse cx="33.969" cy="33.527" rx="1.018" ry="2.546" fill="#fff"/>
    <path d="M37.514 33.05c0 1.23-.31 2.257-.825 2.975-.619.718-1.444 1.026-2.475 1.026-1.031 0-1.753-.41-2.372-1.128-.618-.719-.928-1.745-.928-2.976 0-1.232.31-2.258.825-2.976.619-.719 1.34-1.026 2.372-1.026 1.031 0 1.856.307 2.475 1.026.619.923.928 1.847.928 3.078zm-4.022.102c0 .718.103 1.129.207 1.437.103.307.309.41.515.41.206 0 .413-.103.516-.41.103-.308.206-.821.206-1.437 0-.718-.103-1.129-.206-1.437-.103-.308-.31-.41-.516-.41-.206 0-.412.102-.515.41-.104.308-.207.719-.207 1.437zm10.415-3.9-7.115 12.725h-2.578l7.115-12.725h2.578zm3.3 8.928c0 1.232-.31 2.258-.825 2.976-.619.718-1.444 1.026-2.475 1.026-1.031 0-1.753-.41-2.372-1.129-.618-.718-.928-1.744-.928-2.975 0-1.232.31-2.258.825-2.976.619-.719 1.34-1.026 2.372-1.026 1.031 0 1.856.307 2.475 1.026.618.82.928 1.847.928 3.078zm-3.919 0c0 .718.104 1.129.207 1.437.103.308.309.41.515.41.207 0 .413-.205.516-.513.103-.308.103-.82.103-1.334 0-.615 0-1.026-.103-1.334-.103-.308-.31-.513-.516-.513-.206 0-.412.103-.515.41-.207.308-.207.822-.207 1.437z"
          fill="#4C739E"/>
    <path d="M17.983 18.3a4.248 4.248 0 0 1-4.266-4.267 4.248 4.248 0 0 1 4.266-4.266 4.248 4.248 0 0 1 4.266 4.266 4.248 4.248 0 0 1-4.266 4.266zm0-6.637a2.347 2.347 0 0 0-2.37 2.37 2.347 2.347 0 0 0 2.37 2.37 2.347 2.347 0 0 0 2.37-2.37 2.347 2.347 0 0 0-2.37-2.37zM42.853 16.103h-1.896v5.688h1.896v-5.688z"
          fill="#DFEEFF"/>
    <path d="M44.749 17.999H39.06v1.896h5.688v-1.896zM24.75 45.972h-1.896v5.689h1.896v-5.689z" fill="#DFEEFF"/>
    <path d="M26.646 47.869h-5.688v1.896h5.688v-1.896z" fill="#DFEEFF"/>
</svg>