<svg width="740" height="171" fill="none" xmlns="http://www.w3.org/2000/svg"><path d="M22.882 51.535c0 9.986 2.703 17.683 8.11 23.089 5.405 5.406 12.914 8.11 22.525 8.11 5.181 0 9.761-.827 13.74-2.479 3.98-1.727 7.322-3.98 10.025-6.757a28.884 28.884 0 006.307-9.8 32.703 32.703 0 002.14-11.713c0-4.88-.788-9.273-2.365-13.177-1.502-3.98-3.642-7.321-6.42-10.024-2.778-2.778-6.082-4.88-9.911-6.307-3.755-1.502-7.922-2.253-12.502-2.253-4.73 0-9.048.788-12.953 2.365-3.904 1.502-7.245 3.642-10.024 6.42-2.778 2.778-4.918 6.082-6.42 9.911-1.501 3.83-2.252 8.035-2.252 12.615zm44.376 50.007a301.664 301.664 0 008.222-11.263c-4.055 3.079-8.598 5.407-13.628 6.983-4.956 1.577-10.25 2.366-15.881 2.366-5.932 0-11.638-1.014-17.12-3.041-5.406-2.028-10.211-4.994-14.416-8.898-4.13-3.98-7.434-8.86-9.912-14.642C2.046 67.266.807 60.62.807 53.112c0-7.058 1.314-13.704 3.942-19.936 2.628-6.232 6.307-11.638 11.037-16.218 4.806-4.656 10.512-8.297 17.12-10.925C39.589 3.33 46.91 1.978 54.869 1.978c7.884 0 15.017 1.276 21.4 3.83 6.457 2.552 11.938 6.156 16.443 10.812 4.505 4.58 7.997 10.099 10.475 16.556 2.478 6.458 3.716 13.553 3.716 21.287 0 4.73-.45 9.236-1.351 13.516a66.407 66.407 0 01-3.717 12.502c-1.577 4.054-3.529 8.071-5.857 12.051-2.252 3.904-4.843 7.922-7.771 12.051L49.35 160.335c-1.051 1.502-2.59 2.74-4.618 3.717-1.952.976-4.205 1.464-6.758 1.464h-20.16l49.444-63.974z" fill="#F18D19"/><path d="M369.291.535h-76.684l-56.883 99.856h75.964L369.291.535zM254.445.536H177.76l-56.883 99.856h75.964L254.445.536z" fill="#2C3A61"/><path d="M177.762.535h76.684l56.883 99.856h-75.964L177.762.535zM292.967.535h76.325l57.243 99.856h-75.964L292.967.535z" fill="#2A4B94"/><path d="M483.778.535h-76.324l-56.883 99.857 37.442 65.485L483.778.535zM467.578 46.846l-16.921 30.39h75.245l16.92-30.39h-75.244zM493.859.535l-17.281 30.391h75.604L568.743.536h-74.884z" fill="#F18D19"/><path d="M472.977 147.063c-.36-.361-.36-1.085-.36-2.17-.36-1.086-.36-2.171-.36-2.895-.36 1.086-.36 1.809-.72 2.533-.36 1.085-.72 1.809-1.08 2.532l-9.721 19.899-9.36-20.26-1.08-2.171c-.36-.724-.72-1.809-.72-2.533 0 .724 0 1.809-.36 2.533 0 .723-.36 1.809-.36 2.532l-3.961 18.452h-5.4l8.641-38.712 10.8 23.517c0 .361.36.723.72 1.809.36.723.72 1.809 1.08 3.256.36-1.086 1.08-2.533 1.8-4.342.36-.362.36-.723.36-.723l10.801-23.517 8.641 38.712h-5.401l-3.96-18.452zM505.019 165.516v-17.005l-12.601-19.899h6.481l7.56 12.301c.36.362.36.724.72 1.448.36.361.72 1.085.72 1.447.36-.362.72-1.086.72-1.447.36-.724.72-1.086 1.08-1.448l7.921-12.301h5.76l-12.601 19.899v17.005h-5.76zM537.061 165.516v-36.904h20.521v5.065h-14.401v9.045h14.401v5.427h-14.401v17.367h-6.12zM574.144 165.516h5.76v-36.904h-5.76v36.904zM598.265 165.515v-38.351l23.401 22.432c.72.723 1.44 1.447 1.8 2.17l2.16 2.171v-25.326h5.401v38.351l-23.762-23.155c-.36-.724-1.08-1.086-1.8-1.809-.36-.724-1.08-1.447-1.8-2.171v25.688h-5.4zM680.35 160.451h2.16c2.16 0 3.601 0 4.681-.362 1.08 0 1.8-.362 2.52-.724.72-.723 1.44-1.447 1.8-2.171.36-.723.36-1.809.36-2.532 0-1.447 0-2.171-.72-3.256-.36-.724-1.08-1.448-1.8-1.809-.72-.362-1.44-.724-2.16-.724-.72-.362-1.801-.362-2.881-.362h-3.96v11.94zm0-16.281h2.52c2.88 0 4.681-.362 5.761-1.448 1.44-.723 1.8-1.809 1.8-3.618 0-2.17-.36-3.618-1.44-4.341-1.08-.724-3.241-1.447-6.121-1.447h-2.52v10.854zm-5.76 21.346v-36.904h9.36c2.521 0 4.681 0 5.761.362 1.44.362 2.52.724 3.24 1.447 1.08.724 2.16 1.809 2.52 3.256.72 1.448 1.08 2.895 1.08 4.342 0 2.171-.36 3.618-1.44 5.065-.72 1.447-2.16 2.171-3.96 2.895 2.16 0 3.96 1.085 5.04 2.894 1.44 1.447 1.8 3.618 1.8 6.151 0 1.447 0 2.894-.72 3.979-.36 1.448-1.08 2.533-2.16 3.618-1.08 1.086-2.16 1.809-3.6 2.171-1.44.362-3.96.724-7.561.724h-9.36zM721.031 165.516v-17.005l-12.24-19.899h6.12l7.56 12.301c.36.362.36.724.72 1.448.36.361.72 1.085 1.08 1.447 0-.362.36-1.086.72-1.447 0-.724.36-1.086.72-1.448l7.921-12.301h5.76l-12.601 19.899v17.005h-5.76z" fill="#2A4B94"/><path d="M646.508 162.259c0-4.341 3.6-8.321 8.28-8.321 4.681 0 8.281 3.98 8.281 8.321 0 4.704-3.6 8.684-8.281 8.684-4.68 0-8.28-3.98-8.28-8.684zM142.6 161.475h-4.108v-20.534H131.2c-.4 4.997-.954 9.033-1.662 12.108-.707 3.045-1.646 5.262-2.815 6.652-1.169 1.39-2.646 2.085-4.431 2.085-.4 0-.8-.03-1.2-.089-.369-.03-.677-.104-.923-.222v-2.927c.185.059.385.103.6.133.215.03.431.044.646.044 1.662 0 2.985-1.7 3.969-5.1 1.016-3.4 1.785-8.707 2.308-15.922H142.6v23.772zM160.006 137.26c2.123 0 3.939.443 5.446 1.33 1.539.887 2.708 2.144 3.508 3.77.831 1.597 1.246 3.474 1.246 5.633v2.35h-16.938c.061 2.691.769 4.746 2.123 6.165 1.384 1.389 3.307 2.084 5.769 2.084 1.569 0 2.954-.133 4.154-.399a25.718 25.718 0 003.785-1.242v3.415a18.621 18.621 0 01-3.739 1.153c-1.231.267-2.692.4-4.385.4-2.338 0-4.415-.459-6.23-1.375-1.785-.917-3.185-2.277-4.201-4.081-.984-1.833-1.476-4.065-1.476-6.696 0-2.602.446-4.835 1.338-6.697.923-1.863 2.2-3.297 3.831-4.302 1.661-1.006 3.585-1.508 5.769-1.508zm-.046 3.193c-1.938 0-3.477.606-4.615 1.818-1.108 1.183-1.77 2.839-1.985 4.968h12.6c-.031-2.011-.523-3.637-1.477-4.879-.954-1.271-2.461-1.907-4.523-1.907zM193.582 140.985h-8.077v20.49h-4.016v-20.49h-7.985v-3.282h20.078v3.282zM230.337 143.691c0 1.478-.462 2.631-1.385 3.459-.923.828-2.107 1.39-3.554 1.685v.178c1.539.207 2.877.739 4.016 1.596 1.138.828 1.708 2.129 1.708 3.903 0 2.011-.785 3.681-2.354 5.012-1.539 1.301-4.093 1.951-7.662 1.951h-10.662v-23.772h10.616c1.754 0 3.323.192 4.708.577 1.415.355 2.523.976 3.323 1.863.831.857 1.246 2.04 1.246 3.548zm-4.108.487c0-1.123-.431-1.936-1.292-2.439-.831-.532-2.2-.798-4.108-.798h-6.323v6.519h5.585c4.092 0 6.138-1.094 6.138-3.282zm.692 10.334c0-1.36-.538-2.336-1.615-2.927-1.077-.591-2.662-.887-4.754-.887h-6.046v7.628h6.138c2.031 0 3.585-.281 4.662-.842 1.077-.592 1.615-1.582 1.615-2.972zM263.576 137.703v23.772h-3.646v-15.168c0-.621.015-1.271.046-1.951.062-.68.123-1.345.185-1.996h-.139l-8.077 19.115h-3.415l-7.846-19.115h-.139a59.16 59.16 0 01.139 4.08v15.035h-3.647v-23.772h5.4l7.801 19.115 7.938-19.115h5.4zM281.027 137.26c2.123 0 3.939.443 5.446 1.33 1.539.887 2.708 2.144 3.508 3.77.831 1.597 1.246 3.474 1.246 5.633v2.35h-16.939c.062 2.691.77 4.746 2.124 6.165 1.384 1.389 3.307 2.084 5.769 2.084 1.569 0 2.954-.133 4.154-.399a25.669 25.669 0 003.784-1.242v3.415a18.593 18.593 0 01-3.738 1.153c-1.231.267-2.692.4-4.385.4-2.338 0-4.415-.459-6.231-1.375-1.784-.917-3.184-2.277-4.2-4.081-.984-1.833-1.477-4.065-1.477-6.696 0-2.602.447-4.835 1.339-6.697.923-1.863 2.2-3.297 3.831-4.302 1.661-1.006 3.584-1.508 5.769-1.508zm-.046 3.193c-1.939 0-3.477.606-4.616 1.818-1.107 1.183-1.769 2.839-1.984 4.968h12.6c-.031-2.011-.523-3.637-1.477-4.879-.954-1.271-2.462-1.907-4.523-1.907zM307.448 161.919c-2.184 0-4.138-.429-5.861-1.287-1.693-.857-3.031-2.188-4.016-3.991-.954-1.804-1.43-4.11-1.43-6.919 0-2.927.507-5.307 1.523-7.14 1.015-1.833 2.384-3.179 4.107-4.036 1.754-.858 3.739-1.286 5.954-1.286 1.262 0 2.477.133 3.647.399 1.169.236 2.123.532 2.861.887l-1.246 3.238c-.739-.267-1.6-.518-2.585-.754-.984-.237-1.907-.355-2.769-.355-4.862 0-7.292 3.001-7.292 9.003 0 2.868.584 5.071 1.753 6.608 1.2 1.508 2.97 2.262 5.308 2.262 1.354 0 2.539-.133 3.554-.399 1.046-.266 2-.592 2.862-.976v3.459c-.831.414-1.754.725-2.77.932-.984.236-2.184.355-3.6.355zM336.778 140.985h-8.077v20.49h-4.015v-20.49h-7.985v-3.282h20.077v3.282zM350.755 137.26c2.123 0 3.938.443 5.446 1.33 1.539.887 2.708 2.144 3.508 3.77.831 1.597 1.246 3.474 1.246 5.633v2.35h-16.939c.062 2.691.77 4.746 2.123 6.165 1.385 1.389 3.308 2.084 5.77 2.084 1.569 0 2.954-.133 4.154-.399a25.707 25.707 0 003.784-1.242v3.415a18.593 18.593 0 01-3.738 1.153c-1.231.267-2.693.4-4.385.4-2.338 0-4.415-.459-6.231-1.375-1.784-.917-3.184-2.277-4.2-4.081-.984-1.833-1.477-4.065-1.477-6.696 0-2.602.446-4.835 1.339-6.697.923-1.863 2.2-3.297 3.831-4.302 1.661-1.006 3.584-1.508 5.769-1.508zm-.046 3.193c-1.939 0-3.477.606-4.616 1.818-1.107 1.183-1.769 2.839-1.984 4.968h12.6c-.031-2.011-.523-3.637-1.477-4.879-.954-1.271-2.462-1.907-4.523-1.907z" fill="#F18D19"/></svg>