<?xml version="1.0" encoding="utf-8"?>
<!-- Generator: Adobe Illustrator 23.0.5, SVG Export Plug-In . SVG Version: 6.00 Build 0)  -->
<svg version="1.1" id="Слой_1" xmlns="http://www.w3.org/2000/svg" xmlns:xlink="http://www.w3.org/1999/xlink" x="0px" y="0px"
	 viewBox="0 0 345.5 80.8" style="enable-background:new 0 0 345.5 80.8;" xml:space="preserve">
<style type="text/css">
	.st0{clip-path:url(#SVGID_2_);}
	.st1{fill:#1A3462;}
	.st2{fill:#14509C;}
	.st3{fill:#F78F1E;}
</style>
<g>
	<g>
		<defs>
			<rect id="SVGID_1_" x="20.8" y="1.1" width="324.7" height="79.7"/>
		</defs>
		<clipPath id="SVGID_2_">
			<use xlink:href="#SVGID_1_"  style="overflow:visible;"/>
		</clipPath>
		<g class="st0">
			<path class="st1" d="M137,1.1h-35.8L74.5,47.5h35.6L137,1.1z"/>
			<path class="st1" d="M83.3,1.1H47.5L20.8,47.5h35.6L83.3,1.1z"/>
			<path class="st2" d="M47.5,1.1h35.8L110,47.5H74.5L47.5,1.1z"/>
			<path class="st2" d="M101.4,1.1h35.8l26.7,46.4h-35.6L101.4,1.1z"/>
			<path class="st3" d="M190.8,1.1l-35.8,0l-26.7,46.4L145.9,78L190.8,1.1z"/>
			<path class="st3" d="M183.2,22.6l-8,14.1h35.3l7.8-14.1H183.2z"/>
			<path class="st2" d="M191.4,67.2c0-0.2-0.1-0.6-0.2-1.4c-0.1-0.6-0.1-1.1-0.2-1.5c-0.1,0.5-0.2,1-0.4,1.4c-0.2,0.5-0.4,1-0.6,1.5
				l-5.5,11.3L179,67c-0.2-0.5-0.4-0.9-0.6-1.4c-0.2-0.4-0.3-0.9-0.4-1.3c0,0.4,0,0.9-0.1,1.4c-0.1,0.5-0.2,1-0.3,1.5l-2.3,10.4
				h-3.2l5-22.1l6.2,13.4c0.1,0.2,0.2,0.6,0.4,1.1s0.4,1.1,0.7,1.8c0.2-0.6,0.5-1.4,1-2.3c0.1-0.3,0.2-0.4,0.3-0.6l6.1-13.4
				l5.1,22.1h-3.2L191.4,67.2z"/>
			<path class="st2" d="M209.9,77.7V68l-7.1-11.5h3.6l4.4,7.2c0.1,0.2,0.2,0.4,0.4,0.7c0.2,0.3,0.3,0.6,0.5,1c0.1-0.3,0.3-0.7,0.4-1
				c0.2-0.3,0.3-0.6,0.5-0.8l4.6-7.1h3.4L213.3,68v9.7L209.9,77.7z"/>
			<path class="st2" d="M228.5,77.7V56.5h11.8v2.9H232v5.3h8.4v3H232v10L228.5,77.7z"/>
			<path class="st2" d="M249.8,77.7V56.5h3.4v21.2H249.8z"/>
			<path class="st2" d="M263.8,77.7v-22l13.5,13c0.4,0.4,0.7,0.8,1.1,1.2c0.4,0.4,0.8,0.9,1.2,1.4V56.5h3.2v22L269,65.3
				c-0.4-0.4-0.7-0.7-1.1-1.1c-0.3-0.4-0.7-0.8-1-1.2v14.7L263.8,77.7L263.8,77.7z"/>
			<path class="st2" d="M307.8,77.7V56.5h5.3c1.5,0,2.7,0.1,3.4,0.2c0.7,0.2,1.3,0.4,1.9,0.8c0.7,0.5,1.2,1.1,1.5,1.9
				c0.4,0.8,0.5,1.6,0.5,2.6c0,1.1-0.3,2.1-0.8,2.8c-0.5,0.8-1.3,1.3-2.3,1.6c1.2,0.2,2.2,0.8,2.9,1.7c0.7,0.9,1.1,2.1,1.1,3.5
				c0,0.9-0.2,1.7-0.4,2.4c-0.3,0.8-0.7,1.4-1.3,2c-0.6,0.6-1.3,1-2.2,1.2c-0.9,0.2-2.3,0.4-4.3,0.4H307.8z M311.2,65.4h1.3
				c1.6,0,2.8-0.2,3.5-0.7c0.7-0.4,1-1.2,1-2.3c0-1.2-0.3-2-0.9-2.4c-0.6-0.5-1.8-0.7-3.6-0.7h-1.3L311.2,65.4L311.2,65.4z
				 M311.2,74.8h1.2c1.2,0,2.1,0,2.7-0.1c0.6-0.1,1.1-0.3,1.4-0.5c0.4-0.3,0.8-0.7,1-1.1c0.2-0.5,0.3-1,0.3-1.6
				c0-0.7-0.1-1.3-0.4-1.8s-0.7-0.9-1.2-1.2c-0.3-0.2-0.7-0.3-1.1-0.4c-0.4-0.1-1-0.1-1.7-0.1h-1h-1.2V74.8z"/>
			<path class="st2" d="M334.5,77.7V68l-7.1-11.5h3.6l4.4,7.2c0.1,0.2,0.2,0.4,0.4,0.7c0.2,0.3,0.3,0.6,0.5,1c0.1-0.3,0.3-0.7,0.4-1
				c0.2-0.3,0.3-0.6,0.5-0.8l4.6-7.1h3.4L338,68v9.7L334.5,77.7z"/>
			<path class="st3" d="M296.3,80.8c2.7,0,4.8-2.2,4.8-4.8s-2.2-4.8-4.8-4.8c-2.7,0-4.8,2.2-4.8,4.8S293.7,80.8,296.3,80.8z"/>
			<path class="st3" d="M195.3,1.1l-8,14.1h35.3l7.8-14.1H195.3z"/>
		</g>
	</g>
	<g>
		<g>
			
				<image style="overflow:visible;" width="26" height="39" xlink:href="1F8B25AB.png"  transform="matrix(1 0 0 1 -0.2367 8.9398)">
			</image>
			
				<image style="overflow:visible;" width="14" height="14" xlink:href="1F8B25A9.png"  transform="matrix(1 0 0 1 4.7633 12.9398)">
			</image>
			<image style="overflow:visible;" width="4" height="8" xlink:href="1F8B25AF.png"  transform="matrix(1 0 0 1 12.7633 32.9398)">
			</image>
			
				<image style="overflow:visible;" width="14" height="25" xlink:href="1F8B25A8.png"  transform="matrix(1 0 0 1 -0.2367 8.9398)">
			</image>
		</g>
		<g>
			
				<image style="overflow:visible;" width="6" height="23" xlink:href="1F8B25A6.png"  transform="matrix(1 0 0 1 24.7633 18.9398)">
			</image>
			<g>
				
					<image style="overflow:visible;" width="16" height="13" xlink:href="1F8B25A7.png"  transform="matrix(1 0 0 1 32.7633 4.9398)">
				</image>
				<g>
					
						<image style="overflow:visible;" width="14" height="11" xlink:href="1F8B25B7.png"  transform="matrix(1 0 0 1 28.7633 0.9398)">
					</image>
					
						<image style="overflow:visible;" width="3" height="3" xlink:href="1F8B25B9.png"  transform="matrix(1 0 0 1 39.7633 0.9398)">
					</image>
					
						<image style="overflow:visible;" width="5" height="3" xlink:href="1F8B25BB.png"  transform="matrix(1 0 0 1 35.7633 -6.023952e-02)">
					</image>
				</g>
				<g>
					
						<image style="overflow:visible;" width="3" height="7" xlink:href="8F1C71C8.png"  transform="matrix(1 0 0 1 24.7633 9.9398)">
					</image>
					<g>
						
							<image style="overflow:visible;" width="10" height="15" xlink:href="8F1C71CF.png"  transform="matrix(1 0 0 1 32.7633 4.9398)">
						</image>
						
							<image style="overflow:visible;" width="8" height="14" xlink:href="8F1C71C9.png"  transform="matrix(1 0 0 1 35.7633 4.9398)">
						</image>
					</g>
					
						<image style="overflow:visible;" width="12" height="17" xlink:href="8F1C71CB.png"  transform="matrix(1 0 0 1 25.7633 1.9398)">
					</image>
				</g>
				<g>
					
						<image style="overflow:visible;" width="17" height="10" xlink:href="8F1C71D6.png"  transform="matrix(1 0 0 1 25.7633 10.9398)">
					</image>
					
						<image style="overflow:visible;" width="7" height="4" xlink:href="8F1C71D7.png"  transform="matrix(1 0 0 1 35.7633 12.9398)">
					</image>
					
						<image style="overflow:visible;" width="8" height="5" xlink:href="8F1C71D8.png"  transform="matrix(1 0 0 1 29.7633 10.9398)">
					</image>
				</g>
				<g>
					
						<image style="overflow:visible;" width="3" height="2" xlink:href="8F1C71DB.png"  transform="matrix(1 0 0 1 30.7633 -6.023952e-02)">
					</image>
					
						<image style="overflow:visible;" width="7" height="11" xlink:href="8F1C71D9.png"  transform="matrix(1 0 0 1 25.7633 0.9398)">
					</image>
				</g>
			</g>
		</g>
		<g>
			<g>
				
					<image style="overflow:visible;" width="13" height="35" xlink:href="8F1C71DF.png"  transform="matrix(1 0 0 1 10.7633 12.9398)">
				</image>
				<g>
					<g>
						
							<image style="overflow:visible;" width="10" height="11" xlink:href="8F1C71F3.png"  transform="matrix(1 0 0 1 0.7633 4.9398)">
						</image>
						
							<image style="overflow:visible;" width="2" height="6" xlink:href="8F1C71FD.png"  transform="matrix(1 0 0 1 0.7633 3.9398)">
						</image>
						
							<image style="overflow:visible;" width="9" height="8" xlink:href="8F1C71FF.png"  transform="matrix(1 0 0 1 1.7633 8.9398)">
						</image>
					</g>
					<g>
						
							<image style="overflow:visible;" width="5" height="4" xlink:href="8F1C71F2.png"  transform="matrix(1 0 0 1 2.7633 2.9398)">
						</image>
						<g>
							
								<image style="overflow:visible;" width="2" height="2" xlink:href="8F1C71F1.png"  transform="matrix(1 0 0 1 2.7633 2.9398)">
							</image>
						</g>
						
							<image style="overflow:visible;" width="8" height="6" xlink:href="8F1C71F5.png"  transform="matrix(1 0 0 1 2.7633 -6.023952e-02)">
						</image>
						
							<image style="overflow:visible;" width="3" height="4" xlink:href="8F1C71F7.png"  transform="matrix(1 0 0 1 1.7633 3.9398)">
						</image>
						<g>
							
								<image style="overflow:visible;" width="2" height="2" xlink:href="8F1C71F0.png"  transform="matrix(1 0 0 1 3.7633 1.9398)">
							</image>
						</g>
						<g>
							
								<image style="overflow:visible;" width="2" height="3" xlink:href="8F1C71CE.png"  transform="matrix(1 0 0 1 1.7633 3.9398)">
							</image>
						</g>
						<g>
							
								<image style="overflow:visible;" width="2" height="2" xlink:href="8F1C71ED.png"  transform="matrix(1 0 0 1 4.7633 0.9398)">
							</image>
						</g>
						<g>
							
								<image style="overflow:visible;" width="2" height="2" xlink:href="8F1C7212.png"  transform="matrix(1 0 0 1 5.7633 -6.023952e-02)">
							</image>
						</g>
					</g>
					<g>
						
							<image style="overflow:visible;" width="4" height="7" xlink:href="8F1C722D.png"  transform="matrix(1 0 0 1 13.7633 5.9398)">
						</image>
						
							<image style="overflow:visible;" width="6" height="6" xlink:href="8F1C722E.png"  transform="matrix(1 0 0 1 1.7633 5.9398)">
						</image>
						
							<image style="overflow:visible;" width="12" height="14" xlink:href="8F1C722C.png"  transform="matrix(1 0 0 1 4.7633 1.9398)">
						</image>
					</g>
					
						<image style="overflow:visible;" width="12" height="10" xlink:href="8F1C7232.png"  transform="matrix(1 0 0 1 2.7633 5.9398)">
					</image>
					<g>
						
							<image style="overflow:visible;" width="6" height="5" xlink:href="8F1C7235.png"  transform="matrix(1 0 0 1 8.7633 -6.023952e-02)">
						</image>
						
							<image style="overflow:visible;" width="2" height="1" xlink:href="8F1C7236.png"  transform="matrix(1 0 0 1 8.7633 0.9398)">
						</image>
						
							<image style="overflow:visible;" width="9" height="11" xlink:href="8F1C7234.png"  transform="matrix(1 0 0 1 8.7633 0.9398)">
						</image>
					</g>
				</g>
			</g>
			<g>
				
					<image style="overflow:visible;" width="5" height="18" xlink:href="8F1C7233.png"  transform="matrix(1 0 0 1 22.7633 29.9398)">
				</image>
				<g>
					
						<image style="overflow:visible;" width="12" height="10" xlink:href="8F1C723D.png"  transform="matrix(1 0 0 1 8.7633 19.9398)">
					</image>
					<g>
						
							<image style="overflow:visible;" width="11" height="9" xlink:href="8F1C7219.png"  transform="matrix(1 0 0 1 13.7633 15.9398)">
						</image>
						
							<image style="overflow:visible;" width="3" height="2" xlink:href="8F1C721B.png"  transform="matrix(1 0 0 1 13.7633 16.9398)">
						</image>
						
							<image style="overflow:visible;" width="5" height="2" xlink:href="8F1C7218.png"  transform="matrix(1 0 0 1 14.7633 15.9398)">
						</image>
					</g>
					<g>
						
							<image style="overflow:visible;" width="3" height="5" xlink:href="8F1C721F.png"  transform="matrix(1 0 0 1 24.7633 23.9398)">
						</image>
						<g>
							
								<image style="overflow:visible;" width="7" height="11" xlink:href="8F1C721A.png"  transform="matrix(1 0 0 1 13.7633 19.9398)">
							</image>
							
								<image style="overflow:visible;" width="6" height="11" xlink:href="8F1C7206.png"  transform="matrix(1 0 0 1 12.7633 18.9398)">
							</image>
						</g>
						
							<image style="overflow:visible;" width="9" height="14" xlink:href="8F1C7207.png"  transform="matrix(1 0 0 1 17.7633 16.9398)">
						</image>
					</g>
					<g>
						
							<image style="overflow:visible;" width="13" height="8" xlink:href="8F1C7217.png"  transform="matrix(1 0 0 1 13.7633 23.9398)">
						</image>
						
							<image style="overflow:visible;" width="5" height="3" xlink:href="8F1C7209.png"  transform="matrix(1 0 0 1 13.7633 25.9398)">
						</image>
						
							<image style="overflow:visible;" width="6" height="4" xlink:href="8F1C720B.png"  transform="matrix(1 0 0 1 17.7633 23.9398)">
						</image>
					</g>
					<g>
						
							<image style="overflow:visible;" width="2" height="2" xlink:href="8F1C7264.png"  transform="matrix(1 0 0 1 20.7633 14.9398)">
						</image>
						
							<image style="overflow:visible;" width="6" height="9" xlink:href="8F1C7263.png"  transform="matrix(1 0 0 1 20.7633 15.9398)">
						</image>
					</g>
				</g>
			</g>
			
				<image style="overflow:visible;" width="16" height="26" xlink:href="8F1C726C.png"  transform="matrix(1 0 0 1 21.7633 21.9398)">
			</image>
			
				<image style="overflow:visible;" width="24" height="18" xlink:href="8F1C726F.png"  transform="matrix(1 0 0 1 25.7633 20.9398)">
			</image>
			<g>
				
					<image style="overflow:visible;" width="14" height="6" xlink:href="8F1C726D.png"  transform="matrix(1 0 0 1 1.7633 29.9398)">
				</image>
				
					<image style="overflow:visible;" width="25" height="17" xlink:href="8F1C7262.png"  transform="matrix(1 0 0 1 1.7633 30.9398)">
				</image>
			</g>
		</g>
	</g>
</g>
</svg>
