<svg width="1750" height="540" fill="none" xmlns="http://www.w3.org/2000/svg">
    <path fill="#FF4337" d="M0 0h1750v540H0z"/>
    <path d="M487.425 423.469c-2.444 0-1.833-3.658-1.833-3.658.509-4.077 1.171-9.297 1.833-14.656.675-5.411.942-7.57 0-10.377-1.566-4.661-5.168-7.265-6.123-7.938-4.392-3.086-8.963-3.086-16.525-3.048-3.87.013-9.382.356-15.913 1.829-.407 3.454-.814 6.922-1.222 10.376 14.055-3.912 25.13-1.791 27.549 3.658.497 1.105 1.082 3.391-.611 7.328 0 0-1.222-.609-7.346-3.048-6.123-2.438-13.468-1.219-17.746 0-2.559.724-8.504 3.366-11.012 9.767-2.457 6.262.178 11.939.611 12.828 3.297 6.795 10.019 8.611 10.987 8.852 0 0 3.704.305 8.593 0 4.888-.305 13.469-6.414 13.469-6.414 3.055 6.109 7.956 6.109 11.635 6.109 3.68 0 6.735-1.828 6.735-1.828l.509-9.767c-.013-.013-1.146-.013-3.59-.013zm-25.105 1.219c-4.341.191-9.942-2.222-10.4-6.109-.344-2.819 2.138-5.487 4.29-6.718 6.06-3.493 16.04.622 16.524 4.889.382 3.353-5.028 7.697-10.414 7.938zM511.435 383.766h13.711v5.716s7.549-6.325 15.824-5.716c8.275.61 11.343 2.452 13.176 4.89 1.833 2.439 3.666 4.28 3.055 10.377-.611 6.109-4.863 36.337-4.863 36.337h-13.596l4.379-30.838c.637-3.048-.191-4.788-.611-5.499-2.775-4.611-11.101-4.369-15.302-1.22-2.444 1.829-1.922 1.499-4.29 4.281l-5.512 33.276h-14.182l8.211-51.604zM614.132 397.813l.611-12.218c-2.393-.838-19.987-6.731-33.672 3.048-6.111 4.369-8.695 9.92-9.179 10.986-.483 1.08-6.301 14.581 1.834 25.643 6.836 9.297 18.242 9.678 20.814 9.767 7.129.241 12.616-2.223 15.302-3.658l.611-10.986c-1.107.661-8.797 5.131-16.524 2.439-4.061-1.41-6.734-4.281-6.734-4.281-.79-.838-2.216-2.413-3.056-4.889-1.553-4.56.127-8.649.611-9.767 1.923-4.458 5.5-6.592 6.735-7.328 9.548-5.665 21.693.723 22.647 1.244zM316.034 399.642l.611-11.608c-2.343-1.575-6.289-3.81-11.636-4.89-.802-.165-3.603-.699-7.345-.61-3.145.077-8.25.178-13.469 3.049-2.979 1.638-7.002 3.848-8.568 8.547-1.655 4.953.217 10.262 3.055 13.437.688.763 2.012 2.058 8.568 4.89a113.595 113.595 0 0011.636 4.28c1.527.648 2.507 2.121 2.444 3.658-.064 1.855-1.63 3.48-3.666 3.658a32.926 32.926 0 01-13.469-.61 32.813 32.813 0 01-12.247-6.109l-.611 12.828c3.335 1.829 16.422 8.497 30.604 3.658a32.99 32.99 0 009.179-4.89c1.336-1.676 3.029-4.356 3.666-7.938.242-1.333.586-3.239 0-5.499-.904-3.518-3.488-5.601-4.901-6.719-3.667-2.883-7.944-4.026-13.469-5.499-3.615-.966-5.589-1.22-6.734-3.049-.993-1.6-1.082-3.962 0-5.499 1.476-2.096 4.646-1.969 7.956-1.829 1.261.051 4.125.267 8.568 1.829 2.52.914 5.983 2.4 9.828 4.915zM189.938 379.499c4.732 0 8.568-3.827 8.568-8.548 0-4.72-3.836-8.547-8.568-8.547-4.732 0-8.568 3.827-8.568 8.547 0 4.721 3.836 8.548 8.568 8.548zM193.413 218.022h20.038l-16.219 105.416h54.245l22.139-144.789h-72.845l-7.358 39.373zM311.934 178.65h35.429l4.533 12.065s24.188-19.051 52.195-15.24c28.007 3.81 38.828 15.24 38.828 15.24s25.296-16.003 54.105-15.24c21.642 1.27 34.372 7.62 40.738 19.051 6.365 11.43 8.911 20.321 6.365 38.102-2.546 17.781-15.073 90.81-15.073 90.81h-54.283l13.342-92.081s0-7.62-6.366-10.16c-5.092-2.032-9.726-2.172-15.276-1.27-3.234.534-8.326 1.778-14.004 5.08l-15.277 99.066h-54.563l12.552-86.365c1.414-6.465-.483-10.148-1.273-11.431-4.99-8.153-19.388-8.458-26.734-5.08l-7.638 3.81-15.671 99.066s-56.817 0-55.582-.635c1.247-.635 23.653-144.788 23.653-144.788zM597.608 117.051h57.084L635.8 222.467l50.578-43.817h68.262l-69.191 60.328 49.687 84.46-64.353.635-27.345-49.533-17.823 15.241-5.054 33.657H564.98l32.628-206.387zM783.894 117.051h56.066L816.065 266.92s-7.142 20.321 8.134 19.051c15.277-1.27 24.188-3.81 24.188-3.81l-12.819 41.912s-36.83 7.621-48.287 2.54c-2.534-1.13-5.003-2.019-5.003-2.019-1.503-.724-6.366-3.163-11.547-8.141-2.852-2.744-6.569-6.414-9.102-12.002-1.566-3.468-2.355-7.761-2.355-14.67 0-15.241 5.092-49.533 5.092-49.533l19.528-123.197zM875.134 178.015h74.041l-23.157 146.058h-55.097l16.944-105.416h-19.096l6.365-40.642zM967.94 178.015l59.96 1.27 19.1 90.175 46.49-91.445h60.94l-91.66 146.058h-50.22l-44.61-146.058zM1300.34 285.971c-1.46 0-2.88.101-4.14-.788-2.83-2.007-2.46-7.036-2.23-9.373 6.16-64.304 15.28-93.986 15.28-93.986a355.732 355.732 0 00-133.67-2.54l-10.19 43.183s49.65-8.891 84.02-5.081l-3.82 24.132c-6.57-2.07-16.72-4.61-29.28-5.08-15.45-.585-49.62-1.867-66.2 21.591-10.03 14.199-13.25 36.959-2.54 53.343 16.57 25.363 55.55 18.721 61.1 17.781 16.11-2.743 27.83-10.224 34.38-15.241a39.026 39.026 0 006.45 6.706c4.81 3.925 9.64 5.906 12.92 6.947 13.92.102 27.82.216 41.73.318 3.4-14.39 6.79-28.793 10.19-43.183 0 0-12.73 1.271-14 1.271zm-62.38 1.27c-2.3 2.032-9.23 7.633-19.1 7.62-2.24 0-13.48-.025-17.82-7.62-.41-.712-2.52-4.585-1.28-8.891 1.53-5.309 7.08-7.608 10.19-8.89 6.78-2.807 13.12-2.02 19.09-1.27 4.94.609 8.89 1.714 11.46 2.54-.85 5.499-1.7 11.011-2.54 16.511zM1406 119.591l43.28 39.373L1579.13 98l-9.3 60.964-128.19 62.233-47.33-43.182 11.69-58.424zM1454.72 322.743c33.02-.913 59.64-7.337 59.45-14.349-.19-7.012-27.13-11.955-60.16-11.042-33.03.913-59.65 7.337-59.46 14.349.2 7.011 27.13 11.955 60.17 11.042zM961.702 127.212c-.14 13.259-10.655 21.274-12.73 22.861-12.68 9.716-35.353 12.142-47.103-1.27-6.888-7.874-8.925-19.851-5.093-29.212 7.766-18.987 39.223-26.24 54.742-13.97 5.945 4.699 10.273 12.827 10.184 21.591zM280.618 127.212c-.14 13.259-10.656 21.274-12.731 22.861-12.679 9.716-35.353 12.142-47.103-1.27-6.887-7.874-8.924-19.851-5.092-29.212 7.766-18.987 39.223-26.24 54.741-13.97 5.946 4.699 10.274 12.827 10.185 21.591zM180.16 383.411h14.87l-8.11 51.273H172l8.16-51.273zM212.572 383.411h14.334v5.728c.93-.889 6.888-6.465 15.71-5.728 7.091.597 13.342 5.054 15.977 10.795 1.629 3.531 1.464 6.617.203 15.52a450.905 450.905 0 01-4.264 24.957h-14.004c1.515-10.338 3.017-20.689 4.532-31.027.089-.813.268-3.315-1.349-5.398-2.05-2.629-5.5-2.68-6.76-2.693-6.391-.089-11.165 5.5-12.171 6.744l-5.652 32.374h-14.067l7.511-51.272zM332.978 382.801h14.245c-1.311 10.199-2.635 20.398-3.946 30.584.102.876.636 4.724 3.946 7.264 4.074 3.125 9.637 2.198 12.578.064 2.164-1.562 3.056-3.658 3.056-3.658.407-.965.56-1.841.611-2.438 1.54-10.606 3.093-21.211 4.633-31.803l13.609.673c-2.202 17.299-4.417 34.597-6.619 51.895h-14.08c.14-2.464.28-4.915.407-7.379a27.543 27.543 0 01-4.736 3.379c-3.132 1.765-4.061 2.692-7.434 3.378-7.664 1.524-12.756-1.461-12.756-1.461-5.36-3.187-6.862-8.75-7.231-10.49a15.82 15.82 0 01-.306-4.242c.306-4.497 1.757-17.832 4.023-35.766zM400.743 383.411l14.042.673v6.744a20.788 20.788 0 013.717-3.544c6.454-4.775 13.914-4.445 16.791-4.153-.789 4.534-1.565 9.056-2.355 13.59a20.748 20.748 0 00-3.832-.584c-1.82-.102-5.257-.267-8.911 1.448-4.086 1.905-6.162 5.105-7.142 6.655-2.126 3.353-2.699 6.49-3.055 8.547-1.541 8.84-2.61 16.778-3.323 22.582h-13.176l7.244-51.958zM673.508 398.423c-.611-1.854-2.61-7.1-7.957-10.986-7.575-5.512-16.117-4.128-18.981-3.658-2.088.343-6.505 1.105-11.012 4.28-10.095 7.1-10.923 19.382-11.012 21.376a29.345 29.345 0 00.611 7.328c.395 1.829 1.069 4.814 3.055 7.938 3.196 5.042 7.779 7.277 9.179 7.938 4.66 2.197 9.204 2.337 12.858 2.438.433.013 1.4.038 2.444 0 2.992-.114 8.402-.851 15.302-4.889l.611-10.987c-7.23 5.665-16.422 6.859-23.258 3.049-4.838-2.693-7.078-7.1-7.957-9.158l36.117-.609c.598-1.842 2.177-7.443 0-14.06zm-33.978 6.414c3.717-6.973 10.07-10.834 15.302-9.767 4.367.889 6.734 4.28 6.734 4.28 1.528 2.185 1.783 4.42 1.834 5.5-7.957-.013-15.914-.013-23.87-.013z"
          fill="#fff"/>
</svg>