<svg width="1920" height="25" viewBox="0 0 1920 25" fill="none" xmlns="http://www.w3.org/2000/svg">
<path d="M0 8.08386C75.4669 12.6939 130.268 15.7277 164.403 17.1846C241.206 20.4636 311.625 21.6171 361.917 22.3795C414.319 23.1734 527.968 22.9429 613.778 21.9474C648.074 21.5498 690.675 20.6746 741.581 19.3226C793.316 17.8416 828.798 16.7379 848.024 16.0121C884.157 14.6488 948.908 11.805 969.037 10.9931C1039.49 8.1517 1090.62 5.31659 1140.57 3.72209C1229.02 0.899009 1272.98 0.502791 1346.95 0C1412.94 0.251395 1461.83 0.648816 1493.61 1.19202C1547.54 2.11389 1610.06 4.18327 1645.75 5.26174C1712.99 7.29311 1804.68 11.4153 1920 17.4108V25H0V8.08386Z" fill="white"/>
</svg>
