<svg width="480" height="170" fill="none" xmlns="http://www.w3.org/2000/svg">
    <g clip-path="url(#clip0)">
        <path d="M79 171c-21.5-14.5-31.927-44.5-14-68.993C85.5 74 114.954 83.042 167.08 48.58 230.369 6.738 282.54 3.74 329.937 24.734c37.773 18.512 38.533 50.855 89.375 77.273C465.132 125.843 430.137 164.678 406 171c-24.11 6.322-42.749 8-42.749 8s-190.585 55.17-284.25-8z"
              fill="#fff"/>
        <g clip-path="url(#clip1)">
            <path d="M288.699 204.377a9.225 9.225 0 01-1.847-.188 2.983 2.983 0 01-.273-.059l-98.074-22.904a9.667 9.667 0 01-5.542-3.609l-.061-.078a9.497 9.497 0 01-1.867-5.677V87.887a8.6 8.6 0 011.47-4.818l.333.18c-.664 1.536-.683 2.999-.056 4.23.747 1.464 2.369 2.552 4.566 3.06l103.423 23.558c4.155.969 7.056 4.604 7.056 8.839v72.357c0 5.009-4.095 9.084-9.128 9.084z"
                  fill="#A2DFF2"/>
            <path d="M182.663 83.174c-1.624 3.76.639 6.623 4.641 7.548.012.004.023.004.035.008l103.389 23.551c4.048.944 6.909 4.528 6.909 8.655v72.357c0 5.02-4.133 8.895-8.939 8.895a9.114 9.114 0 01-2.071-.24l-98.079-22.906a9.452 9.452 0 01-5.489-3.613h-.004a9.36 9.36 0 01-1.83-5.566V87.887c0-1.745.529-3.361 1.438-4.713zm-.316-.21a8.787 8.787 0 00-1.502 4.922v83.977c0 2.097.658 4.099 1.903 5.789l.114.155h.006a9.865 9.865 0 005.594 3.603l98.078 22.906a9.41 9.41 0 002.158.25c5.138 0 9.319-4.16 9.319-9.273v-72.357c0-4.324-2.961-8.033-7.202-9.023L187.44 90.366l-.012-.004-.032-.006h-.005c-2.142-.496-3.718-1.548-4.439-2.963-.602-1.179-.58-2.586.061-4.07l-.666-.36z"
                  fill="#0E1829"/>
            <path d="M183.159 96.2a.764.764 0 01-.378-.099 8.738 8.738 0 01-2.114-1.658.751.751 0 01.043-1.068.764.764 0 011.075.043c.5.537 1.073.986 1.753 1.373a.754.754 0 01-.379 1.41zM287.051 198.596a.746.746 0 01-.175-.02l-4.794-1.119a.756.756 0 01-.566-.909.762.762 0 01.915-.562l4.793 1.119c.41.096.663.502.566.908a.759.759 0 01-.739.583zm4.238-1.34a.757.757 0 01-.319-.07.752.752 0 01-.371-1.002 2.1 2.1 0 00.19-.89v-3.642c0-.417.341-.755.761-.755s.761.338.761.755v3.641c0 .539-.111 1.053-.331 1.524a.763.763 0 01-.691.439zm-13.824-.899a.746.746 0 01-.175-.02l-4.793-1.12a.754.754 0 01-.566-.908.763.763 0 01.915-.563l4.792 1.12c.41.095.663.502.566.908a.76.76 0 01-.739.583zm-9.586-2.238a.746.746 0 01-.175-.02l-4.793-1.119a.755.755 0 11.349-1.471l4.792 1.119c.41.096.663.502.566.908a.76.76 0 01-.739.583zm-9.586-2.24a.802.802 0 01-.175-.019l-4.794-1.119a.756.756 0 11.349-1.472l4.793 1.12a.754.754 0 01-.173 1.49zm-9.586-2.238a.746.746 0 01-.175-.02l-4.793-1.119a.754.754 0 01-.566-.908.762.762 0 01.914-.563l4.793 1.119a.755.755 0 01-.173 1.491zm42.843-2.122a.759.759 0 01-.761-.755v-4.887c0-.417.341-.756.761-.756s.761.339.761.756v4.887a.758.758 0 01-.761.755zm-52.429-.117a.808.808 0 01-.175-.019l-4.792-1.119a.755.755 0 01-.566-.909.761.761 0 01.914-.563l4.793 1.12a.755.755 0 01-.174 1.49zm-9.586-2.239a.808.808 0 01-.175-.019l-4.792-1.12a.755.755 0 11.348-1.471l4.793 1.119a.756.756 0 01.566.909.76.76 0 01-.74.582zm-9.586-2.238a.752.752 0 01-.175-.02l-4.793-1.119a.756.756 0 11.349-1.471l4.793 1.119a.756.756 0 01-.174 1.491zm-9.585-2.239a.746.746 0 01-.175-.02l-4.794-1.119a.756.756 0 11.349-1.471l4.793 1.119c.41.096.663.502.566.908a.76.76 0 01-.739.583zm-9.586-2.239a.802.802 0 01-.175-.019l-4.793-1.12a.754.754 0 01-.566-.908.762.762 0 01.914-.563l4.793 1.119a.755.755 0 01-.173 1.491zm90.772-.703a.758.758 0 01-.761-.755v-4.887c0-.417.341-.755.761-.755s.761.338.761.755v4.887a.758.758 0 01-.761.755zm-100.358-1.535a.698.698 0 01-.175-.021l-1.248-.291c-1.363-.252-2.553-.562-3.604-.937a.755.755 0 01-.458-.967.764.764 0 01.974-.455c.973.348 2.086.636 3.403.882l1.282.299a.753.753 0 01-.174 1.49zm100.358-8.239a.758.758 0 01-.761-.755v-4.887c0-.417.341-.755.761-.755s.761.338.761.755v4.887a.758.758 0 01-.761.755zm0-9.775a.758.758 0 01-.761-.755v-4.887c0-.417.341-.755.761-.755s.761.338.761.755v4.887a.758.758 0 01-.761.755zm0-9.775a.758.758 0 01-.761-.755v-4.887c0-.417.341-.755.761-.755s.761.338.761.755v4.887a.758.758 0 01-.761.755zm0-9.774a.759.759 0 01-.761-.755v-4.888c0-.417.341-.755.761-.755s.761.338.761.755v4.888a.758.758 0 01-.761.755zm0-9.774a.759.759 0 01-.761-.755v-4.888c0-.417.341-.755.761-.755s.761.338.761.755v4.888a.759.759 0 01-.761.755zm-2.971-8.126a.78.78 0 01-.171-.019l-4.798-1.093a.756.756 0 01-.572-.905.762.762 0 01.912-.567l4.798 1.093a.755.755 0 01-.169 1.491zm-9.598-2.187a.78.78 0 01-.171-.019l-4.799-1.093a.756.756 0 01-.571-.905.763.763 0 01.911-.567l4.799 1.093a.756.756 0 01.572.905.76.76 0 01-.741.586zm-9.598-2.186a.78.78 0 01-.171-.019l-4.8-1.094a.754.754 0 11.34-1.471l4.8 1.093a.755.755 0 01-.169 1.491zm-9.598-2.186a.766.766 0 01-.171-.019l-4.799-1.094a.755.755 0 01-.572-.905.763.763 0 01.912-.567l4.799 1.094a.754.754 0 01-.169 1.491zM250.186 112a.78.78 0 01-.171-.019l-4.799-1.092a.756.756 0 01-.572-.905.763.763 0 01.912-.567l4.799 1.092c.41.094.666.499.572.905a.76.76 0 01-.741.586zm-9.598-2.186a.78.78 0 01-.171-.019l-4.799-1.094a.754.754 0 01-.571-.904.763.763 0 01.911-.568l4.799 1.093a.756.756 0 01.572.905.76.76 0 01-.741.587zm-9.598-2.187a.843.843 0 01-.171-.018l-4.8-1.093a.755.755 0 01-.571-.905.762.762 0 01.911-.567l4.8 1.093a.754.754 0 01-.169 1.49zm-9.598-2.186a.781.781 0 01-.172-.019l-4.798-1.093a.756.756 0 01-.572-.905.764.764 0 01.912-.567l4.799 1.093a.756.756 0 01.571.905.758.758 0 01-.74.586zm-9.599-2.186a.78.78 0 01-.171-.019l-4.799-1.094a.754.754 0 11.341-1.472l4.798 1.094a.755.755 0 01-.169 1.491zm-9.597-2.187a.843.843 0 01-.171-.018l-4.799-1.094a.754.754 0 11.34-1.472l4.799 1.094a.754.754 0 01-.169 1.49zm-9.598-2.186a.787.787 0 01-.172-.019l-4.798-1.093a.755.755 0 01-.572-.905.764.764 0 01.912-.567l4.799 1.093a.755.755 0 01-.169 1.491zM182.319 172.385a.767.767 0 01-.591-.278 6.227 6.227 0 01-1.244-2.478.762.762 0 011.48-.356c.168.689.486 1.321.944 1.879a.751.751 0 01-.11 1.063.755.755 0 01-.479.17z"
                  fill="#fff"/>
            <path opacity=".55"
                  d="M182.306 86.776a8.39 8.39 0 00-1.081 4.131v-3.02c0-1.745.529-3.361 1.438-4.713-.574 1.329-.662 2.545-.357 3.602zM297.637 122.936v3.021c0-4.128-2.861-7.711-6.909-8.655L187.339 93.75c-.012-.003-.023-.003-.035-.007-3.713-.857-5.931-3.383-4.93-6.748.624 1.828 2.439 3.153 4.93 3.727.012.004.023.004.035.008l103.389 23.551c4.048.944 6.909 4.528 6.909 8.655z"
                  fill="#fff"/>
            <path opacity=".55"
                  d="M182.663 86.194c-.118.272-.213.54-.289.8a2.007 2.007 0 01-.069-.218c.111-.197.228-.393.358-.582z"
                  fill="#fff"/>
            <path d="M288.696 205.32a10.255 10.255 0 01-2.36-.276l-98.049-22.899c-4.83-1.126-8.203-5.354-8.203-10.282V87.887a9.54 9.54 0 011.63-5.341 1.148 1.148 0 011.494-.367c.518.279.737.904.505 1.442-.558 1.29-.585 2.446-.082 3.432.618 1.211 2.013 2.123 3.929 2.566l.034.007 103.39 23.552c4.592 1.071 7.795 5.083 7.795 9.759v72.356a9.96 9.96 0 01-3.715 7.767 10.107 10.107 0 01-6.368 2.26zM182.366 89.224v82.639c0 3.871 2.65 7.192 6.443 8.076l98.079 22.907a7.837 7.837 0 006.732-1.542 7.702 7.702 0 002.875-6.011v-72.357c0-3.619-2.478-6.724-6.028-7.552l-103.383-23.55a.757.757 0 01-.038-.008c-2.008-.464-3.623-1.37-4.68-2.602z"
                  fill="#0E1829"/>
            <path d="M304.295 117.05a8.608 8.608 0 00-2.637-6.22 8.765 8.765 0 00-4.121-2.251l-108.29-23.732h115.154a9.13 9.13 0 017.145 3.413 8.918 8.918 0 012.004 5.669v72.844a9.075 9.075 0 01-5.867 8.473 9.25 9.25 0 01-3.197.601l-.192.001V117.05h.001z"
                  fill="#96CFE0"/>
            <path d="M304.401 85.036a8.96 8.96 0 016.996 3.342 8.78 8.78 0 011.963 5.55v72.845a8.755 8.755 0 01-.487 2.889 8.932 8.932 0 01-5.258 5.407 9.041 9.041 0 01-3.13.589v-58.609a8.854 8.854 0 00-2.694-6.355 8.946 8.946 0 00-4.211-2.299l-106.589-23.36h113.41zm0-.378H187.503l3.406.746 106.589 23.359a8.576 8.576 0 014.027 2.201 8.426 8.426 0 012.579 6.085v58.99l.384-.003a9.496 9.496 0 003.264-.614 9.266 9.266 0 005.481-5.637 9.158 9.158 0 00.507-3.012V93.929a9.097 9.097 0 00-2.046-5.788 9.318 9.318 0 00-7.293-3.483z"
                  fill="#0E1829"/>
            <path opacity=".3"
                  d="M313.36 93.928v72.845a8.745 8.745 0 01-.487 2.888 8.93 8.93 0 01-5.258 5.408 9.066 9.066 0 01-3.131.589v-58.609a8.851 8.851 0 00-2.693-6.355V94.748l2.028-1.133c4.839-.136 8.559-1.05 7.578-5.238a8.785 8.785 0 011.963 5.551z"
                  fill="#0E1829"/>
            <path d="M304.484 176.79a1.131 1.131 0 01-1.141-1.132v-58.609c0-3.618-2.478-6.724-6.025-7.552L190.745 86.142a1.134 1.134 0 01-.889-1.229 1.138 1.138 0 011.134-1.01H304.4c5.57 0 10.101 4.498 10.101 10.026v72.844a9.894 9.894 0 01-.549 3.259 10.027 10.027 0 01-5.928 6.095 10.189 10.189 0 01-3.528.663h-.012zM201.453 86.168l96.372 21.12c4.599 1.073 7.8 5.085 7.8 9.761v57.381a7.89 7.89 0 001.582-.42 7.752 7.752 0 005.011-7.238V93.929c0-4.28-3.507-7.76-7.818-7.76H201.453z"
                  fill="#0E1829"/>
            <path opacity=".3"
                  d="M192.892 85.453h22.553l.928 4.575-23.481-4.575zM230.137 93.615h72.446c8.559.166 10.233-2.741 8.152-5.974-2.673-3.412-9.272-3.137-16.997-1.803l-63.601 7.777z"
                  fill="#0E1829"/>
            <path d="M291.237 204.7c-1.415 0-2.892-.172-4.39-.511l.08-.369c.585.119 1.181.18 1.771.18 4.824 0 8.748-3.905 8.748-8.706v-72.358c0-1.348-.32-2.694-.927-3.895a8.74 8.74 0 00-5.835-4.576L187.245 90.902c-2.293-.529-4.005-1.685-4.804-3.253-.679-1.333-.663-2.906.047-4.549a8.756 8.756 0 017.296-3.897h120.578c5.045 0 9.149 4.074 9.149 9.081v72.844c.129 9.571-3.89 12.266-11.852 14.125l-.112-.36a8.698 8.698 0 005.622-8.12V93.929a8.47 8.47 0 00-.317-2.312l-.007-.025v-.008c-1.05-3.745-4.52-6.358-8.445-6.358H192.734L297.62 108.21a9.144 9.144 0 016.398 5.465 8.897 8.897 0 01.656 3.375v72.006c.316 4.862-.919 8.922-3.57 11.73-2.418 2.561-5.831 3.914-9.867 3.914z"
                  fill="#75A1DE"/>
            <path d="M310.362 79.391c4.949 0 8.959 3.984 8.959 8.893v72.844c.13 9.614-4.089 12.163-11.706 13.942a8.93 8.93 0 005.258-5.408 8.745 8.745 0 00.487-2.888V93.929c0-.82-.111-1.612-.324-2.364v-.007c-1.042-3.757-4.515-6.522-8.635-6.522h-113.41l106.589 23.359a8.94 8.94 0 016.261 5.351 8.733 8.733 0 01.643 3.304v72.006c.643 9.895-5.208 15.455-13.247 15.455a19.75 19.75 0 01-4.348-.505 9.065 9.065 0 001.809.183c4.806 0 8.939-3.874 8.939-8.895v-72.357c0-1.42-.339-2.775-.948-3.98a8.942 8.942 0 00-5.961-4.675L187.338 90.73c-.011-.004-.022-.004-.034-.008-4.002-.925-6.265-3.787-4.641-7.548a8.563 8.563 0 017.122-3.784h120.577v.001zm0-.377H189.785a8.945 8.945 0 00-7.439 3.951l-.019.029-.013.031c-.733 1.697-.747 3.325-.041 4.708.823 1.614 2.573 2.804 4.929 3.353l.012.004.035.006h.005l103.39 23.552a8.543 8.543 0 015.706 4.476 8.494 8.494 0 01.907 3.811v72.359c0 4.696-3.839 8.517-8.558 8.517-.577 0-1.16-.059-1.733-.175l-.16.737c1.511.343 3.002.516 4.432.516 4.09 0 7.55-1.374 10.005-3.973 2.687-2.845 3.94-6.949 3.623-11.872V117.05a9.066 9.066 0 00-.672-3.445 9.328 9.328 0 00-6.527-5.577L194.478 85.413h109.923c3.831 0 7.219 2.546 8.255 6.196l.014.058c.206.723.309 1.484.309 2.261v72.845a8.513 8.513 0 01-5.5 7.944l.223.72c3.318-.774 6.699-1.812 8.945-4.138 2.147-2.224 3.117-5.457 3.054-10.176v-72.84c.001-5.111-4.189-9.27-9.339-9.27z"
                  fill="#0E1829"/>
            <path opacity=".55"
                  d="M312.873 169.661a8.75 8.75 0 00.487-2.889v2.36a8.75 8.75 0 01-.487 2.889 8.752 8.752 0 01-.818 1.726c-1.316.521-2.8.94-4.44 1.321a8.927 8.927 0 005.258-5.407zM319.321 88.283v2.36c0-4.909-4.01-8.893-8.959-8.893H189.785a8.563 8.563 0 00-7.122 3.784 6.82 6.82 0 00-.384 1.155c-.274-1.038-.175-2.224.384-3.515a8.563 8.563 0 017.122-3.784h120.577c4.949 0 8.959 3.984 8.959 8.893z"
                  fill="#fff"/>
            <path opacity=".3"
                  d="M304.485 189.055c.753 11.607-7.426 17.249-17.595 14.949 5.527 1.126 10.747-3.07 10.747-8.711v-72.357c0-1.42-.339-2.776-.947-3.98-.83-5.706 3.461-8.111 7.152-5.211a8.748 8.748 0 01.643 3.304v72.006z"
                  fill="#0E1829"/>
            <path d="M291.267 205.649c-1.485 0-3.035-.179-4.631-.54a1.133 1.133 0 01-.862-1.344 1.143 1.143 0 011.345-.87 7.814 7.814 0 006.501-1.591 7.704 7.704 0 002.876-6.011v-72.357c0-3.619-2.479-6.725-6.029-7.552l-103.383-23.55a.757.757 0 01-.038-.008c-2.588-.599-4.524-1.93-5.453-3.752-.81-1.59-.803-3.439.021-5.347.027-.063.061-.125.1-.182a9.702 9.702 0 018.071-4.288h120.577c5.57 0 10.101 4.498 10.101 10.026v72.844c.135 10.09-4.512 13.159-12.586 15.044a1.132 1.132 0 01-.669-2.161 7.752 7.752 0 005.011-7.238V93.929c0-4.28-3.506-7.76-7.817-7.76H201.454l96.371 21.119c4.599 1.073 7.801 5.085 7.801 9.761v71.97c.36 5.68-1.364 10.432-4.855 13.385-2.533 2.141-5.813 3.245-9.504 3.245zM187.594 89.626l103.39 23.551c4.592 1.071 7.795 5.083 7.795 9.759v72.357a9.95 9.95 0 01-3.396 7.497 11.04 11.04 0 003.908-2.111c2.979-2.519 4.382-6.513 4.055-11.551l-.002-.072V117.05c0-3.619-2.477-6.724-6.025-7.552L190.745 86.142a1.135 1.135 0 01-.889-1.229 1.139 1.139 0 011.135-1.01h113.41c5.569 0 10.1 4.498 10.1 10.026v72.844a9.894 9.894 0 01-.549 3.259 10.046 10.046 0 01-.991 2.065c3.594-1.838 5.302-4.828 5.22-10.954v-72.86c0-4.279-3.507-7.76-7.818-7.76H189.785a7.425 7.425 0 00-6.114 3.194c-.518 1.252-.532 2.373-.042 3.336.618 1.21 2.014 2.123 3.93 2.566.012.001.024.004.035.007z"
                  fill="#0E1829"/>
            <path d="M303.264 94.755c-.231 0-.465-.003-.704-.007h-72.423c-.63 0-1.141-.507-1.141-1.133s.511-1.133 1.141-1.133h72.445c5.898.109 7.315-1.252 7.649-1.843.417-.738-.019-1.706-.458-2.388a1.129 1.129 0 01.347-1.564 1.147 1.147 0 011.577.345c1.403 2.18 1.061 3.767.525 4.715-1.127 1.997-4.139 3.008-8.958 3.008z"
                  fill="#0E1829"/>
            <path d="M277.573 93.614l-40.835.287-.065-.015-9.187-2.012-4.976-1.092-6.121-1.34-.944-4.407-1.21-5.645-5.508-25.677a.979.979 0 01.757-1.163l28.935-6.114 4.398-.929 12.227-2.583 5.634-1.19h.004l4.546-.962a.987.987 0 011.172.751l.354 1.65.57 2.663 7.198 33.554 1.21 5.645 1.841 8.58z"
                  fill="#1EBC61"/>
            <path d="M236.716 94.09l-.087-.02-20.401-4.47-2.179-10.17-5.508-25.677a1.17 1.17 0 01.904-1.387l51.233-10.82 4.51-.959a1.18 1.18 0 011.398.897l11.222 52.318-.234.001-40.858.288zm-20.167-4.806l20.21 4.43 40.579-.286-11.125-51.864a.782.782 0 00-.346-.498.789.789 0 00-.6-.109l-55.744 11.778a.792.792 0 00-.611.939l7.637 35.61z"
                  fill="#0E1829"/>
            <path opacity=".55"
                  d="M266.605 42.475l-3.404.722h-.004l-17.858 3.772-33.333 7.042a.982.982 0 00-.761 1.163l5.513 25.678 1.209 5.645.735 3.451-2.313-.506-.944-4.406-1.21-5.646-5.508-25.677a.98.98 0 01.757-1.163l33.333-7.042 17.861-3.773h.004l4.546-.962a.986.986 0 011.172.75l.205.952z"
                  fill="#fff"/>
            <path d="M271.738 93.615l-35.065.272-14.163-3.104-1.233-5.747-1.209-5.646-3.694-17.226c2.807-.593 4.599-3.334 4.002-6.125l20.973-4.43 15.365-3.247c.598 2.787 3.36 4.566 6.171 3.973l5.801 27.055 1.21 5.646 1.842 8.579z"
                  fill="#4EEC91"/>
            <path d="M236.653 94.075l-.021-.004-14.283-3.13-2.468-11.51-3.734-17.412.187-.04c2.7-.57 4.43-3.217 3.855-5.9l-.039-.185.185-.04 36.525-7.715.039.184c.575 2.681 3.243 4.397 5.945 3.827l.185-.039.04.184 8.901 41.507-35.317.273zm-13.983-3.45l14.023 3.073 34.809-.27-8.765-40.873c-2.781.491-5.483-1.252-6.167-3.97l-35.973 7.6c.491 2.76-1.262 5.443-4 6.12l6.073 28.32z"
                  fill="#0E1829"/>
            <path opacity=".3"
                  d="M277.573 93.615l-40.836.287-.064-.015-9.188-2.013 10.934-45.437 4.398-.93 12.227-2.582 12.28 2.911 7.198 33.554 1.21 5.646 1.841 8.579z"
                  fill="#0E1829"/>
            <path d="M277.572 94.748c-.527 0-1-.365-1.115-.897l-11.141-51.938-4.396.93a1.04 1.04 0 01-.042.008l-51.003 10.775 7.892 36.796a1.133 1.133 0 01-.879 1.345 1.14 1.14 0 01-1.353-.873L207.61 53.95a2.114 2.114 0 011.635-2.506l51.196-10.816a.702.702 0 01.042-.007l4.508-.955a2.13 2.13 0 012.526 1.622L278.69 93.38a1.133 1.133 0 01-1.118 1.368z"
                  fill="#0E1829"/>
            <path d="M271.736 94.56a.95.95 0 01-.929-.748l-8.67-40.428c-2.659.147-5.134-1.447-6.083-3.916l-34.623 7.314c.147 2.64-1.457 5.097-3.945 6.038l6.216 28.982a.951.951 0 01-1.86.393l-6.399-29.834a.938.938 0 01.132-.71.953.953 0 01.6-.41c2.29-.484 3.757-2.73 3.27-5.005a.942.942 0 01.732-1.12l36.338-7.676a.962.962 0 01.716.13c.212.137.36.351.413.596.487 2.273 2.749 3.73 5.043 3.245a.95.95 0 011.127.727l8.853 41.28a.944.944 0 01-.931 1.142z"
                  fill="#0E1829"/>
            <path d="M301.764 52.485l-5.927 24.624-3.971 16.506H231.24l13.171-54.731a.988.988 0 011.19-.725l55.433 13.145a.98.98 0 01.73 1.181z"
                  fill="#1EBC61"/>
            <path opacity=".55"
                  d="M301.764 52.485l-.277 1.152-54.238-12.861a.99.99 0 00-1.191.725l-12.539 52.114h-2.279l13.171-54.731a.988.988 0 011.19-.725l55.433 13.145a.98.98 0 01.73 1.181z"
                  fill="#fff"/>
            <path d="M291.866 94.748H231.24c-.349 0-.679-.16-.895-.432a1.129 1.129 0 01-.215-.965l13.171-54.73c.27-1.13 1.419-1.833 2.562-1.565l55.436 13.146a2.116 2.116 0 011.575 2.544v.003l-9.899 41.13c-.122.509-.581.868-1.109.868zm-59.18-2.266h58.279l9.653-40.112-55.133-13.073-12.799 53.185zm69.078-39.996h.004-.004z"
                  fill="#0E1829"/>
            <path opacity=".3"
                  d="M319.321 89.253v71.874c.129 9.614-4.09 12.163-11.706 13.941a8.927 8.927 0 005.258-5.407 8.75 8.75 0 00.487-2.889V93.928c0-.82-.111-1.612-.324-2.364v-.007c.324-6.17 4.47-10.37 6.285-2.304z"
                  fill="#0E1829"/>
            <path d="M293.908 60.744l-7.912 32.87h-48.89l10.55-43.836c2.796.66 5.6-1.05 6.265-3.822l36.138 8.569c-.666 2.771 1.057 5.558 3.849 6.219z"
                  fill="#4EEC91"/>
            <path d="M266.137 76.172c-7.287-1.382-14.324 3.363-15.715 10.596a13.17 13.17 0 00.496 6.847h25.398c.205-.594.374-1.208.495-1.844 1.393-7.232-3.386-14.216-10.674-15.599zM268.851 65.866c2.113 0 3.825-1.7 3.825-3.797 0-2.096-1.712-3.796-3.825-3.796-2.112 0-3.825 1.7-3.825 3.796 0 2.097 1.713 3.797 3.825 3.797z"
                  fill="#1EBC61"/>
            <path opacity=".3"
                  d="M299.261 76.941l-3.971 16.506h-24.873a16.41 16.41 0 01-1.689-7.27c0-9.145 7.468-16.561 16.682-16.561a16.707 16.707 0 0113.851 7.325z"
                  fill="#0E1829"/>
            <path d="M285.996 94.559h-48.889a.953.953 0 01-.747-.36.942.942 0 01-.179-.804l10.55-43.836a.95.95 0 011.145-.7c2.279.538 4.577-.86 5.12-3.121a.951.951 0 011.146-.7l36.137 8.569c.511.12.827.63.705 1.137-.543 2.263.867 4.542 3.145 5.082a.941.941 0 01.705 1.138l-7.913 32.87a.95.95 0 01-.925.725zm-47.684-1.888h46.934l7.534-31.299c-2.464-1.002-4.007-3.495-3.795-6.131l-34.43-8.163c-1.009 2.444-3.522 3.978-6.177 3.766L238.312 92.67z"
                  fill="#0E1829"/>
            <path opacity=".3"
                  d="M294.593 128.698v66.595c0 3.24-2.644 5.876-5.893 5.876-.399 0-.802-.042-1.198-.125l-.091-.015-98.167-22.928a6.273 6.273 0 01-1.228-.423c42.064 1.416 84.029-15.577 106.577-48.98z"
                  fill="#0E1829"/>
            <path d="M309.672 88.49c-2.116 9.591-11.667 15.663-21.33 13.562a17.877 17.877 0 01-11.429-8.062 17.32 17.32 0 01-1.314-2.57 17.54 17.54 0 01-1.002-10.142c.026-.134.052-.265.081-.397 2.118-9.595 11.669-15.667 21.332-13.566a17.98 17.98 0 012.919.9 17.823 17.823 0 019.448 8.883 17.499 17.499 0 011.616 5.732 17.526 17.526 0 01-.321 5.66z"
                  fill="#F7C714"/>
            <path opacity=".55"
                  d="M309.673 88.49c-.096.434-.208.863-.333 1.282 1.32-9.132-4.675-17.866-13.901-19.872-9.225-2.005-18.351 3.44-20.998 12.283.063-.432.142-.868.238-1.302 2.118-9.595 11.668-15.667 21.331-13.566 9.663 2.102 15.781 11.582 13.663 21.175z"
                  fill="#fff"/>
            <path d="M309.672 88.49c-2.117 9.591-11.667 15.663-21.33 13.562-9.663-2.1-15.781-11.58-13.663-21.172.183-.83.422-1.633.713-2.408-.666 8.695 5.203 16.772 14.03 18.691 8.827 1.92 17.561-2.982 20.618-11.156a17.702 17.702 0 01-.368 2.483z"
                  fill="#F89E1D"/>
            <path d="M289.503 96.795c-6.728-1.463-11.002-8.086-9.528-14.763 1.474-6.678 8.146-10.92 14.874-9.457 6.728 1.463 11.002 8.086 9.528 14.763-1.474 6.677-8.147 10.92-14.874 9.457z"
                  fill="#F9DD6A"/>
            <path opacity=".55"
                  d="M304.376 87.339a12.33 12.33 0 01-.253.96c.875-6.335-3.302-12.397-9.701-13.788-6.398-1.391-12.747 2.381-14.62 8.499.045-.324.102-.65.175-.977 1.474-6.678 8.146-10.922 14.873-9.46 6.726 1.464 11 8.088 9.526 14.766z"
                  fill="#fff"/>
            <path opacity=".27"
                  d="M306.928 74.597l-31.329 16.822a17.54 17.54 0 01-1.002-10.142l24.331-13.063a17.825 17.825 0 018 6.383zM309.687 80.928l-29.462 16.824c-1.566-1.269-2.263-2.069-3.312-3.762l31.464-16.892c.852 1.79 1.103 1.822 1.31 3.83z"
                  fill="#FCE5E5"/>
            <path d="M292.178 98.028c-.95 0-1.914-.1-2.879-.31a13.344 13.344 0 01-8.437-5.84c-1.938-3.004-2.584-6.572-1.816-10.049.767-3.476 2.856-6.45 5.882-8.373a13.435 13.435 0 0110.124-1.803 13.346 13.346 0 018.437 5.84c1.938 3.004 2.584 6.572 1.816 10.047-1.374 6.228-6.951 10.488-13.127 10.488zm-.016-24.8c-2.181 0-4.322.619-6.207 1.817-2.598 1.653-4.392 4.205-5.05 7.189a11.31 11.31 0 001.56 8.626 11.46 11.46 0 007.242 5.013c.828.18 1.657.266 2.472.266 5.302.001 10.089-3.656 11.269-9.003a11.302 11.302 0 00-1.56-8.626 11.465 11.465 0 00-7.242-5.014 11.738 11.738 0 00-2.484-.268z"
                  fill="#0E1829"/>
            <path d="M292.179 103.6c-1.346 0-2.712-.143-4.081-.44a19.003 19.003 0 01-12.157-8.575 18.511 18.511 0 01-1.398-2.736 18.661 18.661 0 01-1.065-10.788c.031-.156.057-.288.086-.422 2.249-10.187 12.426-16.661 22.69-14.429 1.064.231 2.108.553 3.106.956a18.915 18.915 0 018.508 6.79 19.263 19.263 0 011.54 2.659 18.564 18.564 0 011.72 6.1c.214 1.997.1 4.023-.341 6.02-1.948 8.826-9.854 14.865-18.608 14.865zm-.005-35.565c-7.706 0-14.665 5.316-16.38 13.088a16.432 16.432 0 00.86 9.866 16.68 16.68 0 004.926 6.604 16.648 16.648 0 007.007 3.354c1.203.262 2.407.387 3.592.387 7.706.001 14.663-5.314 16.379-13.085.388-1.758.489-3.54.3-5.299a16.365 16.365 0 00-1.512-5.367 17.122 17.122 0 00-1.359-2.345 16.644 16.644 0 00-7.487-5.973 16.865 16.865 0 00-2.735-.842 16.86 16.86 0 00-3.591-.388z"
                  fill="#0E1829"/>
            <path d="M334.658 155.909l-3.324-2.772a1.909 1.909 0 01-.237-2.703l16.025-18.931a1.941 1.941 0 012.722-.235l3.324 2.772c.818.682.923 1.893.237 2.702l-16.024 18.932a1.943 1.943 0 01-2.723.235z"
                  fill="#F7C714"/>
            <path d="M335.899 156.547a2.12 2.12 0 01-1.363-.493l-3.324-2.772a2.099 2.099 0 01-.259-2.97l16.024-18.931a2.137 2.137 0 012.991-.258l3.324 2.772a2.1 2.1 0 01.26 2.969l-16.024 18.932a2.134 2.134 0 01-1.629.751zm-1.118-.783a1.754 1.754 0 002.454-.211l16.025-18.932a1.723 1.723 0 00-.214-2.437l-3.324-2.773a1.754 1.754 0 00-2.455.212l-16.024 18.932a1.72 1.72 0 00.213 2.436l3.325 2.773z"
                  fill="#0E1829"/>
            <path d="M338.698 141.466l-6.931 8.189 6.284 5.24 6.931-8.188-6.284-5.241z" fill="#F89E1D"/>
            <path opacity=".55" d="M346.3 132.485l-3.367 3.978 6.283 5.24 3.367-3.978-6.283-5.24z" fill="#FCE5E5"/>
            <path d="M335.897 157.492a3.07 3.07 0 01-1.973-.716l-3.323-2.772a3.018 3.018 0 01-1.085-2.072 3.018 3.018 0 01.709-2.227l16.023-18.931a3.093 3.093 0 014.331-.373l3.323 2.771a3.026 3.026 0 011.085 2.073 3.02 3.02 0 01-.709 2.227l-16.023 18.93a3.056 3.056 0 01-2.088 1.077 3.05 3.05 0 01-.27.013zm12.706-25.54a.795.795 0 00-.608.28l-16.023 18.93a.78.78 0 00.097 1.107l3.324 2.772a.797.797 0 001.115-.096l16.023-18.93a.778.778 0 00-.097-1.107l-3.323-2.772a.79.79 0 00-.508-.184zm-17.505 18.481h.004-.004z"
                  fill="#0E1829"/>
            <path d="M185.159 128.716c-6.312-6.814-13.662-10.502-17.293-8.901 0 0-5.064 1.085-6.867 6.694-2.128 3.656.895 11.11 7.35 18.08 4.942 5.334 10.521 8.753 14.453 9.219h.001s6.063 1.66 9.743-7.07c2.115-3.373-.968-11.092-7.387-18.022z"
                  fill="#F7C714"/>
            <path d="M183.964 154.113c-.736 0-1.196-.118-1.212-.123-4.112-.485-9.695-4.041-14.543-9.274-6.507-7.025-9.541-14.538-7.385-18.284 1.762-5.449 6.623-6.711 6.981-6.797 3.8-1.653 11.151 2.107 17.494 8.954 6.409 6.919 9.594 14.764 7.407 18.249-2.696 6.402-6.739 7.275-8.742 7.275zm-14.136-34.482c-.704 0-1.338.115-1.885.357l-.037.012c-.05.011-4.98 1.133-6.727 6.567l-.017.037c-2.093 3.598.92 10.941 7.326 17.857 4.717 5.092 10.344 8.686 14.335 9.16.088.02 5.976 1.513 9.545-6.956 2.113-3.372-1.053-11.022-7.351-17.82-5.205-5.622-11.273-9.214-15.189-9.214z"
                  fill="#0E1829"/>
            <path d="M176.181 141.703l-5.207 5.809 9.452 6.647s5.228-4.284 5.654-5.333c-.001 0-10.173-4.62-9.899-7.123z"
                  fill="#F89E1D"/>
            <path opacity=".55" d="M167.147 128.222l-5.017 7.665 3.911 6.182 4.738-5.912-3.632-7.935z" fill="#FCE5E5"/>
            <path opacity=".55"
                  d="M166.161 123.717s-3.015 1.184-3.478 5.245c0 0-1.346 3.924.982 7.523 0 0-3.121-6.341-3.33-6.862-.209-.521 2.112-7.169 2.112-7.169l2.229-1.132 1.485 2.395z"
                  fill="#fff"/>
            <path opacity=".55"
                  d="M176.63 123.23s-3.429-1.338-6.248-1.359c-1.559-.011-2.807 1.225-2.756 2.772.069 2.028.765 5.528 3.618 10.868l-5.022-8.484s-.521-5.682.966-7.068c-.001.001 6.137-1.02 9.442 3.271z"
                  fill="#fff"/>
            <path d="M186.64 141.681c1.622-1.487-.538-6.424-4.823-11.028-4.286-4.604-9.074-7.131-10.695-5.644-1.622 1.486.538 6.424 4.823 11.028 4.286 4.604 9.074 7.131 10.695 5.644z"
                  fill="#F9DD6A"/>
            <path d="M185.357 142.3c-2.26 0-6.032-2.345-9.555-6.13-4.422-4.753-6.537-9.715-4.812-11.296 1.726-1.582 6.54.903 10.963 5.656 4.423 4.752 6.538 9.714 4.813 11.295-.351.322-.83.475-1.409.475zm-12.966-17.526c-.475 0-.864.122-1.143.377-1.516 1.39.698 6.318 4.834 10.762 4.136 4.443 8.911 7.023 10.426 5.634 1.515-1.39-.698-6.318-4.834-10.763-3.374-3.625-7.174-6.01-9.283-6.01z"
                  fill="#0E1829"/>
            <path d="M185.361 142.701c-2.625 0-6.692-2.873-9.849-6.265-3.954-4.248-6.976-9.846-4.79-11.85 2.186-2.005 7.569 1.429 11.522 5.678 3.954 4.248 6.976 9.845 4.791 11.85-.441.403-1.012.587-1.674.587zm-12.969-17.537c-.376 0-.674.09-.875.275-1.185 1.087.517 5.546 4.856 10.208 4.213 4.527 8.683 6.696 9.867 5.613 1.185-1.087-.517-5.546-4.856-10.208-3.494-3.755-7.166-5.888-8.992-5.888z"
                  fill="#0E1829"/>
            <path opacity=".27"
                  d="M192.932 136.483l-30.534-2.815a15.159 15.159 0 014.166-7.737l23.713 2.187a15.171 15.171 0 012.655 8.365zM191.861 142.326l-29.198-1.928c-.511-1.652-.625-2.555-.562-4.265l30.665 2.829c-.252 1.686-.087 1.827-.905 3.364z"
                  fill="#FCE5E5"/>
            <path d="M189.08 149.358c-1.502 0-3.266-.444-5.215-1.332-3.554-1.619-7.4-4.548-10.827-8.247-7.38-7.968-10.345-16.779-6.751-20.061 3.596-3.281 12.193.391 19.573 8.358 3.427 3.7 6.046 7.748 7.374 11.4 1.424 3.919 1.204 6.994-.623 8.66-.893.815-2.092 1.222-3.531 1.222zm-19.292-28.949c-.94 0-1.697.232-2.211.701-2.369 2.163-.133 9.835 6.864 17.388 3.259 3.518 6.888 6.292 10.219 7.809 3.026 1.378 5.454 1.537 6.661.436 1.207-1.101 1.25-3.516.12-6.625-1.244-3.421-3.724-7.242-6.984-10.761-5.478-5.914-11.275-8.948-14.669-8.948z"
                  fill="#0E1829"/>
            <path d="M183.932 155.234a6.958 6.958 0 01-1.34-.12c-4.392-.544-10.219-4.229-15.223-9.63-3.95-4.264-6.571-8.337-7.792-12.106-1.921-5.925 1.104-12.292 6.885-14.495.453-.172.795-.273.97-.32 4.317-1.788 11.982 1.999 18.708 9.259 6.799 7.34 9.972 15.515 7.595 19.517-2.952 6.917-7.481 7.895-9.803 7.895zm-.786-2.703c.238.061 5.037 1.133 8.171-6.303.027-.065.06-.128.098-.188 1.55-2.471-.776-9.454-7.236-16.428-6.314-6.817-13.103-9.764-15.772-8.588a1.415 1.415 0 01-.23.078s-.296.074-.761.25c-4.461 1.7-6.792 6.627-5.304 11.218 1.103 3.402 3.531 7.145 7.219 11.125 4.543 4.905 9.892 8.359 13.63 8.802.061.006.124.019.185.034z"
                  fill="#0E1829"/>
        </g>
        <path stroke="#0E1829" stroke-width="2" stroke-linecap="round" stroke-linejoin="round" d="M80 169h310"/>
        <circle cx="392.5" cy="84.5" r="7.5" fill="#F0B26E"/>
        <circle r="11.5" transform="matrix(-1 0 0 1 445 65)" stroke="#B7BEC7"/>
        <path d="M426.173 30.388L419.958 24l-5.624 5.517L408.71 24l-5.623 5.517L397.463 24l-5.624 5.517L386.512 24 380 30.388l1.776 1.451 4.736-4.645 5.327 5.517 5.624-5.517 5.624 5.517 5.623-5.517 5.624 5.517 5.624-5.517 4.735 4.646 1.48-1.452z"
              fill="#B7BEC7"/>
        <circle r="7" transform="matrix(-1 0 0 1 120.5 105.5)" stroke="#B7BEC7"/>
        <path d="M118.173 124.036L114.246 120l-3.553 3.486L107.14 120l-3.553 3.486-3.554-3.486-3.553 3.486L93.114 120 89 124.036l1.122.917 2.992-2.935 3.366 3.486 3.553-3.486 3.554 3.486 3.553-3.486 3.553 3.486 3.553-3.486 2.992 2.935.935-.917z"
              fill="#B7BEC7"/>
        <circle cx="61.5" cy="38.5" r="5.5" fill="#F0B26E"/>
    </g>
    <defs>
        <clipPath id="clip0">
            <path fill="#fff" d="M0 0h480v170H0z"/>
        </clipPath>
        <clipPath id="clip1">
            <path fill="#fff" transform="translate(159 37)" d="M0 0h196v209H0z"/>
        </clipPath>
    </defs>
</svg>