<svg width="24" height="24" fill="none" xmlns="http://www.w3.org/2000/svg">
    <path d="M12 24c6.627 0 12-5.373 12-12S18.627 0 12 0 0 5.373 0 12s5.373 12 12 12z" fill="#0052B4"/>
    <path d="M12 4.696l.389 1.196h1.257l-1.017.739.388 1.196L12 7.087l-1.017.74.389-1.196-1.018-.739h1.258L12 4.696zM6.835 6.836l1.12.57.89-.888-.197 1.241 1.12.571-1.242.197-.196 1.242-.571-1.12-1.242.196.89-.889-.572-1.12zM4.696 12.001l1.196-.388v-1.258l.738 1.018 1.196-.389-.739 1.017.74 1.017-1.197-.388-.738 1.017V12.39L4.696 12zM6.835 17.166l.571-1.12-.889-.89 1.242.198.57-1.12.197 1.241 1.242.197-1.12.57.197 1.242-.89-.889-1.12.571zM12 19.305l-.388-1.196h-1.258l1.018-.739-.389-1.195 1.017.739 1.017-.74-.388 1.196 1.017.74h-1.257L12 19.304zM17.165 17.166l-1.12-.57-.89.888.198-1.241-1.12-.571 1.241-.197.197-1.242.57 1.12 1.242-.196-.889.889.571 1.12zM19.305 12.001l-1.196.389v1.257l-.739-1.017-1.196.388.74-1.017-.74-1.017 1.196.389.739-1.018v1.258l1.196.388zM17.165 6.836l-.57 1.12.888.889-1.242-.197-.57 1.12-.197-1.241-1.242-.197 1.12-.57-.196-1.242.889.889 1.12-.571z"
          fill="#FFDA44"/>
</svg>