<svg width="200" height="50" fill="none" xmlns="http://www.w3.org/2000/svg"><path d="m159.61 20.018-4.368 4.834v-4.834h-3.16v12.203h3.16v-5.136l4.675 5.136H164l-5.75-6.394 5.334-5.809h-3.974zM146.509 24.57h-4.367v-4.552h-3.162v12.203h3.162V27.41h4.367v4.811h3.161V20.018h-3.161v4.551zM54.766 26.629c-.075 2.276-.372 2.73-1.667 2.73v2.862h.483c3.23 0 4.007-1.648 4.127-5.311l.132-4.053h3.028v9.364h3.16V20.018h-9.041l-.222 6.61zM71.884 23.724h-2.282v-3.706h-3.16v12.205h5.486c3.445 0 4.675-2.21 4.675-4.293 0-2.688-1.713-4.206-4.719-4.206zm-.242 5.81h-2.041v-3.1h2.041c1.098 0 1.755.478 1.755 1.496.002 1.105-.634 1.603-1.755 1.603zM86.896 19.735v-4.53h-3.16v4.53c-3.621.304-6.058 2.84-6.058 6.373 0 3.556 2.437 6.092 6.058 6.396V37.1h3.16v-4.596c3.621-.281 6.058-2.84 6.058-6.396 0-3.555-2.435-6.09-6.058-6.373zm-3.16 9.821c-1.755-.24-2.853-1.539-2.853-3.446 0-1.907 1.098-3.208 2.853-3.446v6.892zm3.16 0v-6.894c1.755.238 2.853 1.54 2.853 3.446 0 1.907-1.096 3.209-2.853 3.448zM104.807 28.471v-4.096c0-2.991-1.931-4.878-5.18-4.878-3.357 0-5.134 1.996-5.29 4.076h3.205c.11-.454.592-1.235 2.086-1.235 1.229 0 2.018.564 2.018 2.037h-3.14c-2.808 0-4.477 1.452-4.477 3.88 0 2.536 1.825 4.27 4.455 4.27 1.929 0 3.001-.9 3.468-1.583.416.825 1.339 1.28 2.545 1.28h1.098v-2.819c-.569 0-.788-.26-.788-.931zm-3.161-.801c0 1.409-1.01 2.21-2.326 2.21-1.142 0-2.041-.41-2.041-1.625 0-1.192.987-1.387 1.843-1.387h2.524v.802zM118.35 21.752h-3.533v-3.447h8.187v-3.1h-11.502V32.22h6.848c3.796 0 5.969-1.863 5.969-5.288 0-3.23-2.173-5.181-5.969-5.181zm-.155 7.391h-3.38v-4.421h3.38c1.755 0 2.744.802 2.744 2.21 0 1.453-.987 2.211-2.744 2.211zM136.413 28.471v-4.096c0-2.991-1.93-4.878-5.179-4.878-3.357 0-5.135 1.996-5.289 4.076h3.204c.109-.454.592-1.235 2.085-1.235 1.23 0 2.019.564 2.019 2.037h-3.14c-2.809 0-4.478 1.452-4.478 3.88 0 2.536 1.826 4.27 4.456 4.27 1.929 0 3-.9 3.467-1.583.417.825 1.339 1.28 2.546 1.28h1.098v-2.819c-.569 0-.789-.26-.789-.931zm-3.16-.801c0 1.409-1.01 2.21-2.326 2.21-1.142 0-2.042-.41-2.042-1.625 0-1.192.988-1.387 1.843-1.387h2.525v.802zM52.9 37.425H36v3.468h16.9v-3.468zM47.523 17.54c-.483-1.42-1.038-2.54-2.94-2.54-1.904 0-2.495 1.116-3.002 2.54l-5.23 14.681h3.468l1.207-3.49H47.7l1.119 3.49h3.687l-4.982-14.68zm-5.487 8.244 2.37-6.958h.088l2.238 6.958h-4.696z" fill="#EF3124"/></svg>