<svg width="200" height="50" fill="none" xmlns="http://www.w3.org/2000/svg"><path fill-rule="evenodd" clip-rule="evenodd" d="M33.55 20.645c2.007-.464 4.514-.862 4.796-3.475H22.743c-1.643.13-2.73 1.51-2.73 3.006v3.614L20 32.692c.145-.652.608-3.377 1.87-5.432.941-1.505 2.259-2.724 3.726-3.653 2.31-1.46 5.092-2.296 7.954-2.962zm10.354-3.48V29.66c0 1.666-1.31 3.033-2.905 3.033h-7.41c2.053-.88 5.964-3.15 5.874-5.874-.133-3.908-5.374-2.68-5.374-2.68.71 1.086 1.228 2.377.69 3.837-.69 1.872-2.504 3.171-4.245 3.797-3.21 1.157-6.26.866-6.26.866.424-1.952 1.001-4.064 2.195-5.619 1.562-2.041 3.988-3.001 6.268-3.872 2.345-.894 6.362-1.282 8.596-2.895 2.233-1.608 2.571-3.086 2.571-3.086z" fill="#499C7E"/><path fill-rule="evenodd" clip-rule="evenodd" d="M54.536 23.156s1.241-.796 3.14-.796c2.996 0 3.762 2.466 3.762 4.547 0 3.024-1.087 5.78-5.148 5.78h-3.636V17.166h7.855l-.162 1.559-5.81-.46v4.89zm0 8.41h1.613c2.563 0 3.222-1.76 3.222-4.082 0-3.06-1.861-4.789-4.83-3.203v7.285h-.005zM74.932 20.699v1.175c.056 8.937-1.459 8.687-2.674 9.062l.496 2.015c1.904-.58 2.824-1.858 3.136-4.77.202-1.872.343-4.079.394-6.406h2.606v10.912h1.716V20.7h-5.674zM110.517 25.92v-.035c1.074-.358 1.775-1.363 1.775-2.502 0-2.229-1.549-2.684-3.016-2.684h-3.598v11.988h3.512c2.251 0 3.658-1.532 3.658-3.573.005-1.487-.915-2.823-2.331-3.194zm-3.124-4.113h1.344c1.035 0 1.797.625 1.797 1.894 0 1.402-.942 2.059-.942 2.059h-2.203v-3.953h.004zm1.472 9.768h-1.467v-4.752h1.424c1.322 0 2.148.862 2.148 2.398 0 1.367-.761 2.354-2.105 2.354zM122.77 25.996c0 .358 0 .742-.021.983h-5.994c0 4.48 2.618 5.275 5.63 3.56l.394.898c-.702.625-2.349 1.536-3.919 1.536-2.131 0-4.069-1.608-4.069-5.753 0-3.837 1.737-6.79 4.608-6.79 3.08 0 3.371 3.36 3.371 5.566zm-1.891-.125c0-2.206-.363-4.377-2.036-4.377-1.575 0-2.028 2.506-2.088 4.377h4.124zM71.176 25.996c0 .358 0 .742-.022.983H65.16c0 4.48 2.618 5.275 5.63 3.56l.394.898c-.706.625-2.349 1.536-3.919 1.536-2.13 0-4.073-1.608-4.073-5.753 0-3.837 1.737-6.79 4.608-6.79 3.085 0 3.376 3.36 3.376 5.566zm-1.892-.125c0-2.206-.363-4.377-2.032-4.377-1.574 0-2.028 2.506-2.088 4.377h4.12zM161.602 32.687V20.7h1.712v5.065h4.013v-5.065h1.711v11.988h-1.711v-5.864h-4.013v5.864h-1.712zM89.877 20.699l-4.189 9.768h-.064l.039-2.997V20.7h-1.716v11.988h1.865l3.98-9.496h.072l-.026 2.953v6.543h1.716V20.7h-1.677zM155.574 20.435c-.847-.017-1.925.175-3.299.64-.03.008-.047.017-.047.017l.287 1.75h.12c.415-.334 1.437-1.17 2.348-1.2 1.725 0 1.81 1.83 1.81 2.702v1.103h-1.467c-3.141 0-4.198 1.8-4.198 3.837 0 2.3 1.096 3.671 2.854 3.671 1.998 0 2.833-1.692 2.833-1.692h.06l.162 1.429h1.549v-8.3c.004-2.05-.368-3.957-3.012-3.957zm1.215 9.675s-.68 1.362-1.964 1.362c-1.262 0-1.818-1.063-1.818-2.622 0-1.415.847-2.416 2.314-2.416.642 0 1.468.08 1.468.08v3.596zM179.461 20.793v-.107h-1.797l-3.17 5.167h-.45v-5.159h-1.715v11.993h1.715v-5.864h.428l3.406 5.86H180v-.112l-4.107-6.62 3.568-5.158zM132.641 20.699H140l-.124 1.304-2.678-.165v10.85h-1.797v-10.85l-2.884.165.124-1.304zM126.583 26.14c.102-5.839 3.431-4.557 4.697-3.458h.12l.295-1.912s-.945-.335-2.036-.335c-2.751 0-4.993 2.926-4.993 7.053 0 3.788 2.002 5.467 4.133 5.467 1.775 0 2.982-.898 3.765-1.518l-.389-.894c.008-.004-5.738 3.667-5.592-4.404zM145.819 21.405c-1.523 0-2.952 1.317-2.952 1.317.179-1.58.624-3.381 1.775-3.747 1.061-.335 2.854-.362 4.313-.987l-.175-1.97-.047-.018c-.728.313-1.323.384-2.683.764-4.215 1.179-5.246 6.329-5.186 9.978.06 3.667 1.613 6.258 4.257 6.258 3.017 0 4.407-3.573 4.352-6.691-.052-3.073-1.134-4.904-3.654-4.904zm-.364 10.411c-1.882 0-2.627-2.537-2.687-6.253-.017-.862 0-1.215.03-1.813 0 0 1.1-.956 2.084-.956 2.109 0 2.618 1.496 2.665 4.256.026 1.85.056 4.766-2.092 4.766zM94.896 32.687V20.7h1.715v5.065h4.009v-5.065h1.716v11.988h-1.716v-5.864h-4.009v5.864h-1.715z" fill="#514E49"/></svg>