<svg width="200" height="50" fill="none" xmlns="http://www.w3.org/2000/svg"><g clip-path="url(#a)" fill-rule="evenodd" clip-rule="evenodd"><path d="M22 18.75h13.496v13.669H22v-13.67z" fill="#04734A"/><path d="M28.126 31.7c0-2.968-2.397-5.307-5.238-5.307v2.338c1.687 0 3.019 1.35 3.019 3.058h2.22v-.09z" fill="#fff"/><path d="M31.323 31.7c0-4.767-3.818-8.634-8.524-8.634v2.338c3.463 0 6.215 2.788 6.215 6.295h2.309z" fill="#fff"/><path d="M34.52 31.7c0-3.958-1.865-7.375-4.795-9.623h4.794v-2.338H22.8v2.338c5.239 0 9.412 4.316 9.412 9.532h2.308v.09z" fill="#fff"/><path d="M167.345 18.75c.178 0 .444 0 .8.09.355 0 .532.09.71.09.177 0 .444 0 .71-.09.355 0 .622-.09.71-.09v6.294a193.653 193.653 0 0 0 5.15-6.294c.089 0 .267 0 .533.09.266 0 .444.09.533.09h.532c.178 0 .356-.09.533-.09v.18l-2.131 2.158c-.444.45-1.065 1.169-1.864 2.068-.444.54-.888.989-1.155 1.349l5.505 7.823v.27l-1.687-.09-1.687.09-4.35-6.385v6.385H167.257V18.75h.088zm-15.449 0c.178 0 .444 0 .711.09.355 0 .621.09.71.09.178 0 .444 0 .71-.09.355 0 .622-.09.711-.09v5.485c.444 0 .976 0 1.687.09.71 0 1.154.09 1.331.09h1.155c1.154-.09 1.775-.09 1.864-.09V18.75c.178 0 .444 0 .711.09.355 0 .532.09.71.09.177 0 .444 0 .71-.09.355 0 .622-.09.71-.09v13.758H160.686v-6.654h-4.617c-.621 0-1.065 0-1.42.09v6.744H151.808V18.75h.088zm-21.93 12.59h.799c.266 0 .533-.09.71-.09.622-.18 1.066-.54 1.421-.99.266-.54.444-1.079.444-1.709 0-.809-.178-1.438-.533-1.888-.355-.54-.799-.72-1.332-.72h-1.42v5.396h-.089zm0-11.152v4.497h2.131c1.42 0 2.486.27 3.196.809.71.54 1.154 1.439 1.154 2.518 0 1.619-.532 2.788-1.687 3.507-.887.54-2.042.81-3.551.81h-4.173v-13.58h8.79c0 .18-.089.36-.089.45v.45c0 .27 0 .54.089.9-.71-.09-1.421-.18-2.309-.18-.888-.18-2.042-.18-3.551-.18zm-5.594 9.982-.444 1.709c-.621.27-1.243.54-1.864.63-.711.18-1.332.18-2.042.18-2.131 0-3.907-.63-5.328-1.8-1.42-1.258-2.131-2.877-2.131-4.945 0-2.518.8-4.407 2.309-5.756 1.421-1.259 3.285-1.888 5.594-1.888.71 0 1.42.09 2.13.27.711.18 1.332.45 1.954.72l-.444 2.067h-.266c-.356-.54-.888-.989-1.421-1.348-.622-.36-1.243-.54-1.865-.54-1.509 0-2.752.63-3.551 1.978-.71 1.17-1.066 2.518-1.066 4.227 0 1.798.444 3.147 1.243 4.226.8 1.08 1.954 1.62 3.463 1.62.622 0 1.243-.18 1.865-.45.621-.27 1.154-.63 1.687-1.08l.177.18zm-18.201-1.259c-.355-.81-.977-1.888-1.776-3.237-.178-.27-.888-1.439-2.22-3.687-.888-1.439-1.509-2.518-1.953-3.237.178 0 .533 0 .888.09.355 0 .71.09.888.09.177 0 .532 0 .888-.09.355 0 .71-.09.887-.09.178.36.533.989 1.066 1.978.089.18.621 1.079 1.598 2.698.622 1.079 1.066 1.798 1.154 2.068.356-.54.888-1.529 1.599-3.237.355-.9.976-2.069 1.598-3.597l.976.09.977-.09c-.355.719-1.065 2.068-2.131 4.046a150.652 150.652 0 0 0-2.663 5.396c-.977 2.068-1.599 3.507-1.954 4.226H105.194l-.888.09c.267-.36.622-1.079 1.154-2.158.178-.27.356-.72.711-1.349zm-11.898-3.507c.444 0 .888-.09 1.332-.18.621-.18 1.066-.54 1.332-.989.266-.45.355-.99.355-1.709 0-.809-.178-1.438-.533-1.888-.355-.45-.799-.72-1.332-.72h-1.243v5.486h.09zm0 7.104H91.432V18.75h4.883c2.841 0 4.262 1.169 4.262 3.417 0 1.618-.533 2.877-1.687 3.507-.977.54-2.397.81-4.44.81v6.024h-.177zm-10.21-5.395-1.776-4.677-1.865 4.677h3.64zM62.22 18.75c0 .18-.089.27-.089.45V20.008c0 .18.089.36.089.45-.71-.09-1.42-.18-2.131-.18-.622-.09-1.51-.09-2.397-.09v4.316H60.8c.355 0 .8-.09 1.42-.18 0 .09 0 .18-.088.36v.899c0 .18.089.36.089.45-.8-.09-1.598-.18-2.486-.18h-2.042v5.126c.976 0 1.775 0 2.486-.09.71-.09 1.42-.09 2.13-.18 0 .18-.088.27-.088.45V31.968c0 .18.089.36.089.45h-7.547v-13.67h7.458zM45.706 31.34h.8c.266 0 .532-.09.71-.09.621-.18 1.065-.54 1.42-.99.355-.54.444-1.079.444-1.709 0-.809-.177-1.438-.532-1.888-.356-.54-.8-.72-1.332-.72h-1.42v5.396h-.09zm22.286-12.59c.355 0 .622.36.622.719 0 .09 0 .18-.09.27a156.61 156.61 0 0 0-1.331 3.597l-1.865 4.586c-.621 1.529-1.331 3.058-1.953 4.586l.888-.09.977.09c.355-.989.71-2.068 1.154-3.327.355-.9.71-1.978 1.243-3.327a98.046 98.046 0 0 1 1.332-3.238c.621 1.619 1.243 3.328 1.864 4.946.71 1.889 1.243 3.597 1.687 4.946.178 0 .533 0 .888-.09.355 0 .71-.09.888-.09.178 0 .533 0 .888.09.355 0 .71.09.888.09a280.148 280.148 0 0 1-1.865-4.586c-.799-2.068-1.42-3.597-1.776-4.586-.621-1.529-1.154-3.058-1.686-4.586h-2.753zm16.16.809a6.256 6.256 0 0 0-.356-.9H81.133c.355 0 .621.36.621.72 0 .09 0 .18-.089.27l-5.15 12.77.977-.09.977.09c.089-.45.266-.9.444-1.53.178-.539.533-1.438.888-2.697h4.617c.266.54.444 1.259.71 2.068.178.45.355 1.17.71 2.158H89.212l-5.06-12.86zm60.641 7.644-1.775-4.677-1.865 4.677h3.64zm.178-7.644c-.089-.27-.178-.54-.355-.9h-2.664c.355 0 .622.36.622.72 0 .09 0 .18-.089.27l-5.15 12.77.977-.09.977.09c.088-.45.266-.9.444-1.53.177-.539.532-1.438.887-2.697h4.617c.267.54.444 1.259.711 2.068.177.45.355 1.17.71 2.158H150.032l-5.061-12.86zm-99.265.63v4.496h2.131c1.42 0 2.486.27 3.197.809.71.54 1.154 1.439 1.154 2.518 0 1.619-.533 2.788-1.687 3.507-.888.54-2.042.81-3.552.81h-4.173v-13.58h8.79c0 .18-.089.36-.089.45v.45c0 .27 0 .54.09.9-.711-.09-1.421-.18-2.31-.18-.798-.18-2.041-.18-3.55-.18z" fill="#04734A"/></g><defs><clipPath id="a"><path fill="#fff" d="M0 0h200v50H0z"/></clipPath></defs></svg>