<svg width="200" height="50" fill="none" xmlns="http://www.w3.org/2000/svg"><g clip-path="url(#a)"><path fill-rule="evenodd" clip-rule="evenodd" d="m41 24.677-.46 1.59c.055 0 .13.007.226.017.099.011.169.017.206.017.487 0 .871-.083 1.158-.246.29-.164.466-.361.534-.587a.646.646 0 0 0-.14-.628c-.16-.191-.39-.286-.685-.286-.214 0-.678.043-.84.123zm125.486-5.95h3.984l-3.086 10.48h-3.983l3.085-10.48zm-54.03-7.66c-1.137-1.325-3.757-.715-6.025.316.021.245.032.493.032.744 0 2.952-1.418 5.537-3.512 6.91 1.384-.084 3.053-.478 4.871-1.603 3.328-2.059 5.75-4.666 4.634-6.366zm62.158 19.604h-37.486l.515 2.996h37.925l-.954-2.997zm-2.86-9.366H176l-3.218 3.577 1.299 4.325h-4.228l-.929-4.325 2.83-3.577zm-17.104 0h3.968l-.749 2.542h2.22l.748-2.542h3.949l-2.326 7.902h-3.985l.906-3.074h-2.168l-.904 3.074h-3.984l2.325-7.902zm-18.605.354c1.556-.441 2.854-.661 3.9-.661 1.123 0 1.935.267 2.436.798.502.532.738 1.297.708 2.29-.038.33-.103.66-.197.983a5.492 5.492 0 0 1-.649 1.398 5.79 5.79 0 0 1-1.098 1.247 6.193 6.193 0 0 1-1.525.96c-.576.26-1.21.439-1.897.533a9.538 9.538 0 0 1-1.618.117c-.768 0-1.428-.105-1.981-.311l.696 4.788h-3.43l-.086-3.9-1.922 3.9h-3.447l-.628-3.9-1.444 3.9h-3.433l3.245-7.327h3.807l.8 3.553 1.57-3.553h2.315c-.019-.361.02-.737.121-1.133l1.038-3.528c.356-1.139.952-2 1.792-2.586a7.012 7.012 0 0 1 2.726-1.148c.979-.182 2.119-.295 3.423-.34 1.303-.045 2.119-.093 2.448-.148l-.863 2.933c-.738-.203-1.577-.304-2.522-.304-.67 0-1.325.055-1.963.169-.637.113-1.166.27-1.59.466-.422.199-.67.416-.738.652a.303.303 0 0 0 .003.082.249.249 0 0 1 .003.07zm11.373 7.548c-.04.008-1.012.13-1.05.136a7.776 7.776 0 0 1-1.149.085c-1 0-1.72-.218-2.158-.654-.437-.433-.579-.984-.422-1.652.204-.596.482-1.065.836-1.41a3.431 3.431 0 0 1 1.223-.773c.458-.172 1.014-.306 1.666-.406.65-.1 1.233-.186 1.75-.26.199-.016.376-.073.537-.169.159-.094.255-.192.284-.292.03-.105-.023-.201-.163-.281-.135-.084-.36-.122-.67-.122-.805 0-1.994.247-3.565.746l.996-2.495c1.745-.28 3.128-.42 4.141-.42 1.141 0 2.02.155 2.637.465.616.31.864.8.743 1.467l-1.777 6.035h-3.859zm.64-2.169.243-.827c-.357.123-.748.207-1.114.303-.162.04-.294.105-.404.193a.549.549 0 0 0-.203.262c.006.098.003.196.099.295a.488.488 0 0 0 .37.149c.14 0 .302-.046.482-.131.025-.012.502-.23.527-.244zM62.677 30.32a349.25 349.25 0 0 1-.238-5.565l-2.578 4.327h-3.823l5.377-7.903h4.278l.49 5.351a17.87 17.87 0 0 1 3.066-.289c.762 0 1.44.069 2.03.207.593.135 1.055.35 1.387.645.769.677.474 1.775-.06 2.504a2.978 2.978 0 0 1-.988.865c-.39.213-.819.375-1.285.49-.464.113-1.038.218-1.718.318a1.03 1.03 0 0 0-.475.162c-.143.094-.22.18-.23.264-.011.096.058.182.207.258.146.077.37.116.665.116.674 0 1.776-.245 3.304-.736l-.536 2.278c-1.392.24-2.637.36-3.734.36-1.128 0-2.033-.147-2.713-.442-.681-.297-1.021-.755-1.016-1.38.122-.71.394-1.258.82-1.647a3.563 3.563 0 0 1 1.443-.812c.538-.153 1.327-.318 2.365-.494.183-.021.338-.069.464-.15.128-.078.196-.172.208-.276.013-.115-.061-.211-.226-.297-.165-.085-.415-.13-.75-.13-2.153 0-3.786 1.28-5.734 1.976zm-27.747.316h28.202l-.639 3.067H34l.93-3.067zm6.84-8.543c.205-.021 1.63-.034 1.984-.034.885 0 1.589.173 2.105.518.518.345.846.794.984 1.348.14.552.118 1.134-.062 1.747a4.994 4.994 0 0 1-.873 1.67c-.406.52-.907.938-1.495 1.258a3.9 3.9 0 0 1-1.893.482H35.34l3.087-10.483h9.098l-.819 2.781H41.98l-.21.713zm14.5 4.33-1.703 2.495c-2.009.332-4.76.839-6.481-.595-.76-.631-.933-1.644-.52-3.041.134-.462.33-.968.6-1.505.278-.556.71-1.032 1.284-1.432.57-.4 1.212-.708 1.924-.918 1.417-.419 3.312-.52 4.63.29.502.309.857.737 1.052 1.282.197.543.188 1.183-.026 1.91a8.21 8.21 0 0 1-.142.406c-.069.185-.12.327-.154.427h-5.516c-.078.755.417 1.135 1.482 1.135 1.083 0 2.536-.179 3.57-.454zm-4.657-2.02h1.901l.04-.134c.09-.313.067-.533-.04-.695-.32-.485-.975-.286-1.356.005-.26.198-.44.47-.545.823zM77.461 33.8l-.989.129c-.33.05-.669.074-1.014.074-.928 0-1.63-.203-2.107-.604-.478-.404-.697-.915-.66-1.534.093-.55.275-.986.547-1.306.272-.32.608-.56 1.008-.717.4-.157.891-.284 1.479-.375.586-.094 1.112-.174 1.58-.242a.994.994 0 0 0 .469-.156c.134-.09.204-.179.216-.27.013-.1-.053-.188-.195-.263-.14-.077-.356-.113-.642-.113-.746 0-1.807.23-3.182.691l.519-2.31c1.571-.262 2.83-.391 3.77-.391 1.057 0 1.897.143 2.52.432.62.287.929.742.926 1.36l-.67 5.595H77.46zm5.612-6.996c1.572-.262 2.855-.391 3.849-.391 1.26 0 2.156.173 2.687.516.48.42.687.916.617 1.494a1.706 1.706 0 0 1-.478.984c-.273.293-.63.489-1.065.59.563.184.934.424 1.12.718.183.295.248.67.196 1.118l-.033.267c-.098.455-.357.832-.773 1.132-.418.3-.944.524-1.587.667a9.812 9.812 0 0 1-2.143.216c-.994 0-2.042-.106-3.144-.315l.053-2.249c.93.33 2.08.721 3.084.721.282 0 .554-.09.816-.273.262-.18.406-.392.436-.636.058-.483-.298-.912-1.072-1.291.315-.069.57-.197.774-.385.2-.19.315-.38.336-.575.038-.312-.095-.52-.393-.628-.076-.02-.26-.032-.556-.032-.908 0-2.001.21-3.276.629l.552-2.277zm23.555 1.978c.553.068.761.703.671 1.46-.09.758-.728 1.288-1.281 1.22-.554-.069-.755-.707-.665-1.465.09-.757.722-1.283 1.275-1.215zm-15.136-2.309h3.563l-.08.675c.3-.28.717-.51 1.253-.682a5.132 5.132 0 0 1 1.62-.26c.53 0 1.012.087 1.453.266.44.177.787.46 1.034.85.249.39.346.869.293 1.445l-.602 5.033h-3.693l.452-3.774c.035-.282-.024-.504-.177-.668a.746.746 0 0 0-.562-.246c-.298 0-.583.134-.852.4-.273.267-.44.636-.504 1.11l-.381 3.178h-3.693l.876-7.327zm24.2 2.639a1.836 1.836 0 0 0-.482 1.022c-.041.344.02.658.18.945.184.314.422.472.711.472.247 0 .501-.12.762-.362.253-.28.399-.61.444-.99a1.698 1.698 0 0 0-.166-1.01c-.154-.3-.368-.452-.638-.452-.251 0-.522.125-.811.375zm-.535-2.767a7.33 7.33 0 0 1 1.769-.186c.611 0 1.163.08 1.656.239a3.92 3.92 0 0 1 1.251.647c.344.274.616.597.821.962.205.367.329.746.373 1.137a4.14 4.14 0 0 1-.011.93 3.997 3.997 0 0 1-.369 1.25 4.22 4.22 0 0 1-.809 1.127c-.341.344-.75.636-1.22.868a5.238 5.238 0 0 1-1.594.48c-.563.072-1.028.108-1.398.108-.932 0-1.72-.177-2.365-.534-.644-.352-1.109-.819-1.395-1.398a3.2 3.2 0 0 1-.316-1.84c.099-.816.461-1.576 1.086-2.28a4.805 4.805 0 0 1 2.521-1.51zm-13.112.346c.16-.006.526-.042 1.095-.105.571-.06 1.085-.113 1.546-.151.463-.037.935-.057 1.417-.057 2.403 0 3.895.571 4.466 1.714.327.718.435 1.539.324 2.469a4.8 4.8 0 0 1-.551 1.74c-.293.538-.69.971-1.19 1.294-.501.325-1.074.487-1.717.487-.771 0-1.602-.234-2.498-.71l-.432 3.616h-3.691l1.231-10.297zM77.689 31.89l.112-.938a6.105 6.105 0 0 1-.993.351.778.778 0 0 0-.342.179c-.087.081-.137.161-.147.244-.01.092.02.234.124.326.103.092.245.106.382.084.27-.04.6-.16.864-.246zm59.407-7.927c-.38.408-.641.852-.779 1.326-.102.343-.104.648-.006.92.125.372.345.558.664.558.283 0 .624-.16 1.023-.478.308-.242.533-.598.67-1.07.081-.27.112-.534.095-.79a1.184 1.184 0 0 0-.2-.63.555.555 0 0 0-.482-.243c-.29 0-.619.134-.985.407zM86.563 11.068c1.137-1.327 3.757-.716 6.025.315-.02.245-.031.493-.031.744 0 2.952 1.417 5.537 3.513 6.91-1.385-.084-3.054-.478-4.873-1.603-3.328-2.059-5.75-4.666-4.634-6.366zm29.553 5.727c-.769-.636-2.274-.95-3.987-1.062-.835 1.145-2.013 2.262-3.407 3.204-.605.409-1.256.752-1.925 1.031a22.702 22.702 0 0 0 2.925-.2c4.34-.58 7.608-1.69 6.394-2.973zm-29.51-1.47c-2.155.263-3.867.763-4.431 1.344-1.6 1.69 1.447 3.462 6.156 4.217 2.706.434 8.637.755 11.18-.69 2.541 1.444 8.473 1.125 11.177.69 4.709-.755 7.756-2.527 6.157-4.217-.565-.581-2.276-1.081-4.433-1.345 1.098-1.678 1.43-3.377.599-4.646-.802-1.19-3.751-1.344-6.707-.238-.679-3.577-3.47-6.27-6.794-6.27-3.325 0-6.116 2.693-6.795 6.27-2.956-1.106-5.905-.952-6.707.238-.832 1.269-.499 2.968.599 4.646zm-3.703 1.47c.77-.636 2.275-.95 3.987-1.062.835 1.145 2.013 2.262 3.407 3.204.606.409 1.256.752 1.925 1.031a22.692 22.692 0 0 1-2.925-.2c-4.34-.58-7.608-1.69-6.394-2.973zM99.51 4.951c2.664 0 4.877 2.706 5.229 6.2-.342.185-.679.388-1.007.61-.244.164-.482.335-.716.51l-.043 1.23c.407-.366 1.048-.82 1.815-1.267-.043 3.904-2.397 7.07-5.278 7.07-2.882 0-5.236-3.165-5.278-7.07.766.448 1.407.9 1.814 1.268l-.043-1.23a17.073 17.073 0 0 0-.716-.51 11.927 11.927 0 0 0-1.007-.611c.352-3.494 2.565-6.2 5.23-6.2z" fill="#26528E"/></g><defs><clipPath id="a"><path fill="#fff" d="M0 0h200v50H0z"/></clipPath></defs></svg>