<svg width="200" height="50" fill="none" xmlns="http://www.w3.org/2000/svg"><g clip-path="url(#a)"><path fill-rule="evenodd" clip-rule="evenodd" d="M30.436 30.646c-1.407 1.526-2.835 1.95-3.666 2.076-.043-.89.127-2.5 1.534-3.983 1.343-1.42 2.836-1.864 3.752-2.013-.085.996-.426 2.628-1.62 3.92zm-6.267 2.076c-.81-.127-2.238-.55-3.645-2.076-1.194-1.293-1.556-2.924-1.642-3.92.917.149 2.409.594 3.752 2.013 1.428 1.483 1.599 3.072 1.535 3.983zm1.513-7.394c-.085-.127-1.108-1.293-3.41-2.31-2.004-.89-3.518-1.017-3.582-1.017a.914.914 0 0 0-1.023.784.91.91 0 0 0 .789 1.017c.021 0 1.3.106 3.048.869 1.833.805 2.686 1.716 2.686 1.716v-.02c.299.402.874.508 1.28.21a.866.866 0 0 0 .212-1.25zm-.362-6.674c-.085-.043-.831-.509-1.684-.72-.49-.107-1.002.19-1.109.677a.934.934 0 0 0 .683 1.102c.575.127 1.13.487 1.13.487a.903.903 0 0 0 1.257-.275.916.916 0 0 0-.277-1.271zm-2.473 1.716c1.237.466 2.388 1.335 2.473 1.398.405.318.469.89.17 1.293a.946.946 0 0 1-1.3.17c-.043-.022-.32-.234-.725-.488a7.669 7.669 0 0 0-1.257-.636c-1.023-.381-2.132-.572-2.175-.593a.929.929 0 0 1-.746-1.06.933.933 0 0 1 1.066-.74c.128-.022 1.258.147 2.494.656zm11.085 5.318a.95.95 0 0 0-.853-.848c-.128-.02-3.39-.211-6.118 2.649a6.932 6.932 0 0 0-1.492 2.267 7.698 7.698 0 0 0-1.492-2.267c-2.707-2.86-5.969-2.649-6.118-2.649a.932.932 0 0 0-.853.848c0 .148-.234 3.623 2.153 6.208 2.772 2.966 5.521 2.818 6.332 2.818.81 0 3.517.148 6.288-2.818 2.409-2.585 2.174-6.06 2.153-6.208z" fill="#F9B101"/><path fill-rule="evenodd" clip-rule="evenodd" d="M108.158 20.158h4.818c.426 0 .682.127.831.275l.085.085c.021.021.043.043.064.085.085.127.149.297.171.466.021.17.021.34.021.466v7.585h-1.045v-7.606c0-.106 0-.212-.042-.297 0-.02 0-.02-.022-.042v-.021s-.042-.021-.063-.021h-.022c-.042-.022-.106-.022-.128-.022h-4.519a.793.793 0 0 0-.192.043s-.021 0-.021.021c-.021.021-.021.042-.043.085v.02c-.021.064-.021.15-.021.213v7.585h-1.045v-7.564c0-.148 0-.297.022-.466.021-.17.085-.34.17-.466.064-.106.213-.255.469-.34.043-.02.107-.02.149-.042.128-.042.235-.042.363-.042zm34.448 1.208-2.963 7.14c-.085.19-.192.36-.32.466-.021.021-.042.043-.085.064-.17.106-.341.17-.469.17-.192 0-.469-.107-.682-.34a.658.658 0 0 1-.107-.148.528.528 0 0 1-.085-.19l-2.963-7.12s0-.021-.021-.021v7.733h-1.045v-8.072c0-.318.085-.551.235-.72.149-.17.383-.276.682-.276.256 0 .447.064.597.17.149.105.256.275.341.487l2.942 7.034.021.043c.064.127.064.19.085.19.021 0 .021-.084.085-.212l.022-.02 2.941-7.035c.086-.212.192-.381.342-.488a.995.995 0 0 1 .596-.169c.299 0 .512.085.683.276.149.169.234.423.234.72v8.03h-1.045v-7.733l-.021.02zm-17.011.423c-.682.742-.682 2.12-.682 2.86v.043c0 .7 0 1.95.661 2.691l.021.021c.341.36.768.572 1.237.678.469.106.959.127 1.406.127.448 0 .938-.02 1.407-.127.469-.106.896-.318 1.237-.678.703-.741.703-2.013.703-2.712v-.042c0-.382 0-.911-.085-1.441s-.256-1.06-.597-1.42c-.32-.36-.789-.55-1.258-.656a6.675 6.675 0 0 0-1.407-.127c-.405 0-.916.02-1.406.127-.448.106-.896.296-1.237.656zm-1.769 2.776c0-.487.043-1.123.192-1.78.149-.635.447-1.271.938-1.758.447-.424 1.002-.678 1.577-.827a8.15 8.15 0 0 1 1.748-.17c.554 0 1.173.022 1.748.17.576.128 1.13.382 1.578.827.49.487.767 1.123.938 1.758.149.636.191 1.271.191 1.759 0 1.377-.277 2.33-.66 2.987-.064.128-.15.233-.235.34-.085.105-.17.19-.234.275-.491.487-1.13.741-1.748.869a7.786 7.786 0 0 1-1.578.148c-.405 0-.98-.021-1.577-.148-.619-.128-1.237-.382-1.748-.87a3.236 3.236 0 0 1-.682-1.016c-.043-.085-.064-.17-.107-.276-.213-.572-.341-1.313-.341-2.288zm-7.141-3.115v6.696h2.75c.554 0 1.108-.149 1.534-.488.086-.063.171-.127.235-.211l.192-.255c.192-.296.319-.657.383-1.08.064-.424.107-.932.107-1.505 0-.593-.021-1.059-.085-1.42a2.535 2.535 0 0 0-.235-.847 1.992 1.992 0 0 0-.703-.847c-.064-.043-.107-.064-.171-.106a2.57 2.57 0 0 0-1.172-.276h-2.558a.228.228 0 0 0-.149.064c-.022 0-.022.021-.022.021l-.021.021a.358.358 0 0 0-.085.106v.127zm2.409 7.628h-2.409v2.818h-1.045V21.323c0-.254.085-.445.171-.593a.948.948 0 0 1 .277-.297c.17-.127.384-.212.554-.233.171-.042.341-.042.469-.042h2.238c.299 0 .746.021 1.237.17.49.148 1.023.402 1.449.868.469.487.704 1.06.832 1.632.128.572.128 1.144.128 1.674 0 .55-.022 1.122-.107 1.673-.107.551-.277 1.08-.597 1.59-.362.53-.789.868-1.322 1.08-.533.17-1.151.233-1.875.233zm-6.14-7.945 6.118 7.966-6.118-7.966zm-63.78-.022h-3.049v4.492c0 .445.064.911.214 1.293a.993.993 0 0 0 .106.212c.043.063.064.127.107.19.255.382.64.615 1.044.742.405.127.853.17 1.258.17.298 0 .703-.022 1.108-.107.405-.106.79-.275 1.066-.614.277-.339.448-.848.533-1.42a11.57 11.57 0 0 0 .107-1.674c0-.466 0-.995-.085-1.461-.086-.467-.256-.912-.576-1.23a1.808 1.808 0 0 0-.533-.38l-.128-.064a4.515 4.515 0 0 0-1.172-.149zm13.408 7.967h-1.108l.042-.127 3.304-8.157c.15-.34.342-.53.512-.636a.853.853 0 0 1 .448-.127c.085 0 .255.021.447.127.17.106.363.297.512.636l3.304 8.157.043.127h-1.173l-.021-.063-3.027-7.65v-.02c-.021-.085-.064-.191-.085-.191-.022 0-.043.106-.064.17v.02l-3.027 7.67-.022.064h-.085zm-7.823-6.06c-.064.318-.064.657-.086 1.038h5.287c.277 0 .277-.36.277-.466v-.02c0-.594-.149-1.06-.34-1.4a1.92 1.92 0 0 1-.107-.169.932.932 0 0 0-.128-.148c-.299-.36-.661-.53-1.045-.636a5.485 5.485 0 0 0-1.172-.106c-.427 0-.896 0-1.3.149a1.81 1.81 0 0 0-1.067.868c-.149.276-.255.551-.32.89zm6.011 5.212v.87H56.7a3.27 3.27 0 0 1-1.215-.213 2.778 2.778 0 0 1-1.194-.91c-.341-.446-.533-.954-.64-1.526-.085-.551-.106-1.166-.106-1.801 0-.615.021-1.293.17-1.95.15-.656.47-1.27 1.045-1.758.405-.34.895-.551 1.385-.657.49-.106.98-.148 1.429-.148.447 0 1.044.042 1.62.233.106.042.234.085.34.127.107.042.214.106.32.148.171.106.555.36.853.805.32.445.597 1.102.597 2.056 0 .127 0 .339-.064.572-.042.233-.15.466-.34.635-.15.127-.32.191-.513.233-.17.043-.34.043-.469.043h-5.286c0 .36 0 .805.064 1.207 0 .085.021.17.042.234.022.084.022.148.043.212v.02c.15.488.469 1.039 1.066 1.293.107.043.234.085.384.127.128.021.277.043.447.043h4.072v.105h.021zM52.2 17.425v.868h-3.922c-.447 0-.874.106-1.236.297l-.192.127c-.064.043-.106.085-.17.149a1.986 1.986 0 0 0-.512.953c-.021.064-.021.148-.043.212 0 .042-.021.085-.021.148h3.006c.703 0 1.599.149 2.302.657.128.106.277.212.384.339.128.127.234.275.34.424.278.424.427.932.512 1.44.086.509.086 1.039.086 1.505 0 .572-.022 1.165-.107 1.716-.085.551-.256 1.08-.512 1.504-.405.657-.98 1.017-1.556 1.208-.575.19-1.193.233-1.684.233-.49 0-1.108-.021-1.705-.212-.618-.19-1.194-.572-1.62-1.292a3.511 3.511 0 0 1-.405-1.144c-.064-.382-.064-.742-.064-1.102v-4.619c0-.275 0-.636.064-.996s.17-.763.383-1.102c.235-.402.576-.699.96-.932.085-.042.149-.085.234-.127a3.431 3.431 0 0 1 1.514-.339H52.2v.085zm94.797 4.661h2.537c.896 0 1.343.424 1.514.636.277.36.447.995.447 2.097 0 .72-.042 1.738-.597 2.246-.362.34-1.087.53-1.684.53-.81 0-1.406-.254-1.748-.636-.234-.254-.447-.72-.447-1.377v-3.496h-.022zm34.641 6.907-3.752-3.898c-.128-.127-.32-.424-.32-.615 0-.275.277-.572.426-.72l3.347-3.539h-2.323l-2.814 3.115c-.256.276-.618.7-.618 1.144 0 .445.298.805.49 1.017l3.219 3.496h2.345zm-6.438-8.75h-1.94v8.75h1.94v-8.75zm0 8.75v-8.75 8.75zm-3.262 0v-8.75h-1.939v3.496h-4.2v-3.496h-1.94v8.75h1.94v-3.771h4.2v3.771h1.939zm-11.383-3.962v2.013c0 .127 0 .254-.128.36-.128.106-.32.106-.426.106h-2.729c-.256 0-.49-.127-.639-.254-.235-.254-.256-.7-.256-.975 0-.635.149-.868.213-.932.213-.275.576-.297.725-.297h3.24v-.02zm-5.542-4.788v1.483h4.348c.299 0 .682.042.938.381.213.276.256.572.256.827v.614h-3.816c-.469 0-1.065.042-1.62.509-.661.572-.746 1.356-.746 2.14 0 .635.043 1.758.768 2.373.49.423 1.108.423 1.598.423h4.2c.405 0 .895-.042 1.215-.339.32-.317.341-.805.341-1.123v-4.555c0-.975-.277-1.695-.64-2.076-.405-.403-1.087-.678-1.833-.678h-5.009v.02zm-2.025-1.335v-1.483h-4.733c-1.641 0-2.387.805-2.707 1.335-.405.699-.49 1.525-.49 2.076v4.555c0 .763 0 1.526.447 2.289.832 1.398 2.494 1.398 3.731 1.398 1.321 0 2.814-.021 3.666-1.314.618-.953.618-2.288.618-3.072 0-.932-.042-2.013-.575-2.818-.448-.678-1.322-1.292-2.963-1.292h-2.963c-.022-.509.192-1.017.469-1.25.469-.424 1.194-.424 1.684-.424h3.816zm-76.23 6.123v2.013c0 .127 0 .254-.128.36-.128.106-.32.106-.426.106h-2.708c-.255 0-.49-.127-.64-.254-.234-.254-.276-.7-.276-.975 0-.635.149-.868.213-.932.213-.275.575-.297.725-.297h3.24v-.02zm21.7-.402c0-.551 0-1.695.555-2.31.554-.636 1.492-.7 2.132-.7.703 0 1.556.064 2.11.7.618.678.554 1.674.554 2.31 0 .762 0 1.61-.575 2.245-.576.636-1.365.72-2.089.72-.704 0-1.557-.084-2.11-.72-.576-.614-.576-1.504-.576-2.245zm2.665-4.492c-1.044 0-2.6.042-3.56.932-1.023.932-1.13 2.606-1.13 3.58 0 .89.086 2.543 1.13 3.497.96.869 2.516.953 3.56.953 1.023 0 2.601-.063 3.56-.953.64-.615 1.13-1.716 1.13-3.56 0-.932-.128-2.585-1.13-3.517-.959-.89-2.515-.932-3.56-.932zm-11.81 7.373v-5.382c0-.105.043-.19.129-.296a.63.63 0 0 1 .277-.106h1.918c.874 0 1.45.424 1.706.996.106.233.234.699.234 1.885 0 1.314-.192 1.844-.362 2.098-.214.339-.704.805-1.663.805h-2.238zm0 1.483h2.473c.896 0 2.26-.063 3.091-1.25.64-.89.704-2.14.704-3.305 0-.953-.043-2.31-.938-3.242-.853-.869-2.025-.953-2.6-.953h-3.07c-.341 0-.768.042-1.088.275-.213.17-.49.488-.49 1.08v10.213h1.94v-2.818h-.021zm-7.695 0v-6.568c0-.212-.021-.381.128-.53a.596.596 0 0 1 .405-.17h4.54v-1.482h-5.776c-.363 0-.789.042-1.045.466-.192.275-.192.636-.192.974v7.31h1.94zm-10.402-8.75v1.483h4.348c.299 0 .682.042.938.381.213.276.256.572.256.827v.614h-3.816c-.469 0-1.066.042-1.62.509-.66.572-.746 1.356-.746 2.14 0 .635.043 1.758.767 2.373.49.423 1.109.423 1.6.423h4.199c.426 0 .895-.042 1.215-.339.32-.317.34-.805.34-1.123v-4.555c0-.975-.276-1.695-.639-2.076-.405-.403-1.087-.678-1.833-.678h-5.01v.02z" fill="#545454"/><path d="M182 32.214H45.273v.381H182v-.381z" fill="#F9B101"/><path fill-rule="evenodd" clip-rule="evenodd" d="M138.982 35.689c0 .254.022.868.533.868a.523.523 0 0 0 .341-.127c.086-.085.192-.275.192-.763 0-.508-.128-.847-.511-.847-.512 0-.555.572-.555.869zm17.331 2.33h-.064c-.192 0-.661-.127-.661-.254v-.021l.149-.297.022-.021c.021 0 .042.021.042.021.15.085.299.148.427.148.213 0 .319-.127.405-.423l.085-.276h-.213c-.064 0-.064 0-.085-.063l-.81-2.31c0-.02-.022-.042-.022-.063 0-.022.022-.043.064-.043l.384-.084h.043c.042 0 .063.02.063.063l.512 1.61c.064.212.107.424.149.636.043-.19.064-.36.107-.53l.426-1.737c0-.042.022-.064.043-.064h.021l.405.106c.022 0 .043.021.043.043v.02l-.576 2.183c-.128.509-.256 1.335-.959 1.356zm-11.49 0h-.064c-.192 0-.661-.127-.661-.254v-.021l.15-.297c0-.021.021-.021.021-.021.021 0 .043.021.043.021.149.085.298.148.426.148.213 0 .32-.127.405-.423l.085-.276h-.213c-.064 0-.064 0-.085-.063l-.81-2.31c0-.02-.022-.042-.022-.063 0-.022.022-.043.064-.043l.384-.084h.043c.042 0 .064.02.064.063l.511 1.61c.064.212.107.424.149.636.043-.19.064-.36.107-.53l.426-1.737c0-.042.022-.064.043-.064h.021l.405.106c.022 0 .043.021.043.043v.02l-.597 2.14c-.128.552-.234 1.378-.938 1.4zm6.502-3.22h-.597v.233c0 .55-.043 1.038-.256 1.44h.853V34.8zm.533 1.674h.277c.021 0 .042.02.042.042v.996c0 .042-.021.063-.063.063h-.363c-.021 0-.042 0-.042-.042v-.636h-1.514v.636c0 .042-.021.064-.064.064h-.362c-.043 0-.043-.022-.043-.064v-1.017c0-.021.021-.042.043-.042h.192c.17-.297.234-.572.234-.657.043-.212.064-.488.064-.7v-.699c0-.02 0-.042.043-.042h1.492c.021 0 .042.021.042.042v2.056h.022zm12.939 1.08c0 .021-.021.043-.064.043h-.341c-.021 0-.064 0-.064-.064v-.636h-2.686c-.042 0-.042-.02-.042-.042v-2.416c0-.02.021-.042.042-.042l.405-.085h.043c.043 0 .043.022.043.043v2.14h.66V34.46c0-.043.022-.043.043-.043l.405-.084h.043c.021 0 .042 0 .042.042v2.14h.661v-2.034c0-.043.021-.043.043-.043l.405-.084h.042c.022 0 .043 0 .043.042v2.14h.277c.021 0 .043.021.043.042v.975h-.043zm4.711-2.86c-.32 0-.469.212-.511.678h.98c-.021-.445-.149-.678-.469-.678zm1.023.932c0 .106 0 .148-.085.148h-1.449c.021.509.234.763.639.763.299 0 .469-.106.64-.19.021 0 .021-.022.021-.022.021 0 .021.021.043.043l.127.254c0 .021.022.042.022.042 0 .149-.618.297-.896.297-.703 0-1.129-.487-1.129-1.335 0-.826.426-1.356 1.087-1.356.639 0 .98.466.98 1.293v.063zm5.372-.869c0 .043-.021.064-.085.064h-.895v2.013c0 .042-.022.063-.064.063h-.405c-.043 0-.064-.02-.064-.063v-2.395c0-.042.021-.063.064-.063h1.428c.021 0 .064 0 .064.042v.021l-.043.318zm4.626-.02c-.362 0-.533.275-.533.91 0 .636.171.932.533.932s.512-.296.512-.932c0-.635-.171-.91-.512-.91zm-.021 2.245c-.682 0-1.066-.487-1.066-1.335 0-.847.405-1.335 1.108-1.335.683 0 1.066.488 1.066 1.335 0 .827-.426 1.335-1.108 1.335zm-39.991-3.623c0 .021.021.021.021.042 0 .043-.042.064-.064.064l-1.044.466a1.511 1.511 0 0 0-.362.233c-.086.085-.235.276-.278.615l-.021.105h.021c.15-.339.469-.466.768-.466.277 0 .49.106.639.233.171.17.363.467.363 1.039 0 .487-.235 1.313-1.087 1.313-.981 0-1.109-.996-1.109-1.631 0-.827.107-1.547.938-1.907l.959-.424h.043c.021 0 .043 0 .064.021l.149.297z" fill="#F9B101"/><path fill-rule="evenodd" clip-rule="evenodd" d="M95.133 34.735c-.149 0-.277.064-.511.233v1.441c.191.106.32.148.469.148.362 0 .469-.254.469-.953.02-.614-.107-.869-.427-.869zm.085 2.246c-.213 0-.362-.042-.575-.19v1.017c0 .042 0 .063-.064.084l-.384.085h-.042c-.022 0-.043-.021-.043-.085v-2.797c0-.212-.021-.317-.085-.466-.022-.042-.043-.084-.043-.106 0-.02 0-.042.021-.042l.341-.17c.022 0 .022-.02.043-.02.064 0 .128.169.17.296.256-.212.448-.297.704-.297.554 0 .853.445.853 1.293 0 .91-.32 1.398-.896 1.398zm5.991-1.271c-.32 0-.853.021-.853.487 0 .233.149.382.362.382.171 0 .32-.085.491-.255v-.614zm.66 1.06c0 .02-.021.042-.021.042l-.32.148c-.021 0-.042.021-.042.021-.064 0-.128-.148-.171-.318-.213.233-.426.318-.703.318-.448 0-.746-.297-.746-.741 0-.784.746-.89 1.364-.89v-.17c0-.318-.107-.424-.405-.424a1.44 1.44 0 0 0-.597.149c-.021 0-.021.02-.043.02-.021 0-.042-.02-.042-.041l-.086-.255c0-.02-.021-.02-.021-.042 0-.17.64-.254.853-.254.575 0 .852.233.852.784v1.017c0 .296.043.445.128.614-.021-.021 0 0 0 .021zm5.18-1.971h-.596v.233c0 .55-.043 1.038-.256 1.44h.852V34.8zm.533 1.674h.277c.022 0 .043.02.043.042v.996c0 .042-.021.063-.064.063h-.362c-.022 0-.043 0-.043-.042v-.636h-1.513v.636c0 .042-.022.064-.064.064h-.363c-.042 0-.042-.022-.042-.064v-1.017c0-.021.021-.042.042-.042h.192c.171-.297.235-.572.235-.657.042-.212.064-.488.064-.7v-.699c0-.02 0-.042.042-.042h1.492c.022 0 .043.021.043.042v2.056h.021zm6.118.36c0 .063-.042.063-.042.063h-.405c-.043 0-.064-.02-.064-.063v-1.144c0-.064 0-.191.021-.53h-.021a4.31 4.31 0 0 1-.299.55l-.661 1.166c-.021.021-.021.021-.064.021h-.383c-.064 0-.064-.02-.064-.042v-2.415c0-.022 0-.043.042-.043l.448-.084c.021 0 .043 0 .043.042v1.25c0 .148 0 .339-.022.53h.022c.192-.382.192-.403.277-.551l.661-1.144c.021-.022.021-.043.064-.043l.383-.084h.043c.043 0 .043.02.043.042v2.479h-.022zm6.268.699v.021c0 .021 0 .043-.064.043h-.342c-.042 0-.063 0-.063-.064v-.636h-1.663c-.043 0-.064 0-.064-.042v-2.415c0-.022 0-.043.042-.043l.406-.084h.042c.021 0 .043 0 .043.042v2.14h.81V34.46c0-.021.021-.043.042-.043l.405-.084h.043c.021 0 .043 0 .043.042v2.14h.277c.021 0 .043.021.043.042v.975zm5.798-.7c0 .064-.043.064-.043.064h-.426c-.043 0-.064-.02-.064-.063v-1.144c0-.064 0-.191.021-.53h-.021a4.31 4.31 0 0 1-.299.55l-.66 1.166c-.022.021-.022.021-.064.021h-.384c-.064 0-.064-.02-.064-.042v-2.415c0-.022.021-.043.043-.043l.447-.084c.022 0 .043 0 .043.042v1.25c0 .148 0 .339-.021.53h.021c.192-.382.192-.403.277-.551l.661-1.144c.021-.022.021-.043.064-.043l.383-.084h.043c.043 0 .043.02.043.042v2.479zm6.075 0c0 .064-.043.064-.064.064h-.405c-.043 0-.064-.02-.064-.063v-1.144c0-.064 0-.191.021-.53h-.021a4.315 4.315 0 0 1-.298.55l-.661 1.166c-.021.021-.021.021-.064.021h-.384c-.064 0-.064-.02-.064-.042v-2.415c0-.022 0-.043.043-.043l.426-.084c.022 0 .043 0 .043.042v1.25c0 .148 0 .339-.021.53h.021c.17-.382.192-.403.277-.551l.661-1.144c.021-.022.021-.043.064-.043l.383-.084h.043c.043 0 .043.02.043.042v2.479h.021zm-42.208 0c0 .022 0 .064-.064.064h-.405c-.042 0-.064-.042-.064-.063v-2.034h-.639c-.021 0-.043 0-.043-.043v-.317c0-.043.022-.043.043-.043h1.876c.021 0 .042.021.042.043v.02l-.085.297c0 .022-.021.043-.064.043h-.618v2.034h.021z" fill="#545454"/></g><defs><clipPath id="a"><path fill="#fff" d="M0 0h200v50H0z"/></clipPath></defs></svg>