<svg width="200" height="50" fill="none" xmlns="http://www.w3.org/2000/svg"><path d="M93.272 23.108h10.708l-.052-2.561H93.694c-.37 0-.528-.16-.528-.48v-2.722h9.337v-2.507h-9.337v-2.561c0-.32.159-.534.528-.534h10.286v-2.56H93.483c-2.321 0-3.324.746-3.324 3.147v7.79c0 1.974.897 2.988 3.113 2.988zm-15.404 0h7.597c2.426 0 3.217-.854 3.217-2.988v-2.614c0-2.135-.79-2.988-3.217-2.988h-7.913v-2.241c0-.32.158-.48.527-.48h9.918l.052-2.615H77.657c-2.215 0-3.112.96-3.112 2.988v7.79c0 2.4 1.055 3.148 3.323 3.148zm-.316-6.03h7.543c.37 0 .528.16.528.534v2.401c0 .374-.158.534-.528.534H78.08c-.369 0-.527-.16-.527-.48v-2.988zm36.24-4.374a.84.84 0 0 1 .739-.427h1.582v10.83h3.007V9.183h-5.381a2.28 2.28 0 0 0-1.951 1.174l-6.7 12.752h3.165l5.539-10.404zm.422 23.636h-5.539v-2.775h9.759v-2.614h-12.818v13.925h8.493c3.639 0 5.117-1.867 5.117-4.322.052-2.4-1.372-4.215-5.012-4.215zm0 6.028h-5.539v-3.414h5.592c1.371 0 1.899.8 1.899 1.707s-.528 1.707-1.952 1.707zM128.246 3.42l-5.697 5.762h9.864v9.978l5.698-5.763V3.42h-9.865zm.317.747h7.543l-11.078 3.575 3.535-3.575zm8.756 8.91-4.167 4.215V8.435h-7.491l11.658-3.841v8.483zm-18.146 12.645H74.545v2.668h44.628v-2.668zm-21.892 5.282h-6.858v2.614h6.541c1.952 0 3.324 1.228 3.798 3.095H91.9v2.508h8.81c-.422 1.92-1.847 3.094-3.798 3.094h-6.489v2.614h6.805c4.009 0 6.805-2.827 6.805-6.989 0-4.108-2.743-6.936-6.752-6.936zm-10.603 6.67c1.16-.587 1.688-1.548 1.688-2.828 0-2.295-1.53-3.842-5.117-3.842h-8.704V44.93h9.179c3.64 0 5.117-1.707 5.117-4.001 0-1.547-.633-2.668-2.163-3.255zm-9.126-4.109h5.697c1.372 0 1.899.854 1.899 1.707 0 .854-.527 1.548-1.899 1.548h-5.697v-3.255zm6.277 8.803h-6.277v-3.36h6.224c1.425 0 1.952.746 1.952 1.653s-.527 1.707-1.899 1.707z" fill="#424449"/></svg>