<svg width="200" height="50" fill="none" xmlns="http://www.w3.org/2000/svg"><g clip-path="url(#a)"><path d="M63.871 33.076c0 3.005-2.528 5.45-5.638 5.45H44.03c-2.315 0-4.307-1.357-5.173-3.29l.494-.415 1.033-2.84-1.991-3.26v-9.357c0-3.005 2.53-5.45 5.637-5.45h14.202c3.11 0 5.638 2.445 5.638 5.45v13.713zM58.233 11.28H44.03c-4.611 0-8.364 3.627-8.364 8.083v13.713c0 4.457 3.752 8.086 8.364 8.086h14.202c4.615 0 8.367-3.629 8.367-8.086V19.363c0-4.456-3.751-8.083-8.367-8.083z" fill="#E6E7E8"/><path d="M60.645 32.553c.286.091.619.143 1.004.143 1.513 0 2.224-.579 2.224-1.272 0-.809-1.135-.807-1.252-1.517-.147-.89-.054-4.825 1.527-7.002l1.056.46s.3.166.664.15c.235-.01.48-.111.715-.356.597-.617 2.24-2.626 2.764-3.68.13-.259-2.094-2.944-3.343-3.919a5.069 5.069 0 0 0-3.111-1.053c-2.178 0-4.03 1.346-4.714 3.223-1.39.957-4.166 2.5-7.066 3.24-3.407.867-6.938.057-9.337.173-3.084.15-4.92 2.335-4.844 4.861.074 2.57 1.904 4.906 1.904 7.317 0 1.889-1.593 2.722-2.69 2.722-1.31 0-1.398-.517-1.796-.517-.161 0-.35.13-.35.337 0 .639 1.622 1.247 2.544 1.247 2.456 0 3.482-1.695 3.482-1.695s.625 1.755 3.048 1.755c1.933 0 2.77-.892 2.77-1.64 0-.603-.38-.862-.654-1.217-.385-.504-.37-1.12-.37-1.12s.422.065 1.05.065c1.404 0 1.838-.549 1.838-1.09 0-.697-.844-.647-.844-1.79 0-.865.497-1.15.934-1.15.472 0 2.262.165 4.433.38.725.07 2.534.747 2.534 3.458v.975c0 1.652.688 3.699 3.713 3.699 2.053 0 3.207-1.11 3.207-1.91 0-.521-.475-.75-.707-1.064-.685-.927-.347-2.213-.347-2.213h.014z" fill="#FF661C"/><path d="M65.628 20.714c-.2 0-.36.154-.36.343 0 .19.16.346.36.346a.35.35 0 0 0 .354-.346.348.348 0 0 0-.354-.343zM66.871 19.706a.317.317 0 0 0-.322.312c0 .172.144.311.322.311.178 0 .323-.14.323-.31a.317.317 0 0 0-.323-.313zM67.453 18.549a.264.264 0 0 0-.267.257c0 .143.12.258.267.258a.264.264 0 0 0 .268-.258.264.264 0 0 0-.268-.258zM57.238 20.181a.379.379 0 0 0 .385-.372.38.38 0 0 0-.385-.373.379.379 0 0 0-.386.373c0 .207.172.372.386.372zM58.72 29.193a.38.38 0 0 0-.386.373c0 .203.174.372.386.372a.38.38 0 0 0 .385-.372.379.379 0 0 0-.385-.373zM61.016 29.566a.38.38 0 0 0-.386.37.38.38 0 0 0 .386.373.38.38 0 0 0 .387-.373.379.379 0 0 0-.387-.37zM59.039 25.804a.38.38 0 0 0-.386.373.38.38 0 0 0 .386.373.38.38 0 0 0 .386-.373.381.381 0 0 0-.386-.373zM60.352 23.283a.38.38 0 0 0 .387-.372.38.38 0 0 0-.387-.373.378.378 0 0 0-.382.373c0 .207.17.372.382.372zM54.34 21.78a.38.38 0 0 0 .386-.372.38.38 0 0 0-.386-.373.38.38 0 0 0-.386.373c0 .204.172.371.386.371zM56.498 28.43a.379.379 0 0 0-.388.37.38.38 0 0 0 .388.373.379.379 0 0 0 .385-.372.377.377 0 0 0-.385-.372zM55.436 23.614c.21 0 .382-.167.382-.374a.378.378 0 0 0-.382-.37.381.381 0 0 0-.388.37c0 .207.174.374.388.374zM52.998 25.732a.38.38 0 0 0-.385.373.38.38 0 0 0 .385.37.38.38 0 0 0 .387-.37.38.38 0 0 0-.387-.373zM56.984 25.334a.38.38 0 0 0 .386-.372.38.38 0 0 0-.386-.372.378.378 0 0 0-.382.372c0 .205.172.372.382.372zM50.894 21.997a.38.38 0 0 0-.386.373.38.38 0 0 0 .386.372.38.38 0 0 0 .387-.372.381.381 0 0 0-.387-.373zM51.732 23.931a.378.378 0 0 0-.384.373c0 .204.171.371.384.371a.38.38 0 0 0 .386-.371.38.38 0 0 0-.386-.373zM54.556 27.175a.38.38 0 0 0-.385.375.38.38 0 0 0 .385.373.382.382 0 0 0 .387-.373.381.381 0 0 0-.387-.375zM58.519 21.908a.38.38 0 0 0 .388-.369.382.382 0 0 0-.388-.372.379.379 0 0 0-.385.372c0 .203.172.37.385.37zM61.355 26.518a.377.377 0 0 0-.384.371c0 .206.171.373.384.373a.378.378 0 0 0 .383-.373.376.376 0 0 0-.383-.371zM62.321 23.48a.381.381 0 0 0-.386.372.38.38 0 0 0 .386.372.379.379 0 0 0 .386-.372.38.38 0 0 0-.386-.372zM62.073 20.42a.38.38 0 0 0-.387.373c0 .206.173.374.387.374a.38.38 0 0 0 .383-.374.379.379 0 0 0-.383-.373zM63.904 20.993a.378.378 0 0 0-.385.371c0 .204.172.371.385.371a.378.378 0 0 0 .383-.371.378.378 0 0 0-.383-.371zM60.7 19.269a.381.381 0 0 0-.39.372c0 .204.174.372.39.372a.378.378 0 0 0 .383-.372.378.378 0 0 0-.384-.372zM59.94 17.866a.379.379 0 0 0-.386.372.38.38 0 0 0 .386.372.38.38 0 0 0 .385-.372.378.378 0 0 0-.386-.372zM61.537 17.866a.379.379 0 0 0-.386.372.38.38 0 0 0 .386.372.379.379 0 0 0 .385-.372.378.378 0 0 0-.385-.372zM59.714 16.848c0-.173.143-.312.32-.312.18 0 .324.14.324.311a.316.316 0 0 1-.323.313.316.316 0 0 1-.321-.313zM60.672 15.716c0-.127.104-.232.242-.232.133 0 .24.105.24.232 0 .13-.107.237-.24.237a.238.238 0 0 1-.242-.237zM61.915 15.182c0-.11.093-.204.211-.204.12 0 .215.094.215.204a.209.209 0 0 1-.215.206.207.207 0 0 1-.211-.206zM67.21 17.75a.19.19 0 0 1 .194-.185c.108 0 .195.084.195.185a.19.19 0 0 1-.195.187.19.19 0 0 1-.194-.187zM66.935 21.472a.207.207 0 0 1 .203-.21.207.207 0 0 1 .219.193.204.204 0 0 1-.2.212.212.212 0 0 1-.222-.195zM67.482 20.753a.203.203 0 0 1 .2-.21.21.21 0 0 1 .22.193.204.204 0 0 1-.2.21.203.203 0 0 1-.219-.193zM66.358 22.184a.202.202 0 0 1 .201-.21.208.208 0 0 1 .22.192.208.208 0 0 1-.203.212.206.206 0 0 1-.217-.193h-.001zM65.705 22.851a.204.204 0 0 1 .2-.212.209.209 0 0 1 .22.194.206.206 0 0 1-.204.212.205.205 0 0 1-.216-.194zM67.981 20.039a.207.207 0 0 1 .201-.213.204.204 0 0 1 .217.196.205.205 0 0 1-.2.211.206.206 0 0 1-.218-.194zM68.369 19.41a.205.205 0 0 1 .2-.211.204.204 0 0 1 .217.193c.008.116-.083.208-.2.213a.208.208 0 0 1-.217-.197v.002zM44.304 35.14s-1.41-2.353-.435-4.769c1.077-2.67 4.176-2.32 4.176-2.32a3.75 3.75 0 0 0-1.637-.31c-2.15.082-3.822 1.978-3.729 4.236a4.17 4.17 0 0 0 1.625 3.163z" fill="#FEFEFE"/><path d="M39.097 27.64a3.167 3.167 0 0 1-.98-2.287c0-1.787 1.5-3.14 3.35-3.235 1.903-.099 5.4.452 7.627.17.77 3.322 4.186 6.552 6.867 8.021-3.183-1.367-6.232-4.482-8.896-5.91-2.783-1.488-5.573-1.711-7.04-.409-1.262 1.121-1.161 2.71-.928 3.65zM46.978 30.994c.17.96-1.619 1.262-1.619 1.262 1.628.28 2.235-.564 2.235-.564l-.616-.699v.001zM59.936 31.508l.001-.012s-1.055 1.456-.33 4.098c-.44.414-1.246.752-1.885.924 0 0 2.456.307 3.223-.955-1.483-1.109-1.039-3.868-1.008-4.055zM66.032 17.992c-.103.546-.734.892-1.415.77-.678-.12-1.145-.657-1.041-1.201.103-.544.734-.89 1.417-.768.677.119 1.142.659 1.04 1.2zm-1.198-1.632c-.955-.169-1.848.318-1.992 1.085-.144.768.511 1.527 1.469 1.696.958.166 1.851-.319 1.994-1.085.143-.77-.512-1.527-1.47-1.696z" fill="#FEFEFE"/><path d="M64.748 17.754c.055-.302.406-.492.781-.426.375.067.634.365.577.664-.058.302-.407.492-.784.425-.374-.065-.634-.362-.574-.663zM62.747 30.199h-.002.002c.587 1.055-1.295 1.443-1.295 1.443 1.309.215 2.06-.6 2.06-.935-.28-1.141-.59-.274-.766-.508h.001zM66.684 17.198a2.79 2.79 0 0 0-2.398-1.346c-.933 0-1.76.452-2.26 1.134a.461.461 0 0 1-.633.06.422.422 0 0 1-.062-.607 3.316 3.316 0 0 1 2.422-1.041c1.313 0 2.443.742 2.93 1.8h.001zM63.692 22.695c-.988-.029-2.255-.495-3.437-1.34-.993-.71-1.742-1.553-2.142-2.341a.283.283 0 0 1 .105-.391c.14-.08.332-.039.405.102.432.831 1.075 1.753 2.035 2.512.994.789 2.065 1.285 3.035 1.458zM62.38 25.296c-1.784-.108-3.822-1.004-5.392-2.562-.738-.734-1.292-1.514-1.671-2.297a.277.277 0 0 1 .114-.388c.143-.078.332-.031.403.112.46.953 1.037 1.952 1.985 2.867 1.361 1.312 3.016 2.091 4.561 2.267v.001zM52.375 21.395a.301.301 0 0 1 .374.177c.762 1.822 1.17 2.57 2.621 4.055 1.959 2.005 4.803 2.729 6.377 2.759-1.336.114-4.634-.489-6.92-2.783-1.288-1.292-2.227-2.657-2.637-3.847a.284.284 0 0 1 .184-.362v.001z" fill="#FEFEFE"/><path d="M62.824 19.187c.386.245.953.486 1.712.512 1.6.048 2.15-1.18 2.216-1.655.02.348-.459 2.045-2.425 2.07-.758.01-1.35-.16-1.771-.41a.287.287 0 0 1-.132-.388c.075-.141.265-.216.4-.13z" fill="#FEFEFE"/><path d="M77.56 23.028h1.207c.673 0 1.16-.108 1.462-.325.302-.216.453-.568.453-1.055 0-.477-.157-.814-.472-1.013-.314-.197-.85-.296-1.603-.296h-1.046v2.689zm4.141-1.38c0 .736-.232 1.284-.698 1.645-.464.362-1.176.543-2.134.543h-2.296v-7.473h4.656v.828h-3.668v2.331h1.164c1.001 0 1.748.169 2.24.506.491.337.736.877.736 1.62zM87.312 23.834H82.93v-7.472h4.382v.828h-3.395v2.332h3.197v.817h-3.197v2.668h3.395v.827zM101.006 20.687l-.88-2.264-.376-1.12c-.107.41-.22.782-.337 1.12l-.89 2.264h2.483zm1.238 3.147-.943-2.314h-3.11l-.934 2.314h-.998l3.063-7.502h.89l3.059 7.502h-1.027zM105.33 20.12h.789c.78 0 1.345-.121 1.695-.361.35-.24.526-.626.526-1.157 0-.48-.163-.841-.489-1.08-.324-.238-.832-.357-1.522-.357h-.998v2.953l-.001.002zm4.035-1.56c0 .764-.274 1.35-.822 1.757-.547.406-1.318.611-2.311.611h-.902v2.908h-.988v-7.473h2.076c1.963 0 2.946.734 2.946 2.198h.001zM111.676 23.937c-.404 0-.76-.05-1.067-.153v-.89c.325.14.67.21 1.035.21.383 0 .691-.085.924-.256.235-.17.461-.48.679-.93l-3.02-5.556h1.083l2.242 4.155c.089.16.166.338.23.532h.044l.042-.123.167-.419 1.878-4.145h1.046l-2.506 5.346c-.296.633-.567 1.096-.81 1.386-.242.29-.521.503-.834.638-.313.137-.691.205-1.134.205h.001zM121.12 17.083c-.845 0-1.507.268-1.99.808-.482.538-.725 1.274-.725 2.208 0 .964.235 1.708.703 2.23.468.524 1.135.786 2.002.786.558 0 1.185-.1 1.882-.297v.818a5.087 5.087 0 0 1-.959.238 7.755 7.755 0 0 1-1.062.063c-1.155 0-2.046-.334-2.669-1.004-.624-.67-.936-1.618-.936-2.844 0-.77.149-1.445.447-2.024a3.128 3.128 0 0 1 1.305-1.338c.57-.313 1.241-.47 2.014-.47.829 0 1.552.146 2.167.439l-.397.797c-.626-.273-1.22-.409-1.781-.409h-.001zM130.468 23.834h-1.191l-3.545-3.787v3.787h-.988v-7.472h.988v3.619l3.459-3.619h1.121l-3.406 3.63 3.562 3.842zM132.897 23.834h-.988v-7.472h.988v7.473zM82.98 35.028h-1.653V31.78H78.23v3.248h-1.658v-7.525h1.658v2.949h3.096v-2.949h1.653v7.525zM89.011 31.898c-.523-1.623-.819-2.54-.885-2.753a7.88 7.88 0 0 1-.14-.504c-.12.44-.456 1.524-1.012 3.258h2.037zm.962 3.13-.567-1.79h-2.85l-.567 1.79h-1.787l2.76-7.555h2.028l2.77 7.555h-1.787zM94.642 31.044h.545c.51 0 .891-.097 1.144-.29.254-.195.38-.477.38-.848 0-.374-.106-.65-.319-.828-.212-.179-.544-.268-.997-.268h-.754v2.234h.001zm3.744-1.194c0 .81-.263 1.43-.789 1.858-.525.43-1.274.644-2.242.644h-.712v2.676h-1.658v-7.525h2.497c.949 0 1.67.197 2.164.589.494.393.74.979.74 1.758zM105.317 31.256c0-1.696-.658-2.543-1.974-2.543-1.538 0-1.994 1.137-1.994 2.543 0 1.407.456 2.542 1.994 2.542 1.316 0 1.974-.847 1.974-2.542zm-5.707 0c0-1.252.322-2.219.965-2.88.643-.66 1.567-.991 2.767-.991 1.202 0 2.121.332 2.758.997.636.667.954 1.624.954 2.873 0 1.248-.318 2.206-.954 2.872-.637.666-1.556.998-2.758.998-1.201 0-2.124-.33-2.767-.99-.644-.66-.965-1.628-.965-2.88zM123.516 35.028h-1.654V31.78h-3.096v3.248h-1.658v-7.525h1.658v2.949h3.096v-2.949h1.654v7.525zM132.897 35.028h-1.652v-7.524h1.652v7.524zm-6.294-1.307h.433c.544 0 .944-.087 1.198-.26.252-.173.38-.435.38-.785 0-.35-.123-.6-.367-.752-.244-.15-.673-.226-1.285-.226h-.359v2.023zm3.701-1.045c0 .782-.271 1.37-.81 1.762-.54.394-1.34.589-2.398.589h-2.14v-7.524h1.658v2.887h.535c1.002 0 1.778.2 2.33.6.551.4.826.961.826 1.685h-.001zM139.867 33.72h.557c.559 0 .97-.086 1.229-.26.261-.173.392-.435.392-.785 0-.346-.132-.596-.396-.748-.264-.152-.718-.23-1.359-.23h-.423v2.023zm0-3.33h.652c1.02 0 1.809.198 2.365.597.554.398.833.961.833 1.688 0 1.568-1.076 2.352-3.23 2.352h-2.278v-7.525h4.941v1.318h-3.284v1.57h.001zM149.386 31.898c-.524-1.623-.819-2.54-.886-2.753a8.468 8.468 0 0 1-.141-.504c-.119.44-.455 1.524-1.011 3.258h2.038zm.962 3.13-.567-1.79h-2.85l-.568 1.79h-1.786l2.76-7.555h2.028l2.769 7.555h-1.786zM159.402 35.028h-1.653V31.78h-3.096v3.248h-1.657v-7.525h1.657v2.949h3.096v-2.949h1.653v7.525zM167 35.028h-1.881l-2.835-3.813v3.813h-1.658v-7.525h1.658v3.644l2.803-3.644h1.764l-2.85 3.613L167 35.028zM90.342 16.362c0 1.005-.012 1.881-.034 2.679-.023.817-.079 1.53-.166 2.124-.09.594-.23 1.063-.42 1.392-.195.338-.47.51-.815.51a1.61 1.61 0 0 1-.417-.052v.84a1.1 1.1 0 0 0 .262.067c.117.017.234.026.344.026.34 0 .63-.082.866-.247.236-.164.438-.4.6-.7.16-.303.29-.67.384-1.087.094-.417.167-.884.216-1.387.046-.488.08-1.028.1-1.604.018-.542.031-1.134.039-1.759v-.035h2.96v6.714h.922v-7.48h-4.841zM113.502 33.456v-4.633h-2.354c.003 1.613-.024 3.23-.839 4.633h3.193zm-5.586 0h.638c1.261-1.654 1.028-3.966 1.041-5.953h5.461v5.953h.829v2.679h-1.678v-1.329h-4.691v1.329h-1.6v-2.679z" fill="#6E6F71"/></g><defs><clipPath id="a"><path fill="#fff" d="M0 0h200v50H0z"/></clipPath></defs></svg>