<svg width="200" height="50" fill="none" xmlns="http://www.w3.org/2000/svg"><g clip-path="url(#a)" fill="#68A548"><path fill-rule="evenodd" clip-rule="evenodd" d="m83.018 28.9.367.745c-1.068.729-2.506 1.139-3.99 1.139-3.506 0-5.527-1.994-5.527-6.281 0-4.11 1.62-6.602 5.76-6.602 1.836 0 3.074.426 3.406.569a34.11 34.11 0 0 0 0 2.598h-.75l-.2-.783c-.268-.925-.785-1.564-2.372-1.564-2.489 0-3.122 1.956-3.122 5.32 0 3.203.618 5.588 3.507 5.588 1.37.002 2.22-.356 2.921-.729zM55.122 22.584h-.653V19.63c0-.535.099-.729.835-.729h1.603c1.521 0 1.937.124 2.304 1.406l.15.518h.633a37.11 37.11 0 0 1 0-2.707h-8.7v.392c.585.143.669.32.669.995v9.681c0 .675-.084.853-.669.996v.391h4.674c2.856 0 4.626-.817 4.626-4.163.004-3.435-2.267-3.826-5.472-3.826zm.734 7.207h-.352c-.833 0-1.035-.284-1.035-1.087v-5.338h1.02c1.97 0 2.489 1.14 2.489 3.168 0 2.17-.603 3.257-2.122 3.257zM72.615 18.575v-.391H61.95v.391c.583.143.666.321.666.996v9.678c0 .678-.083.856-.666.996v.391h3.839v-.39c-.585-.144-.666-.322-.666-.997V19.027h4.322v10.225c0 .677-.084.855-.668.995v.392h3.84v-.392c-.585-.142-.668-.32-.668-.995V19.57c-.002-.675.081-.853.666-.996z"/><path d="M88.816 24.613h-4.899v1.246h4.898v-1.246z"/><path fill-rule="evenodd" clip-rule="evenodd" d="m99.704 28.91.368.747c-1.069.731-2.504 1.139-3.99 1.139-3.507 0-5.527-1.994-5.527-6.282 0-4.111 1.62-6.602 5.76-6.602 1.837 0 3.073.427 3.407.57a34.107 34.107 0 0 0 0 2.598h-.752l-.2-.783c-.266-.925-.785-1.565-2.372-1.565-2.489 0-3.122 1.959-3.122 5.32 0 3.204.618 5.589 3.507 5.589 1.367 0 2.22-.356 2.921-.731zm5.426-10c-.734 0-.835.197-.835.729v2.954h.651c3.205 0 5.476.392 5.476 3.826 0 3.346-1.77 4.163-4.626 4.163h-4.673v-.39c.584-.144.668-.322.668-.997v-9.68c0-.677-.084-.855-.668-.996v-.391h8.699a36.994 36.994 0 0 0 0 2.706h-.636l-.149-.516c-.367-1.281-.785-1.405-2.304-1.405h-1.603v-.003zm.552 10.89c1.519 0 2.122-1.085 2.122-3.257 0-2.029-.519-3.167-2.489-3.167h-1.018v5.34c0 .8.2 1.084 1.036 1.084h.349zm9.818-10.89c-.501 0-.584.143-.584.57v3.86h1.552c.65 0 1.668-.07 2.071-.374v1.567c-.4-.302-1.421-.375-2.071-.375h-1.552v4.644c0 .747.283.996 1.82.996h.334c1.519 0 1.919-.108 2.254-1.654l.101-.464h.734c-.033.96-.033 1.94 0 2.9h-8.416v-.391c.585-.143.669-.321.669-.996v-9.678c0-.677-.084-.855-.669-.996v-.391h8.148a36.994 36.994 0 0 0 0 2.706h-.633l-.15-.516c-.367-1.281-.785-1.405-2.304-1.405H115.5v-.003zm6.163 11.672v-.39c.584-.144.668-.322.668-.997v-9.68c0-.677-.084-.855-.668-.996v-.391h4.843c2.321 0 4.058.588 4.058 3.577 0 3.044-1.737 3.95-4.557 3.95h-1.17v3.543c0 .677.084.855.669.995v.392h-3.843v-.003zm4.357-5.712c1.552 0 1.919-1.335 1.919-3.273 0-1.637-.534-2.687-2.104-2.687h-.268c-.501 0-.734.09-.734.677v5.286h1.187v-.003zm9.603-5.96c-.734 0-.836.197-.836.729v2.954h.651c3.206 0 5.477.392 5.477 3.826 0 3.346-1.77 4.163-4.626 4.163h-4.676v-.39c.585-.144.668-.322.668-.997v-9.68c0-.677-.083-.855-.668-.996v-.391h8.699a36.994 36.994 0 0 0 0 2.706h-.635l-.15-.516c-.367-1.281-.785-1.405-2.304-1.405h-1.6v-.003zm.55 10.89c1.519 0 2.121-1.085 2.121-3.257 0-2.029-.519-3.167-2.489-3.167h-1.018v5.34c0 .8.201 1.084 1.036 1.084h.35zm13.258.782c-.101-.677-.466-1.92-.784-2.919l-.502-1.584h-3.706c-.385 1.247-.669 2.259-.818 2.974-.134.712-.233 1.244-.251 1.53h-2.119c.284-.48.818-1.584 1.62-3.667l2.152-5.658c.486-1.263.57-1.654.57-2.01 0-.249-.066-.588-.668-.729v-.391h3.341c.051.375.084.801.433 1.85l2.456 7.458c.484 1.46 1 2.704 1.251 3.149h-2.975v-.003zm-1.536-5.339-1.57-5.018-1.62 5.018h3.19zm13.091-1.085h-4.509v5.037c0 .678.084.856.669.996v.392h-3.841v-.392c.585-.143.668-.32.668-.995v-9.681c0-.677-.083-.855-.668-.996v-.391h3.841v.391c-.585.143-.669.321-.669.996v3.826h4.509v-3.826c0-.677-.083-.855-.668-.996v-.391h3.841v.391c-.585.143-.668.321-.668.996v9.68c0 .678.083.856.668.996v.392h-3.841v-.392c.583-.143.668-.32.668-.995v-5.038zm5.694-4.643c0-.677-.083-.855-.668-.996v-.391h3.841v.391c-.585.143-.668.321-.668.996v9.68c0 .678.083.856.668.996v.392h-3.841v-.392c.585-.143.668-.32.668-.995v-9.681zm6.211 5.604-1.519-2.296 1.218-1.387c.534-.623 2.387-2.617 3.491-3.292v-.019h-2.739c-.317.855-1.504 2.545-2.421 3.808l-1.536 2.117 1.769 2.83c1.218 1.96 1.636 3.044 1.92 3.703h3.924c-1.385-1.495-3.287-4.234-4.107-5.464z"/><path d="M177.001 33.696H51.346v1.247H177v-1.247z"/><path fill-rule="evenodd" clip-rule="evenodd" d="M37.594 15c.448.2.84.429 1.257.687l-10.036 6.199-4.67-2.88c.24-.349.506-.705.781-1.026l3.905 2.383L37.594 15zm2.453 1.474L28.831 23.37l-5.34-3.27a11.47 11.47 0 0 0-.563 1.166l5.903 3.62 12.162-7.49c-.324-.328-.59-.637-.946-.923zm1.84 1.91-13.059 8.019-6.338-3.873c-.118.41-.226.841-.303 1.27l6.628 4.088 13.806-8.437c-.23-.37-.465-.728-.734-1.068zm1.315 2.157L28.8 29.39l-6.774-4.194a13.29 13.29 0 0 0-.026.839C22 32.642 27.028 38 33.227 38c6.2 0 11.228-5.358 11.228-11.965 0-1.98-.453-3.85-1.253-5.494z"/></g><defs><clipPath id="a"><path fill="#fff" transform="translate(22 15)" d="M0 0h155v23H0z"/></clipPath></defs></svg>