<svg width="200" height="50" fill="none" xmlns="http://www.w3.org/2000/svg"><g clip-path="url(#a)"><g clip-path="url(#b)" fill-rule="evenodd" clip-rule="evenodd"><path d="M69.435 14.836c2.811 2.787 4.373 6.503 4.373 10.44H58.904l10.53-10.44z" fill="#CC2128"/><path d="M58.904 10.5c4.105 0 7.809 1.681 10.53 4.336l-10.53 10.44V10.5z" fill="#982531"/><path d="M44 10.5h14.904v14.776L44 10.5z" fill="#CC2128"/><path d="M44 18.95V10.5l14.904 14.776H50.38L44 18.95zM69.435 35.717c2.811-2.787 4.373-6.503 4.373-10.44H58.904l10.53 10.44z" fill="#982531"/><path d="M58.904 40.053c4.105 0 7.809-1.681 10.53-4.336l-10.53-10.44v14.776z" fill="#B31F27"/><path d="M44 40.053h14.904V25.277L44 40.052z" fill="#CC2128"/><path d="M44 31.603v8.45l14.904-14.776H50.38L44 31.602z" fill="#B31F27"/><path d="m54.62 24.923 1.696-1.682-3.57-3.539h-5.667l5.265 5.22h2.276zM58.547 21.03l-1.696 1.68-3.57-3.539v-5.618l5.266 5.22v2.256zM58.547 29.524l-1.696-1.681-3.57 3.539V37l5.266-5.22v-2.256zM54.62 25.63l1.696 1.682-3.57 3.539h-5.667l5.265-5.22h2.276zM63.188 25.63l-1.696 1.682 3.57 3.539h5.667l-5.266-5.22h-2.275zM59.26 29.524l1.697-1.681 3.57 3.539V37l-5.266-5.22v-2.256zM59.26 21.03l1.697 1.68 3.57-3.539v-5.618l-5.266 5.22v2.256zM63.188 24.923l-1.696-1.682 3.57-3.539h5.667l-5.266 5.22h-2.275z" fill="#fff"/><path d="M85.41 20.94c.535 0 .937-.088 1.205-.309.267-.221.401-.53.401-.929 0-.796-.535-1.15-1.651-1.15h-2.097v2.389h2.142zm-4.15-7.387h7.273v1.636h-5.22v1.814h2.498c1.071 0 1.919.222 2.5.664.58.442.847 1.106.847 1.947 0 .884-.312 1.592-.937 2.079-.625.487-1.517.752-2.678.752H81.26v-8.892zM96.744 18.685v-1.283c0-.753-.179-1.283-.536-1.682-.357-.398-.848-.575-1.517-.575-.625 0-1.16.177-1.517.575-.357.399-.536.93-.536 1.682v1.283h4.106zm.134-4.778c.624.31 1.115.796 1.427 1.415.357.62.536 1.372.536 2.3v4.867h-2.097v-2.123h-4.106v2.123h-2.052v-4.866c0-.885.178-1.637.535-2.3.357-.62.803-1.107 1.428-1.416.625-.31 1.339-.487 2.187-.487.758 0 1.517.133 2.142.487zM109.149 13.553v8.936h-2.053v-3.672h-4.105v3.672h-2.053v-8.936h2.053v3.539h4.105v-3.54h2.053zM114.771 18.906h-1.428v3.583h-2.052v-8.936h2.052v3.627h1.473l2.365-3.627h2.231l-2.945 4.335 3.034 4.601h-2.365l-2.365-3.583zM87.418 35.32v-3.496c0-.708-.179-1.239-.536-1.593-.357-.354-.848-.53-1.517-.53-.625 0-1.116.177-1.517.53-.357.354-.536.885-.536 1.593v3.495h4.106zm3.168 0v3.538h-1.919V37h-6.56v1.858H80.19V35.32h1.07v-3.318c0-.84.18-1.593.536-2.212.357-.62.803-1.062 1.428-1.371.625-.31 1.339-.487 2.187-.487.803 0 1.561.177 2.186.487a3.28 3.28 0 0 1 1.428 1.371c.357.62.535 1.327.535 2.212v3.318h1.027zM98.172 33.196v-1.283c0-.753-.179-1.283-.536-1.681-.357-.399-.848-.576-1.517-.576-.625 0-1.16.177-1.517.576-.357.398-.536.928-.536 1.68v1.284h4.106zm.133-4.778c.625.31 1.116.796 1.428 1.415.357.62.536 1.372.536 2.3V37h-2.097v-2.123h-4.106V37h-2.052v-4.866c0-.885.178-1.637.535-2.3.357-.62.803-1.107 1.428-1.416.625-.31 1.339-.487 2.187-.487.803 0 1.517.177 2.141.487zM106.516 35.496c.536 0 .937-.088 1.205-.31.268-.22.446-.53.446-.929 0-.796-.535-1.15-1.651-1.15h-2.097v2.39h2.097zm-4.15-7.388h7.229v1.637h-5.176v1.814h2.499c1.071 0 1.918.22 2.498.663.581.443.848 1.106.848 1.947 0 .885-.312 1.593-.937 2.08-.624.486-1.517.751-2.677.751h-4.284v-8.892zM117.002 32.842c.313-.31.491-.752.491-1.283 0-.575-.178-1.018-.491-1.328-.312-.31-.803-.486-1.383-.486-.625 0-1.071.177-1.428.53-.357.355-.491.841-.491 1.46v.974c.268.177.536.31.893.398.312.089.669.133 1.026.133.58.044 1.071-.133 1.383-.398zm1.517-3.938c.714.62 1.071 1.46 1.071 2.566 0 1.062-.312 1.858-.937 2.478-.624.575-1.517.885-2.677.885-.357 0-.759-.045-1.116-.133a7.255 7.255 0 0 1-1.16-.398v2.654h-2.052v-5.22c0-1.195.357-2.124 1.026-2.743.669-.664 1.651-.974 2.945-.974 1.249-.044 2.231.266 2.9.885zM127.176 33.196v-1.283c0-.753-.178-1.283-.535-1.681-.357-.399-.848-.576-1.517-.576-.625 0-1.161.177-1.518.576-.357.398-.535.928-.535 1.68v1.284h4.105zm.134-4.778c.625.31 1.116.796 1.428 1.415.357.62.535 1.372.535 2.3V37h-2.097v-2.167h-4.105v2.123h-2.053V32.09c0-.885.179-1.637.536-2.3.357-.62.803-1.107 1.428-1.417.624-.31 1.338-.486 2.186-.486.803.044 1.517.177 2.142.53zM135.521 35.452c.535 0 .937-.089 1.204-.31.268-.221.447-.53.447-.929 0-.796-.536-1.15-1.651-1.15h-2.098v2.389h2.098zm-4.15-7.388h7.229V29.7h-5.177v1.814h2.499c1.071 0 1.919.22 2.499.663.58.443.848 1.106.848 1.947 0 .885-.312 1.592-.937 2.079-.625.487-1.517.752-2.678.752h-4.283v-8.892zM151.763 37h-2.052v-8.936h2.052V37zm-5.756-1.858c.312-.265.491-.663.491-1.15 0-.53-.179-.93-.536-1.194a2.241 2.241 0 0 0-1.383-.443c-.312 0-.625.044-.982.133a3.242 3.242 0 0 0-.892.398v.84c0 .576.178 1.018.491 1.328.312.31.803.486 1.428.486.624 0 1.071-.132 1.383-.398zm1.651-3.539c.625.53.937 1.327.937 2.3 0 1.018-.357 1.859-1.071 2.39-.714.575-1.696.84-2.99.84-1.294 0-2.231-.265-2.9-.84-.669-.576-.982-1.416-.982-2.522v-5.752h2.053v3.274c.803-.354 1.606-.53 2.365-.53 1.115 0 1.963.265 2.588.84zM161 29.745h-2.9V37h-2.053v-7.255h-2.856v-1.681H161v1.68z" fill="#58595B"/></g></g><defs><clipPath id="a"><path fill="#fff" d="M0 0h200v50H0z"/></clipPath><clipPath id="b"><path fill="#fff" transform="translate(44 -4)" d="M0 0h117v58H0z"/></clipPath></defs></svg>