<svg width="200" height="50" fill="none" xmlns="http://www.w3.org/2000/svg"><g clip-path="url(#a)" fill="#009DE0"><path d="M108.32 16.067h6.13c.917 0 1.725.113 2.42.334.695.223 1.277.541 1.743.954.468.415.819.909 1.055 1.485.239.575.359 1.216.359 1.92 0 .477-.062.901-.186 1.277a3.512 3.512 0 0 1-1.249 1.76 4.702 4.702 0 0 1-.881.531v.044c.382.094.744.25 1.087.475.346.222.652.499.92.826.266.332.476.718.631 1.166.151.445.228.936.228 1.472 0 .797-.146 1.508-.437 2.129a4.546 4.546 0 0 1-1.228 1.59c-.529.438-1.162.77-1.894 1.002-.734.23-1.544.345-2.434.345h-6.266l.002-17.31zm5.532 7.108c.826 0 1.491-.181 1.987-.543.499-.361.747-.885.747-1.575 0-.722-.233-1.243-.701-1.566-.468-.32-1.047-.48-1.735-.48h-2.39v4.164h2.092zm.183 7.26c1.086 0 1.852-.21 2.295-.633.444-.422.667-.94.667-1.555 0-.277-.046-.55-.138-.819a1.872 1.872 0 0 0-.457-.726 2.386 2.386 0 0 0-.827-.518c-.339-.132-.759-.195-1.264-.195h-2.551v4.447l2.275-.002zM129.254 31.828l-.051.018c-.55.72-1.188 1.208-1.915 1.47-.725.26-1.432.39-2.118.39a5.9 5.9 0 0 1-1.424-.183 4.022 4.022 0 0 1-1.34-.612 3.233 3.233 0 0 1-.986-1.117c-.251-.462-.378-1.027-.378-1.705 0-.322.047-.678.137-1.07.092-.392.306-.764.643-1.117.334-.355.839-.666 1.512-.935.671-.268 1.581-.44 2.727-.515l3.049-.186v-.553c0-.708-.203-1.233-.61-1.578-.401-.347-.972-.518-1.707-.518-.688 0-1.222.159-1.604.475-.382.318-.59.745-.622 1.288h-3.162c.029-.462.141-.936.33-1.419.193-.482.502-.931.932-1.338.426-.405.984-.741 1.672-1.003.687-.259 1.553-.393 2.59-.393.736 0 1.425.075 2.066.219a5.504 5.504 0 0 1 1.701.678c.487.31.875.702 1.159 1.186.284.48.426 1.06.426 1.737V31.9a6.769 6.769 0 0 0 .156 1.478h-3.184v-1.55h.001zm-.14-3.596-2.754.251c-.765.077-1.291.23-1.581.462-.292.228-.438.56-.438.99 0 .26.057.48.172.655.114.177.263.319.446.427.183.107.401.184.654.231.253.045.514.068.791.068.259 0 .546-.037.857-.115.314-.077.611-.195.886-.356.276-.162.505-.37.687-.623.182-.252.277-.554.277-.908l.003-1.082zM141.168 26.177c0-.431-.057-.792-.172-1.084a1.802 1.802 0 0 0-.47-.7 1.821 1.821 0 0 0-.665-.382 2.535 2.535 0 0 0-.756-.115c-.671 0-1.2.258-1.582.773-.382.514-.575 1.175-.575 1.99v6.717h-3.295V21.54h3.156v1.552h.056c.489-.72 1.023-1.213 1.605-1.473a4.552 4.552 0 0 1 1.878-.392c.703 0 1.314.108 1.832.325.516.212.949.51 1.294.885.342.375.593.813.755 1.312.159.499.241 1.032.241 1.6v8.031h-3.299v-7.2h-.003v-.002zM149.099 27.58l-.048-.003v5.8h-3.295v-17.31h3.295v10.659h.048l3.557-5.187 3.828.009-3.942 5.333 4.105 6.496h-4.059l-3.489-5.797zM49.274 19.799c0 2.237-1.811 4.055-4.04 4.055a4.048 4.048 0 0 1-4.04-4.055 4.046 4.046 0 0 1 4.04-4.055 4.048 4.048 0 0 1 4.04 4.055zm9.821 0a4.046 4.046 0 0 0-4.038-4.055 4.045 4.045 0 0 0-4.037 4.055c0 2.237 1.808 4.055 4.037 4.055a4.048 4.048 0 0 0 4.038-4.055zm-9.82 9.862a4.048 4.048 0 0 0-4.04-4.053 4.046 4.046 0 0 0-4.04 4.053 4.048 4.048 0 0 0 4.04 4.055 4.05 4.05 0 0 0 4.04-4.055zm9.82 0a4.045 4.045 0 0 0-4.038-4.053 4.044 4.044 0 0 0-4.037 4.053c0 2.239 1.808 4.055 4.037 4.055a4.047 4.047 0 0 0 4.038-4.055z"/><path d="M154.513 27.402a1.63 1.63 0 0 1 .479-1.164c.148-.148.323-.266.521-.352.196-.085.408-.129.635-.129a1.64 1.64 0 0 1 1.508 1.005c.086.199.13.41.13.64a1.662 1.662 0 0 1-.481 1.16c-.147.15-.322.266-.518.35-.198.09-.412.132-.639.132-.227 0-.439-.041-.635-.131a1.652 1.652 0 0 1-.873-.873 1.613 1.613 0 0 1-.127-.638zm3.032 0a1.42 1.42 0 0 0-.111-.57 1.385 1.385 0 0 0-.29-.45 1.435 1.435 0 0 0-.441-.297 1.425 1.425 0 0 0-.552-.107 1.372 1.372 0 0 0-.991.405 1.395 1.395 0 0 0-.294.45 1.493 1.493 0 0 0-.106.57 1.41 1.41 0 0 0 .4 1.016 1.358 1.358 0 0 0 .991.404c.196 0 .38-.036.552-.108.17-.072.318-.171.441-.297.123-.125.221-.277.29-.45.074-.172.111-.363.111-.566zm-1.393.13h-.399v.833h-.245v-1.943h.76c.227 0 .396.045.503.134.111.092.166.228.166.411a.684.684 0 0 1-.041.237.605.605 0 0 1-.113.168.521.521 0 0 1-.167.108.76.76 0 0 1-.187.052l.547.834h-.292l-.532-.833zm.028-.218c.082 0 .154-.004.218-.014a.487.487 0 0 0 .161-.048.23.23 0 0 0 .098-.096.373.373 0 0 0 .035-.171.472.472 0 0 0-.028-.173.26.26 0 0 0-.087-.105.438.438 0 0 0-.136-.053 1.053 1.053 0 0 0-.18-.014h-.508v.67h.427v.004zM62.641 16.067h3.439v17.31H62.64v-17.31zm14.047 15.647-.052.01c-.475.707-1.04 1.212-1.696 1.52-.658.307-1.37.46-2.133.46-.827 0-1.575-.173-2.249-.518a5.481 5.481 0 0 1-1.73-1.38 6.382 6.382 0 0 1-1.126-1.992 7.015 7.015 0 0 1-.4-2.37c0-.83.126-1.617.377-2.36a6.319 6.319 0 0 1 1.081-1.979 5.1 5.1 0 0 1 1.708-1.37c.671-.337 1.436-.508 2.293-.508.764 0 1.44.14 2.03.416.59.277 1.16.785 1.71 1.52h.045v-7.096h3.297v17.31H76.69l-.001-1.663zm-.028-4.225c0-.444-.06-.874-.185-1.287a3.297 3.297 0 0 0-.561-1.104 2.775 2.775 0 0 0-.94-.77c-.376-.192-.822-.287-1.342-.287-.474 0-.891.098-1.251.298a2.91 2.91 0 0 0-.905.784 3.392 3.392 0 0 0-.55 1.116 4.68 4.68 0 0 0-.184 1.298c0 .46.066.901.194 1.323.133.423.322.794.575 1.115.25.323.56.579.928.77.368.192.796.288 1.286.288.473 0 .89-.093 1.25-.277a2.73 2.73 0 0 0 .917-.76c.25-.322.441-.697.574-1.126.128-.43.194-.889.194-1.381zm7.632.913c.03.356.113.699.242 1.03.13.328.306.621.527.877.222.251.497.461.824.623.33.162.715.242 1.161.242.503 0 .966-.12 1.387-.356a2.41 2.41 0 0 0 .974-1.05l3.21.253c-.397 1.212-1.103 2.127-2.12 2.75-1.016.622-2.221.931-3.612.931-.887 0-1.7-.145-2.442-.438a5.315 5.315 0 0 1-1.904-1.255 5.821 5.821 0 0 1-1.238-1.956c-.298-.76-.446-1.616-.446-2.567 0-.95.148-1.816.446-2.589a5.785 5.785 0 0 1 1.238-1.98 5.313 5.313 0 0 1 1.904-1.254 6.629 6.629 0 0 1 2.442-.44c.888 0 1.7.147 2.444.44.74.29 1.376.708 1.902 1.251a5.873 5.873 0 0 1 1.239 1.978c.298.777.446 1.64.446 2.59v.918l-8.624.002zm5.32-2.116a3.245 3.245 0 0 0-.227-.886 2.97 2.97 0 0 0-.507-.817 2.464 2.464 0 0 0-.78-.596 2.318 2.318 0 0 0-1.052-.231c-.43 0-.805.07-1.126.208-.32.139-.595.321-.824.55-.231.23-.41.499-.54.805-.13.307-.217.632-.264.968h5.32zm12.262 5.542-.05.018c-.553.72-1.191 1.208-1.916 1.47-.726.26-1.43.39-2.12.39-.457 0-.932-.06-1.421-.183a4.025 4.025 0 0 1-1.342-.612 3.237 3.237 0 0 1-.986-1.117c-.25-.462-.377-1.027-.377-1.705 0-.322.046-.678.137-1.07.091-.392.304-.764.64-1.117.338-.355.842-.666 1.516-.935.67-.268 1.58-.44 2.726-.515l3.048-.186v-.553c0-.708-.202-1.233-.607-1.578-.404-.348-.974-.52-1.708-.52-.688 0-1.223.159-1.605.476-.382.317-.588.745-.62 1.287h-3.163c.03-.462.142-.936.333-1.419.191-.482.5-.931.929-1.338.428-.405.985-.741 1.674-1.003.688-.258 1.55-.392 2.591-.392.735 0 1.422.074 2.064.218a5.463 5.463 0 0 1 1.699.678c.491.31.877.702 1.161 1.186.284.48.427 1.06.427 1.737v6.854c0 .308.015.577.043.808.029.233.068.454.112.67h-3.183l-.002-1.549zm-.143-3.596-2.751.251c-.764.077-1.294.23-1.583.462-.291.228-.436.56-.436.99 0 .26.056.48.171.655.115.177.264.319.447.427.182.107.4.184.655.231a4.5 4.5 0 0 0 .79.068c.26 0 .547-.037.86-.115a3.3 3.3 0 0 0 .881-.356 2.23 2.23 0 0 0 .689-.623c.184-.252.276-.554.276-.908l.001-1.082z"/></g><defs><clipPath id="a"><path fill="#fff" d="M0 0h200v50H0z"/></clipPath></defs></svg>