<svg width="200" height="50" fill="none" xmlns="http://www.w3.org/2000/svg"><g clip-path="url(#a)"><path d="M48.182 26.47c.36 5.792 5.266 10.498 11.25 10.498a11.27 11.27 0 0 0 8.616-3.982s-.36.241-.838 0c0 0-15.198-5.792-18.31-6.879h-.24c-.358 0-.478.242-.478.362zm4.907-9.776 15.797 7.362c1.436.724 1.555-.242 1.555-.242-.957-5.189-5.624-9.05-11.01-9.05a11.27 11.27 0 0 0-6.342 1.93z" fill="#1258A9"/><path fill-rule="evenodd" clip-rule="evenodd" d="M68.766 28.762S44.472 17.78 44.233 17.66c-.718-.242-1.676.362-1.077 1.207.12.12 2.034 2.896 2.034 2.896s-.598-.966-.478-1.328c0-.24.358-.482.478-.362.24.121 23.097 10.017 23.097 10.017.838.362 1.556.12 1.795-.483.24-.483.36-1.086.48-1.569-.24.12-.719 1.207-1.796.724zm1.795-4.224c0 .242-.24 1.449-1.556.845-.239 0-27.405-12.671-27.764-12.912-.479-.242-1.675.12-1.077 1.327l2.154 3.5s-.359-.845-.479-1.57c0-.24.24-.482.599-.361 0 0 26.448 11.706 26.687 11.826.598.242 1.436.121 1.556-.603v-.724c-.12-.483-.12-.845-.12-1.328zm-2.513 6.759c-.12 0-20.823-8.81-21.063-8.81-.718-.241-1.196.362-.718 1.086 0 .12 1.676 2.172 1.676 2.172s-.36-.603-.36-.844c0-.242.12-.604.719-.363.478.242 19.148 7.845 19.148 7.845.598.241 1.077.241 1.316-.121a7.71 7.71 0 0 0 .957-1.69c-.359.242-.837 1.087-1.675.725z" fill="#EF3627"/><path d="M141.528 22.125v.845c.359.12.598.241.718.603.119.241.239.966.239 2.172v3.38h-2.872v-3.38c0-1.086 0-1.81.239-2.172a1.23 1.23 0 0 1 .718-.603v-.845h-4.787v.845c.359 0 .718.241.838.603.12.241.12.966.12 2.052v8.085c0 1.207 0 1.81-.12 2.052-.239.362-.479.483-.838.603v.845h4.668v-.845c-.359-.12-.599-.241-.718-.603-.12-.242-.24-.966-.24-2.172v-3.62h2.872v3.62c0 1.086 0 1.81-.239 2.172a1.23 1.23 0 0 1-.718.603v.845h4.667v-.845a.899.899 0 0 1-.837-.603c-.12-.242-.24-.966-.24-2.052v-7.965c0-1.206 0-1.81.24-2.051.239-.362.478-.604.837-.604v-.844h-4.547v-.121zm-52.776-6.758-3.71 14.36-3.83-14.24h-5.505v.845h.479c.359 0 .718.121.957.362.24.242.36.483.479.725.12.24.12.965.12 2.051v14.964c-.12.483-.24.966-.36 1.207-.12.241-.359.483-.598.724-.24.12-.479.241-.838.241h-.12v.845h4.907v-.845c-.598 0-1.077-.12-1.316-.482-.24-.362-.479-.724-.598-1.328v-16.17l4.906 18.463h.599l4.787-18.222v14.24c0 1.086 0 1.81-.12 2.051-.12.362-.24.604-.36.724-.239.242-.598.363-.957.363h-.478v.844h7.06v-.844h-.478a2.24 2.24 0 0 1-.958-.242c-.239-.241-.359-.483-.478-.724 0-.241-.12-.965-.12-2.052V19.23c0-1.086 0-1.69.12-2.052.12-.362.24-.603.359-.724.24-.241.598-.362.957-.362h.479v-.845l-5.386.12zm59.477 0v.845c.479.12.718.241.838.482.12.242.239.966.239 2.173V33.59c0 1.206 0 1.81-.239 2.051-.12.362-.479.483-.838.604v.844h4.787v-.844c-.478-.121-.718-.242-.837-.483-.12-.242-.24-.483-.24-2.172v-2.414l.599-.965 1.795 4.103c.239.724.478 1.086.478 1.327 0 .12 0 .241-.119.483-.12.12-.24.241-.479.241v.845H159v-.845c-.359 0-.598-.241-.838-.603-.119-.242-.718-1.207-1.555-3.259l-2.155-5.189s2.035-3.258 2.753-3.862c.239-.24.718-.482 1.077-.482v-.845h-4.189v.845c1.436 0 1.317 1.207.958 1.81-.12.241-2.992 4.706-2.992 4.706v-14.12h-3.83zm-51.938 0v5.913h.838c.12-1.569 0-2.896.718-3.74.478-.604 1.077-.966 1.915-.966h.957v16.533c0 1.086 0 1.81-.12 2.051-.119.362-.239.604-.359.724-.239.242-.598.363-.957.363h-.479v.844h7.061v-.724h-.479c-.359 0-.718-.12-.957-.241-.24-.242-.359-.483-.479-.724 0-.242-.12-.966-.12-2.052V16.694h.958c.957 0 1.556.242 1.915.966.598.845.478 2.051.718 3.74h.837v-5.912l-11.967-.121zM115.678 35.4c-.239-.242-.239-.724-.239-1.207V23.09c.957 0 1.795.121 2.274.483.478.362.957.845 1.196 1.69.718 2.051.718 6.396.12 8.447-.239.724-.598 1.207-1.077 1.69-.479.362-.957.603-1.436.603-.359-.12-.599-.241-.838-.603zm-5.266-20.033v.845c.599 0 1.078.12 1.317.241.239.241.359.483.479.724.119.242.119.845.119 1.931v13.878c0 1.207 0 1.931-.119 2.172-.12.242-.24.483-.479.724-.239.242-.599.242-1.317.242v.844h6.822c1.915 0 3.351-.724 4.308-1.93 1.676-2.173 1.795-8.93.12-11.103-1.436-1.93-4.069-2.172-6.343-2.172v-5.19h2.633c.957 0 1.556.242 1.915.966.598.845.478 2.052.718 3.741h.837v-5.913h-11.01zm17.353 16.412c.359-.844 1.317-2.293 2.154-3.017v4.948c-.359.483-.837.845-1.196.845-.958-.12-1.676-1.207-.958-2.776zm-.359-9.533c-.718.362-1.197.965-1.556 1.69-.359.723-.478 1.327-.598 2.292 0 1.207.718 1.81 1.556 1.81.718 0 1.436-.603 1.436-1.448 0-.241-.12-.483-.24-.724-.239-.362-1.196-1.207-.239-2.414.239-.24.599-.482 1.077-.482.718 0 .958.603 1.197 1.086.12.241.12.965.12 2.172v1.448c-2.035 1.448-3.351 2.776-3.95 3.62-.837.845-1.196 1.69-1.196 2.776 0 1.69.957 3.138 2.393 3.138s2.274-.965 2.633-2.414c0 .845.239 1.449.598 1.81.24.362.718.604 1.197.604.479 0 1.077-.12 1.436-.483.359-.362.718-.845.958-1.69l-.599-.482c-.239.362-.598.362-.598.241-.12-.12-.12-.241-.12-.362v-6.758c0-1.69 0-2.655-.12-3.137-.239-1.328-1.077-2.897-3.111-2.897-.957 0-1.556.242-2.274.604z" fill="#1258A9"/></g><defs><clipPath id="a"><path fill="#fff" d="M0 0h200v50H0z"/></clipPath></defs></svg>