<svg width="200" height="50" fill="none" xmlns="http://www.w3.org/2000/svg"><g clip-path="url(#a)"><path fill-rule="evenodd" clip-rule="evenodd" d="M22.428 32.069a7.124 7.124 0 1 1 7.124-7.122 7.105 7.105 0 0 1-7.123 7.122z" fill="#FFEC00"/><path fill-rule="evenodd" clip-rule="evenodd" d="M22.428 32.069a7.124 7.124 0 1 1 7.124-7.122 7.105 7.105 0 0 1-7.123 7.122z" fill="#FFEC00"/><path d="M24.653 17.88a6.744 6.744 0 0 0-2.168-.337h-.054a7.431 7.431 0 1 0 0 14.863h.054a6.861 6.861 0 0 0 2.168-.394 7.41 7.41 0 0 0 0-14.132zm0 13.857a6.88 6.88 0 0 1-2.168.334h-.054a7.124 7.124 0 0 1 0-14.247h.054c.74.011 1.472.144 2.168.393a7.113 7.113 0 0 1 0 13.52z" fill="#1A1A18"/><path d="M27.381 21.439c.175.448.27.924.28 1.404 0 2.057-2.058 2.891-2.893 2.838h-.112c-.107 0-.165-.054-.165-.11 0-.168.056-.28.165-.28a.18.18 0 0 1 .113-.054c.224 0 .28.053.5.053.219 0 .28-.168.39-.393a.675.675 0 0 0 .163-.5c0-.444-.447-1.334-.666-2.169 0 .222 0 .72-.219.72a.306.306 0 0 1-.28-.166c-.108-.166-.22-.388-.33-.562.027.221.027.445 0 .666 0 .219-.059.387-.168.387-.11 0-.28-.168-.28-.561 0-.394.052-.672.052-1.338a2.295 2.295 0 0 0-1.446-2.168 2.608 2.608 0 0 0-.666-.113c-1.947 0-2.171 1.779-2.278 1.832-.107.053-.225-.329-.843-.329-.722 0-1.503.947-1.778 1.506a6.14 6.14 0 0 0-.725 2.888 6.21 6.21 0 0 0 6.234 6.18h.053a5.545 5.545 0 0 0 2.169-.447 6.107 6.107 0 0 0 3.955-5.733 6.22 6.22 0 0 0-1.169-3.616l-.056.065zm-4.896 3.228a3.244 3.244 0 0 1-.722-2.062c0-.385.115-.444.225-.444.224 0 .334.334.497.778.04.164.117.317.224.447.17.39.281.612.444 1.003-.037.281-.018.568.056.842a8.979 8.979 0 0 1-.727-.564h.003zm2.168 3.837a1.308 1.308 0 0 1-1.278-1.335 1.66 1.66 0 0 1 .281-.842c.281.387.669.668.997.387l.057-.056c.28-.28.056-.666-.057-.778a1.309 1.309 0 0 1 1.338 1.281 1.354 1.354 0 0 1-1.338 1.346v-.003zM48.137 29.566l1.45-4.506 1.721-5.458H37.51l-3.174 9.964h5.177l2.172-7.012h3.502l-2.221 7.012h5.171zM61.323 26.226c.112-.222.612-1.778-.166-2.778-.444-.616-1.278-1.003-2.784-1.003a4.756 4.756 0 0 0-2.95.89c-.227.16-.433.349-.612.562l.447-1.278h-4.284l-1.376 4.337-1.725 5.455h4.534l1.225-3.73c.221.334.61.842 1.78 1.003.24.044.483.062.725.053 3.115 0 4.453-1.837 5.009-3.006a2.61 2.61 0 0 0 .177-.505zm-4.73 0c-.113.334-.391 1.123-1.17 1.334-.138.07-.29.108-.446.112-1.123 0-.843-1.056-.666-1.562.169-.39.388-1.165 1.124-1.39.169 0 .28-.053.45-.053 1.165 0 .842 1.053.719 1.559h-.012zM133.105 22.608h-4.561l-.781 2.452h-1.616l.781-2.452h-4.618l-1.834 5.677-.391 1.28h4.619l.775-2.505h1.615l-.778 2.506h4.562l1.449-4.506.778-2.452zM146.238 22.608h-5.231l-3.562 2.783 1.894-5.845h-4.621l-2.391 7.576-.781 2.444H136.111l1.112-3.394 1.506 3.394h5.394l-2.116-3.897 4.231-3.061zM120.807 25.332c.057-.219.057-.385.113-.562a1.375 1.375 0 0 0-.447-1.28c-.562-.613-1.837-1.057-4.565-1.057h-1.056c-1.028.054-2.05.184-3.059.388l-.612 1.95a13.7 13.7 0 0 1 3.396-.562h.281c1.725.053 1.89.497 1.837.842a.21.21 0 0 1-.059.166 14.744 14.744 0 0 0-1.722-.112h-.056c-3.45 0-4.896 1.123-5.509 2.115a3.318 3.318 0 0 0-.222.666 1.177 1.177 0 0 0 .222 1.059c.444.497 1.447.778 2.672.778a5.899 5.899 0 0 0 2.837-.666c.281-.225.5-.393.666-.503l-.332 1h4.284l1.003-3.28.328-.942zm-4.615 1.405a1.985 1.985 0 0 1-.671.89 3.33 3.33 0 0 1-.666.281 1.6 1.6 0 0 1-.5.054c-.612 0-.944-.163-.89-.498v-.168a1.168 1.168 0 0 1 .89-.666c.166 0 .281-.056.5-.056.313-.053.63-.072.947-.056h.446l-.056.219zM109.566 25.613a2.158 2.158 0 0 0-.222-1.618c-.447-.843-1.669-1.503-4.172-1.503-.485.005-.969.042-1.449.113-.722.165-1.276.5-2.059 1.059.112-.778.946-1.447 1.668-1.725a.804.804 0 0 1 .388-.112 16.223 16.223 0 0 1 2.118-.39c.657-.049 1.308-.16 1.944-.335l.056-.11 1.124-3.452c-.169 0-.337.059-.5.059-.781.11-1.559.222-2.394.334-.798.125-1.582.33-2.34.613-.109 0-.165.056-.281.056a8.619 8.619 0 0 0-2.502 1.725 12.747 12.747 0 0 0-2.116 3.446c-.45.877-.768 1.815-.946 2.784-.056.11-.947 3.169 4.618 3.169.408.01.816-.008 1.222-.054 3.784-.28 5.118-2.115 5.618-3.393.101-.212.176-.436.225-.666zm-4.911.39c-.165.5-.39 1.335-.946 1.613a.91.91 0 0 1-.562.113c-.891 0-.669-.947-.391-1.781a2.07 2.07 0 0 1 .947-1.335c.139-.07.291-.108.447-.112.966-.003.741.831.505 1.503zM94.49 22.442a4.823 4.823 0 0 0-2.933.88c-.216.173-.421.36-.613.56l.444-1.277h-4.303l-2.169 6.902-.947 2.896h4.619l1.18-3.73c.221.334.668.842 1.78 1.002.257.047.518.064.778.054 3.619 0 4.897-2.56 5.175-3.506.266-.997.935-3.781-3.012-3.781zm-1.784 3.784c-.11.39-.388 1.165-1.166 1.334-.14.069-.292.107-.447.112-1.123 0-.843-1.056-.668-1.562.11-.39.444-1.123 1.123-1.331.16-.065.329-.102.5-.112 1.107 0 .826 1.056.658 1.559zM84.916 27.338c.382-.5.668-1.065.843-1.669a2.09 2.09 0 0 0-.843-2.393c-.725-.503-2.003-.843-4.059-.843a7.771 7.771 0 0 0-1.171.054c-3.838.28-5.175 1.893-5.675 2.893-.04.192-.096.38-.168.562-.11.447-.39 1.503.168 2.337.562.78 1.781 1.447 4.495 1.447.39.009.78-.01 1.168-.054 2.908-.222 4.405-1.278 5.242-2.334zm-4.174-1.405c-.166.503-.388 1.335-1.056 1.669-.18.071-.37.11-.562.112-1.054 0-.613-1.165-.385-1.78a1.987 1.987 0 0 1 .941-1.391c.16-.063.329-.1.5-.11 1.008.015.728.958.562 1.512v-.012zM74.402 22.608h-5.568l-3.28 4.118 1.502-4.118h-4.118l-1.78 5.564-.445 1.393h5.453l3.452-4.233-1.56 4.233h4.116l1.837-5.842.39-1.115z" fill="#1A1A18"/><path fill-rule="evenodd" clip-rule="evenodd" d="M183.803 21.388c0 .04.02.079.028.118a1.667 1.667 0 0 0-.028-.118zM183.671 21.02l.04.099-.04-.099zM183.59 20.858l.048.09-.048-.09zM183.742 21.197c0 .034.022.07.033.107a.724.724 0 0 0-.033-.107zM183.888 21.813c0 .05 0 .104.016.154-.005-.05-.008-.104-.016-.154zM183.851 21.593c0 .043.014.088.022.133-.002-.045-.002-.09-.022-.133zM183.913 22.046v.25a1.605 1.605 0 0 0 0-.25zM175.767 24.147zM175.59 24.473l.039-.062-.039.062zM175.958 23.484zM175.59 28.133l.868 1.427-.868-1.427zM176.005 22.88z" fill="#1A1A18"/><path fill-rule="evenodd" clip-rule="evenodd" d="M175.469 24.647zM183.458 20.644l.042.062-.042-.062zM183.005 20.175l.031.025-.031-.025zM182.55 19.902l.059.029-.059-.029zM183.129 20.276l.042.042-.042-.042zM183.244 20.386l.045.05-.045-.05zM183.354 20.495l.045.056-.045-.056zM182.843 20.063l.036.022-.036-.022zM182.747 20.004l-.037-.02.037.02zM183.59 20.85l-.034-.063.034.062zM182.407 19.84l.062.026-.062-.025zM181.975 19.7l.064.017-.064-.017zM181.831 19.666l.065.014-.065-.014zM182.121 19.74l.064.02-.064-.02zM182.264 19.787l.065.023-.065-.023zM183.871 21.723c0 .028 0 .059.014.087-.014-.028-.014-.056-.014-.087zM183.904 21.967v.079c.006-.026.003-.05 0-.079zM183.638 20.947l.033.076-.033-.076zM183.778 21.304l.025.085-.025-.085zM183.831 21.506c0 .029 0 .06.02.087l-.02-.087zM183.711 21.119l.03.079-.03-.08z" fill="#fff"/><path fill-rule="evenodd" clip-rule="evenodd" d="M183.59 19.554v.45c.46.46.843 1.176.843 2.289a2.57 2.57 0 0 1-.843 2.042 2.707 2.707 0 0 1 1.3 2.312 2.971 2.971 0 0 1-.882 2.197c-.129.13-.269.25-.418.36v.353H187V19.554h-3.41z" fill="#1A1A18"/><path fill-rule="evenodd" clip-rule="evenodd" d="M184.388 26.647a2.117 2.117 0 0 0-.801-1.685 3.088 3.088 0 0 0-1.169-.585 1.94 1.94 0 0 0 1.169-.806c.238-.38.356-.824.337-1.273v-.328c0-.025 0-.107-.017-.155-.017-.047 0-.059-.014-.087-.014-.028 0-.087-.022-.132-.023-.045 0-.059-.02-.087-.02-.028-.02-.079-.028-.118l-.025-.084c0-.037-.023-.07-.034-.107l-.031-.078-.039-.099-.034-.073-.048-.09-.033-.061-.054-.085-.042-.062-.059-.078-.045-.056-.065-.073-.044-.051-.074-.07-.042-.042-.092-.076-.031-.026-.127-.09-.036-.022-.096-.059-.036-.02h-.014l-.085-.044-.059-.029-.081-.036-.062-.025-.081-.031-.065-.023-.081-.028-.065-.02-.079-.022-.064-.017-.079-.02-.064-.014-.082-.016H181.295l-.259-.017h-5.446v.472c.561.561.929 1.455.932 2.854a3.243 3.243 0 0 1-.932 2.407v1.851l1.306 2.152.163.28h3.966a4.214 4.214 0 0 0 2.562-1.016 2.483 2.483 0 0 0 .801-2zm-5.383-4.775h.675a.804.804 0 0 1 .879.738c0 .413-.385.733-.896.75h-.658v-1.488zm.933 5.272h-.921v-1.652h1.047a.81.81 0 0 1 .76.505c.04.1.06.208.058.316a.899.899 0 0 1-.944.831z" fill="#1A1A18"/><path fill-rule="evenodd" clip-rule="evenodd" d="m175.073 27.285-1.034-1.703c.218-.051.428-.134.624-.244.097-.05.19-.107.281-.169l.14-.11c.045-.036.09-.075.135-.117.062-.06.121-.122.177-.188l.084-.107c.042-.053.082-.112.118-.174l.039-.062a2.46 2.46 0 0 0 .138-.28 2.879 2.879 0 0 0 .216-.848c.015-.138.023-.276.023-.414a4.087 4.087 0 0 0-.416-1.983 2.361 2.361 0 0 0-.36-.495 2.4 2.4 0 0 0-.154-.143l-.098-.079c-.051-.036-.101-.073-.155-.106l-.163-.093a2.621 2.621 0 0 0-.584-.23 4.673 4.673 0 0 0-.688-.135 7.444 7.444 0 0 0-.36-.034l-.365-.02h-5.304v10.006h3.411v-3.79l1.887 3.79h3.79l-.865-1.427-.517-.845zm-2.694-3.807a.927.927 0 0 1-.146.222l-.065.065a1.035 1.035 0 0 1-.694.264h-.716v-1.787h.837c.064.006.127.017.188.034l.11.04a.948.948 0 0 1 .281.18c.042.04.081.084.115.131l.048.073c.074.13.113.277.112.427a.847.847 0 0 1-.07.351zM158.53 33.782h1.017c-.063.3-.225.569-.461.764-.22.205-.51.32-.811.323a.979.979 0 0 1-.843-.413 1.522 1.522 0 0 1-.281-.927 2.366 2.366 0 0 1 .548-1.494 1.397 1.397 0 0 1 1.101-.562.968.968 0 0 1 .629.216c.167.144.287.335.343.548l.896-.444a1.62 1.62 0 0 0-.646-.842 1.898 1.898 0 0 0-1.065-.298 2.553 2.553 0 0 0-1.831.755 3.119 3.119 0 0 0-.916 1.787 2.703 2.703 0 0 0-.039.458 2.093 2.093 0 0 0 .502 1.444 1.805 1.805 0 0 0 1.425.604 2.31 2.31 0 0 0 1.767-.77 3.37 3.37 0 0 0 .831-1.795l.02-.12h-2.068l-.118.766zM165.485 32.77l.051-.322h-.888l-.497 3.12h.888l.222-1.404a2.01 2.01 0 0 1 .216-.697.701.701 0 0 1 .629-.34.53.53 0 0 1 .351.121l.236-.826a.93.93 0 0 0-.356-.075 1.04 1.04 0 0 0-.852.424zM171.792 32.344a1.837 1.837 0 0 0-1.256.466 2.07 2.07 0 0 0-.671 1.511 1.317 1.317 0 0 0 .379.975 1.408 1.408 0 0 0 1.02.37c.463.01.913-.156 1.261-.463.353-.307.583-.732.646-1.196.017-.102.025-.206.025-.31a1.305 1.305 0 0 0-.382-.983 1.397 1.397 0 0 0-1.022-.37zm.239 2.202a.809.809 0 0 1-.641.34.56.56 0 0 1-.461-.225.794.794 0 0 1-.154-.5c.002-.254.09-.5.25-.696a.81.81 0 0 1 .649-.34.54.54 0 0 1 .452.21.811.811 0 0 1 .163.512c-.003.254-.094.5-.258.694v.005zM178.854 34.139c-.086.52-.301.78-.644.78-.279 0-.418-.16-.418-.482.002-.101.017-.2.042-.298l.261-1.686h-.887l-.281 1.837a1.97 1.97 0 0 0-.031.343c0 .695.402 1.042 1.208 1.042.936 0 1.476-.461 1.621-1.384l.28-1.838h-.887l-.264 1.686zM186.68 32.751a1.073 1.073 0 0 0-.885-.407 1.26 1.26 0 0 0-.924.387l.045-.28h-.888l-.756 4.792h.88l.303-1.967a.801.801 0 0 0 .77.394 1.556 1.556 0 0 0 1.252-.635c.315-.374.486-.848.484-1.337a1.447 1.447 0 0 0-.281-.947zm-.871 1.79a.81.81 0 0 1-.638.34.56.56 0 0 1-.46-.225.818.818 0 0 1-.155-.506c.001-.253.091-.498.256-.691a.795.795 0 0 1 .637-.34.537.537 0 0 1 .453.225c.11.143.166.32.16.5-.001.254-.09.5-.253.697z" fill="#1A1A18"/><path fill-rule="evenodd" clip-rule="evenodd" d="M156.255 19.543h9.997l.003 10.006-10-.006v-10z" fill="#D8D9D9"/><path fill-rule="evenodd" clip-rule="evenodd" d="M156.255 19.543h9.997l.003 10.006-10-.006v-10z" fill="#1A1A18"/><path fill-rule="evenodd" clip-rule="evenodd" d="m156.525 29.268-.003-9.444h9.449l-.008 9.447-9.438-.003z" fill="#FFEC00"/><path fill-rule="evenodd" clip-rule="evenodd" d="m161.238 25.748 3.009 3.003 1.177-1.177-3.012-3.009.587-.581v-1.171l.419-.419v.972l.41.404 1.469-1.471.396.393a2.638 2.638 0 0 0-.772-1.806 1.265 1.265 0 0 0-.908-.423 1.258 1.258 0 0 0-.929.375l-1.405 1.416.354.354-.781.778-.781-.778.354-.354-1.418-1.419a1.26 1.26 0 0 0-1.837.048 2.6 2.6 0 0 0-.759 1.806l.382-.393 1.469 1.472.41-.408v-.966l.419.419v1.168l.587.584-2.983 2.98 1.177 1.175 2.966-2.972z" fill="#1A1A18"/></g><defs><clipPath id="a"><path fill="#fff" d="M0 0h200v50H0z"/></clipPath></defs></svg>