<svg width="200" height="50" fill="none" xmlns="http://www.w3.org/2000/svg"><g clip-path="url(#a)" fill-rule="evenodd" clip-rule="evenodd"><path d="M99.862 12.894h2.981v4.126h3.561v-4.126h2.981v11.364h-2.981v-4.555h-3.561v4.555h-2.981V12.894zm12.19.023h2.957v4.175h1.714c.83-1.39 1.659-2.782 2.486-4.175h3.355c-1.086 1.85-2.16 3.697-3.246 5.558 1.134 1.931 2.257 3.852 3.391 5.783h-3.331c-.893-1.502-1.774-3.017-2.667-4.52h-1.714a567.638 567.638 0 0 0-.024 4.52h-2.921v-11.34zm-19.553-1.06c-2.027 4.125-4.055 8.263-6.082 12.389h3.246c.217-.465.447-.93.665-1.407 1.423-.011 2.86-.024 4.284-.024.229.477.459.954.7 1.431h3.27c-2.027-4.126-4.054-8.252-6.082-12.39zm1.196 8.502h-2.342c.374-.906.749-1.813 1.134-2.72.218.156 1.063 2.29 1.22 2.696-.012 0-.012.012-.012.024zm-7.917-1.085c-.785-2.219-2.91-2.326-5.999-2.29v-1.491h5.298v-2.6h-8.231v11.365c3.295.012 7.036.43 8.424-1.455.266-.358.483-.823.604-1.287.217-.704.108-1.694-.097-2.242zm-5.988 2.373v-2.23c1.413-.024 3.066-.25 3.308.918.314 1.634-1.92 1.335-3.308 1.312zM56.268 9.34c.518.215.978.906 1.363 1.288l3.042 3.005c3.874 3.804 7.748 7.608 11.61 11.424-5.31 5.271-10.62 10.53-15.931 15.801l-2.377-2.349c-2.21-2.17-4.418-4.353-6.639-6.523h4.466l4.514 4.46h.06c3.814-3.792 7.628-7.573 11.442-11.365-3.838-3.78-7.664-7.56-11.502-11.329h-.06c-1.497 1.491-2.993 2.981-4.49 4.46h-4.43c2.583-2.551 5.166-5.092 7.736-7.644.4-.404.797-.823 1.196-1.228z" fill="#3C2B6F"/><path d="M41 23.34h19.239v-3.267H41v3.267zm99.995 8.014-.169.167a788.744 788.744 0 0 1-.025-5.557h-3.017V38.15c2.329-2.218 4.659-4.424 6.976-6.642v5.89h3.017c.012-4.066.024-8.132.024-12.186-.024-.012-.036-.025-.06-.025-2.245 2.063-4.502 4.115-6.746 6.166zm-55.797-4.007c-1.46-1.86-5.033-1.431-8.34-1.408v11.449h3.04v-2.945c1.148.011 2.487.095 3.393-.167 1.907-.573 3.44-2.707 2.691-5.379a4.29 4.29 0 0 0-.784-1.55zm-2.92 4.46c-.81.012-1.619.024-2.44.024V28.54c1.328-.023 2.789-.214 3.211.692.471.966.06 2.325-.773 2.576h.001zm8.713 1.002h3.886v-2.6h-3.85c-.012-.549-.024-1.11-.024-1.657h4.225v-2.577h-7.243v11.448h7.387v-2.742h-4.37v-1.872h-.011zm18.539 1.92h-2.777c-.011-2.922-.024-5.844-.024-8.754h-3.017v8.73c-.941.012-1.871.023-2.812.023v-8.753h-3.042c.013 3.792.025 7.597.025 11.389.157.131.737.06 1.013.06h13.639c.012-3.816.024-7.632.024-11.449h-3.042v8.753h.013zm8.894-1.92h3.887v-2.6h-3.887v-1.67h4.201v-2.575h-7.242c.012 3.816.025 7.631.025 11.448h7.362V34.67h-4.346v-1.861zm13.506-2.72h-3.597v-4.125h-3.041v11.448h3.041v-4.58h3.597v4.58h3.017V25.964h-3.017v4.126zm21.689 4.58v-1.86h3.886v-2.6h-3.85c-.012-.549-.024-1.11-.024-1.657h4.224v-2.577h-7.241v11.448H158v-2.742h-4.381v-.012zM41 30.113h19.239v-3.29H41.024c0 1.096-.012 2.193-.024 3.29z" fill="#B92135"/></g><defs><clipPath id="a"><path fill="#fff" d="M0 0h200v50H0z"/></clipPath></defs></svg>