<svg width="200" height="50" fill="none" xmlns="http://www.w3.org/2000/svg"><g clip-path="url(#a)" fill="#DA2031"><path d="M61.948 15.108 41.288 35.59h4.039c1.839 0 3.57-.715 4.867-2.002l20.66-20.483h-4.038a6.94 6.94 0 0 0-4.868 2.002zM50.194 20.47l7.428-7.364h-4.039c-1.838 0-3.57.715-4.867 2.002l-7.428 7.364h4.039c1.839 0 3.605-.75 4.867-2.002zM61.948 28.227l-7.427 7.364h4.038c1.839 0 3.57-.715 4.868-2.002l7.427-7.364h-4.038c-1.803 0-3.57.715-4.868 2.002zM123.892 13.106v12.547h2.487v-2.895h2.452c2.704 0 4.868-2.18 4.868-4.826 0-2.681-2.2-4.826-4.868-4.826h-4.939zm4.939 7.328h-2.452V15.43h2.452a2.498 2.498 0 0 1 2.524 2.502c0 1.394-1.154 2.502-2.524 2.502zM135.682 13.106v12.547h2.488v-2.895h2.451c2.704 0 4.868-2.18 4.868-4.826 0-2.681-2.2-4.826-4.868-4.826h-4.939zm4.939 7.328h-2.451V15.43h2.451a2.498 2.498 0 0 1 2.524 2.502c0 1.394-1.154 2.502-2.524 2.502zM149.96 17.753v-2.288h6.057l.649-2.323h-9.194v12.547h5.805c2.199 0 4.002-1.787 4.002-3.968 0-2.18-1.803-3.968-4.002-3.968h-3.317zm3.317 5.577h-3.317v-3.253h3.317c.901 0 1.658.715 1.658 1.644 0 .894-.757 1.609-1.658 1.609zM78.642 17.753v-2.288h6.057l.65-2.323h-9.195v12.547h5.805c2.2 0 4.002-1.787 4.002-3.968 0-2.18-1.802-3.968-4.002-3.968h-3.317zm3.317 5.577h-3.317v-3.253h3.317c.901 0 1.659.715 1.659 1.644a1.664 1.664 0 0 1-1.659 1.609zM104.53 16.037v3.646h-3.75v-3.646h-2.488v9.616h2.488v-3.61h3.75v3.61h2.488v-9.616h-2.488zM116.032 25.653h2.884l-3.966-5.576 3.641-4.04h-3.1l-3.75 4.147v-4.147h-2.524v9.616h2.524v-2.002l1.586-1.787 2.705 3.79zM95.552 17.467c-.613-.858-1.55-1.537-3.75-1.537-2.163 0-3.605.858-3.605.858l.649 1.966c2.055-.858 3.425-.643 4.002-.322.54.322.865.966.901 1.68-.396-.142-1.19-.357-2.524-.357-1.514 0-3.93.68-3.858 3.146.072 2.43 2.272 3.038 3.462 3.003 1.334-.036 2.307-.43 2.92-1.109v.894h2.488v-5.362c0-.822-.072-2.038-.685-2.86zm-2.344 5.934c-.288.286-.829.572-1.37.644-1.37.178-1.91-.394-1.983-1.109-.036-.536.36-1.465 1.84-1.465.937 0 1.802.286 2.054.429 0 .75-.216 1.144-.54 1.501zM76.154 31.158h.65v1.895h2.56v-1.895h.648v4.397h-.649v-1.93h-2.56v1.93h-.649v-4.397zM81.166 34.304c0-.93.793-1.43 1.91-1.43.578 0 .974.072 1.37.179v-.143c0-.786-.468-1.18-1.333-1.18-.541 0-.938.143-1.37.322l-.18-.536c.504-.215.973-.393 1.622-.393.613 0 1.118.178 1.442.5.325.322.469.75.469 1.287v2.681h-.65v-.643c-.324.393-.828.75-1.585.75-.866-.035-1.695-.5-1.695-1.394zm3.28-.357v-.394c-.324-.107-.756-.178-1.297-.178-.83 0-1.298.357-1.298.893 0 .572.505.894 1.118.894.829 0 1.478-.5 1.478-1.215zM90.144 31.766h-1.587v-.572h3.858v.572H90.83v3.825h-.685v-3.825zM93.389 31.158h2.163c.901 0 1.442.43 1.442 1.109 0 .572-.36.857-.757 1 .54.143.974.465.974 1.109 0 .75-.65 1.215-1.623 1.215h-2.235v-4.433h.036zm2.019 1.895c.54 0 .901-.25.901-.715 0-.357-.324-.608-.901-.608h-1.37v1.323h1.37zm.108 1.966c.649 0 1.01-.286 1.01-.75 0-.43-.397-.68-1.118-.68h-1.406v1.43h1.514zM98.148 33.375c0-1.251.974-2.288 2.308-2.288a2.268 2.268 0 0 1 2.307 2.288 2.306 2.306 0 0 1-2.344 2.323c-1.297 0-2.271-1.036-2.271-2.323zm3.966 0c0-.93-.721-1.716-1.658-1.716-.974 0-1.623.786-1.623 1.716 0 .965.721 1.716 1.659 1.716.973 0 1.622-.751 1.622-1.716zM103.737 33.375c0-1.287.901-2.288 2.127-2.288 1.334 0 2.091 1.037 2.091 2.323v.215h-3.533c.108.93.793 1.466 1.55 1.466.613 0 1.046-.25 1.406-.608l.397.357c-.433.5-.974.823-1.839.823-1.226.035-2.199-.894-2.199-2.288zm3.533-.25c-.072-.787-.541-1.502-1.406-1.502-.757 0-1.334.644-1.442 1.501h2.848zM109.109 31.158h.649v3.504l2.632-3.504h.649v4.397h-.649v-3.503l-2.668 3.503h-.649v-4.397h.036zm.721-1.644.469-.107c.108.357.324.608.757.608.432 0 .649-.215.757-.608l.469.107c-.108.608-.577 1.037-1.226 1.037s-1.118-.43-1.226-1.037zM116.825 33.375c0-1.251.973-2.288 2.271-2.288.829 0 1.37.357 1.767.786l-.433.43c-.36-.358-.757-.644-1.37-.644-.901 0-1.586.75-1.586 1.716 0 .965.721 1.716 1.622 1.716.577 0 .974-.286 1.334-.68l.433.394c-.433.5-.974.858-1.803.858-1.226.035-2.235-1.037-2.235-2.288zM122.017 31.158h.649v2.538l2.451-2.538h.83l-1.875 1.895 1.911 2.502h-.793l-1.587-2.037-.937.965v1.072h-.649v-4.397zM126.379 33.375c0-1.251.974-2.288 2.308-2.288a2.268 2.268 0 0 1 2.308 2.288 2.306 2.306 0 0 1-2.344 2.323c-1.298 0-2.272-1.036-2.272-2.323zm3.967 0c0-.93-.722-1.716-1.659-1.716-.974 0-1.623.786-1.623 1.716 0 .965.722 1.716 1.659 1.716s1.623-.751 1.623-1.716zM132.22 31.158h.649v.894c.361-.536.902-.965 1.695-.965 1.082 0 2.127.822 2.127 2.288 0 1.43-1.045 2.288-2.127 2.288-.829 0-1.37-.43-1.695-.93v2.217h-.649v-5.792zm3.822 2.217c0-1.037-.721-1.716-1.55-1.716-.829 0-1.623.68-1.623 1.716s.794 1.716 1.623 1.716 1.55-.644 1.55-1.716zM137.665 33.375c0-1.251.973-2.288 2.307-2.288a2.268 2.268 0 0 1 2.308 2.288 2.306 2.306 0 0 1-2.344 2.323c-1.298 0-2.271-1.036-2.271-2.323zm3.966 0c0-.93-.721-1.716-1.659-1.716-.973 0-1.622.786-1.622 1.716 0 .965.721 1.716 1.658 1.716.938 0 1.623-.751 1.623-1.716zM143.217 33.375c0-1.251.974-2.288 2.272-2.288.829 0 1.37.357 1.767.786l-.433.43c-.361-.358-.757-.644-1.37-.644-.902 0-1.587.75-1.587 1.716 0 .965.721 1.716 1.623 1.716.577 0 .973-.286 1.334-.68l.433.394c-.433.5-.974.858-1.803.858-1.262.035-2.236-1.037-2.236-2.288zM149.491 31.766h-1.586v-.572h3.857v.572h-1.586v3.825h-.685v-3.825zM152.7 31.158h.649v3.504l2.632-3.504h.649v4.397h-.613v-3.503l-2.668 3.503h-.649v-4.397z"/></g><defs><clipPath id="a"><path fill="#fff" d="M0 0h200v50H0z"/></clipPath></defs></svg>