<svg width="200" height="50" fill="none" xmlns="http://www.w3.org/2000/svg"><g clip-path="url(#a)"><path fill-rule="evenodd" clip-rule="evenodd" d="M104.097 24.796v8.21c0 .192-.046.288-.091.336-.046.049-.185.096-.368.096h-2.019c-.322 0-.459-.144-.459-.432v-8.21h-2.891c-.276 0-.413-.144-.413-.48v-1.537c0-.192.046-.336.091-.384.046-.048.138-.096.322-.096h8.765c.184 0 .276.048.321.096.046.048.092.192.092.384v1.537c0 .288-.137.48-.413.48h-2.937zm11.473 10.467c-.321.96-.78 1.68-1.331 2.113-.596.432-1.33.624-2.294.624-.276 0-.597 0-.964-.048s-.734-.096-1.056-.24c-.183-.048-.275-.096-.321-.144-.046-.048-.046-.144 0-.336l.367-1.68c.046-.193.093-.24.138-.289h.322c.229.048.413.048.55.096h.459c.459 0 .826-.096 1.102-.24.275-.144.459-.48.642-.96l.367-1.153h-.596c-.322 0-.551-.048-.689-.192-.138-.096-.275-.384-.367-.72l-3.075-9.411c-.046-.144-.046-.24 0-.336.046-.048.138-.096.275-.096h2.387c.183 0 .321.048.413.096.092.048.137.144.183.288l1.056 4.321.964 3.698h.137l1.056-3.746 1.239-4.177c.046-.144.092-.288.183-.336.047-.048.185-.096.414-.096h2.432c.23 0 .321.096.23.336l-4.223 12.628zm10.372-4.417c.413 0 .872-.048 1.286-.144.413-.096.78-.193 1.055-.337.183-.048.275-.095.367-.095.046 0 .138.096.184.288l.551 1.584c.045.144.091.24.091.336 0 .096-.091.192-.23.24a5.444 5.444 0 0 1-1.927.672 8.797 8.797 0 0 1-1.835.193c-1.607 0-2.8-.48-3.626-1.441-.826-.96-1.239-2.4-1.239-4.321 0-.913.138-1.729.367-2.45.23-.72.551-1.344 1.01-1.872a3.606 3.606 0 0 1 1.606-1.152c.642-.288 1.33-.384 2.111-.384.551 0 1.147.048 1.698.192.551.144 1.055.288 1.514.528.184.096.276.144.276.24 0 .048 0 .192-.092.384l-.551 1.633c-.046.144-.137.24-.229.24s-.23 0-.413-.048c-.367-.096-.688-.192-1.056-.288-.367-.096-.642-.096-.963-.096a2.11 2.11 0 0 0-1.01.24c-.276.192-.505.384-.689.672a2.403 2.403 0 0 0-.367 1.008 5.09 5.09 0 0 0-.137 1.2c0 .433.046.865.091 1.201.046.384.184.672.367.96.184.288.413.48.689.625.276.144.643.192 1.101.192zm10.143.24c.413 0 .78-.096 1.055-.24.276-.144.505-.384.689-.625.184-.288.275-.576.367-.912.046-.336.092-.672.092-1.008 0-.288-.046-.624-.092-.96a2.381 2.381 0 0 0-.275-.865c-.138-.24-.322-.48-.597-.624-.23-.144-.551-.24-.964-.24a2.96 2.96 0 0 0-1.101.192c-.413.096-.735.288-1.056.48-.046.432-.091.816-.091 1.152v.96c0 .385.045.721.091 1.057.046.336.184.624.321.864.138.24.368.433.597.577.229.144.551.192.964.192zm1.193-8.019c.78 0 1.377.144 1.927.384.505.288.919.624 1.24 1.105.321.48.55 1.008.688 1.632.138.624.229 1.297.229 1.969 0 .672-.091 1.344-.275 1.968-.183.625-.505 1.2-.917 1.729-.413.528-.965.912-1.653 1.248-.688.337-1.514.48-2.478.48-1.102 0-2.019-.144-2.662-.48-.688-.336-1.193-.768-1.56-1.344-.368-.576-.597-1.2-.735-1.92-.137-.721-.183-1.441-.183-2.257 0-1.153.046-2.257.183-3.265a8.818 8.818 0 0 1 .643-2.641c.321-.769.78-1.44 1.422-1.969.597-.528 1.377-.96 2.387-1.2a22.548 22.548 0 0 1 1.698-.433c.642-.144 1.377-.288 2.111-.432a.28.28 0 0 1 .275 0c.092 0 .139.096.139.24l.413 1.777c.045.192.045.288 0 .336a.347.347 0 0 1-.184.096c-.459.144-.872.24-1.239.288-.367.048-.689.144-1.056.24-.642.144-1.147.288-1.56.48-.414.144-.735.337-.964.577-.23.24-.459.528-.551.816-.137.336-.183.72-.229 1.2h.046l.046.048c.458-.336.963-.528 1.468-.672.413.096.872 0 1.331 0zm19.872 9.94c0 .191-.046.288-.092.335-.046.049-.184.096-.367.096h-2.02c-.275 0-.458-.144-.458-.432V22.683c0-.288.137-.384.458-.384h2.02c.183 0 .321.048.367.096.046.048.092.144.092.336v3.65h3.809v-3.65c0-.288.138-.384.459-.384h2.065c.184 0 .322.048.367.096.046.048.092.144.092.336v10.323c0 .193-.046.289-.092.337-.045.047-.183.096-.367.096h-2.065c-.321 0-.459-.144-.459-.433V28.83h-3.809v4.177zm-63.425-4.658H92.12c-.184 0-.413 0-.597.048a2.205 2.205 0 0 0-.597.192c-.183.096-.32.24-.458.48-.138.192-.184.48-.184.816 0 .48.138.865.459 1.057.322.192.735.288 1.285.288h.321c.138 0 .276 0 .46-.048.137 0 .32-.048.458-.096a5.54 5.54 0 0 0 .46-.144v-2.593zm2.983 3.697c0 .192-.046.336-.092.48-.045.144-.183.24-.367.384-.32.144-.642.288-1.01.385a9.032 9.032 0 0 1-1.1.24c-.368.048-.735.096-1.148.144-.367.048-.734.048-1.102.048-.918 0-1.698-.096-2.294-.288-.597-.193-1.102-.433-1.469-.769s-.642-.72-.78-1.152a4.63 4.63 0 0 1-.23-1.393c0-.576.092-1.056.276-1.536.184-.48.459-.864.78-1.2.368-.337.78-.625 1.331-.817.55-.192 1.194-.288 1.928-.288h2.248v-.336c0-.192 0-.384-.045-.576a1.01 1.01 0 0 0-.276-.48c-.138-.144-.321-.24-.55-.336-.23-.097-.551-.145-.919-.145-.183 0-.458 0-.688.048-.276 0-.504.049-.78.097-.276.047-.505.096-.734.144-.23.048-.46.096-.643.144-.183.048-.321.048-.367 0-.046-.048-.138-.144-.138-.288l-.321-1.489c-.046-.144-.046-.288 0-.336a.49.49 0 0 1 .23-.144c.596-.24 1.239-.384 1.927-.48.689-.096 1.33-.144 2.02-.144 1.468 0 2.57.336 3.258 1.008.688.672 1.055 1.633 1.055 2.929v6.146zm52.319-3.697h-1.606c-.184 0-.413 0-.597.048a2.194 2.194 0 0 0-.596.192c-.184.096-.322.24-.46.48-.137.192-.183.48-.183.816 0 .48.137.865.459 1.057.321.192.734.288 1.285.288h.321c.138 0 .275 0 .459-.048.137 0 .321-.048.459-.096.184-.048.321-.096.459-.144v-2.593zm2.937 3.697c0 .192-.046.336-.092.48-.046.144-.183.24-.367.384-.321.144-.642.288-1.009.385-.368.096-.735.191-1.102.24a74.94 74.94 0 0 1-1.148.144c-.367.048-.734.048-1.101.048-.917 0-1.698-.096-2.294-.288-.597-.193-1.102-.433-1.469-.769s-.643-.72-.78-1.152a4.637 4.637 0 0 1-.23-1.393c0-.576.092-1.056.276-1.536.183-.48.459-.864.78-1.2.367-.337.78-.625 1.331-.817.55-.192 1.193-.288 1.927-.288h2.249v-.336c0-.192 0-.384-.046-.576a1.004 1.004 0 0 0-.275-.48c-.138-.144-.322-.24-.551-.336-.23-.097-.551-.145-.918-.145-.183 0-.459 0-.689.048-.274 0-.504.049-.78.097-.275.047-.504.096-.734.144-.229.048-.458.096-.643.144-.183.048-.321.048-.367 0-.045-.048-.137-.144-.137-.288l-.321-1.489c-.046-.144-.046-.288 0-.336a.48.48 0 0 1 .229-.144c.596-.24 1.239-.384 1.928-.48a14.265 14.265 0 0 1 2.019-.144c1.469 0 2.57.336 3.259 1.008.688.672 1.055 1.633 1.055 2.929v6.146zm20.836-6.05 3.167 7.01c.091.288 0 .432-.322.432h-2.387a.688.688 0 0 1-.367-.096c-.091-.047-.183-.144-.229-.336l-1.928-4.561-1.56 1.825v2.736c0 .144-.046.24-.092.336-.046.049-.183.096-.367.096h-2.111c-.275 0-.413-.144-.413-.384V22.683c0-.144.046-.24.092-.288.046-.048.183-.096.321-.096h2.111c.184 0 .321 0 .367.048.046.048.046.144.046.336v3.409l.092.048 2.937-3.65c.092-.095.184-.191.276-.24.091-.047.229-.047.412-.047h2.479c.183 0 .275.048.321.144 0 .096 0 .192-.092.288l-2.753 3.361zm-89.768-1.2v8.21c0 .192-.046.288-.092.336-.046.049-.183.096-.367.096h-2.02c-.32 0-.458-.144-.458-.432v-8.21h-2.891c-.276 0-.413-.144-.413-.48v-1.537c0-.192.045-.336.091-.384.046-.048.138-.096.322-.096h8.765c.184 0 .276.048.321.096.046.048.092.192.092.384v1.537c0 .288-.138.48-.413.48h-2.937zM71.696 30.75c.643 0 1.24-.096 1.744-.24.505-.145.964-.337 1.423-.48.183-.097.321-.097.413-.049.092.048.138.144.23.288l.688 1.537c.092.192.138.336.092.432-.046.096-.092.192-.23.24-.734.48-1.514.768-2.294.96-.827.145-1.607.24-2.387.24-1.101 0-2.065-.191-2.891-.528a4.887 4.887 0 0 1-1.974-1.488 6.392 6.392 0 0 1-1.147-2.4c-.23-.961-.367-2.018-.367-3.17 0-1.152.138-2.209.459-3.169s.78-1.777 1.33-2.449c.551-.672 1.24-1.2 2.066-1.584a6.187 6.187 0 0 1 2.662-.576c.688 0 1.376.047 2.019.192.643.144 1.33.384 1.928.72.137.096.229.192.275.24.046.096 0 .24-.092.48l-.642 1.488c-.046.193-.138.337-.23.385-.092.048-.23.048-.413-.048-.505-.193-.918-.337-1.377-.433a6.219 6.219 0 0 0-1.422-.143c-.551 0-1.056.143-1.469.383a3.08 3.08 0 0 0-1.056 1.009c-.275.432-.504.96-.642 1.536a8.446 8.446 0 0 0-.23 1.921c0 .672.046 1.345.184 1.873.138.576.321 1.056.597 1.488.275.432.642.72 1.101.96.459.24 1.01.385 1.652.385z" fill="#B0CA1F"/><path d="M54.53 17.573c.181-.192.59.096 1.314.862.318.335.544.623.68.862.136.24.182.383.182.431l-.046.096-15.093 15.95c-.182.192-.59-.143-1.315-.91-.317-.335-.544-.622-.68-.862s-.181-.383-.181-.43l.045-.097A4859.272 4859.272 0 0 0 54.53 17.573z" fill="#5AA8B4"/><path fill-rule="evenodd" clip-rule="evenodd" d="M32.911 35.775c-.181.19-.59-.144-1.315-.907-.318-.334-.545-.62-.681-.86-.136-.238-.181-.381-.181-.429l.045-.095 19.42-20.427c.181-.19.59.096 1.316.86.317.333.544.62.68.858.136.239.182.382.182.43l-.046.095a2694.35 2694.35 0 0 1-19.42 20.475zM26.044 29.18l-.416-.434-1.573-1.64c-.184-.193.093-.628.833-1.4.324-.337.601-.578.832-.723.232-.145.37-.193.417-.193l.092.048 1.573 1.64.416.435 1.988 2.074.047.096c0 .049-.047.193-.186.435-.138.24-.37.53-.693.868-.74.772-1.156 1.061-1.341.868l-1.989-2.074z" fill="#B0CA1F"/><path d="m30.373 24.665-.416-.434-1.573-1.64c-.185-.194.093-.628.833-1.4.323-.337.6-.578.832-.723.231-.145.37-.193.416-.193l.093.048 1.572 1.64.416.434 1.989 2.075.046.096c0 .048-.046.193-.185.434-.139.242-.37.531-.693.869-.74.771-1.157 1.06-1.342.868l-1.988-2.074z" fill="#5AA8B4"/></g><defs><clipPath id="a"><path fill="#fff" transform="translate(24 13)" d="M0 0h152v25H0z"/></clipPath></defs></svg>