<svg width="200" height="50" fill="none" xmlns="http://www.w3.org/2000/svg"><path fill-rule="evenodd" clip-rule="evenodd" d="m55.64 9.88-1.412 3.925h19.55l1.41-3.925H55.639zm-2.117 5.886-1.41 3.924H71.66l1.41-3.924H53.523zm-2.112 5.887L50 25.577h19.549l1.41-3.924H51.41z" fill="#009FDF"/><mask id="a" mask-type="alpha" maskUnits="userSpaceOnUse" x="79" y="15" width="54" height="25"><path d="M79.33 39.884h53.512V15.842H79.329v24.042z" fill="#fff"/></mask><g mask="url(#a)"><path fill-rule="evenodd" clip-rule="evenodd" d="M91.56 27.073v.082c.893.333 1.746.916 2.193 1.29 1.382 1.165 1.992 2.704 1.992 4.7 0 3.287-1.707 5.658-4.51 6.407-.854.25-1.748.333-3.414.333h-8.492V15.842h7.517c1.544 0 2.6.083 3.535.332 2.723.749 4.51 2.663 4.51 5.699 0 1.622-.569 2.995-1.503 3.91a5.7 5.7 0 0 1-1.829 1.29zm-7.517 2.537v6.323h3.25c.975 0 1.869-.083 2.52-.708.65-.624.934-1.414.934-2.454 0-.79-.204-1.539-.61-2.08-.69-.873-1.544-1.081-3.006-1.081h-3.088zm-.041-4.16h2.64c.813 0 1.22 0 1.626-.125 1.098-.333 1.788-1.33 1.788-2.703 0-1.622-.731-2.33-1.788-2.662-.447-.125-.894-.167-1.788-.167h-2.478v5.657zm18.812 14.435V19.876h-6.785v-4.034h18.854l-1.341 4.034h-6.014v20.009h-4.714zm13.531 0V15.842h15.278l-1.34 4.034h-9.265v5.325h3.779c3.047 0 4.632.749 5.729 1.705.854.749 2.316 2.413 2.316 5.7 0 3.244-1.503 5.032-2.763 5.947-1.462 1.04-3.006 1.332-6.135 1.332h-7.599zm4.673-4.035h3.536c1.34 0 2.153-.333 2.721-1.082.285-.374.691-1.04.691-2.288 0-1.248-.406-2.121-1.219-2.746-.487-.374-1.137-.581-2.234-.581h-3.495v6.697z" fill="#0A2973"/></g></svg>