<svg width="200" height="50" fill="none" xmlns="http://www.w3.org/2000/svg"><path d="M85.398 19.762c1.848 0 3.442 1.104 4.191 2.671h-8.393c.76-1.571 2.355-2.671 4.202-2.671zm5.69 5.422h1.629c.023-.224.035-.456.035-.68 0-4.122-3.29-7.45-7.35-7.45-4.059 0-7.35 3.332-7.35 7.45 0 4.11 3.291 7.441 7.35 7.441 3.376 0 6.217-2.306 7.074-5.445H89.64c-.75 1.615-2.364 2.762-4.234 2.762-2.355 0-4.3-1.792-4.63-4.075H91.089v-.003zM107.498 17.055H93.815v14.89h2.464V19.762h11.219v-2.707zM64.083 29.238c-2.584 0-4.676-2.125-4.676-4.746 0-2.605 2.092-4.734 4.676-4.734s4.676 2.125 4.676 4.734c-.004 2.617-2.092 4.746-4.676 4.746zm0-12.297a7.267 7.267 0 0 0-4.688 1.705v-1.591h-2.662V36h2.662v-5.882c1.277 1.069 2.903 1.827 4.688 1.827 4.059 0 7.35-3.32 7.35-7.43 0-4.109-3.291-7.574-7.35-7.574zM48.022 19.762c1.847 0 3.442 1.104 4.202 2.671H43.82c.76-1.571 2.355-2.671 4.203-2.671zm5.684 5.422h1.63c.024-.224.035-.456.035-.68 0-4.122-3.29-7.45-7.35-7.45-4.058 0-7.349 3.332-7.349 7.45 0 4.11 3.29 7.43 7.35 7.43 3.356 0 6.181-2.26 7.062-5.38h-2.848c-.76 1.592-2.356 2.684-4.214 2.684-2.356 0-4.292-1.772-4.622-4.054h10.306zM73.012 13v4.055h-1.374v2.707h1.374v12.183h2.674V19.762h2.63v-2.707h-2.63V13h-2.674z" fill="#131414"/><path d="M40.707 17.055H26v2.707h11.35l-7.345 9.476v2.707H40.684v-2.683h-7.346l7.369-9.5h.012v-.012l.011-.012-.011-.012v-2.671h-.012zM137.261 19.762c2.584 0 4.676 2.184 4.676 4.8a4.68 4.68 0 0 1-4.676 4.7 4.68 4.68 0 0 1-4.676-4.7c.004-2.62 2.091-4.8 4.676-4.8zm.077 12.183c1.793 0 3.442-.589 4.719-1.658v1.658h2.693v-14.89h-2.693v1.638a7.274 7.274 0 0 0-4.719-1.717c-4.101 0-7.423 3.363-7.423 7.508 0 4.153 3.322 7.461 7.423 7.461zM153.245 19.77c2.343 0 3.585 1.547 3.585 3.866v8.31h2.674V23.58c0-4.122-2.651-6.628-6.259-6.628-1.782 0-2.981.777-4.257 1.838v-1.725h-2.674v14.88h2.674V24.55c0-2.628 1.924-4.781 4.257-4.781zM121.491 19.762c2.584 0 4.676 2.184 4.676 4.8a4.673 4.673 0 0 1-4.676 4.7 4.672 4.672 0 0 1-4.676-4.7c0-2.616 2.087-4.8 4.676-4.8zm.085 12.183c4.102 0 7.435-3.32 7.435-7.473 0-4.152-3.333-7.527-7.435-7.527a7.343 7.343 0 0 0-4.742 1.724l.012-5.669h-2.705v18.945h2.693v-1.67c1.288 1.077 2.938 1.67 4.742 1.67zM172.142 17.055l-5.324 7.017L173 31.945h-3.43l-5.899-7.72h-.054v7.72h-2.74V13h2.74v11.225h.054l5.216-7.17h3.255z" fill="#131414"/><path d="M107.498 31.945h-7.35l7.35-7.441v7.441z" fill="#C3392B"/></svg>